<?xml version="1.0" encoding="utf-8"?>
<!-- Generator: Adobe Illustrator 22.0.0, SVG Export Plug-In . SVG Version: 6.00 Build 0)  -->
<svg version="1.1" id="Layer_1" xmlns="http://www.w3.org/2000/svg" xmlns:xlink="http://www.w3.org/1999/xlink" x="0px" y="0px"
	 viewBox="0 0 595.3 841.9" style="enable-background:new 0 0 595.3 841.9;" xml:space="preserve">
<g>
	<path d="M70,536.2l1.7-0.1h3.2v0.5H70V536.2z M71.8,535.5c0-1.5,0.7-2.3,2.2-2.3c0.5,0,1,0.1,1.6,0.4l-0.2,0.4
		c-0.5-0.2-0.9-0.3-1.4-0.3c-1.2,0-1.7,0.7-1.7,1.8v6.5h-0.5V535.5z"/>
	<path d="M76.6,539.1c0-1.9,1.3-3,2.8-3c1.5,0,2.8,1.1,2.8,3c0,1.9-1.3,3-2.8,3C77.9,542.1,76.6,541,76.6,539.1z M81.7,539.1
		c0-1.5-0.9-2.6-2.2-2.6s-2.2,1-2.2,2.6c0,1.5,0.9,2.5,2.2,2.5S81.7,540.6,81.7,539.1z"/>
	<path d="M85,536.2h0.5l0.1,1.4h0c0.6-0.9,1.6-1.6,2.7-1.6c0.4,0,0.8,0.1,1.2,0.2l-0.1,0.5c-0.4-0.1-0.6-0.2-1.1-0.2
		c-1,0-1.8,0.5-2.6,1.8v3.6H85V536.2z"/>
	<path d="M100.1,538.6c0-2.4,1.1-4.2,2.8-5.4l0.3,0.3c-1.7,1.3-2.5,3-2.5,5.1c0,2.1,0.8,3.8,2.5,5.1l-0.3,0.3
		C101.2,542.8,100.1,541,100.1,538.6z"/>
	<path d="M108.7,536.6h-2.9v-0.5h3.4v5.8h-0.5V536.6z M108.3,534.2c0-0.4,0.2-0.6,0.6-0.6c0.3,0,0.6,0.2,0.6,0.6
		c0,0.4-0.2,0.6-0.6,0.6C108.5,534.8,108.3,534.6,108.3,534.2z"/>
	<path d="M113.1,536.2h0.4l0.1,1.1h0c0.7-0.7,1.3-1.2,2.3-1.2c1.4,0,2.1,0.8,2.1,2.3v3.6h-0.5v-3.5c0-1.3-0.5-1.9-1.6-1.9
		c-0.8,0-1.4,0.4-2.2,1.3v4.1h-0.5V536.2z"/>
	<path d="M121.7,539.8v-3.1H120v-0.4l1.8-0.1l0.1-1.9h0.5v1.9h3.1v0.5h-3.1v3.2c0,1.1,0.3,1.8,1.6,1.8c0.6,0,1.1-0.1,1.5-0.3
		l0.1,0.4c-0.5,0.2-1,0.4-1.8,0.4C122.2,542.1,121.7,541.2,121.7,539.8z"/>
	<path d="M137.5,536.6h-2.9v-0.5h3.4v5.8h-0.5V536.6z M137.1,534.2c0-0.4,0.2-0.6,0.6-0.6c0.3,0,0.6,0.2,0.6,0.6
		c0,0.4-0.2,0.6-0.6,0.6C137.3,534.8,137.1,534.6,137.1,534.2z"/>
	<path d="M141.8,536.5h4.9v0.4h-4.9V536.5z M141.8,539h4.9v0.4h-4.9V539z"/>
	<path d="M148.8,538.1c0-2.5,1-4,2.6-4c1.7,0,2.6,1.4,2.6,4c0,2.5-1,4-2.6,4C149.8,542.1,148.8,540.6,148.8,538.1z M153.5,538.1
		c0-2.3-0.9-3.5-2.1-3.5c-1.2,0-2.1,1.2-2.1,3.5c0,2.3,0.9,3.5,2.1,3.5C152.7,541.6,153.5,540.4,153.5,538.1z M150.8,538
		c0-0.5,0.3-0.7,0.7-0.7c0.3,0,0.7,0.3,0.7,0.7c0,0.5-0.3,0.7-0.7,0.7C151.1,538.7,150.8,538.4,150.8,538z"/>
	<path d="M157.5,544.1c1-0.5,1.5-1.2,1.5-2.3l-0.3-0.9l0.6,0.8c-0.2,0.2-0.4,0.3-0.6,0.3c-0.4,0-0.7-0.2-0.7-0.7
		c0-0.5,0.3-0.7,0.7-0.7c0.6,0,0.8,0.5,0.8,1.2c0,1.3-0.7,2.2-1.9,2.7L157.5,544.1z M157.9,536.8c0-0.5,0.3-0.8,0.7-0.8
		c0.4,0,0.7,0.3,0.7,0.8c0,0.5-0.3,0.8-0.7,0.8C158.3,537.6,157.9,537.3,157.9,536.8z"/>
	<path d="M173.5,536.6h-2.9v-0.5h3.4v5.8h-0.5V536.6z M173.1,534.2c0-0.4,0.2-0.6,0.6-0.6c0.3,0,0.6,0.2,0.6,0.6
		c0,0.4-0.2,0.6-0.6,0.6C173.3,534.8,173.1,534.6,173.1,534.2z"/>
	<path d="M178.1,538.2v-0.5l4.4-3v0.6l-3.9,2.7v0l3.9,2.7v0.6L178.1,538.2z"/>
	<path d="M184.6,541l0.3-0.4c0.5,0.5,1.2,1,2.4,1c1.2,0,2.1-0.7,2.1-1.7c0-1.1-0.9-1.8-3.1-1.8v-0.5c2,0,2.8-0.7,2.8-1.7
		c0-0.9-0.8-1.4-1.8-1.4c-0.8,0-1.5,0.4-2,0.8l-0.3-0.4c0.6-0.5,1.4-0.9,2.4-0.9c1.3,0,2.4,0.7,2.4,1.9c0,1-0.8,1.6-1.7,1.9v0
		c1.1,0.2,2,0.9,2,2c0,1.3-1.2,2.2-2.6,2.2C186,542.1,185.2,541.5,184.6,541z"/>
	<path d="M192.1,538.5c0-3.2,1.5-4.3,3.2-4.3c0.8,0,1.5,0.3,2,0.7l-0.3,0.4c-0.4-0.4-1-0.6-1.6-0.6c-1.4,0-2.6,1-2.6,3.9
		c0,1.9,0.7,3.2,2.3,3.2c1.1,0,1.9-0.8,1.9-1.9c0-1.2-0.6-1.9-1.9-1.9c-0.7,0-1.6,0.3-2.3,1.2l0-0.6c0.7-0.7,1.5-1.1,2.4-1.1
		c1.5,0,2.4,0.8,2.4,2.4c0,1.4-1.1,2.4-2.4,2.4C193.2,542.1,192.1,540.8,192.1,538.5z"/>
	<path d="M199.2,538.1c0-2.5,1-4,2.6-4c1.7,0,2.6,1.4,2.6,4c0,2.5-1,4-2.6,4C200.2,542.1,199.2,540.6,199.2,538.1z M203.9,538.1
		c0-2.3-0.9-3.5-2.1-3.5c-1.2,0-2.1,1.2-2.1,3.5c0,2.3,0.9,3.5,2.1,3.5C203.1,541.6,203.9,540.4,203.9,538.1z M201.2,538
		c0-0.5,0.3-0.7,0.7-0.7c0.3,0,0.7,0.3,0.7,0.7c0,0.5-0.3,0.7-0.7,0.7C201.5,538.7,201.2,538.4,201.2,538z"/>
	<path d="M207.9,544.1c1-0.5,1.5-1.2,1.5-2.3l-0.3-0.9l0.6,0.8c-0.2,0.2-0.4,0.3-0.6,0.3c-0.4,0-0.7-0.2-0.7-0.7
		c0-0.5,0.3-0.7,0.7-0.7c0.6,0,0.8,0.5,0.8,1.2c0,1.3-0.7,2.2-1.9,2.7L207.9,544.1z M208.3,536.8c0-0.5,0.3-0.8,0.7-0.8
		c0.4,0,0.7,0.3,0.7,0.8c0,0.5-0.3,0.8-0.7,0.8C208.7,537.6,208.3,537.3,208.3,536.8z"/>
	<path d="M223.9,536.6H221v-0.5h3.4v5.8h-0.5V536.6z M223.5,534.2c0-0.4,0.2-0.6,0.6-0.6c0.3,0,0.6,0.2,0.6,0.6
		c0,0.4-0.2,0.6-0.6,0.6C223.7,534.8,223.5,534.6,223.5,534.2z"/>
	<path d="M230.4,538.2h-2.2v-0.4h2.2v-2.4h0.5v2.4h2.2v0.4h-2.2v2.4h-0.5V538.2z"/>
	<path d="M237.6,538.2h-2.2v-0.4h2.2v-2.4h0.5v2.4h2.2v0.4h-2.2v2.4h-0.5V538.2z"/>
	<path d="M242.9,543.7c1.7-1.3,2.5-3,2.5-5.1c0-2.1-0.8-3.8-2.5-5.1l0.3-0.3c1.7,1.2,2.8,3.1,2.8,5.4c0,2.3-1.1,4.2-2.8,5.4
		L242.9,543.7z"/>
	<path d="M259.1,542.2c0-0.9,0.1-1.6,0.1-2.5c0-0.5-0.3-1-1.8-1v-0.4c1.5,0,1.8-0.5,1.8-1c0-0.8-0.1-1.7-0.1-2.5
		c0-1.2,0.7-1.5,2.2-1.5h0.6v0.3h-0.7c-1.4,0-1.6,0.4-1.6,1.2c0,0.7,0.1,1.5,0.1,2.3c0,0.7-0.2,1.1-1,1.2v0c0.8,0.1,1,0.6,1,1.2
		c0,0.9-0.1,1.5-0.1,2.3c0,0.8,0.3,1.2,1.6,1.2h0.7v0.3h-0.6C259.8,543.8,259.1,543.4,259.1,542.2z"/>
	<path d="M98.8,550.6l1.7-0.1h3.2v0.5h-4.9V550.6z M100.5,549.9c0-1.5,0.7-2.3,2.2-2.3c0.5,0,1,0.1,1.6,0.4l-0.2,0.4
		c-0.5-0.2-0.9-0.3-1.4-0.3c-1.2,0-1.7,0.7-1.7,1.8v6.5h-0.5V549.9z"/>
	<path d="M107.9,554.6v-6.4h-2.2v-0.5h2.7v7c0,0.9,0.4,1.3,1.3,1.3c0.4,0,0.8-0.1,1.2-0.3l0.2,0.4c-0.5,0.2-0.9,0.4-1.4,0.4
		C108.5,556.5,107.9,555.9,107.9,554.6z"/>
	<path d="M112.6,553.5c0-1.9,1.3-3,2.8-3c1.5,0,2.8,1.1,2.8,3c0,1.9-1.3,3-2.8,3C113.9,556.5,112.6,555.4,112.6,553.5z M117.7,553.5
		c0-1.5-0.9-2.6-2.2-2.6s-2.2,1-2.2,2.6c0,1.5,0.9,2.5,2.2,2.5S117.7,555,117.7,553.5z"/>
	<path d="M120.1,554.9c0-1.3,1.3-1.9,4.4-2.2c0-0.9-0.4-1.8-1.7-1.8c-0.9,0-1.7,0.4-2.2,0.8l-0.2-0.4c0.5-0.3,1.5-0.9,2.5-0.9
		c1.5,0,2.2,1,2.2,2.2v3.7h-0.5l-0.1-0.9h0c-0.7,0.5-1.6,1-2.4,1C121.1,556.5,120.1,556,120.1,554.9z M124.6,555v-1.8
		c-2.9,0.3-3.9,0.8-3.9,1.7c0,0.8,0.8,1.1,1.6,1.1C123,556,123.7,555.7,124.6,555z"/>
	<path d="M128.9,554.2V551h-1.7v-0.4l1.8-0.1l0.1-1.9h0.5v1.9h3.1v0.5h-3.1v3.2c0,1.1,0.3,1.8,1.6,1.8c0.6,0,1.1-0.1,1.5-0.3
		l0.1,0.4c-0.5,0.2-1,0.4-1.8,0.4C129.4,556.5,128.9,555.6,128.9,554.2z"/>
	<path d="M143.9,553.4l-2.1-2.8h0.6l1.1,1.5c0.2,0.3,0.5,0.7,0.7,1h0c0.2-0.3,0.5-0.7,0.8-1l1.1-1.4h0.6l-2.1,2.8l2.3,3h-0.6
		l-1.2-1.6c-0.3-0.3-0.5-0.7-0.8-1.1h0c-0.3,0.4-0.5,0.7-0.8,1.1l-1.2,1.5h-0.6L143.9,553.4z"/>
	<path d="M156.2,550.9h4.9v0.4h-4.9V550.9z M156.2,553.4h4.9v0.4h-4.9V553.4z"/>
	<path d="M173.5,551h-2.9v-0.5h3.4v5.8h-0.5V551z M173.1,548.6c0-0.4,0.2-0.6,0.6-0.6c0.3,0,0.6,0.2,0.6,0.6c0,0.4-0.2,0.6-0.6,0.6
		C173.3,549.2,173.1,549,173.1,548.6z"/>
	<path d="M178.4,554.6l1.4-2l-2-0.9l0.1-0.4l2,0.7l0.1-2.3h0.4l0.1,2.3l2-0.7l0.1,0.4l-2,0.9l1.4,2l-0.3,0.2l-1.5-2l-1.5,2
		L178.4,554.6z"/>
	<path d="M184.8,555.6l0.3-0.4c0.6,0.5,1.4,0.8,2.6,0.8c1.2,0,1.8-0.5,1.8-1.1c0-0.5-0.2-0.9-2-1.3c-1.5-0.3-2.3-0.8-2.3-1.6
		c0-0.8,0.7-1.5,2.2-1.5c0.8,0,1.7,0.3,2.2,0.7l-0.3,0.4c-0.5-0.4-1.2-0.6-2-0.6c-1.3,0-1.7,0.5-1.7,1c0,0.6,0.6,0.9,1.9,1.2
		c2,0.4,2.4,0.9,2.4,1.7c0,0.9-0.9,1.6-2.4,1.6C186.5,556.5,185.5,556.1,184.8,555.6z"/>
	<path d="M195.1,551h-2.9v-0.5h3.4v5.8h-0.5V551z M194.7,548.6c0-0.4,0.2-0.6,0.6-0.6c0.3,0,0.6,0.2,0.6,0.6c0,0.4-0.2,0.6-0.6,0.6
		C194.9,549.2,194.7,549,194.7,548.6z"/>
	<path d="M199.5,550.6h0.4l0.1,1.1h0c0.7-0.7,1.3-1.2,2.3-1.2c1.4,0,2.1,0.8,2.1,2.3v3.6h-0.5v-3.5c0-1.3-0.5-1.9-1.6-1.9
		c-0.8,0-1.4,0.4-2.2,1.3v4.1h-0.5V550.6z"/>
	<path d="M208.1,553c0-2.3,1.1-4.2,2.8-5.4l0.3,0.3c-1.7,1.3-2.5,3-2.5,5.1s0.8,3.8,2.5,5.1l-0.3,0.3
		C209.2,557.2,208.1,555.4,208.1,553z"/>
	<path d="M216.7,551h-2.9v-0.5h3.4v5.8h-0.5V551z M216.3,548.6c0-0.4,0.2-0.6,0.6-0.6c0.3,0,0.6,0.2,0.6,0.6c0,0.4-0.2,0.6-0.6,0.6
		C216.5,549.2,216.3,549,216.3,548.6z"/>
	<path d="M221.3,558.1c1.7-1.3,2.5-3,2.5-5.1s-0.8-3.8-2.5-5.1l0.3-0.3c1.7,1.2,2.8,3.1,2.8,5.4s-1.1,4.2-2.8,5.4L221.3,558.1z"/>
	<path d="M229.5,558.5c1-0.5,1.5-1.2,1.5-2.3l-0.3-0.9l0.6,0.8c-0.2,0.2-0.4,0.3-0.6,0.3c-0.4,0-0.7-0.2-0.7-0.7
		c0-0.5,0.3-0.7,0.7-0.7c0.6,0,0.8,0.5,0.8,1.2c0,1.3-0.7,2.2-1.9,2.7L229.5,558.5z M229.9,551.2c0-0.5,0.3-0.8,0.7-0.8
		c0.4,0,0.7,0.3,0.7,0.8c0,0.5-0.3,0.8-0.7,0.8C230.3,552,229.9,551.7,229.9,551.2z"/>
	<path d="M98.8,565l1.7-0.1h3.2v0.5h-4.9V565z M100.5,564.3c0-1.5,0.7-2.3,2.2-2.3c0.5,0,1,0.1,1.6,0.4l-0.2,0.4
		c-0.5-0.2-0.9-0.3-1.4-0.3c-1.2,0-1.7,0.7-1.7,1.8v6.5h-0.5V564.3z"/>
	<path d="M107.9,569v-6.4h-2.2v-0.5h2.7v7c0,0.9,0.4,1.3,1.3,1.3c0.4,0,0.8-0.1,1.2-0.3l0.2,0.4c-0.5,0.2-0.9,0.4-1.4,0.4
		C108.5,570.9,107.9,570.3,107.9,569z"/>
	<path d="M112.6,567.9c0-1.9,1.3-3,2.8-3c1.5,0,2.8,1.1,2.8,3c0,1.9-1.3,3-2.8,3C113.9,570.9,112.6,569.8,112.6,567.9z M117.7,567.9
		c0-1.5-0.9-2.6-2.2-2.6s-2.2,1-2.2,2.6c0,1.5,0.9,2.5,2.2,2.5S117.7,569.4,117.7,567.9z"/>
	<path d="M120.1,569.3c0-1.3,1.3-1.9,4.4-2.2c0-0.9-0.4-1.8-1.7-1.8c-0.9,0-1.7,0.4-2.2,0.8l-0.2-0.4c0.5-0.3,1.5-0.9,2.5-0.9
		c1.5,0,2.2,1,2.2,2.2v3.7h-0.5l-0.1-0.9h0c-0.7,0.5-1.6,1-2.4,1C121.1,570.9,120.1,570.4,120.1,569.3z M124.6,569.4v-1.8
		c-2.9,0.3-3.9,0.8-3.9,1.7c0,0.8,0.8,1.1,1.6,1.1C123,570.4,123.7,570.1,124.6,569.4z"/>
	<path d="M128.9,568.6v-3.1h-1.7V565l1.8-0.1l0.1-1.9h0.5v1.9h3.1v0.5h-3.1v3.2c0,1.1,0.3,1.8,1.6,1.8c0.6,0,1.1-0.1,1.5-0.3
		l0.1,0.4c-0.5,0.2-1,0.4-1.8,0.4C129.4,570.9,128.9,570,128.9,568.6z"/>
	<path d="M141.4,573.2l0.1-0.5c0.1,0,0.4,0.1,0.6,0.1c0.9,0,1.5-0.6,1.8-1.5l0.2-0.5l-2.8-5.9h0.6l1.7,3.6c0.2,0.5,0.5,1.1,0.8,1.6
		h0c0.2-0.5,0.5-1.1,0.7-1.6l1.5-3.6h0.5l-2.7,6.5c-0.3,1-1.1,1.9-2.3,1.9C141.9,573.4,141.6,573.3,141.4,573.2z"/>
	<path d="M156.2,565.3h4.9v0.4h-4.9V565.3z M156.2,567.8h4.9v0.4h-4.9V567.8z"/>
	<path d="M173.5,565.4h-2.9V565h3.4v5.8h-0.5V565.4z M173.1,563c0-0.4,0.2-0.6,0.6-0.6c0.3,0,0.6,0.2,0.6,0.6c0,0.4-0.2,0.6-0.6,0.6
		C173.3,563.6,173.1,563.4,173.1,563z"/>
	<path d="M178.4,569l1.4-2l-2-0.9l0.1-0.4l2,0.7l0.1-2.3h0.4l0.1,2.3l2-0.7l0.1,0.4l-2,0.9l1.4,2l-0.3,0.2l-1.5-2l-1.5,2L178.4,569z
		"/>
	<path d="M184.9,567.9c0-1.9,1.4-3,3.1-3c1,0,1.6,0.4,2.1,0.9l-0.3,0.4c-0.5-0.5-1-0.8-1.8-0.8c-1.5,0-2.6,1-2.6,2.6
		c0,1.5,1,2.5,2.6,2.5c0.8,0,1.4-0.4,1.9-0.8l0.3,0.4c-0.6,0.6-1.3,0.9-2.2,0.9C186.2,570.9,184.9,569.8,184.9,567.9z"/>
	<path d="M191.8,567.9c0-1.9,1.3-3,2.8-3c1.5,0,2.8,1.1,2.8,3c0,1.9-1.3,3-2.8,3C193.1,570.9,191.8,569.8,191.8,567.9z M196.9,567.9
		c0-1.5-0.9-2.6-2.2-2.6s-2.2,1-2.2,2.6c0,1.5,0.9,2.5,2.2,2.5S196.9,569.4,196.9,567.9z"/>
	<path d="M199.2,570l0.3-0.4c0.6,0.5,1.4,0.8,2.6,0.8c1.2,0,1.8-0.5,1.8-1.1c0-0.5-0.2-0.9-2-1.3c-1.5-0.3-2.3-0.8-2.3-1.6
		c0-0.8,0.7-1.5,2.2-1.5c0.8,0,1.7,0.3,2.2,0.7l-0.3,0.4c-0.5-0.4-1.2-0.6-2-0.6c-1.3,0-1.7,0.5-1.7,1c0,0.6,0.6,0.9,1.9,1.2
		c2,0.4,2.4,0.9,2.4,1.7c0,0.9-0.9,1.6-2.4,1.6C200.9,570.9,199.9,570.5,199.2,570z"/>
	<path d="M208.1,567.4c0-2.3,1.1-4.2,2.8-5.4l0.3,0.3c-1.7,1.3-2.5,3-2.5,5.1s0.8,3.8,2.5,5.1l-0.3,0.3
		C209.2,571.6,208.1,569.8,208.1,567.4z"/>
	<path d="M216.7,565.4h-2.9V565h3.4v5.8h-0.5V565.4z M216.3,563c0-0.4,0.2-0.6,0.6-0.6c0.3,0,0.6,0.2,0.6,0.6c0,0.4-0.2,0.6-0.6,0.6
		C216.5,563.6,216.3,563.4,216.3,563z"/>
	<path d="M221.3,572.5c1.7-1.3,2.5-3,2.5-5.1s-0.8-3.8-2.5-5.1l0.3-0.3c1.7,1.2,2.8,3.1,2.8,5.4s-1.1,4.2-2.8,5.4L221.3,572.5z"/>
	<path d="M229.5,572.9c1-0.5,1.5-1.2,1.5-2.3l-0.3-0.9l0.6,0.8c-0.2,0.2-0.4,0.3-0.6,0.3c-0.4,0-0.7-0.2-0.7-0.7
		c0-0.5,0.3-0.7,0.7-0.7c0.6,0,0.8,0.5,0.8,1.2c0,1.3-0.7,2.2-1.9,2.7L229.5,572.9z M229.9,565.6c0-0.5,0.3-0.8,0.7-0.8
		c0.4,0,0.7,0.3,0.7,0.8c0,0.5-0.3,0.8-0.7,0.8C230.3,566.4,229.9,566.1,229.9,565.6z"/>
	<path d="M98.4,584.4l0.3-0.4c0.6,0.5,1.4,0.8,2.6,0.8c1.2,0,1.8-0.5,1.8-1.1c0-0.5-0.2-0.9-2-1.3c-1.5-0.3-2.3-0.8-2.3-1.6
		c0-0.8,0.7-1.5,2.2-1.5c0.8,0,1.7,0.3,2.2,0.7l-0.3,0.4c-0.5-0.4-1.2-0.6-2-0.6c-1.3,0-1.7,0.5-1.7,1c0,0.6,0.6,0.9,1.9,1.2
		c2,0.4,2.4,0.9,2.4,1.7c0,0.9-0.9,1.6-2.4,1.6C100.1,585.3,99.1,584.9,98.4,584.4z"/>
	<path d="M107.3,583v-3.1h-1.7v-0.4l1.8-0.1l0.1-1.9h0.5v1.9h3.1v0.5h-3.1v3.2c0,1.1,0.3,1.8,1.6,1.8c0.6,0,1.1-0.1,1.5-0.3l0.1,0.4
		c-0.5,0.2-1,0.4-1.8,0.4C107.8,585.3,107.3,584.4,107.3,583z"/>
	<path d="M113.8,579.4h0.5l0.1,1.4h0c0.6-0.9,1.6-1.6,2.7-1.6c0.4,0,0.8,0.1,1.2,0.2L118,580c-0.4-0.1-0.6-0.2-1.1-0.2
		c-1,0-1.8,0.5-2.6,1.8v3.6h-0.5V579.4z"/>
	<path d="M119.8,582.3c0-1.9,1.3-3,2.8-3c1.5,0,2.8,1.1,2.8,3c0,1.9-1.3,3-2.8,3C121.1,585.3,119.8,584.2,119.8,582.3z M124.9,582.3
		c0-1.5-0.9-2.6-2.2-2.6s-2.2,1-2.2,2.6c0,1.5,0.9,2.5,2.2,2.5S124.9,583.8,124.9,582.3z"/>
	<path d="M127.7,576.5h0.5v6.3h0l3.7-3.5h0.7l-4.4,4.1v1.6h-0.5V576.5z M129.8,581.8l0.4-0.4l2.9,3.7h-0.6L129.8,581.8z"/>
	<path d="M134.4,582.3c0-1.9,1.4-3,2.9-3c1.6,0,2.6,1,2.6,2.7c0,0.1,0,0.3,0,0.4h-5.2v-0.5h4.9l-0.2,0.2c0-1.6-0.8-2.4-2.1-2.4
		c-1.2,0-2.3,0.9-2.3,2.6c0,1.7,1.2,2.6,2.5,2.6c0.8,0,1.4-0.3,1.9-0.6l0.2,0.4c-0.5,0.3-1.2,0.7-2.2,0.7
		C135.7,585.3,134.4,584.2,134.4,582.3z"/>
	<path d="M140.8,577.2h0.6l0.8,5.4c0.1,0.6,0.2,1.2,0.2,1.9h0c0.2-0.7,0.4-1.2,0.5-1.9l1-3.3h0.6l1,3.3c0.2,0.6,0.3,1.2,0.5,1.9h0
		c0.1-0.7,0.2-1.2,0.2-1.9l0.8-5.4h0.5l-1.3,7.9h-0.7l-1.1-3.8c-0.1-0.5-0.2-0.9-0.3-1.4h0c-0.1,0.5-0.2,0.9-0.4,1.4l-1.1,3.8h-0.7
		L140.8,577.2z"/>
	<path d="M148.8,582.3c0-1.9,1.4-3,2.9-3c1.6,0,2.6,1,2.6,2.7c0,0.1,0,0.3,0,0.4H149v-0.5h4.9l-0.2,0.2c0-1.6-0.8-2.4-2.1-2.4
		c-1.2,0-2.3,0.9-2.3,2.6c0,1.7,1.2,2.6,2.5,2.6c0.8,0,1.4-0.3,1.9-0.6l0.2,0.4c-0.5,0.3-1.2,0.7-2.2,0.7
		C150.1,585.3,148.8,584.2,148.8,582.3z"/>
	<path d="M159.1,579.8h-2.9v-0.5h3.4v5.8h-0.5V579.8z M158.7,577.4c0-0.4,0.2-0.6,0.6-0.6c0.3,0,0.6,0.2,0.6,0.6
		c0,0.4-0.2,0.6-0.6,0.6C158.9,578,158.7,577.8,158.7,577.4z"/>
	<path d="M163.2,586.2c0-0.5,0.4-1,1-1.4v0c-0.3-0.1-0.6-0.4-0.6-0.9c0-0.4,0.2-0.8,0.7-1.1v0c-0.4-0.3-0.7-0.8-0.7-1.5
		c0-1.2,1-2.1,2.1-2.1c0.3,0,0.6,0,0.8,0.1h2.4v0.5h-1.7c0.4,0.3,0.7,0.8,0.7,1.5c0,1.2-1,2-2.1,2c-0.3,0-0.7-0.1-1.1-0.3
		c-0.3,0.2-0.6,0.5-0.6,0.8c0,0.6,0.5,0.8,1.3,0.8h1.4c1.5,0,2.1,0.4,2.1,1.3c0,1-1.2,2-3,2C164.1,587.9,163.2,587.3,163.2,586.2z
		 M168.4,586c0-0.6-0.5-0.9-1.5-0.9h-1.4c-0.3,0-0.6,0-0.9-0.1c-0.7,0.4-0.9,0.8-0.9,1.2c0,0.7,0.7,1.2,2.1,1.2
		C167.5,587.5,168.4,586.7,168.4,586z M167.4,581.3c0-0.9-0.7-1.6-1.6-1.6c-0.9,0-1.6,0.7-1.6,1.6c0,0.9,0.7,1.6,1.6,1.6
		C166.7,582.9,167.4,582.2,167.4,581.3z"/>
	<path d="M170.7,576.5h0.5v2.5l0,1.5h0c0.7-0.8,1.4-1.3,2.3-1.3c1.4,0,2.1,0.8,2.1,2.3v3.6h-0.5v-3.5c0-1.3-0.5-1.9-1.6-1.9
		c-0.8,0-1.4,0.4-2.2,1.3v4.1h-0.5V576.5z"/>
	<path d="M179.3,583v-3.1h-1.7v-0.4l1.8-0.1l0.1-1.9h0.5v1.9h3.1v0.5h-3.1v3.2c0,1.1,0.3,1.8,1.6,1.8c0.6,0,1.1-0.1,1.5-0.3l0.1,0.4
		c-0.5,0.2-1,0.4-1.8,0.4C179.8,585.3,179.3,584.4,179.3,583z"/>
	<path d="M186.5,581.8c0-2.3,1.1-4.2,2.8-5.4l0.3,0.3c-1.7,1.3-2.5,3-2.5,5.1s0.8,3.8,2.5,5.1l-0.3,0.3
		C187.6,586,186.5,584.2,186.5,581.8z"/>
	<path d="M192.3,584.7h2.3v-6.3h-1.7V578c0.8-0.1,1.4-0.3,1.9-0.5h0.4v7.2h2.1v0.5h-5V584.7z"/>
	<path d="M201.6,581.4h-2.2V581h2.2v-2.4h0.5v2.4h2.2v0.4h-2.2v2.4h-0.5V581.4z"/>
	<path d="M209.5,579.8h-2.9v-0.5h3.4v5.8h-0.5V579.8z M209.1,577.4c0-0.4,0.2-0.6,0.6-0.6c0.3,0,0.6,0.2,0.6,0.6
		c0,0.4-0.2,0.6-0.6,0.6C209.3,578,209.1,577.8,209.1,577.4z"/>
	<path d="M217.9,576.6h0.5l-3.9,10.4H214L217.9,576.6z"/>
	<path d="M220.8,584.8c2.8-2.6,4.2-3.9,4.2-5.3c0-1-0.6-1.7-1.9-1.7c-0.8,0-1.5,0.4-2,1l-0.3-0.3c0.6-0.6,1.4-1.1,2.4-1.1
		c1.5,0,2.4,0.9,2.4,2.2c0,1.5-1.5,3-4,5.2c0.5,0,1-0.1,1.4-0.1h2.9v0.5h-5.2V584.8z"/>
	<path d="M227.8,584.3l0.3-0.4c0.5,0.5,1.2,0.9,2.4,0.9c1.2,0,2.2-0.8,2.2-2.1c0-1.2-0.8-2-2.2-2c-0.7,0-1.2,0.2-1.7,0.5l-0.4-0.2
		l0.3-3.6h4.1v0.5h-3.6l-0.2,2.8c0.5-0.2,1-0.4,1.7-0.4c1.5,0,2.6,0.7,2.6,2.4c0,1.6-1.3,2.6-2.7,2.6
		C229.1,585.3,228.3,584.7,227.8,584.3z"/>
	<path d="M235.7,586.9c1.7-1.3,2.5-3,2.5-5.1s-0.8-3.8-2.5-5.1l0.3-0.3c1.7,1.2,2.8,3.1,2.8,5.4s-1.1,4.2-2.8,5.4L235.7,586.9z"/>
	<path d="M243.9,587.3c1-0.5,1.5-1.2,1.5-2.3l-0.3-0.9l0.6,0.8c-0.2,0.2-0.4,0.3-0.6,0.3c-0.4,0-0.7-0.2-0.7-0.7
		c0-0.5,0.3-0.7,0.7-0.7c0.6,0,0.8,0.5,0.8,1.2c0,1.3-0.7,2.2-1.9,2.7L243.9,587.3z M244.3,580c0-0.5,0.3-0.8,0.7-0.8
		c0.4,0,0.7,0.3,0.7,0.8c0,0.5-0.3,0.8-0.7,0.8C244.7,580.8,244.3,580.5,244.3,580z"/>
	<path d="M98.4,598.8l0.3-0.4c0.6,0.5,1.4,0.8,2.6,0.8c1.2,0,1.8-0.5,1.8-1.1c0-0.5-0.2-0.9-2-1.3c-1.5-0.3-2.3-0.8-2.3-1.6
		c0-0.8,0.7-1.5,2.2-1.5c0.8,0,1.7,0.3,2.2,0.7l-0.3,0.4c-0.5-0.4-1.2-0.6-2-0.6c-1.3,0-1.7,0.5-1.7,1c0,0.6,0.6,0.9,1.9,1.2
		c2,0.4,2.4,0.9,2.4,1.7c0,0.9-0.9,1.6-2.4,1.6C100.1,599.7,99.1,599.3,98.4,598.8z"/>
	<path d="M107.3,597.4v-3.1h-1.7v-0.4l1.8-0.1l0.1-1.9h0.5v1.9h3.1v0.5h-3.1v3.2c0,1.1,0.3,1.8,1.6,1.8c0.6,0,1.1-0.1,1.5-0.3
		l0.1,0.4c-0.5,0.2-1,0.4-1.8,0.4C107.8,599.7,107.3,598.8,107.3,597.4z"/>
	<path d="M113.8,593.8h0.5l0.1,1.4h0c0.6-0.9,1.6-1.6,2.7-1.6c0.4,0,0.8,0.1,1.2,0.2l-0.1,0.5c-0.4-0.1-0.6-0.2-1.1-0.2
		c-1,0-1.8,0.5-2.6,1.8v3.6h-0.5V593.8z"/>
	<path d="M119.8,596.7c0-1.9,1.3-3,2.8-3c1.5,0,2.8,1.1,2.8,3c0,1.9-1.3,3-2.8,3C121.1,599.7,119.8,598.6,119.8,596.7z M124.9,596.7
		c0-1.5-0.9-2.6-2.2-2.6s-2.2,1-2.2,2.6c0,1.5,0.9,2.5,2.2,2.5S124.9,598.2,124.9,596.7z"/>
	<path d="M127.7,590.9h0.5v6.3h0l3.7-3.5h0.7l-4.4,4.1v1.6h-0.5V590.9z M129.8,596.2l0.4-0.4l2.9,3.7h-0.6L129.8,596.2z"/>
	<path d="M134.4,596.7c0-1.9,1.4-3,2.9-3c1.6,0,2.6,1,2.6,2.7c0,0.1,0,0.3,0,0.4h-5.2v-0.5h4.9l-0.2,0.2c0-1.6-0.8-2.4-2.1-2.4
		c-1.2,0-2.3,0.9-2.3,2.6c0,1.7,1.2,2.6,2.5,2.6c0.8,0,1.4-0.3,1.9-0.6l0.2,0.4c-0.5,0.3-1.2,0.7-2.2,0.7
		C135.7,599.7,134.4,598.6,134.4,596.7z"/>
	<path d="M143.3,596.2c0-2.3,1.1-4.2,2.8-5.4l0.3,0.3c-1.7,1.3-2.5,3-2.5,5.1s0.8,3.8,2.5,5.1l-0.3,0.3
		C144.4,600.4,143.3,598.6,143.3,596.2z"/>
	<path d="M148.8,595.7c0-2.5,1-4,2.6-4c1.7,0,2.6,1.4,2.6,4c0,2.5-1,4-2.6,4C149.8,599.7,148.8,598.2,148.8,595.7z M153.5,595.7
		c0-2.3-0.9-3.5-2.1-3.5c-1.2,0-2.1,1.2-2.1,3.5c0,2.3,0.9,3.5,2.1,3.5C152.7,599.2,153.5,598,153.5,595.7z M150.8,595.6
		c0-0.5,0.3-0.7,0.7-0.7c0.3,0,0.7,0.3,0.7,0.7c0,0.5-0.3,0.7-0.7,0.7C151.1,596.3,150.8,596,150.8,595.6z"/>
	<path d="M156.5,601.3c1.7-1.3,2.5-3,2.5-5.1s-0.8-3.8-2.5-5.1l0.3-0.3c1.7,1.2,2.8,3.1,2.8,5.4s-1.1,4.2-2.8,5.4L156.5,601.3z"/>
	<path d="M164.7,601.7c1-0.5,1.5-1.2,1.5-2.3l-0.3-0.9l0.6,0.8c-0.2,0.2-0.4,0.3-0.6,0.3c-0.4,0-0.7-0.2-0.7-0.7
		c0-0.5,0.3-0.7,0.7-0.7c0.6,0,0.8,0.5,0.8,1.2c0,1.3-0.7,2.2-1.9,2.7L164.7,601.7z M165.1,594.4c0-0.5,0.3-0.8,0.7-0.8
		c0.4,0,0.7,0.3,0.7,0.8c0,0.5-0.3,0.8-0.7,0.8C165.5,595.2,165.1,594.9,165.1,594.4z"/>
	<path d="M98.7,608.2h0.4l0.1,0.8h0c0.6-0.6,1.4-1,2.2-1c1.6,0,2.4,1.2,2.4,2.9c0,2-1.3,3.1-2.7,3.1c-0.5,0-1.3-0.3-1.9-0.8h0l0,1.2
		v2.1h-0.5V608.2z M103.3,611c0-1.4-0.6-2.5-2-2.5c-0.6,0-1.4,0.3-2.1,1.1v3.2c0.7,0.6,1.4,0.8,1.9,0.8
		C102.4,613.6,103.3,612.5,103.3,611z"/>
	<path d="M105.4,611.1c0-1.9,1.3-3,2.8-3c1.5,0,2.8,1.1,2.8,3c0,1.9-1.3,3-2.8,3C106.7,614.1,105.4,613,105.4,611.1z M110.5,611.1
		c0-1.5-0.9-2.6-2.2-2.6s-2.2,1-2.2,2.6c0,1.5,0.9,2.5,2.2,2.5S110.5,612.6,110.5,611.1z"/>
	<path d="M115.9,608.6H113v-0.5h3.4v5.8h-0.5V608.6z M115.5,606.2c0-0.4,0.2-0.6,0.6-0.6c0.3,0,0.6,0.2,0.6,0.6
		c0,0.4-0.2,0.6-0.6,0.6C115.7,606.8,115.5,606.6,115.5,606.2z"/>
	<path d="M120.3,608.2h0.4l0.1,1.1h0c0.7-0.7,1.3-1.2,2.3-1.2c1.4,0,2.1,0.8,2.1,2.3v3.6h-0.5v-3.5c0-1.3-0.5-1.9-1.6-1.9
		c-0.8,0-1.4,0.4-2.2,1.3v4.1h-0.5V608.2z"/>
	<path d="M128.9,611.8v-3.1h-1.7v-0.4l1.8-0.1l0.1-1.9h0.5v1.9h3.1v0.5h-3.1v3.2c0,1.1,0.3,1.8,1.6,1.8c0.6,0,1.1-0.1,1.5-0.3
		l0.1,0.4c-0.5,0.2-1,0.4-1.8,0.4C129.4,614.1,128.9,613.2,128.9,611.8z"/>
	<path d="M136.1,610.6c0-2.3,1.1-4.2,2.8-5.4l0.3,0.3c-1.7,1.3-2.5,3-2.5,5.1s0.8,3.8,2.5,5.1l-0.3,0.3
		C137.2,614.8,136.1,613,136.1,610.6z"/>
	<path d="M143.9,611l-2.1-2.8h0.6l1.1,1.5c0.2,0.3,0.5,0.7,0.7,1h0c0.2-0.3,0.5-0.7,0.8-1l1.1-1.4h0.6l-2.1,2.8l2.3,3h-0.6l-1.2-1.6
		c-0.3-0.3-0.5-0.7-0.8-1.1h0c-0.3,0.4-0.5,0.7-0.8,1.1l-1.2,1.5h-0.6L143.9,611z"/>
	<path d="M149.6,612.2l1.4-2l-2-0.9l0.1-0.4l2,0.7l0.1-2.3h0.4l0.1,2.3l2-0.7l0.1,0.4l-2,0.9l1.4,2l-0.3,0.2l-1.5-2l-1.5,2
		L149.6,612.2z"/>
	<path d="M156.3,613.5h2.3v-6.3h-1.7v-0.4c0.8-0.1,1.4-0.3,1.9-0.5h0.4v7.2h2.1v0.5h-5V613.5z"/>
	<path d="M165.1,613.3c0-0.5,0.3-0.8,0.7-0.8c0.4,0,0.7,0.3,0.7,0.8c0,0.5-0.3,0.8-0.7,0.8C165.5,614.1,165.1,613.8,165.1,613.3z"/>
	<path d="M170.4,613.6c2.8-2.6,4.2-3.9,4.2-5.3c0-1-0.6-1.7-1.9-1.7c-0.8,0-1.5,0.4-2,1l-0.3-0.3c0.6-0.6,1.4-1.1,2.4-1.1
		c1.5,0,2.4,0.9,2.4,2.2c0,1.5-1.5,3-4,5.2c0.5,0,1-0.1,1.4-0.1h2.9v0.5h-5.2V613.6z"/>
	<path d="M179.1,616.1c1-0.5,1.5-1.2,1.5-2.3l-0.3-0.9l0.6,0.8c-0.2,0.2-0.4,0.3-0.6,0.3c-0.4,0-0.7-0.2-0.7-0.7
		c0-0.5,0.3-0.7,0.7-0.7c0.6,0,0.8,0.5,0.8,1.2c0,1.3-0.7,2.2-1.9,2.7L179.1,616.1z"/>
	<path d="M191.8,616.4l0.1-0.5c0.1,0,0.4,0.1,0.6,0.1c0.9,0,1.5-0.6,1.8-1.5l0.2-0.5l-2.8-5.9h0.6l1.7,3.6c0.2,0.5,0.5,1.1,0.8,1.6
		h0c0.2-0.5,0.5-1.1,0.7-1.6l1.5-3.6h0.5l-2.7,6.5c-0.3,1-1.1,1.9-2.3,1.9C192.3,616.6,192,616.5,191.8,616.4z"/>
	<path d="M200,612.2l1.4-2l-2-0.9l0.1-0.4l2,0.7l0.1-2.3h0.4l0.1,2.3l2-0.7l0.1,0.4l-2,0.9l1.4,2l-0.3,0.2l-1.5-2l-1.5,2L200,612.2z
		"/>
	<path d="M206.7,613.5h2.3v-6.3h-1.7v-0.4c0.8-0.1,1.4-0.3,1.9-0.5h0.4v7.2h2.1v0.5h-5V613.5z"/>
	<path d="M215.5,613.3c0-0.5,0.3-0.8,0.7-0.8c0.4,0,0.7,0.3,0.7,0.8c0,0.5-0.3,0.8-0.7,0.8C215.9,614.1,215.5,613.8,215.5,613.3z"/>
	<path d="M220.8,613.6c2.8-2.6,4.2-3.9,4.2-5.3c0-1-0.6-1.7-1.9-1.7c-0.8,0-1.5,0.4-2,1l-0.3-0.3c0.6-0.6,1.4-1.1,2.4-1.1
		c1.5,0,2.4,0.9,2.4,2.2c0,1.5-1.5,3-4,5.2c0.5,0,1-0.1,1.4-0.1h2.9v0.5h-5.2V613.6z"/>
	<path d="M228.5,615.7c1.7-1.3,2.5-3,2.5-5.1s-0.8-3.8-2.5-5.1l0.3-0.3c1.7,1.2,2.8,3.1,2.8,5.4s-1.1,4.2-2.8,5.4L228.5,615.7z"/>
	<path d="M236.7,616.1c1-0.5,1.5-1.2,1.5-2.3l-0.3-0.9l0.6,0.8c-0.2,0.2-0.4,0.3-0.6,0.3c-0.4,0-0.7-0.2-0.7-0.7
		c0-0.5,0.3-0.7,0.7-0.7c0.6,0,0.8,0.5,0.8,1.2c0,1.3-0.7,2.2-1.9,2.7L236.7,616.1z M237.1,608.8c0-0.5,0.3-0.8,0.7-0.8
		c0.4,0,0.7,0.3,0.7,0.8c0,0.5-0.3,0.8-0.7,0.8C237.5,609.5,237.1,609.3,237.1,608.8z"/>
	<path d="M69.8,629.8h0.7c1.4,0,1.7-0.4,1.7-1.2c0-0.8-0.1-1.4-0.1-2.3c0-0.7,0.2-1.1,1-1.2v0c-0.8-0.1-1-0.6-1-1.2
		c0-0.8,0.1-1.6,0.1-2.3c0-0.8-0.3-1.2-1.7-1.2h-0.7v-0.3h0.6c1.5,0,2.2,0.3,2.2,1.5c0,0.8-0.1,1.7-0.1,2.5c0,0.5,0.3,1,1.8,1v0.4
		c-1.5,0-1.8,0.5-1.8,1c0,0.8,0.1,1.6,0.1,2.5c0,1.2-0.7,1.5-2.2,1.5h-0.6V629.8z"/>
</g>
<g>
	<path d="M73.5,93.5H83c7,0,11.7,2.4,11.7,9.3c0,6.7-4.8,9.7-11.7,9.7h-5.5v12.5h-4V93.5z M82.6,109.2c5.5,0,8.1-2,8.1-6.5
		c0-4.5-2.7-6-8.1-6h-5v12.5H82.6z"/>
	<path d="M101.9,90.8h4v9.3l-0.2,5.5h0.1c2.4-2.6,5.1-4.6,8.7-4.6c5.5,0,8.1,3.3,8.1,9.4v14.5h-4v-14c0-4.4-1.5-6.5-5.3-6.5
		c-2.8,0-4.7,1.4-7.3,4.2v16.3h-4V90.8z"/>
	<path d="M129.5,134.5l0.8-3.2c0.6,0.2,1.4,0.3,2.1,0.3c3.3,0,5.2-2.1,6.4-4.9l0.7-1.7l-10.8-23.4h4l5.7,12.9
		c0.9,2.1,1.9,4.5,2.9,6.8h0.2c0.8-2.2,1.7-4.7,2.5-6.8l5-12.9h3.8l-10.3,25.3c-1.7,4.6-4.6,8.1-9.9,8.1
		C131.4,135,130.3,134.8,129.5,134.5z"/>
	<path d="M166.8,117.1V94h-8.3v-3.2h12.2v26.6c0,3.4,1.8,4.8,4.6,4.8c1.3,0,2.8-0.3,4.4-1.1l1,3c-2.2,0.9-3.7,1.4-6.2,1.4
		C169.6,125.5,166.8,122.6,166.8,117.1z"/>
	<path d="M195.6,117.1V94h-8.3v-3.2h12.2v26.6c0,3.4,1.8,4.8,4.6,4.8c1.3,0,2.8-0.3,4.4-1.1l1,3c-2.2,0.9-3.7,1.4-6.2,1.4
		C198.4,125.5,195.6,122.6,195.6,117.1z"/>
	<path d="M215.5,113.3c0-7.8,5.4-12.3,11.5-12.3s11.5,4.5,11.5,12.3c0,7.7-5.4,12.2-11.5,12.2S215.5,121.1,215.5,113.3z
		 M234.5,113.3c0-5.4-3-9-7.4-9c-4.5,0-7.4,3.6-7.4,9c0,5.3,3,8.9,7.4,8.9C231.5,122.2,234.5,118.7,234.5,113.3z"/>
	<path d="M251.3,115.9v-11h-6.6v-3l6.8-0.2l0.5-7.5h3.3v7.5h11.4v3.2h-11.4v11.1c0,4.2,1.4,6.3,5.9,6.3c2.2,0,3.9-0.4,5.6-1.1
		l0.9,2.9c-2.1,0.8-4.4,1.4-7.3,1.4C253.5,125.5,251.3,121.6,251.3,115.9z"/>
	<path d="M274.1,118.9c0-5.2,4.9-7.8,16.9-8.7c-0.1-3.2-1.7-5.9-6.2-5.9c-3,0-6,1.4-8.2,2.8l-1.6-2.7c2.4-1.5,6.3-3.4,10.4-3.4
		c6.4,0,9.5,3.8,9.5,9.6v14.3h-3.3l-0.3-3.2h-0.1c-2.5,2-5.9,3.7-9.2,3.7C277.7,125.5,274.1,123.1,274.1,118.9z M291,118.8v-6
		c-10,0.8-13,2.7-13,5.8c0,2.6,2.4,3.7,5.1,3.7C285.7,122.3,288.3,121.1,291,118.8z"/>
	<path d="M310.9,112.8l-8.2-11.2h4.4l3.7,5.1c0.8,1.3,1.8,2.7,2.7,3.9h0.2c0.9-1.2,1.8-2.7,2.6-4l3.5-5h4.2l-8.3,11.6l8.9,11.8h-4.4
		l-4-5.4c-1-1.3-2.1-2.9-3.1-4.2h-0.2c-1,1.4-1.9,2.8-2.9,4.3l-3.8,5.3h-4.2L310.9,112.8z"/>
	<path d="M331,134.5l0.8-3.2c0.6,0.2,1.4,0.3,2.1,0.3c3.3,0,5.2-2.1,6.4-4.9l0.7-1.7l-10.8-23.4h4l5.7,12.9c0.9,2.1,1.9,4.5,2.9,6.8
		h0.2c0.8-2.2,1.7-4.7,2.5-6.8l5-12.9h3.8L344,126.9c-1.7,4.6-4.6,8.1-9.9,8.1C333,135,331.9,134.8,331,134.5z"/>
	<path d="M395.4,111.6c0-9.3,4.1-16.6,10.8-21.8l2.2,2c-6.4,5.4-9.4,11.7-9.4,19.8c0,8.1,3,14.4,9.4,19.8l-2.2,2
		C399.5,128.2,395.4,120.9,395.4,111.6z"/>
	<path d="M431.9,103.9c0-1.7,0.1-3.7,0.2-5.4h-0.2c-1,1.5-2.1,3-3.1,4.5l-8.3,10.4h19.9v3.2h-24.3v-2.6l15.3-19.5h4.3v30.6h-3.7
		V103.9z"/>
	<path d="M446.3,117.1c0-4.2,3.3-6.6,6.6-8.2v-0.2c-2.5-1.6-4.7-3.9-4.7-7.2c0-4.7,4-7.9,9.5-7.9c6,0,9.5,3.4,9.5,8.2
		c0,2.9-2.1,5.5-4.7,7.3v0.2c3.4,1.7,6,3.6,6,8c0,4.6-4,8.2-11,8.2C450.6,125.5,446.3,122,446.3,117.1z M464.7,117.2
		c0-4.2-4.3-5.3-9.6-7.1c-3,1.6-5.2,3.6-5.2,6.6c0,3.4,3,5.8,7.7,5.8C462.1,122.5,464.7,120.4,464.7,117.2z M463.7,102.1
		c0-3-2.2-5.4-6.1-5.4c-3.4,0-5.7,1.9-5.7,4.9c0,3.6,3.5,5.2,8.1,6.6C462.4,106.4,463.7,104.4,463.7,102.1z"/>
	<path d="M476.3,101.6h3.3l0.3,3h0.1c2.2-2.1,5.2-3.6,8.1-3.6c6.3,0,9.6,4.7,9.6,11.9c0,7.9-5,12.6-10.6,12.6c-2.2,0-4.8-1.1-7-3
		h-0.1l0.2,4.4v7.9h-4V101.6z M493.7,112.9c0-5.1-1.9-8.5-6.6-8.5c-2.1,0-4.5,1.1-6.8,3.5v11.6c2.2,2,4.6,2.7,6.2,2.7
		C490.6,122.2,493.7,118.7,493.7,112.9z"/>
	<path d="M506.5,131.4c6.4-5.4,9.4-11.7,9.4-19.8c0-8.1-3-14.4-9.4-19.8l2.2-2c6.7,5.2,10.8,12.5,10.8,21.8s-4.1,16.6-10.8,21.8
		L506.5,131.4z"/>
</g>
<g>
	<path d="M70.2,198.9l1.2-1.4c1.2,1.2,2.8,1.9,4.6,1.9c2.2,0,3.4-1,3.4-2.5c0-1.7-1.2-2.2-2.8-2.8l-2.3-1c-1.6-0.6-3.4-1.7-3.4-4.1
		c0-2.4,2.2-4.2,5.2-4.2c2,0,3.7,0.8,4.8,1.9l-1.1,1.3c-1-0.9-2.2-1.5-3.9-1.5c-1.8,0-3,0.9-3,2.3c0,1.5,1.5,2.1,2.8,2.6l2.2,1
		c1.9,0.8,3.5,1.9,3.5,4.2c0,2.5-2.1,4.5-5.6,4.5C73.7,201.2,71.7,200.3,70.2,198.9z"/>
	<path d="M84.5,195.1c0-3.9,2.7-6.1,5.8-6.1s5.8,2.2,5.8,6.1c0,3.9-2.7,6.1-5.8,6.1S84.5,199,84.5,195.1z M94,195.1
		c0-2.7-1.5-4.5-3.7-4.5c-2.2,0-3.7,1.8-3.7,4.5c0,2.7,1.5,4.4,3.7,4.4C92.5,199.6,94,197.8,94,195.1z"/>
	<path d="M99.3,196.5v-7.2h2v7c0,2.2,0.8,3.2,2.7,3.2c1.3,0,2.3-0.6,3.6-2.1v-8.1h2v11.7h-1.7l-0.2-2h-0.1c-1.2,1.4-2.5,2.3-4.3,2.3
		C100.6,201.2,99.3,199.6,99.3,196.5z"/>
	<path d="M115.3,189.3h1.7l0.2,2.8h0c1.2-1.9,3-3,5.2-3c0.9,0,1.6,0.1,2.3,0.5l-0.5,1.7c-0.8-0.3-1.2-0.4-2.2-0.4
		c-1.8,0-3.4,0.9-4.8,3.3v6.8h-2V189.3z"/>
	<path d="M128.2,195.1c0-3.9,3-6.1,6.5-6.1c1.9,0,3.3,0.8,4.2,1.7l-1,1.3c-1-0.8-2-1.3-3.2-1.3c-2.7,0-4.5,1.8-4.5,4.5
		c0,2.7,1.8,4.4,4.5,4.4c1.4,0,2.6-0.6,3.6-1.5l0.9,1.3c-1.3,1.2-2.9,1.8-4.6,1.8C130.9,201.2,128.2,199,128.2,195.1z"/>
	<path d="M142.3,195.1c0-3.8,2.8-6.1,6-6.1c3.4,0,5.3,2.2,5.3,5.5c0,0.5,0,0.9-0.1,1.2h-9.9v-1.5h8.7l-0.5,0.6
		c0-2.8-1.4-4.1-3.5-4.1c-2.2,0-4,1.6-4,4.5c0,3,2,4.6,4.6,4.6c1.4,0,2.5-0.4,3.6-1.1l0.7,1.3c-1.2,0.8-2.6,1.4-4.5,1.4
		C145.1,201.2,142.3,199,142.3,195.1z"/>
	<path d="M171,193.1c0-5.1,3-8.2,7.1-8.2c1.9,0,3.4,0.9,4.3,1.9l-1.2,1.3c-0.8-0.9-1.8-1.4-3.2-1.4c-3,0-5,2.4-5,6.3
		c0,4,2,6.4,5,6.4c1.4,0,2.5-0.6,3.5-1.7l1.2,1.2c-1.2,1.4-2.8,2.3-4.9,2.3C174,201.2,171,198.2,171,193.1z"/>
	<path d="M185.3,195.1c0-3.9,2.7-6.1,5.8-6.1s5.8,2.2,5.8,6.1c0,3.9-2.7,6.1-5.8,6.1S185.3,199,185.3,195.1z M194.8,195.1
		c0-2.7-1.5-4.5-3.7-4.5c-2.2,0-3.7,1.8-3.7,4.5c0,2.7,1.5,4.4,3.7,4.4C193.3,199.6,194.8,197.8,194.8,195.1z"/>
	<path d="M199.7,195.1c0-3.8,2.5-6.1,5.3-6.1c1.4,0,2.5,0.6,3.5,1.5h0l-0.1-2.1v-4.5h2v17.1h-1.6l-0.2-1.5h-0.1
		c-1,1-2.4,1.8-3.8,1.8C201.7,201.2,199.7,199,199.7,195.1z M208.4,197.8V192c-1.1-1-2-1.3-3-1.3c-2,0-3.6,1.8-3.6,4.4
		c0,2.8,1.3,4.4,3.4,4.4C206.3,199.6,207.4,199,208.4,197.8z"/>
	<path d="M214.3,195.1c0-3.8,2.8-6.1,6-6.1c3.4,0,5.3,2.2,5.3,5.5c0,0.5,0,0.9-0.1,1.2h-9.9v-1.5h8.7l-0.5,0.6
		c0-2.8-1.4-4.1-3.5-4.1c-2.2,0-4,1.6-4,4.5c0,3,2,4.6,4.6,4.6c1.4,0,2.5-0.4,3.6-1.1l0.7,1.3c-1.2,0.8-2.6,1.4-4.5,1.4
		C217.1,201.2,214.3,199,214.3,195.1z"/>
	<path d="M242.4,185.2h2.2l2.5,8.5c0.6,1.8,0.9,3.4,1.5,5.2h0.1c0.6-1.8,1-3.3,1.5-5.2l2.5-8.5h2.1l-5,15.7h-2.4L242.4,185.2z"/>
	<path d="M257.8,197.9c0-2.6,2.4-3.9,8.5-4.4c-0.1-1.6-0.8-2.9-3.1-2.9c-1.5,0-3,0.7-4.1,1.4l-0.8-1.3c1.2-0.8,3.2-1.7,5.2-1.7
		c3.2,0,4.8,1.9,4.8,4.8v7.2h-1.7l-0.2-1.6h-0.1c-1.3,1-3,1.9-4.6,1.9C259.6,201.2,257.8,200,257.8,197.9z M266.2,197.9v-3
		c-5,0.4-6.5,1.4-6.5,2.9c0,1.3,1.2,1.8,2.5,1.8C263.6,199.6,264.9,199,266.2,197.9z"/>
	<path d="M273.7,189.3h1.7l0.2,2.8h0c1.2-1.9,3-3,5.2-3c0.9,0,1.6,0.1,2.3,0.5l-0.5,1.7c-0.8-0.3-1.2-0.4-2.2-0.4
		c-1.8,0-3.4,0.9-4.8,3.3v6.8h-2V189.3z"/>
	<path d="M292.2,190.9h-5.4v-1.6h7.4v11.7h-2V190.9z M291.4,185.3c0-0.9,0.7-1.5,1.6-1.5s1.6,0.6,1.6,1.5c0,0.9-0.7,1.5-1.6,1.5
		S291.4,186.2,291.4,185.3z"/>
	<path d="M301,197.9c0-2.6,2.4-3.9,8.5-4.4c-0.1-1.6-0.8-2.9-3.1-2.9c-1.5,0-3,0.7-4.1,1.4l-0.8-1.3c1.2-0.8,3.2-1.7,5.2-1.7
		c3.2,0,4.8,1.9,4.8,4.8v7.2h-1.7l-0.2-1.6h-0.1c-1.3,1-3,1.9-4.6,1.9C302.8,201.2,301,200,301,197.9z M309.4,197.9v-3
		c-5,0.4-6.5,1.4-6.5,2.9c0,1.3,1.2,1.8,2.5,1.8C306.8,199.6,308.1,199,309.4,197.9z"/>
	<path d="M317.5,199.6L317.5,199.6l-0.3,1.3h-1.6v-17.1h2v4.7l-0.1,2.3h0.1c1.1-1.1,2.5-1.8,3.9-1.8c3.1,0,4.8,2.3,4.8,5.9
		c0,4-2.5,6.3-5.3,6.3C320,201.2,318.6,200.6,317.5,199.6z M324.4,194.9c0-2.6-1-4.3-3.3-4.3c-1,0-2.2,0.5-3.4,1.7v5.8
		c1.1,1,2.3,1.3,3.1,1.3C322.8,199.6,324.4,197.8,324.4,194.9z"/>
	<path d="M333.7,197v-11.6h-4.1v-1.6h6.1v13.3c0,1.7,0.9,2.4,2.3,2.4c0.7,0,1.4-0.2,2.2-0.5l0.5,1.5c-1.1,0.5-1.8,0.7-3.1,0.7
		C335.1,201.2,333.7,199.8,333.7,197z"/>
	<path d="M343.9,195.1c0-3.8,2.8-6.1,6-6.1c3.4,0,5.3,2.2,5.3,5.5c0,0.5,0,0.9-0.1,1.2h-9.9v-1.5h8.7l-0.5,0.6
		c0-2.8-1.4-4.1-3.5-4.1c-2.2,0-4,1.6-4,4.5c0,3,2,4.6,4.6,4.6c1.4,0,2.5-0.4,3.6-1.1l0.7,1.3c-1.2,0.8-2.6,1.4-4.5,1.4
		C346.6,201.2,343.9,199,343.9,195.1z"/>
	<path d="M373.4,185.2h4.9c3.2,0,5.5,1.2,5.5,4.4c0,3.1-2.3,4.7-5.5,4.7h-2.9v6.6h-2V185.2z M378,192.7c2.4,0,3.8-1,3.8-3
		c0-2.1-1.3-2.8-3.8-2.8h-2.6v5.8H378z M379.5,192.7l4.8,8.3H382l-4.1-7.2L379.5,192.7z"/>
	<path d="M387.1,195.1c0-3.8,2.8-6.1,6-6.1c3.4,0,5.3,2.2,5.3,5.5c0,0.5,0,0.9-0.1,1.2h-9.9v-1.5h8.7l-0.5,0.6
		c0-2.8-1.4-4.1-3.5-4.1c-2.2,0-4,1.6-4,4.5c0,3,2,4.6,4.6,4.6c1.4,0,2.5-0.4,3.6-1.1l0.7,1.3c-1.2,0.8-2.6,1.4-4.5,1.4
		C389.8,201.2,387.1,199,387.1,195.1z"/>
	<path d="M401.6,203.1c0-0.9,0.7-1.9,1.9-2.6v-0.1c-0.6-0.3-1.2-0.9-1.2-1.9c0-0.7,0.5-1.6,1.4-2.2v-0.1c-0.8-0.6-1.4-1.6-1.4-3
		c0-2.5,2.1-4.2,4.6-4.2c0.7,0,1.2,0.1,1.7,0.3h4.8v1.6h-3c0.5,0.6,1,1.4,1,2.4c0,2.5-2,4-4.5,4c-0.6,0-1.3-0.1-2-0.4
		c-0.6,0.4-0.9,0.8-0.9,1.3c0,0.9,0.9,1.3,2.4,1.3h2.6c3,0,4.4,0.8,4.4,2.7c0,2.2-2.5,4.1-6.5,4.1
		C403.5,206.3,401.6,205.1,401.6,203.1z M411.5,202.6c0-1.1-0.9-1.4-2.7-1.4h-2.3c-0.7,0-1.3,0-1.8-0.2c-1.1,0.6-1.5,1.3-1.5,1.9
		c0,1.2,1.3,2,3.8,2C409.8,204.9,411.5,203.8,411.5,202.6z M409.5,193.2c0-1.6-1.2-2.7-2.7-2.7c-1.5,0-2.7,1.1-2.7,2.7
		c0,1.7,1.2,2.8,2.7,2.8C408.3,195.9,409.5,194.8,409.5,193.2z"/>
	<path d="M416.1,196.5v-7.2h2v7c0,2.2,0.8,3.2,2.7,3.2c1.3,0,2.3-0.6,3.6-2.1v-8.1h2v11.7h-1.7l-0.2-2h-0.1
		c-1.2,1.4-2.5,2.3-4.3,2.3C417.4,201.2,416.1,199.6,416.1,196.5z"/>
	<path d="M434.5,197v-11.6h-4.1v-1.6h6.1v13.3c0,1.7,0.9,2.4,2.3,2.4c0.7,0,1.4-0.2,2.2-0.5l0.5,1.5c-1.1,0.5-1.8,0.7-3.1,0.7
		C435.9,201.2,434.5,199.8,434.5,197z"/>
	<path d="M445,197.9c0-2.6,2.4-3.9,8.5-4.4c-0.1-1.6-0.8-2.9-3.1-2.9c-1.5,0-3,0.7-4.1,1.4l-0.8-1.3c1.2-0.8,3.2-1.7,5.2-1.7
		c3.2,0,4.8,1.9,4.8,4.8v7.2h-1.7l-0.2-1.6h-0.1c-1.3,1-3,1.9-4.6,1.9C446.8,201.2,445,200,445,197.9z M453.4,197.9v-3
		c-5,0.4-6.5,1.4-6.5,2.9c0,1.3,1.2,1.8,2.5,1.8C450.8,199.6,452.1,199,453.4,197.9z"/>
	<path d="M460.9,189.3h1.7l0.2,2.8h0c1.2-1.9,3-3,5.2-3c0.9,0,1.6,0.1,2.3,0.5l-0.5,1.7c-0.8-0.3-1.2-0.4-2.2-0.4
		c-1.8,0-3.4,0.9-4.8,3.3v6.8h-2V189.3z"/>
	<path d="M488,199.8c5.2-4.6,8-7.3,8-9.8c0-1.8-1.1-3-3.3-3c-1.4,0-2.7,0.8-3.7,1.8l-1.2-1.1c1.4-1.4,2.9-2.3,5.1-2.3
		c3.1,0,5,1.8,5,4.5c0,2.9-2.9,5.7-7,9.5c1-0.1,1.9-0.1,2.9-0.1h5v1.7H488V199.8z"/>
	<path d="M509.5,190.4c0-0.8,0.1-1.9,0.1-2.7h-0.1c-0.5,0.7-1.1,1.5-1.6,2.2l-4.1,5.2h9.9v1.6h-12.1v-1.3l7.6-9.8h2.1v15.3h-1.9
		V190.4z"/>
	<path d="M517.3,189.3h1.6l0.2,1.5h0.1c1.1-1,2.6-1.8,4-1.8c3.1,0,4.8,2.3,4.8,6c0,4-2.5,6.3-5.3,6.3c-1.1,0-2.4-0.6-3.5-1.5h0
		l0.1,2.2v3.9h-2V189.3z M526,194.9c0-2.6-1-4.3-3.3-4.3c-1,0-2.2,0.5-3.4,1.7v5.8c1.1,1,2.3,1.3,3.1,1.3
		C524.4,199.6,526,197.8,526,194.9z"/>
</g>
<g>
	<path d="M70,232.7l1-1.2c1.1,1,2.5,1.7,4,1.7c1.9,0,3-0.9,3-2.2c0-1.5-1.1-1.9-2.5-2.5l-2-0.9c-1.4-0.5-3-1.5-3-3.5
		c0-2.1,1.9-3.7,4.5-3.7c1.7,0,3.2,0.7,4.2,1.7l-0.9,1.1c-0.9-0.8-2-1.3-3.4-1.3c-1.6,0-2.7,0.8-2.7,2c0,1.3,1.3,1.8,2.5,2.3
		l1.9,0.9c1.7,0.7,3,1.6,3,3.7c0,2.2-1.8,3.9-4.9,3.9C73,234.8,71.3,234,70,232.7z"/>
	<path d="M82.5,229.4c0-3.4,2.4-5.4,5-5.4s5,2,5,5.4c0,3.4-2.4,5.3-5,5.3S82.5,232.8,82.5,229.4z M90.8,229.4c0-2.4-1.3-3.9-3.3-3.9
		s-3.3,1.6-3.3,3.9c0,2.3,1.3,3.9,3.3,3.9S90.8,231.8,90.8,229.4z"/>
	<path d="M95.5,230.6v-6.3h1.7v6.1c0,1.9,0.7,2.8,2.4,2.8c1.2,0,2-0.5,3.2-1.9v-7.1h1.7v10.2H103l-0.1-1.8h-0.1c-1,1.2-2.2,2-3.8,2
		C96.6,234.8,95.5,233.3,95.5,230.6z"/>
	<path d="M109.5,224.3h1.4l0.2,2.4h0c1.1-1.7,2.7-2.7,4.6-2.7c0.8,0,1.4,0.1,2,0.4l-0.4,1.5c-0.7-0.2-1.1-0.3-1.9-0.3
		c-1.5,0-3,0.8-4.2,2.9v6h-1.7V224.3z"/>
	<path d="M120.7,229.4c0-3.4,2.6-5.4,5.7-5.4c1.7,0,2.9,0.7,3.7,1.5l-0.9,1.1c-0.8-0.7-1.7-1.2-2.8-1.2c-2.4,0-4,1.6-4,3.9
		c0,2.3,1.6,3.9,3.9,3.9c1.3,0,2.3-0.6,3.1-1.3l0.8,1.1c-1.1,1-2.5,1.6-4.1,1.6C123.1,234.8,120.7,232.8,120.7,229.4z"/>
	<path d="M133.1,229.4c0-3.3,2.5-5.3,5.2-5.3c2.9,0,4.7,1.9,4.7,4.8c0,0.4,0,0.8-0.1,1h-8.6v-1.3h7.6l-0.4,0.5
		c0-2.4-1.2-3.6-3.1-3.6c-1.9,0-3.5,1.4-3.5,4c0,2.6,1.7,4,4,4c1.2,0,2.2-0.4,3.1-1l0.6,1.1c-1,0.7-2.3,1.2-3.9,1.2
		C135.5,234.8,133.1,232.8,133.1,229.4z"/>
	<path d="M158.2,227.6c0-4.4,2.6-7.1,6.2-7.1c1.7,0,3,0.8,3.8,1.7l-1,1.1c-0.7-0.8-1.6-1.2-2.8-1.2c-2.6,0-4.3,2.1-4.3,5.5
		c0,3.5,1.7,5.6,4.3,5.6c1.3,0,2.2-0.5,3.1-1.5l1,1.1c-1.1,1.3-2.4,2-4.3,2C160.8,234.8,158.2,232.1,158.2,227.6z"/>
	<path d="M170.7,229.4c0-3.4,2.4-5.4,5-5.4s5,2,5,5.4c0,3.4-2.4,5.3-5,5.3S170.7,232.8,170.7,229.4z M179,229.4
		c0-2.4-1.3-3.9-3.3-3.9s-3.3,1.6-3.3,3.9c0,2.3,1.3,3.9,3.3,3.9S179,231.8,179,229.4z"/>
	<path d="M183.3,229.4c0-3.3,2.2-5.4,4.6-5.4c1.2,0,2.2,0.5,3.1,1.3h0l-0.1-1.9v-3.9h1.7v14.9h-1.4l-0.1-1.3H191
		c-0.8,0.9-2.1,1.6-3.3,1.6C185.1,234.8,183.3,232.8,183.3,229.4z M190.9,231.8v-5.1c-0.9-0.9-1.8-1.2-2.7-1.2
		c-1.8,0-3.2,1.6-3.2,3.9c0,2.4,1.1,3.9,3,3.9C189.1,233.3,190,232.8,190.9,231.8z"/>
	<path d="M196.1,229.4c0-3.3,2.5-5.3,5.2-5.3c2.9,0,4.7,1.9,4.7,4.8c0,0.4,0,0.8-0.1,1h-8.6v-1.3h7.6l-0.4,0.5
		c0-2.4-1.2-3.6-3.1-3.6c-1.9,0-3.5,1.4-3.5,4c0,2.6,1.7,4,4,4c1.2,0,2.2-0.4,3.1-1l0.6,1.1c-1,0.7-2.3,1.2-3.9,1.2
		C198.5,234.8,196.1,232.8,196.1,229.4z"/>
	<path d="M220.7,220.7h1.9l2.2,7.4c0.5,1.6,0.8,2.9,1.3,4.5h0.1c0.5-1.6,0.9-2.9,1.3-4.5l2.2-7.4h1.8l-4.4,13.8h-2.1L220.7,220.7z"
		/>
	<path d="M234.1,231.9c0-2.3,2.1-3.4,7.4-3.8c-0.1-1.4-0.7-2.6-2.7-2.6c-1.3,0-2.6,0.6-3.6,1.2l-0.7-1.2c1-0.7,2.8-1.5,4.6-1.5
		c2.8,0,4.2,1.7,4.2,4.2v6.3h-1.4l-0.1-1.4h-0.1c-1.1,0.9-2.6,1.6-4,1.6C235.7,234.8,234.1,233.7,234.1,231.9z M241.5,231.8v-2.6
		c-4.4,0.3-5.7,1.2-5.7,2.5c0,1.2,1,1.6,2.2,1.6C239.2,233.4,240.4,232.8,241.5,231.8z"/>
	<path d="M248.1,224.3h1.4l0.2,2.4h0c1.1-1.7,2.7-2.7,4.6-2.7c0.8,0,1.4,0.1,2,0.4l-0.4,1.5c-0.7-0.2-1.1-0.3-1.9-0.3
		c-1.5,0-3,0.8-4.2,2.9v6h-1.7V224.3z"/>
	<path d="M264.2,225.7h-4.7v-1.4h6.5v10.2h-1.7V225.7z M263.6,220.8c0-0.8,0.6-1.3,1.4-1.3s1.4,0.5,1.4,1.3c0,0.8-0.6,1.3-1.4,1.3
		S263.6,221.6,263.6,220.8z"/>
	<path d="M271.9,231.9c0-2.3,2.1-3.4,7.4-3.8c-0.1-1.4-0.7-2.6-2.7-2.6c-1.3,0-2.6,0.6-3.6,1.2l-0.7-1.2c1-0.7,2.8-1.5,4.6-1.5
		c2.8,0,4.2,1.7,4.2,4.2v6.3h-1.4l-0.1-1.4h-0.1c-1.1,0.9-2.6,1.6-4,1.6C273.5,234.8,271.9,233.7,271.9,231.9z M279.3,231.8v-2.6
		c-4.4,0.3-5.7,1.2-5.7,2.5c0,1.2,1,1.6,2.2,1.6C277,233.4,278.2,232.8,279.3,231.8z"/>
	<path d="M286.4,233.4L286.4,233.4l-0.2,1.1h-1.4v-14.9h1.7v4.1l-0.1,2h0.1c0.9-0.9,2.2-1.6,3.4-1.6c2.8,0,4.2,2,4.2,5.2
		c0,3.5-2.2,5.5-4.6,5.5C288.6,234.8,287.3,234.2,286.4,233.4z M292.4,229.3c0-2.2-0.8-3.7-2.9-3.7c-0.9,0-2,0.5-3,1.5v5.1
		c0.9,0.9,2,1.2,2.8,1.2C291,233.3,292.4,231.8,292.4,229.3z"/>
	<path d="M300.6,231.1V221H297v-1.4h5.4v11.7c0,1.5,0.8,2.1,2,2.1c0.6,0,1.2-0.1,1.9-0.5l0.4,1.3c-0.9,0.4-1.6,0.6-2.7,0.6
		C301.8,234.8,300.6,233.5,300.6,231.1z"/>
	<path d="M309.5,229.4c0-3.3,2.5-5.3,5.2-5.3c2.9,0,4.7,1.9,4.7,4.8c0,0.4,0,0.8-0.1,1h-8.6v-1.3h7.6l-0.4,0.5
		c0-2.4-1.2-3.6-3.1-3.6c-1.9,0-3.5,1.4-3.5,4c0,2.6,1.7,4,4,4c1.2,0,2.2-0.4,3.1-1l0.6,1.1c-1,0.7-2.3,1.2-3.9,1.2
		C311.9,234.8,309.5,232.8,309.5,229.4z"/>
	<path d="M335.3,220.7h4.3c2.8,0,4.8,1,4.8,3.9c0,2.8-2,4.1-4.8,4.1h-2.5v5.8h-1.8V220.7z M339.4,227.3c2.1,0,3.3-0.9,3.3-2.6
		c0-1.8-1.2-2.5-3.3-2.5h-2.3v5.1H339.4z M340.6,227.3l4.2,7.2h-2l-3.6-6.3L340.6,227.3z"/>
	<path d="M347.3,229.4c0-3.3,2.5-5.3,5.2-5.3c2.9,0,4.7,1.9,4.7,4.8c0,0.4,0,0.8-0.1,1h-8.6v-1.3h7.6l-0.4,0.5
		c0-2.4-1.2-3.6-3.1-3.6c-1.9,0-3.5,1.4-3.5,4c0,2.6,1.7,4,4,4c1.2,0,2.2-0.4,3.1-1l0.6,1.1c-1,0.7-2.3,1.2-3.9,1.2
		C349.7,234.8,347.3,232.8,347.3,229.4z"/>
	<path d="M359.9,236.4c0-0.8,0.6-1.6,1.7-2.3V234c-0.5-0.3-1-0.8-1-1.7c0-0.7,0.4-1.4,1.2-1.9v-0.1c-0.7-0.5-1.3-1.4-1.3-2.6
		c0-2.2,1.8-3.7,4-3.7c0.6,0,1.1,0.1,1.5,0.3h4.2v1.4h-2.6c0.5,0.5,0.9,1.2,0.9,2.1c0,2.2-1.7,3.5-3.9,3.5c-0.5,0-1.2-0.1-1.7-0.4
		c-0.5,0.3-0.8,0.7-0.8,1.2c0,0.8,0.8,1.2,2.1,1.2h2.3c2.6,0,3.9,0.7,3.9,2.4c0,1.9-2.2,3.6-5.7,3.6
		C361.7,239.2,359.9,238.2,359.9,236.4z M368.6,235.9c0-1-0.8-1.2-2.3-1.2h-2c-0.6,0-1.1,0-1.6-0.2c-1,0.5-1.3,1.1-1.3,1.7
		c0,1.1,1.2,1.7,3.3,1.7C367.1,238,368.6,237,368.6,235.9z M366.9,227.7c0-1.4-1-2.4-2.4-2.4c-1.3,0-2.4,1-2.4,2.4
		c0,1.5,1.1,2.4,2.4,2.4C365.8,230.1,366.9,229.2,366.9,227.7z"/>
	<path d="M372.7,230.6v-6.3h1.7v6.1c0,1.9,0.7,2.8,2.4,2.8c1.2,0,2-0.5,3.2-1.9v-7.1h1.7v10.2h-1.4l-0.1-1.8H380c-1,1.2-2.2,2-3.8,2
		C373.8,234.8,372.7,233.3,372.7,230.6z"/>
	<path d="M388.8,231.1V221h-3.6v-1.4h5.4v11.7c0,1.5,0.8,2.1,2,2.1c0.6,0,1.2-0.1,1.9-0.5l0.4,1.3c-0.9,0.4-1.6,0.6-2.7,0.6
		C390,234.8,388.8,233.5,388.8,231.1z"/>
	<path d="M397.9,231.9c0-2.3,2.1-3.4,7.4-3.8c-0.1-1.4-0.7-2.6-2.7-2.6c-1.3,0-2.6,0.6-3.6,1.2l-0.7-1.2c1-0.7,2.8-1.5,4.6-1.5
		c2.8,0,4.2,1.7,4.2,4.2v6.3h-1.4l-0.1-1.4h-0.1c-1.1,0.9-2.6,1.6-4,1.6C399.5,234.8,397.9,233.7,397.9,231.9z M405.3,231.8v-2.6
		c-4.4,0.3-5.7,1.2-5.7,2.5c0,1.2,1,1.6,2.2,1.6C403,233.4,404.1,232.8,405.3,231.8z"/>
	<path d="M411.9,224.3h1.4l0.2,2.4h0c1.1-1.7,2.7-2.7,4.6-2.7c0.8,0,1.4,0.1,2,0.4l-0.4,1.5c-0.7-0.2-1.1-0.3-1.9-0.3
		c-1.5,0-3,0.8-4.2,2.9v6h-1.7V224.3z"/>
	<path d="M435.6,233.5c4.5-4,7-6.4,7-8.6c0-1.5-0.9-2.6-2.9-2.6c-1.3,0-2.4,0.7-3.2,1.6l-1-1c1.2-1.2,2.5-2,4.4-2
		c2.7,0,4.4,1.6,4.4,3.9c0,2.5-2.5,5-6.2,8.3c0.8-0.1,1.7-0.1,2.5-0.1h4.4v1.5h-9.4V233.5z"/>
	<path d="M448.7,233.1h3.9v-9.8h-3v-1.1c1.6-0.2,2.6-0.5,3.4-1h1.3v11.9h3.5v1.4h-9.1V233.1z"/>
	<path d="M461.2,224.3h1.4l0.1,1.3h0.1c0.9-0.9,2.3-1.6,3.5-1.6c2.8,0,4.2,2,4.2,5.2c0,3.5-2.2,5.5-4.6,5.5c-0.9,0-2.1-0.5-3-1.3h0
		l0.1,1.9v3.4h-1.7V224.3z M468.8,229.3c0-2.2-0.8-3.7-2.9-3.7c-0.9,0-2,0.5-3,1.5v5.1c0.9,0.9,2,1.2,2.7,1.2
		C467.4,233.3,468.8,231.8,468.8,229.3z"/>
</g>
<g>
	<path d="M69.8,266.5l0.9-1c0.9,0.9,2.1,1.5,3.5,1.5c1.6,0,2.6-0.8,2.6-1.9c0-1.3-0.9-1.6-2.1-2.1l-1.7-0.8c-1.2-0.5-2.5-1.3-2.5-3
		c0-1.8,1.6-3.1,3.9-3.1c1.5,0,2.8,0.6,3.6,1.5l-0.8,1c-0.8-0.7-1.7-1.1-2.9-1.1c-1.4,0-2.3,0.6-2.3,1.7c0,1.1,1.1,1.5,2.1,1.9
		l1.7,0.7c1.5,0.6,2.6,1.4,2.6,3.2c0,1.9-1.6,3.4-4.2,3.4C72.4,268.3,70.9,267.6,69.8,266.5z"/>
	<path d="M80.5,263.7c0-2.9,2-4.6,4.3-4.6s4.3,1.7,4.3,4.6c0,2.9-2,4.6-4.3,4.6S80.5,266.6,80.5,263.7z M87.6,263.7
		c0-2-1.1-3.4-2.8-3.4c-1.7,0-2.8,1.4-2.8,3.4c0,2,1.1,3.3,2.8,3.3C86.5,267,87.6,265.7,87.6,263.7z"/>
	<path d="M91.6,264.8v-5.4h1.5v5.2c0,1.6,0.6,2.4,2,2.4c1,0,1.7-0.5,2.7-1.6v-6.1h1.5v8.8h-1.2l-0.1-1.5h-0.1
		c-0.9,1-1.9,1.7-3.3,1.7C92.6,268.3,91.6,267.1,91.6,264.8z"/>
	<path d="M103.6,259.3h1.2l0.1,2.1h0c0.9-1.4,2.3-2.3,3.9-2.3c0.6,0,1.2,0.1,1.7,0.4l-0.3,1.3c-0.6-0.2-0.9-0.3-1.6-0.3
		c-1.3,0-2.6,0.7-3.6,2.5v5.1h-1.5V259.3z"/>
	<path d="M113.3,263.7c0-2.9,2.2-4.6,4.9-4.6c1.4,0,2.5,0.6,3.2,1.3l-0.7,1c-0.7-0.6-1.5-1-2.4-1c-2,0-3.4,1.4-3.4,3.4
		c0,2,1.4,3.3,3.4,3.3c1.1,0,2-0.5,2.7-1.1l0.7,1c-1,0.9-2.2,1.4-3.5,1.4C115.3,268.3,113.3,266.6,113.3,263.7z"/>
	<path d="M123.9,263.7c0-2.8,2.1-4.6,4.5-4.6c2.5,0,4,1.6,4,4.1c0,0.3,0,0.7-0.1,0.9h-7.4V263h6.5l-0.4,0.4c0-2.1-1-3.1-2.6-3.1
		c-1.6,0-3,1.2-3,3.4c0,2.3,1.5,3.4,3.4,3.4c1,0,1.9-0.3,2.7-0.8l0.5,1c-0.9,0.6-2,1-3.4,1C125.9,268.3,123.9,266.6,123.9,263.7z"/>
	<path d="M145.4,262.2c0-3.8,2.2-6.1,5.3-6.1c1.4,0,2.5,0.7,3.2,1.4l-0.9,1c-0.6-0.6-1.4-1.1-2.4-1.1c-2.3,0-3.7,1.8-3.7,4.8
		c0,3,1.5,4.8,3.7,4.8c1.1,0,1.9-0.5,2.6-1.3l0.9,0.9c-0.9,1.1-2.1,1.7-3.7,1.7C147.6,268.3,145.4,266,145.4,262.2z"/>
	<path d="M156.1,263.7c0-2.9,2-4.6,4.3-4.6s4.3,1.7,4.3,4.6c0,2.9-2,4.6-4.3,4.6S156.1,266.6,156.1,263.7z M163.2,263.7
		c0-2-1.1-3.4-2.8-3.4c-1.7,0-2.8,1.4-2.8,3.4c0,2,1.1,3.3,2.8,3.3C162.1,267,163.2,265.7,163.2,263.7z"/>
	<path d="M166.9,263.7c0-2.8,1.9-4.6,4-4.6c1,0,1.9,0.4,2.6,1.1h0l-0.1-1.6v-3.4h1.5v12.8h-1.2l-0.1-1.2h-0.1
		c-0.7,0.7-1.8,1.4-2.9,1.4C168.4,268.3,166.9,266.6,166.9,263.7z M173.5,265.7v-4.4c-0.8-0.7-1.5-1-2.3-1c-1.5,0-2.7,1.3-2.7,3.3
		c0,2.1,1,3.3,2.6,3.3C171.9,267,172.7,266.6,173.5,265.7z"/>
	<path d="M177.9,263.7c0-2.8,2.1-4.6,4.5-4.6c2.5,0,4,1.6,4,4.1c0,0.3,0,0.7-0.1,0.9h-7.4V263h6.5l-0.4,0.4c0-2.1-1-3.1-2.6-3.1
		c-1.6,0-3,1.2-3,3.4c0,2.3,1.5,3.4,3.4,3.4c1,0,1.9-0.3,2.7-0.8l0.5,1c-0.9,0.6-2,1-3.4,1C179.9,268.3,177.9,266.6,177.9,263.7z"/>
	<path d="M199,256.3h1.6l1.9,6.4c0.4,1.4,0.7,2.5,1.1,3.9h0.1c0.4-1.4,0.7-2.5,1.1-3.9l1.9-6.4h1.5l-3.7,11.8h-1.8L199,256.3z"/>
	<path d="M210.5,265.8c0-2,1.8-2.9,6.4-3.3c-0.1-1.2-0.6-2.2-2.3-2.2c-1.1,0-2.3,0.5-3.1,1l-0.6-1c0.9-0.6,2.4-1.3,3.9-1.3
		c2.4,0,3.6,1.4,3.6,3.6v5.4h-1.2l-0.1-1.2h-0.1c-1,0.8-2.2,1.4-3.4,1.4C211.8,268.3,210.5,267.4,210.5,265.8z M216.8,265.8v-2.3
		c-3.7,0.3-4.9,1-4.9,2.2c0,1,0.9,1.4,1.9,1.4C214.9,267.1,215.8,266.6,216.8,265.8z"/>
	<path d="M222.4,259.3h1.2l0.1,2.1h0c0.9-1.4,2.3-2.3,3.9-2.3c0.6,0,1.2,0.1,1.7,0.4l-0.3,1.3c-0.6-0.2-0.9-0.3-1.6-0.3
		c-1.3,0-2.6,0.7-3.6,2.5v5.1h-1.5V259.3z"/>
	<path d="M236.3,260.5h-4.1v-1.2h5.5v8.8h-1.5V260.5z M235.7,256.3c0-0.7,0.5-1.2,1.2-1.2c0.7,0,1.2,0.5,1.2,1.2
		c0,0.7-0.5,1.2-1.2,1.2C236.2,257.5,235.7,257,235.7,256.3z"/>
	<path d="M242.9,265.8c0-2,1.8-2.9,6.4-3.3c-0.1-1.2-0.6-2.2-2.3-2.2c-1.1,0-2.3,0.5-3.1,1l-0.6-1c0.9-0.6,2.4-1.3,3.9-1.3
		c2.4,0,3.6,1.4,3.6,3.6v5.4h-1.2l-0.1-1.2h-0.1c-1,0.8-2.2,1.4-3.4,1.4C244.2,268.3,242.9,267.4,242.9,265.8z M249.2,265.8v-2.3
		c-3.7,0.3-4.9,1-4.9,2.2c0,1,0.9,1.4,1.9,1.4C247.3,267.1,248.2,266.6,249.2,265.8z"/>
	<path d="M255.3,267.1L255.3,267.1l-0.2,1h-1.2v-12.8h1.5v3.5l-0.1,1.7h0.1c0.8-0.8,1.9-1.3,2.9-1.3c2.4,0,3.6,1.7,3.6,4.4
		c0,3-1.9,4.7-3.9,4.7C257.2,268.3,256.1,267.8,255.3,267.1z M260.4,263.6c0-1.9-0.7-3.2-2.5-3.2c-0.8,0-1.7,0.4-2.6,1.3v4.4
		c0.8,0.7,1.7,1,2.4,1C259.3,267,260.4,265.7,260.4,263.6z"/>
	<path d="M267.5,265.1v-8.7h-3.1v-1.2h4.6v10c0,1.3,0.7,1.8,1.7,1.8c0.5,0,1-0.1,1.6-0.4l0.4,1.1c-0.8,0.3-1.4,0.5-2.3,0.5
		C268.5,268.3,267.5,267.2,267.5,265.1z"/>
	<path d="M275.1,263.7c0-2.8,2.1-4.6,4.5-4.6c2.5,0,4,1.6,4,4.1c0,0.3,0,0.7-0.1,0.9H276V263h6.5l-0.4,0.4c0-2.1-1-3.1-2.6-3.1
		c-1.6,0-3,1.2-3,3.4c0,2.3,1.5,3.4,3.4,3.4c1,0,1.9-0.3,2.7-0.8l0.5,1c-0.9,0.6-2,1-3.4,1C277.1,268.3,275.1,266.6,275.1,263.7z"/>
	<path d="M297.2,256.3h3.7c2.4,0,4.1,0.9,4.1,3.3c0,2.4-1.7,3.5-4.1,3.5h-2.2v5h-1.5V256.3z M300.7,261.9c1.8,0,2.8-0.8,2.8-2.3
		c0-1.5-1-2.1-2.8-2.1h-1.9v4.4H300.7z M301.8,261.9l3.6,6.2h-1.7l-3.1-5.4L301.8,261.9z"/>
	<path d="M307.5,263.7c0-2.8,2.1-4.6,4.5-4.6c2.5,0,4,1.6,4,4.1c0,0.3,0,0.7-0.1,0.9h-7.4V263h6.5l-0.4,0.4c0-2.1-1-3.1-2.6-3.1
		c-1.6,0-3,1.2-3,3.4c0,2.3,1.5,3.4,3.4,3.4c1,0,1.9-0.3,2.7-0.8l0.5,1c-0.9,0.6-2,1-3.4,1C309.5,268.3,307.5,266.6,307.5,263.7z"/>
	<path d="M318.3,269.7c0-0.7,0.5-1.4,1.4-1.9v-0.1c-0.5-0.3-0.9-0.7-0.9-1.4c0-0.6,0.4-1.2,1-1.6v-0.1c-0.6-0.5-1.1-1.2-1.1-2.3
		c0-1.9,1.6-3.1,3.4-3.1c0.5,0,0.9,0.1,1.3,0.2h3.6v1.2h-2.3c0.4,0.4,0.7,1.1,0.7,1.8c0,1.9-1.5,3-3.4,3c-0.5,0-1-0.1-1.5-0.3
		c-0.4,0.3-0.7,0.6-0.7,1c0,0.7,0.7,1,1.8,1h2c2.2,0,3.3,0.6,3.3,2.1c0,1.6-1.9,3.1-4.9,3.1C319.8,272.1,318.3,271.2,318.3,269.7z
		 M325.8,269.3c0-0.8-0.7-1.1-2-1.1h-1.7c-0.5,0-1,0-1.3-0.1c-0.8,0.5-1.1,1-1.1,1.5c0,0.9,1,1.5,2.9,1.5
		C324.5,271,325.8,270.2,325.8,269.3z M324.3,262.2c0-1.2-0.9-2.1-2-2.1c-1.1,0-2,0.8-2,2.1c0,1.3,0.9,2.1,2,2.1
		C323.4,264.3,324.3,263.5,324.3,262.2z"/>
	<path d="M329.2,264.8v-5.4h1.5v5.2c0,1.6,0.6,2.4,2,2.4c1,0,1.7-0.5,2.7-1.6v-6.1h1.5v8.8h-1.2l-0.1-1.5h-0.1
		c-0.9,1-1.9,1.7-3.3,1.7C330.2,268.3,329.2,267.1,329.2,264.8z"/>
	<path d="M343.1,265.1v-8.7H340v-1.2h4.6v10c0,1.3,0.7,1.8,1.7,1.8c0.5,0,1-0.1,1.6-0.4l0.4,1.1c-0.8,0.3-1.4,0.5-2.3,0.5
		C344.1,268.3,343.1,267.2,343.1,265.1z"/>
	<path d="M350.9,265.8c0-2,1.8-2.9,6.4-3.3c-0.1-1.2-0.6-2.2-2.3-2.2c-1.1,0-2.3,0.5-3.1,1l-0.6-1c0.9-0.6,2.4-1.3,3.9-1.3
		c2.4,0,3.6,1.4,3.6,3.6v5.4h-1.2l-0.1-1.2h-0.1c-1,0.8-2.2,1.4-3.4,1.4C352.2,268.3,350.9,267.4,350.9,265.8z M357.2,265.8v-2.3
		c-3.7,0.3-4.9,1-4.9,2.2c0,1,0.9,1.4,1.9,1.4C355.2,267.1,356.2,266.6,357.2,265.8z"/>
	<path d="M362.8,259.3h1.2l0.1,2.1h0c0.9-1.4,2.3-2.3,3.9-2.3c0.6,0,1.2,0.1,1.7,0.4l-0.3,1.3c-0.6-0.2-0.9-0.3-1.6-0.3
		c-1.3,0-2.6,0.7-3.6,2.5v5.1h-1.5V259.3z"/>
	<path d="M383.6,266.8h3.3v-8.4h-2.6v-1c1.4-0.2,2.2-0.5,3-0.8h1.1v10.2h3v1.2h-7.8V266.8z"/>
	<path d="M393.9,265.1c0-1.6,1.2-2.5,2.5-3.1V262c-1-0.6-1.7-1.5-1.7-2.7c0-1.8,1.5-3,3.5-3c2.3,0,3.6,1.3,3.6,3.1
		c0,1.1-0.8,2.1-1.7,2.7v0.1c1.3,0.6,2.2,1.4,2.2,3c0,1.7-1.5,3.1-4.1,3.1C395.5,268.3,393.9,267,393.9,265.1z M400.8,265.2
		c0-1.6-1.6-2-3.6-2.7c-1.1,0.6-2,1.3-2,2.5c0,1.3,1.1,2.2,2.9,2.2C399.8,267.2,400.8,266.4,400.8,265.2z M400.4,259.5
		c0-1.1-0.8-2-2.3-2c-1.3,0-2.1,0.7-2.1,1.8c0,1.4,1.3,1.9,3,2.5C399.9,261.1,400.4,260.3,400.4,259.5z"/>
	<path d="M405.1,259.3h1.2l0.1,1.1h0.1c0.8-0.8,2-1.3,3-1.3c2.4,0,3.6,1.7,3.6,4.5c0,3-1.9,4.7-4,4.7c-0.8,0-1.8-0.4-2.6-1.1h0
		l0.1,1.7v3h-1.5V259.3z M411.6,263.6c0-1.9-0.7-3.2-2.5-3.2c-0.8,0-1.7,0.4-2.6,1.3v4.4c0.8,0.7,1.7,1,2.3,1
		C410.5,267,411.6,265.7,411.6,263.6z"/>
</g>
<g>
	<path d="M69.6,300.3l0.7-0.8c0.7,0.7,1.7,1.1,2.7,1.1c1.3,0,2-0.6,2-1.4c0-1-0.7-1.3-1.6-1.7l-1.3-0.6c-0.9-0.4-2-1-2-2.4
		c0-1.4,1.3-2.4,3-2.4c1.1,0,2.2,0.5,2.8,1.1l-0.6,0.8c-0.6-0.5-1.3-0.9-2.3-0.9c-1.1,0-1.8,0.5-1.8,1.3c0,0.9,0.9,1.2,1.6,1.5
		l1.3,0.6c1.1,0.4,2,1.1,2,2.5c0,1.5-1.2,2.6-3.2,2.6C71.6,301.6,70.4,301.1,69.6,300.3z"/>
	<path d="M77.9,298.1c0-2.3,1.6-3.6,3.4-3.6s3.4,1.3,3.4,3.6c0,2.3-1.6,3.6-3.4,3.6S77.9,300.3,77.9,298.1z M83.4,298.1
		c0-1.6-0.9-2.6-2.2-2.6s-2.2,1.1-2.2,2.6c0,1.6,0.9,2.6,2.2,2.6S83.4,299.6,83.4,298.1z"/>
	<path d="M86.5,298.9v-4.2h1.2v4.1c0,1.3,0.4,1.9,1.6,1.9c0.8,0,1.4-0.4,2.1-1.2v-4.7h1.2v6.8h-1l-0.1-1.2h-0.1
		c-0.7,0.8-1.5,1.4-2.5,1.4C87.3,301.6,86.5,300.7,86.5,298.9z"/>
	<path d="M95.9,294.6h1l0.1,1.6h0c0.7-1.1,1.8-1.8,3-1.8c0.5,0,0.9,0.1,1.3,0.3l-0.3,1c-0.5-0.2-0.7-0.2-1.3-0.2c-1,0-2,0.5-2.8,1.9
		v4h-1.2V294.6z"/>
	<path d="M103.4,298.1c0-2.3,1.7-3.6,3.8-3.6c1.1,0,1.9,0.4,2.5,1l-0.6,0.7c-0.6-0.5-1.1-0.8-1.9-0.8c-1.6,0-2.6,1.1-2.6,2.6
		c0,1.6,1.1,2.6,2.6,2.6c0.8,0,1.5-0.4,2.1-0.9l0.5,0.8c-0.8,0.7-1.7,1.1-2.7,1.1C105,301.6,103.4,300.3,103.4,298.1z"/>
	<path d="M111.6,298c0-2.2,1.7-3.6,3.5-3.6c2,0,3.1,1.3,3.1,3.2c0,0.3,0,0.5-0.1,0.7h-5.8v-0.9h5.1l-0.3,0.3c0-1.6-0.8-2.4-2-2.4
		c-1.3,0-2.4,1-2.4,2.6c0,1.8,1.1,2.7,2.7,2.7c0.8,0,1.5-0.3,2.1-0.6l0.4,0.8c-0.7,0.4-1.5,0.8-2.6,0.8
		C113.2,301.6,111.6,300.3,111.6,298z"/>
	<path d="M128.3,296.8c0-3,1.7-4.8,4.1-4.8c1.1,0,2,0.5,2.5,1.1l-0.7,0.7c-0.5-0.5-1.1-0.8-1.8-0.8c-1.8,0-2.9,1.4-2.9,3.7
		c0,2.3,1.1,3.8,2.9,3.8c0.8,0,1.5-0.4,2.1-1l0.7,0.7c-0.7,0.8-1.6,1.3-2.8,1.3C130.1,301.6,128.3,299.8,128.3,296.8z"/>
	<path d="M136.7,298.1c0-2.3,1.6-3.6,3.4-3.6s3.4,1.3,3.4,3.6c0,2.3-1.6,3.6-3.4,3.6S136.7,300.3,136.7,298.1z M142.2,298.1
		c0-1.6-0.9-2.6-2.2-2.6s-2.2,1.1-2.2,2.6c0,1.6,0.9,2.6,2.2,2.6S142.2,299.6,142.2,298.1z"/>
	<path d="M145.1,298.1c0-2.2,1.5-3.6,3.1-3.6c0.8,0,1.4,0.3,2,0.9h0l-0.1-1.2v-2.6h1.2v10h-1l-0.1-0.9h0c-0.6,0.6-1.4,1.1-2.2,1.1
		C146.3,301.6,145.1,300.3,145.1,298.1z M150.2,299.6v-3.4c-0.6-0.6-1.2-0.8-1.8-0.8c-1.2,0-2.1,1-2.1,2.6c0,1.6,0.8,2.6,2,2.6
		C148.9,300.6,149.6,300.3,150.2,299.6z"/>
	<path d="M153.6,298c0-2.2,1.7-3.6,3.5-3.6c2,0,3.1,1.3,3.1,3.2c0,0.3,0,0.5-0.1,0.7h-5.8v-0.9h5.1l-0.3,0.3c0-1.6-0.8-2.4-2-2.4
		c-1.3,0-2.4,1-2.4,2.6c0,1.8,1.1,2.7,2.7,2.7c0.8,0,1.5-0.3,2.1-0.6l0.4,0.8c-0.7,0.4-1.5,0.8-2.6,0.8
		C155.2,301.6,153.6,300.3,153.6,298z"/>
	<path d="M170,292.3h1.3l1.5,5c0.3,1.1,0.5,2,0.9,3h0.1c0.3-1.1,0.6-1.9,0.9-3l1.5-5h1.2l-2.9,9.2H173L170,292.3z"/>
	<path d="M179,299.7c0-1.5,1.4-2.3,4.9-2.5c0-0.9-0.5-1.7-1.8-1.7c-0.9,0-1.8,0.4-2.4,0.8l-0.5-0.8c0.7-0.4,1.8-1,3-1
		c1.9,0,2.8,1.1,2.8,2.8v4.2h-1l-0.1-0.9h0c-0.7,0.6-1.7,1.1-2.7,1.1C180,301.6,179,300.9,179,299.7z M183.9,299.7v-1.8
		c-2.9,0.2-3.8,0.8-3.8,1.7c0,0.8,0.7,1.1,1.5,1.1C182.4,300.7,183.1,300.3,183.9,299.7z"/>
	<path d="M188.3,294.6h1l0.1,1.6h0c0.7-1.1,1.8-1.8,3-1.8c0.5,0,0.9,0.1,1.3,0.3l-0.3,1c-0.5-0.2-0.7-0.2-1.3-0.2
		c-1,0-2,0.5-2.8,1.9v4h-1.2V294.6z"/>
	<path d="M199,295.6h-3.2v-0.9h4.3v6.8H199V295.6z M198.6,292.3c0-0.5,0.4-0.9,0.9-0.9s0.9,0.4,0.9,0.9c0,0.5-0.4,0.9-0.9,0.9
		S198.6,292.9,198.6,292.3z"/>
	<path d="M204.2,299.7c0-1.5,1.4-2.3,4.9-2.5c0-0.9-0.5-1.7-1.8-1.7c-0.9,0-1.8,0.4-2.4,0.8l-0.5-0.8c0.7-0.4,1.8-1,3-1
		c1.9,0,2.8,1.1,2.8,2.8v4.2h-1l-0.1-0.9h0c-0.7,0.6-1.7,1.1-2.7,1.1C205.2,301.6,204.2,300.9,204.2,299.7z M209.1,299.7v-1.8
		c-2.9,0.2-3.8,0.8-3.8,1.7c0,0.8,0.7,1.1,1.5,1.1C207.6,300.7,208.3,300.3,209.1,299.7z"/>
	<path d="M213.8,300.7L213.8,300.7l-0.2,0.8h-0.9v-10h1.2v2.7l-0.1,1.3h0c0.6-0.6,1.5-1,2.3-1c1.8,0,2.8,1.4,2.8,3.5
		c0,2.3-1.5,3.7-3.1,3.7C215.3,301.6,214.4,301.3,213.8,300.7z M217.8,297.9c0-1.5-0.6-2.5-1.9-2.5c-0.6,0-1.3,0.3-2,1v3.4
		c0.6,0.6,1.3,0.8,1.8,0.8C216.9,300.6,217.8,299.6,217.8,297.9z"/>
	<path d="M223.3,299.2v-6.8h-2.4v-0.9h3.6v7.8c0,1,0.5,1.4,1.3,1.4c0.4,0,0.8-0.1,1.3-0.3l0.3,0.9c-0.6,0.3-1.1,0.4-1.8,0.4
		C224.1,301.6,223.3,300.8,223.3,299.2z"/>
	<path d="M229.2,298c0-2.2,1.7-3.6,3.5-3.6c2,0,3.1,1.3,3.1,3.2c0,0.3,0,0.5-0.1,0.7H230v-0.9h5.1l-0.3,0.3c0-1.6-0.8-2.4-2-2.4
		c-1.3,0-2.4,1-2.4,2.6c0,1.8,1.1,2.7,2.7,2.7c0.8,0,1.5-0.3,2.1-0.6l0.4,0.8c-0.7,0.4-1.5,0.8-2.6,0.8
		C230.8,301.6,229.2,300.3,229.2,298z"/>
	<path d="M246.4,292.3h2.9c1.9,0,3.2,0.7,3.2,2.6c0,1.8-1.4,2.7-3.2,2.7h-1.7v3.9h-1.2V292.3z M249.1,296.6c1.4,0,2.2-0.6,2.2-1.8
		c0-1.2-0.8-1.6-2.2-1.6h-1.5v3.4H249.1z M250,296.6l2.8,4.8h-1.3l-2.4-4.2L250,296.6z"/>
	<path d="M254.4,298c0-2.2,1.7-3.6,3.5-3.6c2,0,3.1,1.3,3.1,3.2c0,0.3,0,0.5-0.1,0.7h-5.8v-0.9h5.1l-0.3,0.3c0-1.6-0.8-2.4-2-2.4
		c-1.3,0-2.4,1-2.4,2.6c0,1.8,1.1,2.7,2.7,2.7c0.8,0,1.5-0.3,2.1-0.6l0.4,0.8c-0.7,0.4-1.5,0.8-2.6,0.8
		C256,301.6,254.4,300.3,254.4,298z"/>
	<path d="M262.8,302.7c0-0.5,0.4-1.1,1.1-1.5v-0.1c-0.4-0.2-0.7-0.5-0.7-1.1c0-0.4,0.3-0.9,0.8-1.3v-0.1c-0.5-0.4-0.8-1-0.8-1.8
		c0-1.5,1.2-2.4,2.7-2.4c0.4,0,0.7,0.1,1,0.2h2.8v0.9H268c0.3,0.3,0.6,0.8,0.6,1.4c0,1.5-1.2,2.3-2.6,2.3c-0.4,0-0.8-0.1-1.1-0.3
		c-0.3,0.2-0.5,0.5-0.5,0.8c0,0.5,0.5,0.8,1.4,0.8h1.5c1.8,0,2.6,0.4,2.6,1.6c0,1.3-1.5,2.4-3.8,2.4
		C264,304.6,262.8,303.9,262.8,302.7z M268.6,302.4c0-0.6-0.5-0.8-1.6-0.8h-1.3c-0.4,0-0.7,0-1-0.1c-0.6,0.4-0.9,0.7-0.9,1.1
		c0,0.7,0.8,1.2,2.2,1.2C267.6,303.7,268.6,303.1,268.6,302.4z M267.5,296.9c0-1-0.7-1.6-1.6-1.6c-0.9,0-1.6,0.6-1.6,1.6
		c0,1,0.7,1.6,1.6,1.6C266.8,298.5,267.5,297.9,267.5,296.9z"/>
	<path d="M271.3,298.9v-4.2h1.2v4.1c0,1.3,0.4,1.9,1.6,1.9c0.8,0,1.4-0.4,2.1-1.2v-4.7h1.2v6.8h-1l-0.1-1.2h-0.1
		c-0.7,0.8-1.5,1.4-2.5,1.4C272.1,301.6,271.3,300.7,271.3,298.9z"/>
	<path d="M282.1,299.2v-6.8h-2.4v-0.9h3.6v7.8c0,1,0.5,1.4,1.3,1.4c0.4,0,0.8-0.1,1.3-0.3l0.3,0.9c-0.6,0.3-1.1,0.4-1.8,0.4
		C282.9,301.6,282.1,300.8,282.1,299.2z"/>
	<path d="M288.2,299.7c0-1.5,1.4-2.3,4.9-2.5c0-0.9-0.5-1.7-1.8-1.7c-0.9,0-1.8,0.4-2.4,0.8l-0.5-0.8c0.7-0.4,1.8-1,3-1
		c1.9,0,2.8,1.1,2.8,2.8v4.2h-1l-0.1-0.9h0c-0.7,0.6-1.7,1.1-2.7,1.1C289.2,301.6,288.2,300.9,288.2,299.7z M293.1,299.7v-1.8
		c-2.9,0.2-3.8,0.8-3.8,1.7c0,0.8,0.7,1.1,1.5,1.1C291.6,300.7,292.3,300.3,293.1,299.7z"/>
	<path d="M297.5,294.6h1l0.1,1.6h0c0.7-1.1,1.8-1.8,3-1.8c0.5,0,0.9,0.1,1.3,0.3l-0.3,1c-0.5-0.2-0.7-0.2-1.3-0.2
		c-1,0-2,0.5-2.8,1.9v4h-1.2V294.6z"/>
	<path d="M313.6,300.5h2.6v-6.6h-2v-0.8c1.1-0.1,1.7-0.4,2.3-0.7h0.9v8h2.3v1h-6.1V300.5z"/>
	<path d="M325.8,295.3c0-0.5,0-1.1,0.1-1.6h-0.1c-0.3,0.4-0.6,0.9-0.9,1.3l-2.4,3h5.8v0.9h-7.1v-0.8l4.5-5.7h1.2v8.9h-1.1V295.3z"/>
	<path d="M330.3,294.6h1l0.1,0.9h0c0.6-0.6,1.5-1,2.4-1c1.8,0,2.8,1.4,2.8,3.5c0,2.3-1.5,3.7-3.1,3.7c-0.6,0-1.4-0.3-2-0.9h0
		l0.1,1.3v2.3h-1.2V294.6z M335.4,297.9c0-1.5-0.6-2.5-1.9-2.5c-0.6,0-1.3,0.3-2,1v3.4c0.6,0.6,1.3,0.8,1.8,0.8
		C334.5,300.6,335.4,299.6,335.4,297.9z"/>
</g>
<g>
	<path d="M69.4,334.2l0.6-0.7c0.6,0.6,1.4,1,2.3,1c1.1,0,1.7-0.5,1.7-1.2c0-0.8-0.6-1.1-1.4-1.4l-1.1-0.5c-0.8-0.3-1.7-0.9-1.7-2
		c0-1.2,1.1-2.1,2.6-2.1c1,0,1.8,0.4,2.4,1l-0.5,0.6c-0.5-0.5-1.1-0.7-1.9-0.7c-0.9,0-1.5,0.4-1.5,1.1c0,0.8,0.7,1,1.4,1.3l1.1,0.5
		c1,0.4,1.7,0.9,1.7,2.1c0,1.2-1.1,2.2-2.8,2.2C71.1,335.3,70.1,334.9,69.4,334.2z"/>
	<path d="M76.6,332.3c0-2,1.3-3.1,2.9-3.1s2.9,1.1,2.9,3.1c0,1.9-1.3,3-2.9,3S76.6,334.2,76.6,332.3z M81.3,332.3
		c0-1.3-0.7-2.2-1.9-2.2c-1.1,0-1.9,0.9-1.9,2.2c0,1.3,0.7,2.2,1.9,2.2C80.6,334.5,81.3,333.6,81.3,332.3z"/>
	<path d="M84,333v-3.6h1v3.5c0,1.1,0.4,1.6,1.3,1.6c0.7,0,1.2-0.3,1.8-1.1v-4h1v5.8h-0.8l-0.1-1h0c-0.6,0.7-1.3,1.2-2.2,1.2
		C84.6,335.3,84,334.5,84,333z"/>
	<path d="M92,329.4h0.8l0.1,1.4h0c0.6-0.9,1.5-1.5,2.6-1.5c0.4,0,0.8,0.1,1.2,0.2l-0.2,0.9c-0.4-0.1-0.6-0.2-1.1-0.2
		c-0.9,0-1.7,0.4-2.4,1.7v3.4h-1V329.4z"/>
	<path d="M98.4,332.3c0-2,1.5-3.1,3.3-3.1c0.9,0,1.6,0.4,2.1,0.9l-0.5,0.6c-0.5-0.4-1-0.7-1.6-0.7c-1.3,0-2.3,0.9-2.3,2.2
		c0,1.3,0.9,2.2,2.2,2.2c0.7,0,1.3-0.3,1.8-0.7l0.4,0.6c-0.6,0.6-1.5,0.9-2.3,0.9C99.8,335.3,98.4,334.2,98.4,332.3z"/>
	<path d="M105.5,332.3c0-1.9,1.4-3,3-3c1.7,0,2.7,1.1,2.7,2.7c0,0.2,0,0.4,0,0.6h-4.9v-0.8h4.3l-0.3,0.3c0-1.4-0.7-2.1-1.8-2.1
		c-1.1,0-2,0.8-2,2.3c0,1.5,1,2.3,2.3,2.3c0.7,0,1.2-0.2,1.8-0.6l0.4,0.6c-0.6,0.4-1.3,0.7-2.3,0.7
		C106.8,335.3,105.5,334.2,105.5,332.3z"/>
	<path d="M119.8,331.3c0-2.5,1.5-4.1,3.5-4.1c0.9,0,1.7,0.5,2.2,1l-0.6,0.6c-0.4-0.4-0.9-0.7-1.6-0.7c-1.5,0-2.5,1.2-2.5,3.2
		c0,2,1,3.2,2.5,3.2c0.7,0,1.3-0.3,1.8-0.9l0.6,0.6c-0.6,0.7-1.4,1.1-2.4,1.1C121.3,335.3,119.8,333.8,119.8,331.3z"/>
	<path d="M127,332.3c0-2,1.3-3.1,2.9-3.1s2.9,1.1,2.9,3.1c0,1.9-1.3,3-2.9,3S127,334.2,127,332.3z M131.7,332.3
		c0-1.3-0.7-2.2-1.9-2.2c-1.1,0-1.9,0.9-1.9,2.2c0,1.3,0.7,2.2,1.9,2.2C131,334.5,131.7,333.6,131.7,332.3z"/>
	<path d="M134.2,332.3c0-1.9,1.3-3.1,2.6-3.1c0.7,0,1.2,0.3,1.8,0.7h0l0-1.1v-2.2h1v8.5h-0.8l-0.1-0.8h0c-0.5,0.5-1.2,0.9-1.9,0.9
		C135.2,335.3,134.2,334.2,134.2,332.3z M138.5,333.6v-2.9c-0.5-0.5-1-0.7-1.5-0.7c-1,0-1.8,0.9-1.8,2.2c0,1.4,0.6,2.2,1.7,2.2
		C137.5,334.5,138,334.2,138.5,333.6z"/>
	<path d="M141.5,332.3c0-1.9,1.4-3,3-3c1.7,0,2.7,1.1,2.7,2.7c0,0.2,0,0.4,0,0.6h-4.9v-0.8h4.3l-0.3,0.3c0-1.4-0.7-2.1-1.8-2.1
		c-1.1,0-2,0.8-2,2.3c0,1.5,1,2.3,2.3,2.3c0.7,0,1.2-0.2,1.8-0.6l0.4,0.6c-0.6,0.4-1.3,0.7-2.3,0.7
		C142.8,335.3,141.5,334.2,141.5,332.3z"/>
	<path d="M155.5,327.3h1.1l1.3,4.2c0.3,0.9,0.5,1.7,0.8,2.6h0c0.3-0.9,0.5-1.7,0.8-2.6l1.3-4.2h1l-2.5,7.9h-1.2L155.5,327.3z"/>
	<path d="M163.2,333.7c0-1.3,1.2-1.9,4.2-2.2c0-0.8-0.4-1.5-1.5-1.5c-0.8,0-1.5,0.4-2,0.7l-0.4-0.7c0.6-0.4,1.6-0.8,2.6-0.8
		c1.6,0,2.4,0.9,2.4,2.4v3.6h-0.8l-0.1-0.8h0c-0.6,0.5-1.5,0.9-2.3,0.9C164.1,335.3,163.2,334.7,163.2,333.7z M167.4,333.7v-1.5
		c-2.5,0.2-3.2,0.7-3.2,1.5c0,0.7,0.6,0.9,1.3,0.9C166.1,334.5,166.8,334.2,167.4,333.7z"/>
	<path d="M171.2,329.4h0.8l0.1,1.4h0c0.6-0.9,1.5-1.5,2.6-1.5c0.4,0,0.8,0.1,1.2,0.2l-0.2,0.9c-0.4-0.1-0.6-0.2-1.1-0.2
		c-0.9,0-1.7,0.4-2.4,1.7v3.4h-1V329.4z"/>
	<path d="M180.4,330.2h-2.7v-0.8h3.7v5.8h-1V330.2z M180,327.4c0-0.5,0.3-0.8,0.8-0.8s0.8,0.3,0.8,0.8c0,0.5-0.3,0.8-0.8,0.8
		S180,327.8,180,327.4z"/>
	<path d="M184.8,333.7c0-1.3,1.2-1.9,4.2-2.2c0-0.8-0.4-1.5-1.5-1.5c-0.8,0-1.5,0.4-2,0.7l-0.4-0.7c0.6-0.4,1.6-0.8,2.6-0.8
		c1.6,0,2.4,0.9,2.4,2.4v3.6h-0.8l-0.1-0.8h0c-0.6,0.5-1.5,0.9-2.3,0.9C185.7,335.3,184.8,334.7,184.8,333.7z M189,333.7v-1.5
		c-2.5,0.2-3.2,0.7-3.2,1.5c0,0.7,0.6,0.9,1.3,0.9C187.7,334.5,188.4,334.2,189,333.7z"/>
	<path d="M193.1,334.5L193.1,334.5l-0.1,0.6h-0.8v-8.5h1v2.3l0,1.1h0c0.5-0.5,1.3-0.9,2-0.9c1.6,0,2.4,1.2,2.4,3
		c0,2-1.2,3.2-2.6,3.2C194.3,335.3,193.6,335,193.1,334.5z M196.5,332.2c0-1.3-0.5-2.1-1.6-2.1c-0.5,0-1.1,0.3-1.7,0.9v2.9
		c0.5,0.5,1.2,0.7,1.6,0.7C195.7,334.5,196.5,333.6,196.5,332.2z"/>
	<path d="M201.2,333.2v-5.8h-2.1v-0.8h3.1v6.7c0,0.8,0.5,1.2,1.2,1.2c0.3,0,0.7-0.1,1.1-0.3l0.3,0.7c-0.5,0.2-0.9,0.3-1.6,0.3
		C201.9,335.3,201.2,334.6,201.2,333.2z"/>
	<path d="M206.3,332.3c0-1.9,1.4-3,3-3c1.7,0,2.7,1.1,2.7,2.7c0,0.2,0,0.4,0,0.6h-4.9v-0.8h4.3l-0.3,0.3c0-1.4-0.7-2.1-1.8-2.1
		c-1.1,0-2,0.8-2,2.3c0,1.5,1,2.3,2.3,2.3c0.7,0,1.2-0.2,1.8-0.6l0.4,0.6c-0.6,0.4-1.3,0.7-2.3,0.7
		C207.6,335.3,206.3,334.2,206.3,332.3z"/>
	<path d="M221,327.3h2.5c1.6,0,2.8,0.6,2.8,2.2c0,1.6-1.2,2.3-2.8,2.3H222v3.3h-1V327.3z M223.3,331.1c1.2,0,1.9-0.5,1.9-1.5
		c0-1-0.7-1.4-1.9-1.4H222v2.9H223.3z M224.1,331.1l2.4,4.1h-1.1l-2.1-3.6L224.1,331.1z"/>
	<path d="M227.9,332.3c0-1.9,1.4-3,3-3c1.7,0,2.7,1.1,2.7,2.7c0,0.2,0,0.4,0,0.6h-4.9v-0.8h4.3l-0.3,0.3c0-1.4-0.7-2.1-1.8-2.1
		c-1.1,0-2,0.8-2,2.3c0,1.5,1,2.3,2.3,2.3c0.7,0,1.2-0.2,1.8-0.6l0.4,0.6c-0.6,0.4-1.3,0.7-2.3,0.7
		C229.2,335.3,227.9,334.2,227.9,332.3z"/>
	<path d="M235.1,336.3c0-0.5,0.3-0.9,1-1.3v0c-0.3-0.2-0.6-0.5-0.6-1c0-0.4,0.3-0.8,0.7-1.1v0c-0.4-0.3-0.7-0.8-0.7-1.5
		c0-1.3,1.1-2.1,2.3-2.1c0.3,0,0.6,0,0.9,0.1h2.4v0.8h-1.5c0.3,0.3,0.5,0.7,0.5,1.2c0,1.2-1,2-2.3,2c-0.3,0-0.7-0.1-1-0.2
		c-0.3,0.2-0.5,0.4-0.5,0.7c0,0.5,0.4,0.7,1.2,0.7h1.3c1.5,0,2.2,0.4,2.2,1.4c0,1.1-1.3,2-3.2,2
		C236.1,337.9,235.1,337.3,235.1,336.3z M240.1,336c0-0.6-0.4-0.7-1.3-0.7h-1.1c-0.3,0-0.6,0-0.9-0.1c-0.6,0.3-0.7,0.6-0.7,1
		c0,0.6,0.7,1,1.9,1C239.2,337.2,240.1,336.6,240.1,336z M239.1,331.3c0-0.8-0.6-1.4-1.3-1.4c-0.7,0-1.3,0.6-1.3,1.4
		c0,0.8,0.6,1.4,1.3,1.4C238.5,332.7,239.1,332.1,239.1,331.3z"/>
	<path d="M242.4,333v-3.6h1v3.5c0,1.1,0.4,1.6,1.3,1.6c0.7,0,1.2-0.3,1.8-1.1v-4h1v5.8h-0.8l-0.1-1h0c-0.6,0.7-1.3,1.2-2.2,1.2
		C243,335.3,242.4,334.5,242.4,333z"/>
	<path d="M251.6,333.2v-5.8h-2.1v-0.8h3.1v6.7c0,0.8,0.5,1.2,1.2,1.2c0.3,0,0.7-0.1,1.1-0.3l0.3,0.7c-0.5,0.2-0.9,0.3-1.6,0.3
		C252.3,335.3,251.6,334.6,251.6,333.2z"/>
	<path d="M256.8,333.7c0-1.3,1.2-1.9,4.2-2.2c0-0.8-0.4-1.5-1.5-1.5c-0.8,0-1.5,0.4-2,0.7l-0.4-0.7c0.6-0.4,1.6-0.8,2.6-0.8
		c1.6,0,2.4,0.9,2.4,2.4v3.6h-0.8l-0.1-0.8h0c-0.6,0.5-1.5,0.9-2.3,0.9C257.7,335.3,256.8,334.7,256.8,333.7z M261,333.7v-1.5
		c-2.5,0.2-3.2,0.7-3.2,1.5c0,0.7,0.6,0.9,1.3,0.9C259.7,334.5,260.4,334.2,261,333.7z"/>
	<path d="M264.8,329.4h0.8l0.1,1.4h0c0.6-0.9,1.5-1.5,2.6-1.5c0.4,0,0.8,0.1,1.2,0.2l-0.2,0.9c-0.4-0.1-0.6-0.2-1.1-0.2
		c-0.9,0-1.7,0.4-2.4,1.7v3.4h-1V329.4z"/>
	<path d="M278.6,334.4h2.2v-5.6h-1.7v-0.6c0.9-0.1,1.5-0.3,2-0.6h0.7v6.8h2v0.8h-5.2V334.4z"/>
	<path d="M285.5,334.6c2.6-2.3,4-3.6,4-4.9c0-0.9-0.5-1.5-1.7-1.5c-0.7,0-1.3,0.4-1.8,0.9l-0.6-0.6c0.7-0.7,1.5-1.2,2.5-1.2
		c1.5,0,2.5,0.9,2.5,2.3c0,1.4-1.4,2.9-3.5,4.7c0.5,0,1-0.1,1.4-0.1h2.5v0.9h-5.4V334.6z"/>
	<path d="M292.9,329.4h0.8l0.1,0.7h0c0.5-0.5,1.3-0.9,2-0.9c1.6,0,2.4,1.2,2.4,3c0,2-1.2,3.1-2.7,3.1c-0.5,0-1.2-0.3-1.7-0.8h0
		l0,1.1v2h-1V329.4z M297.3,332.2c0-1.3-0.5-2.1-1.6-2.1c-0.5,0-1.1,0.3-1.7,0.9v2.9c0.5,0.5,1.2,0.7,1.5,0.7
		C296.5,334.5,297.3,333.6,297.3,332.2z"/>
</g>
<g>
	<path d="M69.4,368.2l0.5-0.6c0.5,0.5,1.3,0.9,2.1,0.9c1,0,1.6-0.5,1.6-1.1c0-0.8-0.6-1-1.3-1.3l-1-0.5c-0.7-0.3-1.6-0.8-1.6-1.9
		c0-1.1,1-1.9,2.4-1.9c0.9,0,1.7,0.4,2.2,0.9l-0.5,0.6c-0.5-0.4-1-0.7-1.8-0.7c-0.8,0-1.4,0.4-1.4,1c0,0.7,0.7,0.9,1.3,1.2l1,0.5
		c0.9,0.4,1.6,0.9,1.6,1.9c0,1.1-1,2.1-2.6,2.1C70.9,369.3,70,368.8,69.4,368.2z"/>
	<path d="M75.9,366.5c0-1.8,1.2-2.8,2.6-2.8s2.6,1,2.6,2.8c0,1.8-1.2,2.8-2.6,2.8S75.9,368.2,75.9,366.5z M80.2,366.5
		c0-1.2-0.7-2.1-1.7-2.1c-1,0-1.7,0.8-1.7,2.1c0,1.2,0.7,2,1.7,2C79.6,368.5,80.2,367.7,80.2,366.5z"/>
	<path d="M82.7,367.1v-3.3h0.9v3.2c0,1,0.4,1.5,1.2,1.5c0.6,0,1.1-0.3,1.7-1v-3.7h0.9v5.3h-0.8l-0.1-0.9h0c-0.5,0.6-1.2,1.1-2,1.1
		C83.3,369.3,82.7,368.5,82.7,367.1z"/>
	<path d="M90,363.8h0.8l0.1,1.3h0c0.6-0.9,1.4-1.4,2.4-1.4c0.4,0,0.7,0.1,1.1,0.2l-0.2,0.8c-0.4-0.1-0.6-0.2-1-0.2
		c-0.8,0-1.6,0.4-2.2,1.5v3.1H90V363.8z"/>
	<path d="M95.9,366.5c0-1.8,1.4-2.8,3-2.8c0.9,0,1.5,0.4,1.9,0.8l-0.5,0.6c-0.4-0.4-0.9-0.6-1.5-0.6c-1.2,0-2.1,0.8-2.1,2.1
		c0,1.2,0.8,2,2.1,2c0.7,0,1.2-0.3,1.6-0.7l0.4,0.6c-0.6,0.5-1.3,0.8-2.1,0.8C97.2,369.3,95.9,368.2,95.9,366.5z"/>
	<path d="M102.4,366.4c0-1.7,1.3-2.8,2.7-2.8c1.5,0,2.4,1,2.4,2.5c0,0.2,0,0.4,0,0.5H103V366h4l-0.2,0.3c0-1.3-0.6-1.9-1.6-1.9
		c-1,0-1.8,0.7-1.8,2.1c0,1.4,0.9,2.1,2.1,2.1c0.6,0,1.1-0.2,1.6-0.5l0.3,0.6c-0.5,0.4-1.2,0.6-2.1,0.6
		C103.7,369.3,102.4,368.2,102.4,366.4z"/>
	<path d="M115.6,365.5c0-2.3,1.4-3.7,3.2-3.7c0.9,0,1.6,0.4,2,0.9l-0.5,0.6c-0.4-0.4-0.8-0.6-1.5-0.6c-1.4,0-2.3,1.1-2.3,2.9
		c0,1.8,0.9,2.9,2.3,2.9c0.7,0,1.2-0.3,1.6-0.8l0.5,0.6c-0.6,0.7-1.3,1-2.2,1C116.9,369.3,115.6,367.9,115.6,365.5z"/>
	<path d="M122.1,366.5c0-1.8,1.2-2.8,2.6-2.8s2.6,1,2.6,2.8c0,1.8-1.2,2.8-2.6,2.8S122.1,368.2,122.1,366.5z M126.4,366.5
		c0-1.2-0.7-2.1-1.7-2.1c-1,0-1.7,0.8-1.7,2.1c0,1.2,0.7,2,1.7,2C125.8,368.5,126.4,367.7,126.4,366.5z"/>
	<path d="M128.7,366.5c0-1.7,1.2-2.8,2.4-2.8c0.6,0,1.1,0.3,1.6,0.7h0l0-1v-2.1h0.9v7.8h-0.7l-0.1-0.7h0c-0.4,0.5-1.1,0.8-1.7,0.8
		C129.6,369.3,128.7,368.3,128.7,366.5z M132.7,367.7V365c-0.5-0.5-0.9-0.6-1.4-0.6c-0.9,0-1.7,0.8-1.7,2c0,1.3,0.6,2,1.6,2
		C131.7,368.5,132.2,368.2,132.7,367.7z"/>
	<path d="M135.4,366.4c0-1.7,1.3-2.8,2.7-2.8c1.5,0,2.4,1,2.4,2.5c0,0.2,0,0.4,0,0.5H136V366h4l-0.2,0.3c0-1.3-0.6-1.9-1.6-1.9
		c-1,0-1.8,0.7-1.8,2.1c0,1.4,0.9,2.1,2.1,2.1c0.6,0,1.1-0.2,1.6-0.5l0.3,0.6c-0.5,0.4-1.2,0.6-2.1,0.6
		C136.7,369.3,135.4,368.2,135.4,366.4z"/>
	<path d="M148.3,361.9h1l1.2,3.9c0.3,0.8,0.4,1.5,0.7,2.4h0c0.3-0.8,0.5-1.5,0.7-2.4l1.2-3.9h0.9l-2.3,7.2h-1.1L148.3,361.9z"/>
	<path d="M155.3,367.7c0-1.2,1.1-1.8,3.9-2c0-0.7-0.4-1.3-1.4-1.3c-0.7,0-1.4,0.3-1.9,0.6l-0.4-0.6c0.5-0.4,1.5-0.8,2.4-0.8
		c1.5,0,2.2,0.9,2.2,2.2v3.3h-0.8l-0.1-0.7h0c-0.6,0.5-1.4,0.9-2.1,0.9C156.1,369.3,155.3,368.7,155.3,367.7z M159.2,367.7v-1.4
		c-2.3,0.2-3,0.6-3,1.3c0,0.6,0.5,0.8,1.2,0.8C158,368.5,158.6,368.2,159.2,367.7z"/>
	<path d="M162.6,363.8h0.8l0.1,1.3h0c0.6-0.9,1.4-1.4,2.4-1.4c0.4,0,0.7,0.1,1.1,0.2l-0.2,0.8c-0.4-0.1-0.6-0.2-1-0.2
		c-0.8,0-1.6,0.4-2.2,1.5v3.1h-0.9V363.8z"/>
	<path d="M171.1,364.5h-2.5v-0.7h3.4v5.3h-0.9V364.5z M170.7,362c0-0.4,0.3-0.7,0.7-0.7c0.4,0,0.7,0.3,0.7,0.7
		c0,0.4-0.3,0.7-0.7,0.7C171,362.7,170.7,362.4,170.7,362z"/>
	<path d="M175.1,367.7c0-1.2,1.1-1.8,3.9-2c0-0.7-0.4-1.3-1.4-1.3c-0.7,0-1.4,0.3-1.9,0.6l-0.4-0.6c0.5-0.4,1.5-0.8,2.4-0.8
		c1.5,0,2.2,0.9,2.2,2.2v3.3h-0.8l-0.1-0.7h0c-0.6,0.5-1.4,0.9-2.1,0.9C175.9,369.3,175.1,368.7,175.1,367.7z M179,367.7v-1.4
		c-2.3,0.2-3,0.6-3,1.3c0,0.6,0.5,0.8,1.2,0.8C177.8,368.5,178.4,368.2,179,367.7z"/>
	<path d="M182.7,368.5L182.7,368.5l-0.1,0.6h-0.7v-7.8h0.9v2.1l0,1h0c0.5-0.5,1.2-0.8,1.8-0.8c1.4,0,2.2,1.1,2.2,2.7
		c0,1.8-1.1,2.9-2.4,2.9C183.8,369.3,183.2,369,182.7,368.5z M185.8,366.4c0-1.2-0.4-2-1.5-2c-0.5,0-1,0.2-1.6,0.8v2.7
		c0.5,0.5,1.1,0.6,1.4,0.6C185.1,368.5,185.8,367.7,185.8,366.4z"/>
	<path d="M190.1,367.3V362h-1.9v-0.7h2.8v6.1c0,0.8,0.4,1.1,1.1,1.1c0.3,0,0.6-0.1,1-0.2l0.2,0.7c-0.5,0.2-0.8,0.3-1.4,0.3
		C190.8,369.3,190.1,368.6,190.1,367.3z"/>
	<path d="M194.8,366.4c0-1.7,1.3-2.8,2.7-2.8c1.5,0,2.4,1,2.4,2.5c0,0.2,0,0.4,0,0.5h-4.5V366h4l-0.2,0.3c0-1.3-0.6-1.9-1.6-1.9
		c-1,0-1.8,0.7-1.8,2.1c0,1.4,0.9,2.1,2.1,2.1c0.6,0,1.1-0.2,1.6-0.5l0.3,0.6c-0.5,0.4-1.2,0.6-2.1,0.6
		C196.1,369.3,194.8,368.2,194.8,366.4z"/>
	<path d="M208.3,361.9h2.3c1.5,0,2.5,0.5,2.5,2c0,1.4-1.1,2.1-2.5,2.1h-1.3v3h-0.9V361.9z M210.4,365.3c1.1,0,1.7-0.5,1.7-1.4
		c0-0.9-0.6-1.3-1.7-1.3h-1.2v2.7H210.4z M211.1,365.3l2.2,3.8h-1l-1.9-3.3L211.1,365.3z"/>
	<path d="M214.6,366.4c0-1.7,1.3-2.8,2.7-2.8c1.5,0,2.4,1,2.4,2.5c0,0.2,0,0.4,0,0.5h-4.5V366h4l-0.2,0.3c0-1.3-0.6-1.9-1.6-1.9
		c-1,0-1.8,0.7-1.8,2.1c0,1.4,0.9,2.1,2.1,2.1c0.6,0,1.1-0.2,1.6-0.5l0.3,0.6c-0.5,0.4-1.2,0.6-2.1,0.6
		C215.9,369.3,214.6,368.2,214.6,366.4z"/>
	<path d="M221.2,370.1c0-0.4,0.3-0.9,0.9-1.2v0c-0.3-0.2-0.5-0.4-0.5-0.9c0-0.3,0.2-0.7,0.6-1v0c-0.4-0.3-0.7-0.7-0.7-1.4
		c0-1.2,1-1.9,2.1-1.9c0.3,0,0.6,0,0.8,0.1h2.2v0.7h-1.4c0.2,0.3,0.5,0.6,0.5,1.1c0,1.1-0.9,1.8-2.1,1.8c-0.3,0-0.6-0.1-0.9-0.2
		c-0.3,0.2-0.4,0.4-0.4,0.6c0,0.4,0.4,0.6,1.1,0.6h1.2c1.4,0,2,0.4,2,1.3c0,1-1.2,1.9-3,1.9C222.1,371.6,221.2,371.1,221.2,370.1z
		 M225.8,369.9c0-0.5-0.4-0.6-1.2-0.6h-1c-0.3,0-0.6,0-0.8-0.1c-0.5,0.3-0.7,0.6-0.7,0.9c0,0.6,0.6,0.9,1.7,0.9
		C225,370.9,225.8,370.4,225.8,369.9z M224.9,365.6c0-0.7-0.5-1.3-1.2-1.3c-0.7,0-1.2,0.5-1.2,1.3c0,0.8,0.6,1.3,1.2,1.3
		C224.3,366.8,224.9,366.3,224.9,365.6z"/>
	<path d="M227.9,367.1v-3.3h0.9v3.2c0,1,0.4,1.5,1.2,1.5c0.6,0,1.1-0.3,1.7-1v-3.7h0.9v5.3h-0.8l-0.1-0.9h0c-0.5,0.6-1.2,1.1-2,1.1
		C228.5,369.3,227.9,368.5,227.9,367.1z"/>
	<path d="M236.3,367.3V362h-1.9v-0.7h2.8v6.1c0,0.8,0.4,1.1,1.1,1.1c0.3,0,0.6-0.1,1-0.2l0.2,0.7c-0.5,0.2-0.8,0.3-1.4,0.3
		C237,369.3,236.3,368.6,236.3,367.3z"/>
	<path d="M241.1,367.7c0-1.2,1.1-1.8,3.9-2c0-0.7-0.4-1.3-1.4-1.3c-0.7,0-1.4,0.3-1.9,0.6l-0.4-0.6c0.5-0.4,1.5-0.8,2.4-0.8
		c1.5,0,2.2,0.9,2.2,2.2v3.3h-0.8l-0.1-0.7h0c-0.6,0.5-1.4,0.9-2.1,0.9C241.9,369.3,241.1,368.7,241.1,367.7z M245,367.7v-1.4
		c-2.3,0.2-3,0.6-3,1.3c0,0.6,0.5,0.8,1.2,0.8C243.8,368.5,244.4,368.2,245,367.7z"/>
	<path d="M248.4,363.8h0.8l0.1,1.3h0c0.6-0.9,1.4-1.4,2.4-1.4c0.4,0,0.7,0.1,1.1,0.2l-0.2,0.8c-0.4-0.1-0.6-0.2-1-0.2
		c-0.8,0-1.6,0.4-2.2,1.5v3.1h-0.9V363.8z"/>
	<path d="M261.1,368.4h2v-5.1h-1.6v-0.6c0.8-0.1,1.4-0.3,1.8-0.5h0.7v6.3h1.8v0.8h-4.8V368.4z"/>
	<path d="M267.7,368.4h2v-5.1h-1.6v-0.6c0.8-0.1,1.4-0.3,1.8-0.5h0.7v6.3h1.8v0.8h-4.8V368.4z"/>
	<path d="M274.3,363.8h0.7l0.1,0.7h0c0.5-0.5,1.2-0.8,1.8-0.8c1.4,0,2.2,1.1,2.2,2.7c0,1.8-1.1,2.9-2.4,2.9c-0.5,0-1.1-0.3-1.6-0.7
		h0l0,1v1.8h-0.9V363.8z M278.2,366.4c0-1.2-0.4-2-1.5-2c-0.5,0-1,0.2-1.6,0.8v2.7c0.5,0.5,1.1,0.6,1.4,0.6
		C277.5,368.5,278.2,367.7,278.2,366.4z"/>
</g>
<g>
	<path d="M69.3,402.2l0.5-0.6c0.5,0.5,1.2,0.8,1.9,0.8c0.9,0,1.4-0.4,1.4-1c0-0.7-0.5-0.9-1.2-1.2l-0.9-0.4
		c-0.6-0.3-1.4-0.7-1.4-1.7c0-1,0.9-1.7,2.1-1.7c0.8,0,1.5,0.3,2,0.8l-0.4,0.5c-0.4-0.4-0.9-0.6-1.6-0.6c-0.8,0-1.3,0.4-1.3,0.9
		c0,0.6,0.6,0.9,1.2,1.1l0.9,0.4c0.8,0.3,1.4,0.8,1.4,1.7c0,1-0.9,1.9-2.3,1.9C70.7,403.2,69.9,402.8,69.3,402.2z"/>
	<path d="M75.2,400.7c0-1.6,1.1-2.6,2.4-2.6s2.4,0.9,2.4,2.6c0,1.6-1.1,2.5-2.4,2.5S75.2,402.3,75.2,400.7z M79.2,400.7
		c0-1.1-0.6-1.9-1.5-1.9c-0.9,0-1.5,0.7-1.5,1.9c0,1.1,0.6,1.8,1.5,1.8C78.6,402.5,79.2,401.8,79.2,400.7z"/>
	<path d="M81.4,401.2v-3h0.8v2.9c0,0.9,0.3,1.3,1.1,1.3c0.6,0,1-0.3,1.5-0.9v-3.4h0.8v4.9H85l-0.1-0.8h0c-0.5,0.6-1.1,1-1.8,1
		C81.9,403.2,81.4,402.5,81.4,401.2z"/>
	<path d="M88.1,398.2h0.7l0.1,1.1h0c0.5-0.8,1.3-1.3,2.2-1.3c0.4,0,0.7,0,1,0.2l-0.2,0.7c-0.3-0.1-0.5-0.2-0.9-0.2
		c-0.7,0-1.4,0.4-2,1.4v2.8h-0.8V398.2z"/>
	<path d="M93.4,400.7c0-1.6,1.2-2.6,2.7-2.6c0.8,0,1.4,0.3,1.8,0.7l-0.4,0.5c-0.4-0.3-0.8-0.5-1.3-0.5c-1.1,0-1.9,0.7-1.9,1.9
		c0,1.1,0.8,1.8,1.9,1.8c0.6,0,1.1-0.3,1.5-0.6l0.4,0.5c-0.5,0.5-1.2,0.8-1.9,0.8C94.6,403.2,93.4,402.3,93.4,400.7z"/>
	<path d="M99.3,400.6c0-1.6,1.2-2.5,2.5-2.5c1.4,0,2.2,0.9,2.2,2.3c0,0.2,0,0.4,0,0.5h-4.1v-0.6h3.6l-0.2,0.2c0-1.1-0.6-1.7-1.5-1.7
		c-0.9,0-1.7,0.7-1.7,1.9c0,1.3,0.8,1.9,1.9,1.9c0.6,0,1-0.2,1.5-0.5l0.3,0.5c-0.5,0.3-1.1,0.6-1.9,0.6
		C100.5,403.2,99.3,402.2,99.3,400.6z"/>
	<path d="M111.3,399.8c0-2.1,1.2-3.4,2.9-3.4c0.8,0,1.4,0.4,1.8,0.8l-0.5,0.5c-0.3-0.4-0.8-0.6-1.3-0.6c-1.2,0-2.1,1-2.1,2.6
		c0,1.6,0.8,2.7,2.1,2.7c0.6,0,1.1-0.3,1.5-0.7l0.5,0.5c-0.5,0.6-1.2,0.9-2,0.9C112.5,403.2,111.3,401.9,111.3,399.8z"/>
	<path d="M117.2,400.7c0-1.6,1.1-2.6,2.4-2.6s2.4,0.9,2.4,2.6c0,1.6-1.1,2.5-2.4,2.5S117.2,402.3,117.2,400.7z M121.2,400.7
		c0-1.1-0.6-1.9-1.5-1.9c-0.9,0-1.5,0.7-1.5,1.9c0,1.1,0.6,1.8,1.5,1.8C120.6,402.5,121.2,401.8,121.2,400.7z"/>
	<path d="M123.2,400.7c0-1.6,1-2.6,2.2-2.6c0.6,0,1,0.2,1.5,0.6h0l0-0.9V396h0.8v7.1H127l-0.1-0.6h0c-0.4,0.4-1,0.8-1.6,0.8
		C124.1,403.2,123.2,402.3,123.2,400.7z M126.9,401.8v-2.4c-0.4-0.4-0.8-0.6-1.3-0.6c-0.8,0-1.5,0.7-1.5,1.8c0,1.2,0.5,1.8,1.4,1.8
		C126,402.5,126.4,402.2,126.9,401.8z"/>
	<path d="M129.3,400.6c0-1.6,1.2-2.5,2.5-2.5c1.4,0,2.2,0.9,2.2,2.3c0,0.2,0,0.4,0,0.5h-4.1v-0.6h3.6l-0.2,0.2
		c0-1.1-0.6-1.7-1.5-1.7c-0.9,0-1.7,0.7-1.7,1.9c0,1.3,0.8,1.9,1.9,1.9c0.6,0,1-0.2,1.5-0.5l0.3,0.5c-0.5,0.3-1.1,0.6-1.9,0.6
		C130.5,403.2,129.3,402.2,129.3,400.6z"/>
	<path d="M141.1,396.5h0.9l1,3.5c0.2,0.8,0.4,1.4,0.6,2.2h0c0.2-0.8,0.4-1.4,0.6-2.2l1-3.5h0.9l-2.1,6.6h-1L141.1,396.5z"/>
	<path d="M147.4,401.8c0-1.1,1-1.6,3.5-1.8c0-0.7-0.3-1.2-1.3-1.2c-0.6,0-1.2,0.3-1.7,0.6l-0.3-0.6c0.5-0.3,1.3-0.7,2.2-0.7
		c1.3,0,2,0.8,2,2v3h-0.7l-0.1-0.7h0c-0.5,0.4-1.2,0.8-1.9,0.8C148.2,403.2,147.4,402.7,147.4,401.8z M151,401.8v-1.3
		c-2.1,0.2-2.7,0.6-2.7,1.2c0,0.5,0.5,0.8,1.1,0.8C149.9,402.5,150.4,402.3,151,401.8z"/>
	<path d="M154.1,398.2h0.7l0.1,1.1h0c0.5-0.8,1.3-1.3,2.2-1.3c0.4,0,0.7,0,1,0.2l-0.2,0.7c-0.3-0.1-0.5-0.2-0.9-0.2
		c-0.7,0-1.4,0.4-2,1.4v2.8h-0.8V398.2z"/>
	<path d="M161.8,398.9h-2.2v-0.7h3.1v4.9h-0.8V398.9z M161.5,396.6c0-0.4,0.3-0.6,0.7-0.6c0.4,0,0.7,0.3,0.7,0.6
		c0,0.4-0.3,0.6-0.7,0.6C161.7,397.2,161.5,396.9,161.5,396.6z"/>
	<path d="M165.4,401.8c0-1.1,1-1.6,3.5-1.8c0-0.7-0.3-1.2-1.3-1.2c-0.6,0-1.2,0.3-1.7,0.6l-0.3-0.6c0.5-0.3,1.3-0.7,2.2-0.7
		c1.3,0,2,0.8,2,2v3h-0.7l-0.1-0.7h0c-0.5,0.4-1.2,0.8-1.9,0.8C166.2,403.2,165.4,402.7,165.4,401.8z M169,401.8v-1.3
		c-2.1,0.2-2.7,0.6-2.7,1.2c0,0.5,0.5,0.8,1.1,0.8C167.9,402.5,168.4,402.3,169,401.8z"/>
	<path d="M172.3,402.5L172.3,402.5l-0.1,0.5h-0.7V396h0.8v1.9l0,0.9h0c0.4-0.4,1.1-0.7,1.6-0.7c1.3,0,2,1,2,2.5c0,1.7-1,2.6-2.2,2.6
		C173.4,403.2,172.8,402.9,172.3,402.5z M175.2,400.6c0-1.1-0.4-1.8-1.4-1.8c-0.4,0-0.9,0.2-1.4,0.7v2.4c0.5,0.4,1,0.6,1.3,0.6
		C174.5,402.5,175.2,401.8,175.2,400.6z"/>
	<path d="M179.1,401.4v-4.8h-1.7V396h2.5v5.5c0,0.7,0.4,1,1,1c0.3,0,0.6-0.1,0.9-0.2l0.2,0.6c-0.5,0.2-0.8,0.3-1.3,0.3
		C179.7,403.2,179.1,402.6,179.1,401.4z"/>
	<path d="M183.3,400.6c0-1.6,1.2-2.5,2.5-2.5c1.4,0,2.2,0.9,2.2,2.3c0,0.2,0,0.4,0,0.5h-4.1v-0.6h3.6l-0.2,0.2
		c0-1.1-0.6-1.7-1.5-1.7c-0.9,0-1.7,0.7-1.7,1.9c0,1.3,0.8,1.9,1.9,1.9c0.6,0,1-0.2,1.5-0.5l0.3,0.5c-0.5,0.3-1.1,0.6-1.9,0.6
		C184.5,403.2,183.3,402.2,183.3,400.6z"/>
	<path d="M195.6,396.5h2c1.3,0,2.3,0.5,2.3,1.8c0,1.3-1,1.9-2.3,1.9h-1.2v2.8h-0.8V396.5z M197.6,399.6c1,0,1.6-0.4,1.6-1.3
		c0-0.9-0.6-1.2-1.6-1.2h-1.1v2.4H197.6z M198.2,399.6l2,3.4h-1l-1.7-3L198.2,399.6z"/>
	<path d="M201.3,400.6c0-1.6,1.2-2.5,2.5-2.5c1.4,0,2.2,0.9,2.2,2.3c0,0.2,0,0.4,0,0.5h-4.1v-0.6h3.6l-0.2,0.2
		c0-1.1-0.6-1.7-1.5-1.7c-0.9,0-1.7,0.7-1.7,1.9c0,1.3,0.8,1.9,1.9,1.9c0.6,0,1-0.2,1.5-0.5l0.3,0.5c-0.5,0.3-1.1,0.6-1.9,0.6
		C202.5,403.2,201.3,402.2,201.3,400.6z"/>
	<path d="M207.4,404c0-0.4,0.3-0.8,0.8-1.1v0c-0.3-0.1-0.5-0.4-0.5-0.8c0-0.3,0.2-0.7,0.6-0.9v0c-0.3-0.2-0.6-0.7-0.6-1.3
		c0-1.1,0.9-1.7,1.9-1.7c0.3,0,0.5,0,0.7,0.1h2v0.7H211c0.2,0.2,0.4,0.6,0.4,1c0,1-0.8,1.7-1.9,1.7c-0.2,0-0.5-0.1-0.8-0.2
		c-0.2,0.1-0.4,0.3-0.4,0.6c0,0.4,0.4,0.6,1,0.6h1.1c1.2,0,1.8,0.3,1.8,1.1c0,0.9-1,1.7-2.7,1.7C208.2,405.3,207.4,404.8,207.4,404z
		 M211.5,403.7c0-0.5-0.4-0.6-1.1-0.6h-1c-0.3,0-0.5,0-0.7-0.1c-0.5,0.2-0.6,0.5-0.6,0.8c0,0.5,0.5,0.8,1.6,0.8
		C210.8,404.7,211.5,404.2,211.5,403.7z M210.7,399.8c0-0.7-0.5-1.1-1.1-1.1c-0.6,0-1.1,0.5-1.1,1.1c0,0.7,0.5,1.1,1.1,1.1
		C210.2,401,210.7,400.5,210.7,399.8z"/>
	<path d="M213.4,401.2v-3h0.8v2.9c0,0.9,0.3,1.3,1.1,1.3c0.6,0,1-0.3,1.5-0.9v-3.4h0.8v4.9H217l-0.1-0.8h0c-0.5,0.6-1.1,1-1.8,1
		C213.9,403.2,213.4,402.5,213.4,401.2z"/>
	<path d="M221.1,401.4v-4.8h-1.7V396h2.5v5.5c0,0.7,0.4,1,1,1c0.3,0,0.6-0.1,0.9-0.2l0.2,0.6c-0.5,0.2-0.8,0.3-1.3,0.3
		C221.7,403.2,221.1,402.6,221.1,401.4z"/>
	<path d="M225.4,401.8c0-1.1,1-1.6,3.5-1.8c0-0.7-0.3-1.2-1.3-1.2c-0.6,0-1.2,0.3-1.7,0.6l-0.3-0.6c0.5-0.3,1.3-0.7,2.2-0.7
		c1.3,0,2,0.8,2,2v3h-0.7l-0.1-0.7h0c-0.5,0.4-1.2,0.8-1.9,0.8C226.2,403.2,225.4,402.7,225.4,401.8z M229,401.8v-1.3
		c-2.1,0.2-2.7,0.6-2.7,1.2c0,0.5,0.5,0.8,1.1,0.8C227.9,402.5,228.4,402.3,229,401.8z"/>
	<path d="M232.1,398.2h0.7l0.1,1.1h0c0.5-0.8,1.3-1.3,2.2-1.3c0.4,0,0.7,0,1,0.2l-0.2,0.7c-0.3-0.1-0.5-0.2-0.9-0.2
		c-0.7,0-1.4,0.4-2,1.4v2.8h-0.8V398.2z"/>
	<path d="M243.6,402.4h1.8v-4.7H244v-0.5c0.8-0.1,1.2-0.2,1.6-0.5h0.6v5.7h1.7v0.7h-4.3V402.4z"/>
	<path d="M249.3,399.9c0-2.1,0.9-3.3,2.3-3.3c1.4,0,2.3,1.1,2.3,3.3c0,2.1-0.9,3.3-2.3,3.3C250.2,403.2,249.3,402,249.3,399.9z
		 M253.2,399.9c0-1.8-0.6-2.6-1.5-2.6s-1.5,0.8-1.5,2.6c0,1.8,0.6,2.7,1.5,2.7S253.2,401.7,253.2,399.9z M251,399.8
		c0-0.4,0.3-0.7,0.6-0.7c0.3,0,0.6,0.2,0.6,0.7c0,0.4-0.3,0.7-0.6,0.7C251.3,400.5,251,400.2,251,399.8z"/>
	<path d="M255.6,398.2h0.7l0.1,0.6h0c0.5-0.4,1.1-0.7,1.7-0.7c1.3,0,2,1,2,2.5c0,1.6-1,2.6-2.2,2.6c-0.5,0-1-0.2-1.4-0.6h0l0,0.9
		v1.6h-0.8V398.2z M259.2,400.6c0-1.1-0.4-1.8-1.4-1.8c-0.4,0-0.9,0.2-1.4,0.7v2.4c0.5,0.4,1,0.6,1.3,0.6
		C258.5,402.5,259.2,401.8,259.2,400.6z"/>
</g>
<g>
	<path d="M69.2,436.2l0.5-0.5c0.5,0.4,1.1,0.7,1.7,0.7c0.8,0,1.3-0.4,1.3-0.9c0-0.6-0.5-0.8-1.1-1.1l-0.9-0.4
		c-0.6-0.2-1.3-0.6-1.3-1.5c0-0.9,0.8-1.6,1.9-1.6c0.7,0,1.4,0.3,1.8,0.7l-0.4,0.5c-0.4-0.3-0.8-0.5-1.4-0.5c-0.7,0-1.1,0.3-1.1,0.9
		c0,0.6,0.5,0.8,1.1,1l0.8,0.4c0.7,0.3,1.3,0.7,1.3,1.6c0,0.9-0.8,1.7-2.1,1.7C70.5,437.1,69.8,436.8,69.2,436.2z"/>
	<path d="M74.6,434.8c0-1.5,1-2.3,2.2-2.3s2.2,0.8,2.2,2.3c0,1.5-1,2.3-2.2,2.3S74.6,436.3,74.6,434.8z M78.1,434.8
		c0-1-0.6-1.7-1.4-1.7c-0.8,0-1.4,0.7-1.4,1.7c0,1,0.6,1.7,1.4,1.7C77.6,436.5,78.1,435.8,78.1,434.8z"/>
	<path d="M80.1,435.4v-2.7h0.7v2.6c0,0.8,0.3,1.2,1,1.2c0.5,0,0.9-0.2,1.4-0.8v-3H84v4.4h-0.6l-0.1-0.8h0c-0.4,0.5-1,0.9-1.6,0.9
		C80.6,437.1,80.1,436.5,80.1,435.4z"/>
	<path d="M86.1,432.6h0.6l0.1,1h0c0.5-0.7,1.1-1.1,2-1.1c0.3,0,0.6,0,0.9,0.2l-0.2,0.6c-0.3-0.1-0.5-0.1-0.8-0.1
		c-0.7,0-1.3,0.3-1.8,1.3v2.6h-0.7V432.6z"/>
	<path d="M91,434.8c0-1.5,1.1-2.3,2.4-2.3c0.7,0,1.2,0.3,1.6,0.6l-0.4,0.5c-0.4-0.3-0.7-0.5-1.2-0.5c-1,0-1.7,0.7-1.7,1.7
		c0,1,0.7,1.7,1.7,1.7c0.5,0,1-0.2,1.4-0.5l0.3,0.5c-0.5,0.4-1.1,0.7-1.7,0.7C92,437.1,91,436.3,91,434.8z"/>
	<path d="M96.2,434.8c0-1.4,1.1-2.3,2.2-2.3c1.3,0,2,0.8,2,2.1c0,0.2,0,0.3,0,0.5h-3.7v-0.6h3.3l-0.2,0.2c0-1-0.5-1.5-1.3-1.5
		c-0.8,0-1.5,0.6-1.5,1.7c0,1.1,0.7,1.7,1.7,1.7c0.5,0,0.9-0.2,1.3-0.4l0.3,0.5c-0.4,0.3-1,0.5-1.7,0.5
		C97.3,437.1,96.2,436.3,96.2,434.8z"/>
	<path d="M107,434.1c0-1.9,1.1-3.1,2.6-3.1c0.7,0,1.3,0.3,1.6,0.7l-0.4,0.5c-0.3-0.3-0.7-0.5-1.2-0.5c-1.1,0-1.9,0.9-1.9,2.4
		c0,1.5,0.7,2.4,1.9,2.4c0.5,0,1-0.2,1.3-0.6l0.4,0.5c-0.5,0.5-1,0.9-1.8,0.9C108.1,437.1,107,436,107,434.1z"/>
	<path d="M112.4,434.8c0-1.5,1-2.3,2.2-2.3s2.2,0.8,2.2,2.3c0,1.5-1,2.3-2.2,2.3S112.4,436.3,112.4,434.8z M115.9,434.8
		c0-1-0.6-1.7-1.4-1.7c-0.8,0-1.4,0.7-1.4,1.7c0,1,0.6,1.7,1.4,1.7C115.4,436.5,115.9,435.8,115.9,434.8z"/>
	<path d="M117.8,434.8c0-1.4,0.9-2.3,2-2.3c0.5,0,0.9,0.2,1.3,0.6h0l0-0.8v-1.7h0.7v6.4h-0.6l-0.1-0.6h0c-0.4,0.4-0.9,0.7-1.4,0.7
		C118.5,437.1,117.8,436.3,117.8,434.8z M121.1,435.8v-2.2c-0.4-0.4-0.8-0.5-1.1-0.5c-0.8,0-1.4,0.7-1.4,1.7c0,1,0.5,1.7,1.3,1.7
		C120.3,436.5,120.7,436.3,121.1,435.8z"/>
	<path d="M123.2,434.8c0-1.4,1.1-2.3,2.2-2.3c1.3,0,2,0.8,2,2.1c0,0.2,0,0.3,0,0.5h-3.7v-0.6h3.3l-0.2,0.2c0-1-0.5-1.5-1.3-1.5
		c-0.8,0-1.5,0.6-1.5,1.7c0,1.1,0.7,1.7,1.7,1.7c0.5,0,0.9-0.2,1.3-0.4l0.3,0.5c-0.4,0.3-1,0.5-1.7,0.5
		C124.3,437.1,123.2,436.3,123.2,434.8z"/>
	<path d="M133.8,431.1h0.8l0.9,3.2c0.2,0.7,0.4,1.3,0.6,1.9h0c0.2-0.7,0.4-1.3,0.6-1.9l0.9-3.2h0.8l-1.9,5.9h-0.9L133.8,431.1z"/>
	<path d="M139.6,435.9c0-1,0.9-1.5,3.2-1.6c0-0.6-0.3-1.1-1.2-1.1c-0.6,0-1.1,0.3-1.5,0.5l-0.3-0.5c0.5-0.3,1.2-0.6,2-0.6
		c1.2,0,1.8,0.7,1.8,1.8v2.7h-0.6l-0.1-0.6h0c-0.5,0.4-1.1,0.7-1.7,0.7C140.2,437.1,139.6,436.7,139.6,435.9z M142.7,435.9v-1.1
		c-1.9,0.1-2.4,0.5-2.4,1.1c0,0.5,0.5,0.7,1,0.7C141.7,436.5,142.2,436.3,142.7,435.9z"/>
	<path d="M145.5,432.6h0.6l0.1,1h0c0.5-0.7,1.1-1.1,2-1.1c0.3,0,0.6,0,0.9,0.2l-0.2,0.6c-0.3-0.1-0.5-0.1-0.8-0.1
		c-0.7,0-1.3,0.3-1.8,1.3v2.6h-0.7V432.6z"/>
	<path d="M152.5,433.2h-2v-0.6h2.8v4.4h-0.7V433.2z M152.2,431.1c0-0.3,0.3-0.6,0.6-0.6s0.6,0.2,0.6,0.6c0,0.4-0.3,0.6-0.6,0.6
		S152.2,431.5,152.2,431.1z"/>
	<path d="M155.8,435.9c0-1,0.9-1.5,3.2-1.6c0-0.6-0.3-1.1-1.2-1.1c-0.6,0-1.1,0.3-1.5,0.5l-0.3-0.5c0.5-0.3,1.2-0.6,2-0.6
		c1.2,0,1.8,0.7,1.8,1.8v2.7h-0.6l-0.1-0.6h0c-0.5,0.4-1.1,0.7-1.7,0.7C156.4,437.1,155.8,436.7,155.8,435.9z M158.9,435.9v-1.1
		c-1.9,0.1-2.4,0.5-2.4,1.1c0,0.5,0.5,0.7,1,0.7C157.9,436.5,158.4,436.3,158.9,435.9z"/>
	<path d="M162,436.5L162,436.5l-0.1,0.5h-0.6v-6.4h0.7v1.7l0,0.8h0c0.4-0.4,1-0.7,1.5-0.7c1.2,0,1.8,0.9,1.8,2.2
		c0,1.5-0.9,2.4-2,2.4C162.9,437.1,162.4,436.9,162,436.5z M164.5,434.8c0-1-0.4-1.6-1.2-1.6c-0.4,0-0.8,0.2-1.3,0.6v2.2
		c0.4,0.4,0.9,0.5,1.2,0.5C164,436.5,164.5,435.8,164.5,434.8z"/>
	<path d="M168.1,435.5v-4.3h-1.5v-0.6h2.3v5c0,0.6,0.3,0.9,0.9,0.9c0.3,0,0.5-0.1,0.8-0.2l0.2,0.6c-0.4,0.2-0.7,0.3-1.2,0.3
		C168.6,437.1,168.1,436.6,168.1,435.5z"/>
	<path d="M171.8,434.8c0-1.4,1.1-2.3,2.2-2.3c1.3,0,2,0.8,2,2.1c0,0.2,0,0.3,0,0.5h-3.7v-0.6h3.3l-0.2,0.2c0-1-0.5-1.5-1.3-1.5
		c-0.8,0-1.5,0.6-1.5,1.7c0,1.1,0.7,1.7,1.7,1.7c0.5,0,0.9-0.2,1.3-0.4l0.3,0.5c-0.4,0.3-1,0.5-1.7,0.5
		C172.9,437.1,171.8,436.3,171.8,434.8z"/>
	<path d="M182.9,431.1h1.8c1.2,0,2.1,0.4,2.1,1.7c0,1.2-0.9,1.7-2.1,1.7h-1.1v2.5h-0.8V431.1z M184.7,433.9c0.9,0,1.4-0.4,1.4-1.1
		c0-0.8-0.5-1.1-1.4-1.1h-1v2.2H184.7z M185.2,433.9l1.8,3.1h-0.9l-1.5-2.7L185.2,433.9z"/>
	<path d="M188,434.8c0-1.4,1.1-2.3,2.2-2.3c1.3,0,2,0.8,2,2.1c0,0.2,0,0.3,0,0.5h-3.7v-0.6h3.3l-0.2,0.2c0-1-0.5-1.5-1.3-1.5
		c-0.8,0-1.5,0.6-1.5,1.7c0,1.1,0.7,1.7,1.7,1.7c0.5,0,0.9-0.2,1.3-0.4l0.3,0.5c-0.4,0.3-1,0.5-1.7,0.5
		C189.1,437.1,188,436.3,188,434.8z"/>
	<path d="M193.5,437.8c0-0.4,0.3-0.7,0.7-1v0c-0.2-0.1-0.5-0.4-0.5-0.7c0-0.3,0.2-0.6,0.5-0.8v0c-0.3-0.2-0.5-0.6-0.5-1.1
		c0-1,0.8-1.6,1.7-1.6c0.3,0,0.5,0,0.6,0.1h1.8v0.6h-1.1c0.2,0.2,0.4,0.5,0.4,0.9c0,0.9-0.7,1.5-1.7,1.5c-0.2,0-0.5-0.1-0.7-0.2
		c-0.2,0.1-0.3,0.3-0.3,0.5c0,0.3,0.3,0.5,0.9,0.5h1c1.1,0,1.7,0.3,1.7,1c0,0.8-0.9,1.5-2.4,1.5C194.2,439,193.5,438.6,193.5,437.8z
		 M197.2,437.6c0-0.4-0.3-0.5-1-0.5h-0.9c-0.3,0-0.5,0-0.7-0.1c-0.4,0.2-0.6,0.5-0.6,0.7c0,0.5,0.5,0.7,1.4,0.7
		C196.6,438.5,197.2,438.1,197.2,437.6z M196.5,434.1c0-0.6-0.5-1-1-1c-0.5,0-1,0.4-1,1c0,0.6,0.5,1,1,1
		C196,435.1,196.5,434.7,196.5,434.1z"/>
	<path d="M198.9,435.4v-2.7h0.7v2.6c0,0.8,0.3,1.2,1,1.2c0.5,0,0.9-0.2,1.4-0.8v-3h0.7v4.4h-0.6l-0.1-0.8h0c-0.4,0.5-1,0.9-1.6,0.9
		C199.4,437.1,198.9,436.5,198.9,435.4z"/>
	<path d="M205.9,435.5v-4.3h-1.5v-0.6h2.3v5c0,0.6,0.3,0.9,0.9,0.9c0.3,0,0.5-0.1,0.8-0.2l0.2,0.6c-0.4,0.2-0.7,0.3-1.2,0.3
		C206.4,437.1,205.9,436.6,205.9,435.5z"/>
	<path d="M209.8,435.9c0-1,0.9-1.5,3.2-1.6c0-0.6-0.3-1.1-1.2-1.1c-0.6,0-1.1,0.3-1.5,0.5l-0.3-0.5c0.5-0.3,1.2-0.6,2-0.6
		c1.2,0,1.8,0.7,1.8,1.8v2.7h-0.6l-0.1-0.6h0c-0.5,0.4-1.1,0.7-1.7,0.7C210.4,437.1,209.8,436.7,209.8,435.9z M212.9,435.9v-1.1
		c-1.9,0.1-2.4,0.5-2.4,1.1c0,0.5,0.5,0.7,1,0.7C211.9,436.5,212.4,436.3,212.9,435.9z"/>
	<path d="M215.7,432.6h0.6l0.1,1h0c0.5-0.7,1.1-1.1,2-1.1c0.3,0,0.6,0,0.9,0.2l-0.2,0.6c-0.3-0.1-0.5-0.1-0.8-0.1
		c-0.7,0-1.3,0.3-1.8,1.3v2.6h-0.7V432.6z"/>
	<path d="M225.9,436.5l0.4-0.5c0.3,0.3,0.7,0.5,1.1,0.5c0.9,0,1.7-0.7,1.7-2.6c0-1.4-0.5-2.2-1.5-2.2c-0.7,0-1.2,0.5-1.2,1.3
		c0,0.8,0.4,1.2,1.2,1.2c0.5,0,1-0.2,1.5-0.8l0,0.6c-0.5,0.5-1.1,0.8-1.7,0.8c-1.1,0-1.8-0.6-1.8-1.8c0-1.1,0.9-1.8,1.9-1.8
		c1.3,0,2.2,0.9,2.2,2.8c0,2.3-1.2,3.2-2.4,3.2C226.8,437.1,226.3,436.9,225.9,436.5z"/>
	<path d="M231.5,432.6h0.6l0.1,0.6h0c0.4-0.4,1-0.7,1.5-0.7c1.2,0,1.8,0.9,1.8,2.2c0,1.5-0.9,2.4-2,2.4c-0.4,0-0.9-0.2-1.3-0.6h0
		l0,0.8v1.5h-0.7V432.6z M234.7,434.8c0-1-0.4-1.6-1.2-1.6c-0.4,0-0.8,0.2-1.3,0.6v2.2c0.4,0.4,0.9,0.5,1.2,0.5
		C234.2,436.5,234.7,435.8,234.7,434.8z"/>
</g>
<g>
	<path d="M69.2,470.3l0.4-0.5c0.4,0.4,0.9,0.6,1.5,0.6c0.7,0,1.1-0.3,1.1-0.8c0-0.6-0.4-0.7-0.9-0.9l-0.8-0.3
		c-0.5-0.2-1.1-0.6-1.1-1.4c0-0.8,0.7-1.4,1.7-1.4c0.7,0,1.2,0.3,1.6,0.6l-0.4,0.4c-0.3-0.3-0.7-0.5-1.3-0.5c-0.6,0-1,0.3-1,0.8
		c0,0.5,0.5,0.7,0.9,0.9l0.7,0.3c0.6,0.3,1.2,0.6,1.2,1.4c0,0.8-0.7,1.5-1.9,1.5C70.3,471,69.6,470.7,69.2,470.3z"/>
	<path d="M73.9,469c0-1.3,0.9-2,1.9-2s1.9,0.7,1.9,2c0,1.3-0.9,2-1.9,2S73.9,470.3,73.9,469z M77.1,469c0-0.9-0.5-1.5-1.2-1.5
		c-0.7,0-1.2,0.6-1.2,1.5c0,0.9,0.5,1.5,1.2,1.5C76.6,470.5,77.1,469.9,77.1,469z"/>
	<path d="M78.9,469.5v-2.4h0.7v2.3c0,0.7,0.3,1.1,0.9,1.1c0.4,0,0.8-0.2,1.2-0.7v-2.7h0.7v3.9h-0.6l-0.1-0.7h0
		c-0.4,0.5-0.8,0.8-1.4,0.8C79.3,471,78.9,470.5,78.9,469.5z"/>
	<path d="M84.2,467.1h0.6l0.1,0.9h0c0.4-0.6,1-1,1.7-1c0.3,0,0.5,0,0.8,0.2l-0.2,0.6c-0.3-0.1-0.4-0.1-0.7-0.1
		c-0.6,0-1.1,0.3-1.6,1.1v2.3h-0.7V467.1z"/>
	<path d="M88.5,469c0-1.3,1-2,2.2-2c0.6,0,1.1,0.3,1.4,0.6l-0.3,0.4c-0.3-0.3-0.7-0.4-1.1-0.4c-0.9,0-1.5,0.6-1.5,1.5
		c0,0.9,0.6,1.5,1.5,1.5c0.5,0,0.9-0.2,1.2-0.5l0.3,0.4c-0.4,0.4-1,0.6-1.5,0.6C89.4,471,88.5,470.3,88.5,469z"/>
	<path d="M93.2,469c0-1.3,0.9-2,2-2c1.1,0,1.8,0.7,1.8,1.8c0,0.2,0,0.3,0,0.4h-3.3v-0.5h2.9l-0.2,0.2c0-0.9-0.5-1.4-1.2-1.4
		c-0.7,0-1.3,0.5-1.3,1.5c0,1,0.7,1.5,1.5,1.5c0.5,0,0.8-0.1,1.2-0.4l0.2,0.4c-0.4,0.3-0.9,0.5-1.5,0.5
		C94.1,471,93.2,470.3,93.2,469z"/>
	<path d="M102.8,468.3c0-1.7,1-2.7,2.4-2.7c0.6,0,1.1,0.3,1.4,0.6l-0.4,0.4c-0.3-0.3-0.6-0.5-1.1-0.5c-1,0-1.7,0.8-1.7,2.1
		c0,1.3,0.7,2.1,1.7,2.1c0.5,0,0.8-0.2,1.2-0.6l0.4,0.4c-0.4,0.5-0.9,0.8-1.6,0.8C103.7,471,102.8,470,102.8,468.3z"/>
	<path d="M107.5,469c0-1.3,0.9-2,1.9-2s1.9,0.7,1.9,2c0,1.3-0.9,2-1.9,2S107.5,470.3,107.5,469z M110.7,469c0-0.9-0.5-1.5-1.2-1.5
		c-0.7,0-1.2,0.6-1.2,1.5c0,0.9,0.5,1.5,1.2,1.5C110.2,470.5,110.7,469.9,110.7,469z"/>
	<path d="M112.3,469c0-1.3,0.8-2,1.8-2c0.5,0,0.8,0.2,1.2,0.5h0l0-0.7v-1.5h0.7v5.7h-0.5l-0.1-0.5h0c-0.3,0.3-0.8,0.6-1.3,0.6
		C113,471,112.3,470.3,112.3,469z M115.2,469.9V468c-0.4-0.3-0.7-0.4-1-0.4c-0.7,0-1.2,0.6-1.2,1.5c0,0.9,0.4,1.5,1.1,1.5
		C114.5,470.5,114.9,470.3,115.2,469.9z"/>
	<path d="M117.2,469c0-1.3,0.9-2,2-2c1.1,0,1.8,0.7,1.8,1.8c0,0.2,0,0.3,0,0.4h-3.3v-0.5h2.9l-0.2,0.2c0-0.9-0.5-1.4-1.2-1.4
		c-0.7,0-1.3,0.5-1.3,1.5c0,1,0.7,1.5,1.5,1.5c0.5,0,0.8-0.1,1.2-0.4l0.2,0.4c-0.4,0.3-0.9,0.5-1.5,0.5
		C118.1,471,117.2,470.3,117.2,469z"/>
	<path d="M126.6,465.7h0.7l0.8,2.8c0.2,0.6,0.3,1.1,0.5,1.7h0c0.2-0.6,0.3-1.1,0.5-1.7l0.8-2.8h0.7l-1.7,5.2h-0.8L126.6,465.7z"/>
	<path d="M131.7,469.9c0-0.9,0.8-1.3,2.8-1.5c0-0.5-0.3-1-1-1c-0.5,0-1,0.2-1.4,0.5l-0.3-0.4c0.4-0.3,1.1-0.6,1.7-0.6
		c1.1,0,1.6,0.6,1.6,1.6v2.4h-0.6l-0.1-0.5h0c-0.4,0.3-1,0.6-1.5,0.6C132.3,471,131.7,470.6,131.7,469.9z M134.5,469.9v-1
		c-1.7,0.1-2.2,0.5-2.2,1c0,0.4,0.4,0.6,0.8,0.6C133.6,470.5,134.1,470.3,134.5,469.9z"/>
	<path d="M137,467.1h0.6l0.1,0.9h0c0.4-0.6,1-1,1.7-1c0.3,0,0.5,0,0.8,0.2l-0.2,0.6c-0.3-0.1-0.4-0.1-0.7-0.1
		c-0.6,0-1.1,0.3-1.6,1.1v2.3H137V467.1z"/>
	<path d="M143.2,467.6h-1.8v-0.5h2.5v3.9h-0.7V467.6z M142.9,465.7c0-0.3,0.2-0.5,0.5-0.5s0.5,0.2,0.5,0.5c0,0.3-0.2,0.5-0.5,0.5
		S142.9,466,142.9,465.7z"/>
	<path d="M146.1,469.9c0-0.9,0.8-1.3,2.8-1.5c0-0.5-0.3-1-1-1c-0.5,0-1,0.2-1.4,0.5l-0.3-0.4c0.4-0.3,1.1-0.6,1.7-0.6
		c1.1,0,1.6,0.6,1.6,1.6v2.4H149l-0.1-0.5h0c-0.4,0.3-1,0.6-1.5,0.6C146.7,471,146.1,470.6,146.1,469.9z M148.9,469.9v-1
		c-1.7,0.1-2.2,0.5-2.2,1c0,0.4,0.4,0.6,0.8,0.6C148,470.5,148.5,470.3,148.9,469.9z"/>
	<path d="M151.6,470.5L151.6,470.5l-0.1,0.4H151v-5.7h0.7v1.6l0,0.8h0c0.4-0.4,0.8-0.6,1.3-0.6c1,0,1.6,0.8,1.6,2
		c0,1.3-0.8,2.1-1.8,2.1C152.4,471,152,470.8,151.6,470.5z M153.9,468.9c0-0.9-0.3-1.4-1.1-1.4c-0.3,0-0.7,0.2-1.1,0.6v1.9
		c0.4,0.3,0.8,0.4,1,0.4C153.4,470.5,153.9,469.9,153.9,468.9z"/>
	<path d="M157,469.6v-3.9h-1.4v-0.5h2v4.4c0,0.6,0.3,0.8,0.8,0.8c0.2,0,0.5-0.1,0.7-0.2l0.2,0.5c-0.4,0.2-0.6,0.2-1,0.2
		C157.5,471,157,470.6,157,469.6z"/>
	<path d="M160.4,469c0-1.3,0.9-2,2-2c1.1,0,1.8,0.7,1.8,1.8c0,0.2,0,0.3,0,0.4h-3.3v-0.5h2.9l-0.2,0.2c0-0.9-0.5-1.4-1.2-1.4
		c-0.7,0-1.3,0.5-1.3,1.5c0,1,0.7,1.5,1.5,1.5c0.5,0,0.8-0.1,1.2-0.4l0.2,0.4c-0.4,0.3-0.9,0.5-1.5,0.5
		C161.3,471,160.4,470.3,160.4,469z"/>
	<path d="M170.2,465.7h1.6c1.1,0,1.8,0.4,1.8,1.5c0,1-0.8,1.6-1.8,1.6h-1v2.2h-0.7V465.7z M171.8,468.2c0.8,0,1.3-0.3,1.3-1
		c0-0.7-0.4-0.9-1.3-0.9h-0.9v1.9H171.8z M172.3,468.2l1.6,2.8h-0.8l-1.4-2.4L172.3,468.2z"/>
	<path d="M174.8,469c0-1.3,0.9-2,2-2c1.1,0,1.8,0.7,1.8,1.8c0,0.2,0,0.3,0,0.4h-3.3v-0.5h2.9l-0.2,0.2c0-0.9-0.5-1.4-1.2-1.4
		c-0.7,0-1.3,0.5-1.3,1.5c0,1,0.7,1.5,1.5,1.5c0.5,0,0.8-0.1,1.2-0.4l0.2,0.4c-0.4,0.3-0.9,0.5-1.5,0.5
		C175.7,471,174.8,470.3,174.8,469z"/>
	<path d="M179.6,471.7c0-0.3,0.2-0.6,0.6-0.9v0c-0.2-0.1-0.4-0.3-0.4-0.6c0-0.2,0.2-0.5,0.5-0.7v0c-0.3-0.2-0.5-0.5-0.5-1
		c0-0.8,0.7-1.4,1.5-1.4c0.2,0,0.4,0,0.6,0.1h1.6v0.5h-1c0.2,0.2,0.3,0.5,0.3,0.8c0,0.8-0.7,1.3-1.5,1.3c-0.2,0-0.4,0-0.7-0.1
		c-0.2,0.1-0.3,0.3-0.3,0.4c0,0.3,0.3,0.4,0.8,0.4h0.9c1,0,1.5,0.3,1.5,0.9c0,0.7-0.8,1.4-2.2,1.4
		C180.3,472.7,179.6,472.3,179.6,471.7z M182.9,471.5c0-0.4-0.3-0.5-0.9-0.5h-0.8c-0.2,0-0.4,0-0.6-0.1c-0.4,0.2-0.5,0.4-0.5,0.6
		c0,0.4,0.4,0.7,1.3,0.7C182.4,472.3,182.9,471.9,182.9,471.5z M182.3,468.4c0-0.5-0.4-0.9-0.9-0.9c-0.5,0-0.9,0.4-0.9,0.9
		c0,0.6,0.4,0.9,0.9,0.9C181.9,469.3,182.3,468.9,182.3,468.4z"/>
	<path d="M184.5,469.5v-2.4h0.7v2.3c0,0.7,0.3,1.1,0.9,1.1c0.4,0,0.8-0.2,1.2-0.7v-2.7h0.7v3.9h-0.6l-0.1-0.7h0
		c-0.4,0.5-0.8,0.8-1.4,0.8C184.9,471,184.5,470.5,184.5,469.5z"/>
	<path d="M190.6,469.6v-3.9h-1.4v-0.5h2v4.4c0,0.6,0.3,0.8,0.8,0.8c0.2,0,0.5-0.1,0.7-0.2l0.2,0.5c-0.4,0.2-0.6,0.2-1,0.2
		C191.1,471,190.6,470.6,190.6,469.6z"/>
	<path d="M194.1,469.9c0-0.9,0.8-1.3,2.8-1.5c0-0.5-0.3-1-1-1c-0.5,0-1,0.2-1.4,0.5l-0.3-0.4c0.4-0.3,1.1-0.6,1.7-0.6
		c1.1,0,1.6,0.6,1.6,1.6v2.4H197l-0.1-0.5h0c-0.4,0.3-1,0.6-1.5,0.6C194.7,471,194.1,470.6,194.1,469.9z M196.9,469.9v-1
		c-1.7,0.1-2.2,0.5-2.2,1c0,0.4,0.4,0.6,0.8,0.6C196,470.5,196.5,470.3,196.9,469.9z"/>
	<path d="M199.4,467.1h0.6l0.1,0.9h0c0.4-0.6,1-1,1.7-1c0.3,0,0.5,0,0.8,0.2l-0.2,0.6c-0.3-0.1-0.4-0.1-0.7-0.1
		c-0.6,0-1.1,0.3-1.6,1.1v2.3h-0.7V467.1z"/>
	<path d="M208.4,469.6c0-0.7,0.5-1.1,1.1-1.4v0c-0.4-0.3-0.8-0.7-0.8-1.2c0-0.8,0.7-1.3,1.6-1.3c1,0,1.6,0.6,1.6,1.4
		c0,0.5-0.4,0.9-0.8,1.2v0c0.6,0.3,1,0.6,1,1.3c0,0.8-0.7,1.4-1.8,1.4C209.1,471,208.4,470.4,208.4,469.6z M211.5,469.7
		c0-0.7-0.7-0.9-1.6-1.2c-0.5,0.3-0.9,0.6-0.9,1.1c0,0.6,0.5,1,1.3,1C211,470.5,211.5,470.2,211.5,469.7z M211.3,467.1
		c0-0.5-0.4-0.9-1-0.9c-0.6,0-1,0.3-1,0.8c0,0.6,0.6,0.9,1.3,1.1C211.1,467.9,211.3,467.5,211.3,467.1z"/>
	<path d="M213.4,467.1h0.5l0.1,0.5h0c0.4-0.3,0.9-0.6,1.3-0.6c1,0,1.6,0.8,1.6,2c0,1.3-0.8,2.1-1.8,2.1c-0.4,0-0.8-0.2-1.2-0.5h0
		l0,0.7v1.3h-0.7V467.1z M216.3,468.9c0-0.9-0.3-1.4-1.1-1.4c-0.3,0-0.7,0.2-1.1,0.6v1.9c0.4,0.3,0.8,0.4,1,0.4
		C215.8,470.5,216.3,469.9,216.3,468.9z"/>
</g>
</svg>
