<?xml version="1.0" encoding="UTF-8" standalone="no"?><svg id="SvgjsSvg1001" width="600" height="600" xmlns="http://www.w3.org/2000/svg" version="1.1" xmlns:xlink="http://www.w3.org/1999/xlink" xmlns:svgjs="http://svgjs.com/svgjs"><title xmlns="http://www.w3.org/1999/xhtml">function vectorField(p) {
  return {
    x: Math.cos(Math.max(Math.sqrt(p.x*p.x + p.y * p.y),Math.sin(p.y)))*p.x,
    y: p.y
  };
}</title><g id="SvgjsG4741"><polyline id="SvgjsPolyline4742" points="582.7,299.8 582.6,307.6 582,316 581.3,321.9 579.6,332 577.9,339.6 575.9,347.2 572.8,357.5 565.8,379.2 562.9,390.2 561.2,399.7 560.8,403.3 560.6,406.9 560.6,411.7 560.8,414.7 561.7,420.6 562.1,422.3 562.9,425.2 564.3,429.2 566.3,433.6 567.5,435.7 569.6,439.3 572.4,443.2 577.5,449.1 580.9,452.5 584,455.3 591.5,461.3 599.9,467.1" fill="none" stroke="#000000" stroke-width="1"/><polyline id="SvgjsPolyline4743" points="582.9,300.5 582.7,299.9 468.1,299.8 409.9,299.5 403.3,299.3 398.6,298.9 396.3,298.2 395.4,297.4 394.7,295.7 394.5,294.5 393.7,283.2 392.7,273.6 391.9,267.7 390.2,257.6 387.7,245.9 384.4,233.1 380.8,221 376.5,207.9 357.7,155.4 353.2,141.7 347.8,123.3 344.3,109.3 342.5,101.1 340.7,91.7 338.4,77.4 336.8,64.3 335.9,54.8 335,40.4 334.6,27.8 334.6,11 334.9,0.2" fill="none" stroke="#000000" stroke-width="1"/><polyline id="SvgjsPolyline4744" points="583,300.7 582.5,301.1 582.9,301.6 584,302 586.3,302.4 592.3,302.9 599.5,303.2" fill="none" stroke="#000000" stroke-width="1"/><polyline id="SvgjsPolyline4745" points="583.2,300 582.7,299.7 582.7,304.5 582.5,305.7 582.1,306.8 580.9,308.2 579.4,309.2 576.1,310.6 572.6,311.6 568.5,312.5 556.1,314.5 545.3,315.8 500.6,320.2 477.9,322.8 467.2,324.3 458.3,325.8 451.3,327.2 442.5,329.3 434.5,331.8 430.6,333.3 425.7,335.5 421.5,337.8 417.9,340.1 413.2,343.8 410.2,346.7 406.2,351.2 401,358.6 395.9,367.4 393.7,371.7 389,381.4 386,388 375.9,411 367.2,432.1 361.4,447.2 354.9,465.9 349.6,483.8 346.8,494.8 343.8,508.9 341.2,524.3 339.3,539.8 338.1,554.7 337.5,568.5 337.4,588.3 337.8,599.7" fill="none" stroke="#000000" stroke-width="1"/><polyline id="SvgjsPolyline4746" points="582.7,306.4 582.9,308.2 583.6,309.8 584.4,310.8 585.3,311.6 587.8,313.1 590.6,314.2 593.5,315.1 599.9,316.5" fill="none" stroke="#000000" stroke-width="1"/><polyline id="SvgjsPolyline4747" points="582.7,300.6 582.5,314.4 583.1,317.9 584,320.1 585.8,322.6 587,323.8 588.9,325.3 592.6,327.4 596.4,329.1 599.8,330.3" fill="none" stroke="#000000" stroke-width="1"/><polyline id="SvgjsPolyline4748" points="582.7,299.5 582.7,305.5 582.4,309.7 581.9,312.7 581.1,314.9 579.6,317.5 577.5,319.7 575.1,321.5 572.5,323 568.7,324.8 562,327.3 551.6,330.3 536.4,333.8 499.9,341.2 485.3,344.5 477.7,346.4 469.1,348.8 463.3,350.6 453.7,354 448.7,356 440,360.1 431.7,364.9 428.7,366.9 422,372 416.2,377.2 411.2,382.4 406.9,387.4 403.2,392.1 399,398 394.7,404.5 390.9,410.6 383.8,423.1 376.7,437 370.2,451.2 364.3,465.6 360.8,475.2 356.4,488.9 352.5,503.4 349.8,515.7 348,525.8 345.9,541.2 344.8,553.2 344,569.3 343.9,584.3 344.4,599.9" fill="none" stroke="#000000" stroke-width="1"/><polyline id="SvgjsPolyline4749" points="582.4,310.2 581.9,318.6 581.9,324 582.4,328.1 583.7,332.1 585.2,334.8 586.6,336.7 590.1,340 591.5,341.1 594,342.7 596.6,344.2 599.9,345.8" fill="none" stroke="#000000" stroke-width="1"/><polyline id="SvgjsPolyline4750" points="582.7,299.7 582.7,305.1 582.3,312.3 581.6,317.6 580.6,321.7 580,323.4 578.5,326.7 576.9,329.2 575.4,331.1 572.9,333.7 569.2,336.7 566.7,338.4 561,341.7 555,344.6 548.4,347.4 529.8,354.1 500.1,363.8 483.2,369.9 474.3,373.5 465.5,377.4 454.3,383.1 445.5,388.3 441,391.3 435.2,395.5 429.1,400.4 423.3,405.6 416.5,412.4 409,421 404.9,426.2 397.9,435.9 393,443.5 388.1,451.7 381.1,465 375.6,477 373.1,483.1 368.8,494.9 365.4,505.8 362.8,515.7 360.4,526.8 358.1,541.1 356.8,553 356.1,563.8 355.8,574.6 355.9,585.4 356.6,599.7" fill="none" stroke="#000000" stroke-width="1"/><polyline id="SvgjsPolyline4751" points="582.3,312.9 581,326 580.6,332.6 580.6,335 580.9,339.2 581.3,341.6 582.1,344.5 583.7,348.3 584.6,349.9 587.1,353.3 589.1,355.5 593.2,359 597.2,361.7 599.8,363.2" fill="none" stroke="#000000" stroke-width="1"/><polyline id="SvgjsPolyline4752" points="582.2,313.2 581.6,319.1 580.3,326.2 578.6,332 576.3,337.5 573.9,341.6 572.2,344.1 570.3,346.5 567.5,349.6 563.6,353.3 559.4,356.7 555,359.9 550,363.2 542.8,367.4 538.6,369.8 526.9,375.9 500,389.2 490.4,394.2 475.3,402.8 469.2,406.6 460.7,412.3 454.4,416.9 446.9,422.9 437.5,431.3 432,436.8 429.5,439.4 422,448 416.8,454.6 411.9,461.4 405.4,471.5 402.4,476.7 400.1,480.9 396.6,487.9 394.1,493.4 390.9,501.1 389.5,505.1 389.2,505.6 386.9,512.4 384.7,519.9 382.8,527.5 380.9,536.9 379.8,544 379,550.6 378.1,563.1 378,566.1 378.1,580.5 378.5,587.7 379.1,594.9 379.7,599.7" fill="none" stroke="#000000" stroke-width="1"/><polyline id="SvgjsPolyline4753" points="582.2,313.2 581.4,321.6 579.1,338.2 578.5,344.8 578.4,347.2 578.5,352 578.8,355 579.6,359.1 580.7,362.5 581.4,364.2 582.8,366.9 585.4,370.9 587.3,373.2 589.4,375.4 591.6,377.4 594.9,380 599.9,383.3" fill="none" stroke="#000000" stroke-width="1"/><polyline id="SvgjsPolyline4754" points="581.7,318.3 581.1,323.6 578.9,336.7 576.1,352 575.3,358.6 575,363.4 575,366.3 575.2,369.9 575.8,374.1 576.8,378.2 578.5,382.7 579.8,385.4 582.3,389.5 584.9,392.8 588.6,396.7 591.3,399.1 594.6,401.7 599.6,405.1" fill="none" stroke="#000000" stroke-width="1"/><polyline id="SvgjsPolyline4755" points="582.7,300.5 582.6,307.7 581.8,317.9 580.1,328.5 577.9,337.3 575.3,344.6 572,351.7 569,356.9 566.7,360.4 564.2,363.8 560.8,368 553.9,375.5 548.3,380.9 542.9,385.7 532.3,394.5 516.7,406.7 513.3,409.2 496.9,422.3 489.1,428.9 482.4,434.9 472.5,444.5 468.8,448.4 460.8,457.4 453.4,466.8 449.9,471.7 445.6,478.2 441.6,484.9 438.5,490.7 434.6,498.9 432.3,504.4 430.2,510 427.7,518 425.8,525.6 425.1,529.1 423.9,536.2 423,544.6 422.7,550.6 422.7,559 423,565 423.7,572.1 424.9,579.9 426.2,586.9 427.7,593.4 429.5,599.7" fill="none" stroke="#000000" stroke-width="1"/><polyline id="SvgjsPolyline4756" points="581.2,322.2 580.5,327 578.8,336.4 573.5,359.2 571.6,369.2 570.7,377.6 570.6,382.4 570.9,387.2 571.8,392.5 572.4,394.8 573.8,398.8 575.2,402.1 577.5,406.3 581,411.2 584.2,414.8 586.7,417.3 589.4,419.7 594.6,423.8 599.6,427.2" fill="none" stroke="#000000" stroke-width="1"/><polyline id="SvgjsPolyline4757" points="582.5,309.1 582.2,313.9 581.4,321.1 580.5,327 579.2,333.5 578.2,337.6 576.4,343.9 573.2,353 570.7,359.1 566.3,368.3 560.5,378.8 555.2,387.5 533.8,420.1 525.2,434.5 519.9,444.6 516.2,452.8 514,458.4 511.9,464.7 510.6,469.3 509.4,474.6 508.5,479.9 508,484.1 507.7,488.9 507.7,494.9 508.2,501.4 509.4,508.5 510.7,513.8 513.8,522.9 515.2,526.2 518.1,532.1 522,538.9 525.9,544.9 529.4,549.8 537.2,559.7 548.7,572.8 556,580.7 566.8,592.8 572.6,599.7" fill="none" stroke="#000000" stroke-width="1"/><polyline id="SvgjsPolyline4758" points="580.1,329.1 577.8,339.6 574.4,351.2 571.2,360.2 568.8,366.4 561.1,384.6 555.9,397.4 554.1,402.5 553.8,403 550.7,412.7 548.9,419.7 547.4,428 546.8,434.5 546.8,441.1 547,444.1 548.2,451.8 549.1,455.3 550.6,459.9 553,465.4 554.7,468.6 556.8,472.2 560.6,477.6 563.2,480.9 567.2,485.4 570.1,488.4 578.5,496.1 588.8,504.4 599.9,512.5" fill="none" stroke="#000000" stroke-width="1"/><polyline id="SvgjsPolyline4759" points="580.7,326 579.3,333.6 577.6,341.3 574.9,351.7 571.3,364.4 569.8,370.2 568.1,377.8 566.9,385 566.3,392.1 566.3,396.9 566.8,402.3 567.3,405.3 568,408.2 569.3,412.2 570.2,414.4 571.2,416.6 573.6,420.8 576.6,425.2 578.5,427.6 581.3,430.7 586.5,435.7 589.7,438.4 593.5,441.3 600,445.7" fill="none" stroke="#000000" stroke-width="1"/><polyline id="SvgjsPolyline4760" points="577.8,339.7 575.6,347.8 572.3,358.1 563,383.4 559.6,393.7 557.2,402.4 556.2,407 555.3,412.4 554.8,417.1 554.6,423.1 554.8,427.3 555.2,430.9 555.7,433.9 557.2,439.7 558.4,443.1 559.8,446.4 561.4,449.6 563.8,453.8 567.6,459.2 573.5,466 576.9,469.4 582.7,474.6 591.7,481.6 599.6,487.1" fill="none" stroke="#000000" stroke-width="1"/><polyline id="SvgjsPolyline4761" points="582.7,299.3 582.7,295.1 582.3,292.2 581.7,290.5 581,289.5 578.7,287.5 575.1,285.5 572.8,284.6 568.2,283.2 560.1,281.3 553,280 544.1,278.6 497.1,272.3 487,270.8 474,268.6 458.7,265.4 450,263.1 440.9,260.1 435.9,258.1 431,255.8 427.8,254.1 421.7,250.3 417.9,247.4 413.4,243.4 407.3,236.8 404,232.5 400.9,228.1 396.8,221.5 392.6,214.2 385.4,200.3 378.9,186.8 370.6,168.2 363.8,151.5 359,138.6 355.2,127.2 352.6,118.6 349,105.2 346.1,92.4 342.8,73.5 341.3,61.6 340.2,49.6 339.3,32.2 339.2,11.8 339.6,0.4" fill="none" stroke="#000000" stroke-width="1"/><polyline id="SvgjsPolyline4762" points="582.7,299.1 582.7,296.7 582.4,295.6 581,294.4 579.4,293.7 577.1,293 569.4,291.6 561.6,290.7 547.9,289.5 499.4,286.3 474.3,284.3 455.2,282.2 451,281.6 438.6,279.4 429.3,277 423.1,274.8 418.2,272.5 415.1,270.7 411.2,267.9 409.4,266.3 406.5,263.3 403.5,259.5 401.2,256 399.4,252.9 396.4,247 393.7,241 390.7,233.8 368,176.3 363.1,163.4 360.7,156.6 360.4,156.1 354.2,137.9 351.2,128.1 348.6,118.9 345.4,106.1 341.9,89.1 339.4,73.1 338.2,62.9 337,49.2 336.2,32.4 336.1,10.2 336.4,0" fill="none" stroke="#000000" stroke-width="1"/><polyline id="SvgjsPolyline4763" points="582.6,303 582.2,303.4 581.1,304 577.7,305 570.6,306 564,306.6 541.2,308 504.1,309.7 478.9,311.1 456.8,312.8 449,313.6 441.3,314.6 433,316 427.1,317.3 422,318.8 417.5,320.5 414.2,322.1 410.6,324.3 407.8,326.5 405.7,328.6 403.7,330.9 401,334.9 398.7,339.1 396.2,344.5 394.4,349 391.9,355.7 381.7,384.6 381.4,385.1 379,391.9 378.7,392.4 373.9,405.4 365.3,427.8 363.1,434 362.8,434.5 357,450.9 353.8,460.6 350.3,472.1 346.7,485.4 343.7,498.3 341.2,511.2 338.8,526.7 337.2,541 336.3,552.3 335.6,567.3 335.5,589.5 335.8,599.7" fill="none" stroke="#000000" stroke-width="1"/><polyline id="SvgjsPolyline4764" points="582.3,297.8 581.8,297.5 580.6,297.2 577.1,296.6 565.7,295.7 544.7,294.8 498.5,293.4 471,292.3 450.6,291.1 435.1,289.6 427.3,288.4 422.1,287.4 416.8,286 414,285 410.7,283.5 407.6,281.7 404.8,279.4 402,276.3 400.1,273.3 398.4,270.1 396.3,265.1 394.7,260.6 387.7,237.6 380.8,216.5 373.3,195.6 373,195.1 371,189.4 370.7,188.9 363,168.1 355.3,146 351.5,134 348.2,122.4 345.8,113.1 342.9,100.2 340.7,88.5 338.8,76.6 336.9,60.5 335.9,48 335.1,29.4 335,16.8 335.4,0.6" fill="none" stroke="#000000" stroke-width="1"/><polyline id="SvgjsPolyline4765" points="583,300.5 582.4,300.7 582.9,301.1 582.4,301.4 581.2,301.7 572.8,302.4 542.9,303.3 508.1,303.9 470.3,304.8 449.3,305.6 437.3,306.3 430.1,306.9 424.8,307.5 418.8,308.4 415.9,309 411.8,310.1 407.4,311.9 404.8,313.4 402.9,314.9 401.2,316.6 400.1,318.1 398.3,321.2 397.1,323.9 395.9,327.3 394.1,333.6 388.8,354.6 383.8,371.9 378.2,389 373.6,402 373.3,402.5 370.1,411.6 369.8,412.1 362.6,431.8 355.5,452.2 349.5,471.7 346.4,483.3 344,493.2 340.9,508.5 338.7,522.2 337.2,534.1 335.9,548.4 335.2,560.4 334.8,574.2 334.8,587.4 335.2,600" fill="none" stroke="#000000" stroke-width="1"/><polyline id="SvgjsPolyline4766" points="299.5,300 331.9,300.5 357.7,301.2 370.9,301.9 378.6,302.7 381.6,303.2 386.2,304.6 388.7,306.3 389.5,307.1 390.2,308.1 391,309.7 391.6,311.4 392.1,314.4 392.3,316.8 392.3,321.6 392.1,325.2 390.9,335.9 389.3,345.4 388.2,350.7 386.6,357.7 384.5,365.8 381.5,376.2 377.5,388.8 372.2,404.1 371.9,404.6 367.1,418.2 366.2,420.4 357.6,444.7 353.1,458.4 349.8,469.3 347.4,478 344.9,487.9 342.3,499.6 340.5,509 338.5,521.5 336.8,535.2 335.8,545.9 335,558.5 334.6,569.9 334.5,584.9 334.9,599.9" fill="none" stroke="#000000" stroke-width="1"/><polyline id="SvgjsPolyline4767" points="299.8,300 325,298.9 345.3,297.7 359.7,296.4 365,295.7 372.1,294.4 375.6,293.5 378.4,292.5 381.7,290.9 383.7,289.6 384.6,288.8 386.6,286.6 387.8,284.5 388.9,281.7 389.7,277.6 390,271 389.9,268 389.1,259.6 387.8,251.3 387,247.2 384.3,235.5 381.6,225.7 376.2,208.5 371.3,194.3 368.8,187.6 357.2,154.8 352.2,139.4 349.3,129.6 345.6,115.7 341.8,98.7 339.9,88.1 338.1,76.8 336.6,64.3 335.4,50.5 334.8,39.8 334.4,26.6 334.4,11.6 334.7,0.2" fill="none" stroke="#000000" stroke-width="1"/><polyline id="SvgjsPolyline4768" points="582.7,296.1 582.8,295.5 583.4,294.5 584.9,293.4 586.6,292.7 589.4,291.9 593,291.2 599.5,290.3" fill="none" stroke="#000000" stroke-width="1"/><polyline id="SvgjsPolyline4769" points="582.5,307.1 582.3,308.9 581.7,310.6 580.4,312.6 578.1,314.6 574.5,316.6 570,318.3 565.4,319.6 557.8,321.4 546.6,323.5 533.5,325.6 500.9,330.4 477.8,334.4 468.4,336.4 458.5,338.8 451.6,340.8 445.9,342.7 441.4,344.4 434.8,347.3 429.5,350.1 425.4,352.6 419.1,357.2 414.6,361.2 412.1,363.7 407.3,369.1 402.9,374.8 396.6,384.3 388.3,398.9 382.8,409.6 379.2,417.2 378.6,418.2 370.2,436.8 364.7,450.1 362.2,456.9 361.9,457.4 357.9,468.7 353.2,483.6 349.5,497.5 347,508.6 343.7,527.6 342.2,539.5 340.9,554.4 340.2,570.6 340.1,582.6 340.3,593.4 340.6,600" fill="none" stroke="#000000" stroke-width="1"/><polyline id="SvgjsPolyline4770" points="582.3,311.6 581.9,314.6 581.2,317.5 580.6,319.2 578.6,322.9 577.1,324.8 574,327.6 571.5,329.4 567.4,331.8 562.5,334.1 558.1,335.9 553,337.7 540.4,341.6 499.2,352.5 487.1,356 477.9,358.9 467.2,362.7 460.5,365.4 453.9,368.3 446.4,372.1 439.2,376.3 435.6,378.6 428.8,383.5 424.6,386.9 421,390.1 414.6,396.4 408.6,403.1 405.2,407.3 398.4,416.5 391.8,426.5 384.8,438.4 381.4,444.7 377.6,452.2 371.6,465.3 367.1,476.4 362.9,488.3 359.7,498.6 356.8,509.7 354.6,519.6 352.4,532 350.7,545.1 349.6,558.3 349.1,569.7 349,582.3 349.6,599.6" fill="none" stroke="#000000" stroke-width="1"/><polyline id="SvgjsPolyline4771" points="582.7,305.1 582.2,313.5 581.2,320.7 579.8,326.5 578.3,330.4 576.9,333.1 574.3,337.1 571.5,340.3 569.4,342.4 566.2,345.1 561.3,348.6 555.7,352 549.3,355.4 543.9,358 529.6,364.2 502.3,375.2 484.2,383.1 472.3,388.9 464.9,392.9 456.7,397.8 449.7,402.4 443.3,407 436.3,412.6 429.1,419 421.9,426.2 415.1,433.8 407.3,443.7 400.8,453.1 395.7,461.2 390.7,470.1 386.9,477.6 383.4,485.2 379.1,495.8 376.3,503.7 373,514.6 370.7,523.9 368.8,533.3 366.9,545.8 365.7,558.3 365.2,569.7 365.2,581.1 365.7,592.5 366.3,599.7" fill="none" stroke="#000000" stroke-width="1"/><polyline id="SvgjsPolyline4772" points="581.2,321.7 580.2,327.6 578.7,333.4 577.4,337.4 576.3,340.2 574.5,344 573.4,346.1 570.9,350.2 568.8,353.1 563.8,359.1 560.4,362.5 554.1,368.1 547,373.6 541.6,377.4 528,386.2 503.4,401.2 492.3,408.3 486.3,412.3 476,419.6 465.6,427.7 461.9,430.8 453,438.8 448.7,443 442.5,449.5 439.3,453.1 433.2,460.5 427.5,468.2 424.1,473.2 421.5,477.2 414.7,489.2 411.3,496.2 408.4,502.8 406.2,508.4 403.3,517 400.9,525.6 399.3,532.6 398.1,539.1 396.8,549.2 396.4,554 396,563 396.1,572.6 396.4,578 397.4,588.8 399,599.4" fill="none" stroke="#000000" stroke-width="1"/><polyline id="SvgjsPolyline4773" points="580.7,325.6 579.7,330.9 578.3,336.7 576.2,343.6 573.9,349.8 570.7,356.9 567.9,362.2 566.4,364.8 562.2,371.3 557.3,378.2 551.3,385.7 547,390.7 535.2,403.5 523.1,416 512,427.8 504.4,436.3 495.6,446.9 487.7,457.5 482.4,465.5 479.6,470.1 476.1,476.4 473.4,481.8 470.7,487.8 468.7,492.8 466,500.8 464.3,507.2 463.2,512.4 462,520.2 461.4,527.9 461.4,536.3 462.2,545.9 463.6,554.2 465.1,560.6 466.6,565.8 469.1,573.2 473.7,584.3 477.6,592.4 481.6,599.8" fill="none" stroke="#000000" stroke-width="1"/><polyline id="SvgjsPolyline4774" points="581.6,319.1 579.9,329.8 579.1,333.3 577.5,339.1 576.2,343.1 574.7,347 572.8,351.4 568.9,358.9 565.1,365 560.9,370.8 557.9,374.6 552.8,380.5 544.9,388.7 534.9,398.2 522.8,409 522,409.9 509.9,420.7 504.2,426 493.5,436.5 488.6,441.8 487.7,442.6 481.7,449.3 475.6,456.7 472.3,461 465.4,470.8 461.3,477.4 457.7,483.7 452.7,493.9 450.6,498.9 448.3,505.1 446.5,510.8 444.4,519 443.2,525.4 442.4,530.8 441.7,539.8 441.6,546.4 441.8,551.8 442.5,559.5 443.5,566.1 444.6,571.9 446,577.8 448.7,587 452.1,596.6 453.5,600" fill="none" stroke="#000000" stroke-width="1"/><polyline id="SvgjsPolyline4775" points="580.5,326.3 579.5,331 577.9,336.7 576.5,340.7 573.6,347.3 569.7,354 567.3,357.5 562.8,363.1 559.1,367.1 554.4,371.7 551.7,374.1 547.6,377.6 541,382.8 527.9,392.3 506.6,406.9 494.9,415.3 487.7,420.7 481.1,425.9 474.2,431.7 463.6,441.4 458.5,446.5 450.8,454.9 450.1,455.9 447.7,458.6 441.1,467.1 437.6,472 433,479.1 426.5,490.5 422.6,498.7 419.4,506.4 416.4,514.9 414.4,521.8 412.8,528.2 411,537.6 410,545.4 409.4,553.8 409.4,568.2 410,576.5 411.2,586.1 412.3,592.6 413.8,599.6" fill="none" stroke="#000000" stroke-width="1"/><polyline id="SvgjsPolyline4776" points="580.5,326.8 579,334.5 576.4,344.4 572.3,356.3 570.3,361.3 565.9,371.2 562,379.3 551,400.6 545.5,411.9 541.6,420.7 537.8,430.8 535.1,440 534.2,444.1 533,451.2 532.4,458.4 532.4,463.8 532.7,468 533.5,473.4 534.3,477.5 536.2,483.8 538.4,489.4 540.5,493.7 544.1,499.9 548.9,506.8 555.4,514.7 559.5,519.1 565,524.6 577.9,536.3 599.8,555" fill="none" stroke="#000000" stroke-width="1"/><polyline id="SvgjsPolyline4777" points="579.7,330.9 578.2,337.4 575,347.7 570.9,357.7 566.3,366.8 563.3,372 559.8,377.5 554,386 546.5,396.1 526.4,421.5 521.3,428.2 513.6,438.9 509.6,444.9 505.8,451 500,461.5 495.4,471.3 493.4,476.3 491.6,481.4 489.6,488.3 488.5,493 487.2,500.7 486.7,505.5 486.5,509.1 486.6,518 487.1,523.4 488,529.4 489.6,536.4 491.7,543.3 493.8,548.9 497.2,556.6 500.5,563 503.5,568.2 506.3,572.8 511.6,580.8 518.2,590.1 525.4,599.7" fill="none" stroke="#000000" stroke-width="1"/><polyline id="SvgjsPolyline4778" points="577.9,338.5 577.2,341.4 575.8,346 572.6,355.1 569.1,363.3 566,369.9 559.6,382.1 542.5,411.7 538.2,419.6 533.6,428.7 531.6,433.1 528.2,441.4 526.4,446.5 524.4,453.4 523.3,458.1 522.2,464.6 521.7,469.4 521.5,473.6 521.5,477.2 521.8,482.6 522.6,488.5 523.9,494.4 525.5,499.6 527.6,505.2 529.9,510.1 533.4,516.4 536.6,521.4 540.1,526.3 546.1,533.8 555.4,544 564.3,552.9 579.1,567 587.6,575.4 593.4,581.5 599.7,588.8" fill="none" stroke="#000000" stroke-width="1"/><polyline id="SvgjsPolyline4779" points="580.5,326.6 579.4,332.5 577.8,338.9 576.3,344 574.5,349.2 571.4,357 568.9,362.4 565.6,368.8 561.1,376.6 557.6,382.2 552.6,389.7 545.3,400 541.1,405.8 540.3,406.7 529.1,422.3 521.4,433.8 517.6,439.9 514,446.1 509.8,454.1 506.3,461.7 503.7,468.4 501.8,474.1 500.8,477.6 499.3,484 498.1,491.7 497.6,498.3 497.6,504.9 497.9,509.7 498.5,514.5 499.7,520.9 501.4,527.3 502.9,531.9 506.1,539.7 508.7,545.1 512.2,551.4 515,556 519,562 523.9,568.8 530.9,577.8 549.2,600" fill="none" stroke="#000000" stroke-width="1"/><polyline id="SvgjsPolyline4780" points="577.5,340 576.2,344.6 572.8,354.3 568,365.3 565.6,370.1 562.8,375.4 557.7,384.3 549.6,397.6 539.4,413.9 531.9,426.8 526.1,438 522.7,445.7 519,455.9 517.5,461 516,467.5 515.3,471.6 514.6,478.2 514.4,482.4 514.5,487.8 514.9,492.6 516.2,500.2 517.4,504.9 519.5,511.2 521.3,515.6 523.9,521 528.4,528.8 530.7,532.3 536,539.6 541.7,546.6 548.1,553.8 554.6,560.8 564.2,570.7 566.8,573.2 575.5,582.3 584.7,592.6 590.3,599.7" fill="none" stroke="#000000" stroke-width="1"/><polyline id="SvgjsPolyline4781" points="582.3,312.2 581.4,321.2 580.5,327.1 579.6,331.8 577.5,340.6 575.5,347.5 571.5,358.8 567.4,368.8 551.1,404.2 547.5,413.1 544,423.3 542,430.9 540.5,439.2 539.9,445.7 540,454.1 540.3,457.1 541.3,463 542.5,467.7 544.3,472.8 546.2,477.2 549,482.5 551.5,486.6 554.6,491 559.5,497.1 562.3,500.2 568.2,506.2 572.6,510.3 584,520 599.6,532.2" fill="none" stroke="#000000" stroke-width="1"/><polyline id="SvgjsPolyline4782" points="582.7,296.2 582.6,293.8 582.7,287.2 582.9,286 583.7,283.7 585,281.7 586.3,280.4 587.7,279.3 590.2,277.7 594,275.9 599.7,274" fill="none" stroke="#000000" stroke-width="1"/><polyline id="SvgjsPolyline4783" points="582.5,291.4 582.2,287.2 581.5,283 580.4,279.6 579.3,277.4 578.1,275.4 577,274 574.5,271.4 571.7,269.1 567.7,266.5 565.6,265.3 560.2,262.7 553.5,260 547.3,257.8 535.8,254.2 504.6,245.4 486.9,240 481.7,238.3 470.4,234.2 457.7,228.8 448.6,224.2 443.4,221.2 436.4,216.7 431,212.8 424.5,207.5 419.2,202.6 414.6,197.9 407.1,189.3 402.3,183.1 398.1,177.3 392.8,169.3 385.2,156.4 381.2,149 377.7,142 374.2,134.4 370.2,125 365.2,111.5 361.1,98.3 358.1,86.7 356.1,77.3 353.9,64.3 353.1,58.3 352.1,48.8 351.3,36.8 351,27.2 351.1,12.2 351.7,0.2" fill="none" stroke="#000000" stroke-width="1"/><polyline id="SvgjsPolyline4784" points="582.7,300 582.7,294.6 582.2,288.6 581.6,286.3 580.7,284.1 579.3,282.1 576.8,279.6 575.3,278.5 571.7,276.4 568.4,274.9 563.9,273.2 556.5,270.9 548.3,268.8 530.2,264.8 506.6,260.1 494.9,257.6 479.7,254 471.6,251.8 462.4,249 451.7,245.1 445.7,242.5 439.2,239.3 430.4,234.1 427,231.7 422.7,228.4 416.4,222.8 411.8,218.1 406.7,212.2 399.5,202.6 392.6,192 384.5,178 381.4,172.2 376.3,162 370.3,148.9 364.6,135 360.3,123.2 355.8,108.9 352.3,95.5 350,85 347.6,71.4 345.7,56.5 344.5,41.5 344,28.9 344,12.7 344.5,0.2" fill="none" stroke="#000000" stroke-width="1"/><polyline id="SvgjsPolyline4785" points="300,300.6 298.9,255.6 298.5,214.8 298.6,172.2 299.2,80.4 299.3,26.4 299.2,0" fill="none" stroke="#000000" stroke-width="1"/><polyline id="SvgjsPolyline4786" points="299.9,299.6 304.9,314.3 308.3,325.2 311.3,336.2 313.2,344.4 314.6,352.1 314.8,352.6 316.2,362.1 317.4,374.7 317.8,382.5 317.9,399.3 317.4,413.1 316,434.6 312.6,477.7 311.3,498 310.3,518.4 309.5,543 309.2,559.2 309.2,599.4" fill="none" stroke="#000000" stroke-width="1"/><polyline id="SvgjsPolyline4787" points="299.7,299.8 308.6,305.9 315.4,310.8 320.6,314.8 326.2,319.4 333.6,326.4 339.5,333.2 343.3,338.6 345.4,342.2 347.6,346.5 349.2,350.4 350.9,355.5 351.9,359.6 352.7,363.7 353.3,368.5 353.7,375.7 353.6,382.3 353.1,389.5 351.8,399.6 350.3,408.5 348,419.6 339.4,456.4 335.6,474 334.1,481.7 330.9,500.6 329.2,513.1 327.3,531 326.4,543 325.8,553.8 325.2,576.5 325.2,586.7 325.5,599.9" fill="none" stroke="#000000" stroke-width="1"/><polyline id="SvgjsPolyline4788" points="299.6,299.9 318.5,305.7 330.4,309.9 335.4,311.9 341.4,314.6 345.2,316.5 348.8,318.5 353.9,321.8 356.3,323.6 360.7,327.6 364.6,332.2 366.5,335.2 368.5,339 370.2,343.4 371.5,348.7 372.1,352.8 372.4,356.4 372.5,361.8 372,369.6 371.6,373.2 369.3,386.2 367.5,393.8 364.4,405.4 351,449 346.4,465.1 343.7,475.6 341.1,486.7 338.7,498.4 337,507.9 334.6,524.5 333.2,537.6 332.3,549 331.7,560.4 331.3,577.8 331.4,592.2 331.7,600" fill="none" stroke="#000000" stroke-width="1"/><polyline id="SvgjsPolyline4789" points="299.9,300 320.1,302.9 333.1,305.1 342.5,307 350.1,308.9 355.8,310.6 360.9,312.5 365.3,314.5 369.9,317.2 372.8,319.4 374.1,320.6 376.9,323.8 378.8,326.8 380.3,330.1 381.5,334.1 382.3,338.9 382.6,342.5 382.6,348.5 382,355.6 380.3,366.3 378.2,375.7 375.4,386.1 370.6,401.6 357,441.3 353.3,452.7 349.8,464.2 346.9,474.6 343.7,487.4 342,495 339.7,506.8 338.4,514.5 336.5,528.2 335.4,538.3 334.4,550.9 333.8,562.3 333.5,573.7 333.5,588.1 333.8,599.5" fill="none" stroke="#000000" stroke-width="1"/><polyline id="SvgjsPolyline4790" points="299.9,300.1 307,292.8 316.6,282.1 319.7,278.4 323,274.1 326.8,268.7 331.4,261 333.6,256.7 335.3,252.9 337,248.4 338.3,244.4 339.8,238.6 340.6,234.5 341.4,229.1 341.9,223.7 342.1,219.5 342.1,211.7 341.9,206.9 341.5,201.6 340.3,190.8 337.5,173 331.8,142.4 327.9,119.3 325.1,99.1 323.3,82.4 321.7,61.4 320.8,41.7 320.5,27.3 320.5,8.1 320.7,0.3" fill="none" stroke="#000000" stroke-width="1"/><polyline id="SvgjsPolyline4791" points="299.7,300.1 314.6,293.6 323.8,289.2 329.1,286.4 335.8,282.5 342.3,278.1 345.6,275.5 349.2,272.3 351.7,269.8 355.2,265.6 358.2,261.1 359.9,258 362,253 363.4,248.4 364.8,240.7 365.2,235.3 365.2,228.1 364.9,223.4 363.9,215 362.1,205 359.7,194.4 357.6,186.3 346.4,146.4 342.5,131.3 340.3,122 337.7,109.7 334.3,90.2 332.6,77.7 331.5,67.5 330.9,61 329.9,46 329.3,28 329.3,9.4 329.5,0.4" fill="none" stroke="#000000" stroke-width="1"/><polyline id="SvgjsPolyline4792" points="299.6,300.1 314.3,296.9 326.5,294 339.2,290.4 349.4,286.7 353.2,285 357,283.1 359.6,281.6 364.5,278.2 367.2,275.8 370,272.7 371.8,270.2 374.1,266.1 375.8,261.6 376.7,258.1 377.3,254.5 377.7,249.8 377.7,243.2 377.3,237.8 376.8,233.6 375.5,225.9 374,218.9 370.5,205.5 367.4,195.2 354.7,156.4 350.8,143.8 347.8,133.4 344.9,122.4 342.5,112.5 340.5,103.1 338.4,91.9 336.9,82.4 335.7,73.5 334.1,57.9 333.3,46.6 332.6,27.4 332.6,10.6 332.9,0.4" fill="none" stroke="#000000" stroke-width="1"/><polyline id="SvgjsPolyline4793" points="578.3,336.7 576.3,343.6 574.5,348.7 572.7,353.1 569.1,360.7 564.1,369.6 558.1,378.6 555.3,382.5 549.8,389.6 539,402.5 527.1,416 516.6,428.3 509.8,436.7 501.2,448.3 497.5,453.7 494.6,458.3 490.4,465.5 487.8,470.3 486.2,473.5 482.8,481.2 481.3,485.1 478.8,492.5 477.1,498.9 475.6,506.6 474.9,511.9 474.4,519.7 474.4,525.1 474.9,532.9 476.4,542.4 477.3,546.5 479.6,554.5 481.2,559.1 482.7,563 486.1,570.7 489.9,578.2 493.7,585 499,593.7 502.9,599.7" fill="none" stroke="#000000" stroke-width="1"/><polyline id="SvgjsPolyline4794" points="581.2,322.5 580.3,327.8 578.9,334.3 577.1,340.6 574.7,347.4 571.3,355.1 569.6,358.3 565.7,365 562,370.5 557.3,376.7 552.3,382.7 544.6,391.1 535.3,400.5 518.4,416.7 506.5,428.5 498.2,437.2 489.5,447.1 480.2,458.9 473.1,469.3 468.8,476.5 465.9,481.8 463,487.7 460.6,493.2 457.3,502.2 456.2,505.7 454.5,512 453.5,516.7 452.5,522.7 451.7,530.4 451.5,534 451.5,542.4 451.7,546 452.5,553.8 453.7,560.9 455,566.7 456.9,573.7 460,582.8 461.9,587.8 467.2,599.9" fill="none" stroke="#000000" stroke-width="1"/><polyline id="SvgjsPolyline4795" points="579.7,330.8 578.6,336.1 575.7,346.5 572.7,355 568.8,364.4 564.7,373.1 560.6,381.1 543.4,412.7 538.7,422.4 536.7,426.8 534.2,432.9 531.6,440.3 529.9,446 528.1,454.2 527.5,458.4 527,463.8 526.9,470.4 527.1,474 527.5,477.5 528.3,482.3 529.1,485.8 530.7,491 532.6,496 534.6,500.4 538.1,506.7 542.7,513.7 544.5,516.1 549,521.7 554.6,528 562.6,536.1 570,543.1 590.5,561.6 600,570.8" fill="none" stroke="#000000" stroke-width="1"/><polyline id="SvgjsPolyline4796" points="582.4,288.9 582,281.8 582.2,276.4 582.9,272.8 583.7,270.6 584.5,269 587,265.6 590.1,262.7 592,261.3 595.1,259.4 597.2,258.3 600,257.1" fill="none" stroke="#000000" stroke-width="1"/><polyline id="SvgjsPolyline4797" points="582.7,298.9 582.6,292.3 582,284 581.2,277.4 580.1,270.9 578.8,265 576.2,255.8 573.4,247.9 571.8,244 569.6,239.1 566.4,232.6 564.6,229.5 564.4,228.9 558.9,219.6 550.3,206.6 532.2,181.2 525.8,171.7 519.4,161.6 513.8,151.7 510.3,144.7 508.1,139.8 506.5,135.9 503.9,128.5 502.7,124.5 501,117.5 499.9,111 499.5,107.4 499.1,99.6 499.2,95.4 499.7,89.4 500.6,83.5 501.8,78.2 503.1,73.6 505.5,66.9 508.9,59.2 512,53.3 516.3,46.1 523.1,36.2 526.7,31.4 533.8,22.5 552.3,0.4" fill="none" stroke="#000000" stroke-width="1"/><polyline id="SvgjsPolyline4798" points="582.7,299.2 582.6,292 581.9,283.7 581.2,278.9 579.6,272.5 579,270.8 577.3,267 574.8,262.9 571.8,259.1 567.1,254.5 563.8,251.9 558.8,248.5 555.8,246.6 549.5,243.1 541.4,239.1 534.9,236.1 525,231.8 505,223.5 487.5,215.7 476.7,210.4 471.4,207.6 465.1,204.1 455.4,198.1 445.6,191.2 439,186 433.1,180.9 432.3,180 429.6,177.6 424.1,172.1 420.9,168.5 420,167.7 412.3,158.5 406.9,151.3 402.8,145.3 398.3,138.3 393.8,130.5 388.3,119.8 384.8,112.2 381.2,103.3 376.9,90.8 374,80.4 371.6,69.9 369.5,57.4 368.7,50.9 367.9,41.9 367.4,30.5 367.4,19.7 367.9,8.3 368.5,0.6" fill="none" stroke="#000000" stroke-width="1"/><polyline id="SvgjsPolyline4799" points="582.2,287.2 582,284.8 581.4,281.2 580.6,277.7 579.2,273.8 577.2,270.1 575.8,268.1 572.6,264.6 569.4,261.8 565,258.7 559.8,255.7 555,253.3 550.6,251.3 542.3,247.9 528.2,242.7 527,242.4 499.8,232.9 499.3,232.6 493.1,230.4 481.9,226 469.8,220.7 464.4,218.1 457,214.2 448.2,209 443.2,205.7 435.9,200.4 431.7,197 424.1,190.2 418.6,184.7 414.5,180.3 406.1,170.1 398.4,159.4 392.9,150.8 387.5,141.4 382,130.8 376.8,119.3 374.1,112.6 369.7,100.2 366.3,88.7 363.5,77 362.2,70.5 361,63.4 359.4,50.9 358.6,41.4 358.1,30 358.1,16.2 358.3,10.2 358.9,0.6" fill="none" stroke="#000000" stroke-width="1"/><polyline id="SvgjsPolyline4800" points="299.5,299.9 278.7,294.1 270.7,291.6 262.7,288.8 253.9,285.1 248.5,282.3 242.9,278.9 240.5,277.1 236.5,273.5 233,269.4 231,266.4 228.6,261.5 227.6,258.7 226.4,254 225.7,249.3 225.4,245.1 225.4,239.1 225.9,232.5 227.3,223 229,214.8 231.3,205.5 235.1,192.2 246.9,155 251.2,140.7 253.6,132 256,122.7 258.6,111.6 260.2,104 262.3,92.2 263.5,85 265.1,73.2 266.4,60.6 267.3,48.7 267.8,38.5 268.1,27.7 268.1,10.3 267.8,0.1" fill="none" stroke="#000000" stroke-width="1"/><polyline id="SvgjsPolyline4801" points="300.1,300.2 291.5,289.4 283.7,278.7 278.2,270.2 275.5,265.5 272.8,260.1 269.1,251.3 267.4,246.1 266.3,242.1 265.2,237.4 264,230.3 263.2,221.9 263,217.8 263.1,205.8 264.5,189 265.9,178.3 267.7,166.4 272.4,138 275.2,119 278,95.8 279.8,75.5 280.8,59.3 281.5,41.3 281.8,23.3 281.6,0.5" fill="none" stroke="#000000" stroke-width="1"/><polyline id="SvgjsPolyline4802" points="299.9,300.1 305.4,286.2 309.6,274.3 312.8,264 314.8,256.4 316.6,248.2 318.3,238.2 319.4,228.6 320.1,217.2 320.2,201 319.4,183.7 318.2,167.5 316.1,144.8 313.8,117.3 312.5,98.1 311.6,81.4 310.8,60.4 310.4,43 310.2,23.8 310.3,0.4" fill="none" stroke="#000000" stroke-width="1"/><polyline id="SvgjsPolyline4803" points="300.2,300.5 294.1,284.2 291.2,275.6 288.1,265.3 286,257.2 284.1,248.4 282.3,237.1 281.2,226.4 280.7,217.4 280.6,201.2 281.3,184.4 282.4,168.8 285.2,136.6 286.9,115 287.8,101.2 288.9,80.3 289.7,57.5 290.1,36.5 290.1,0.5" fill="none" stroke="#000000" stroke-width="1"/><polyline id="SvgjsPolyline4804" points="299.6,300.4 290.4,310.7 285,317.1 281.3,321.8 277.4,327.2 273.8,332.7 269.7,340 267.4,344.9 265.4,349.9 264.4,352.8 262.6,359.1 261,366.8 260.1,373.9 259.8,378.1 259.6,384.7 259.8,392.5 260.6,403.2 261.6,411.6 263.4,423.5 266.5,441.8 269.3,457.1 272.9,479.1 275.5,498.1 277.3,514.8 278.8,533.3 279.5,545.9 280,559.1 280.3,575.3 280.3,589.1 280.1,599.9" fill="none" stroke="#000000" stroke-width="1"/><polyline id="SvgjsPolyline4805" points="299.9,300.7 297,314.2 295.3,323 292.6,339 291.6,346.2 290.4,356.9 289.7,365.3 289.2,373.6 288.8,386.8 288.8,400.6 289.2,416.8 290.5,446.2 291.9,473.2 292.9,497.7 293.6,520.5 294.1,546.3 294.3,567.3 294.2,599.7" fill="none" stroke="#000000" stroke-width="1"/><polyline id="SvgjsPolyline4806" points="299.8,299.7 310.8,314 317.6,323.9 322.2,331.6 326.3,339.6 328.7,345.1 330.3,349.6 332,354.8 333.2,359.4 334.1,363.5 334.9,368.3 335.5,373 335.9,377.8 336.2,386.2 336.1,392.8 335.8,398.8 335.1,407.2 333.7,419.1 332.7,426.2 326.4,465.9 323.9,483.8 321.6,503.4 320,521.4 318.7,542.3 318.1,558.5 317.8,577.1 318,599.9" fill="none" stroke="#000000" stroke-width="1"/><polyline id="SvgjsPolyline4807" points="300,299.6 301.4,321.8 302.3,339.1 303,358.3 303.4,378.7 303.4,411.7 302.3,484.9 301.9,525.7 301.8,599.5" fill="none" stroke="#000000" stroke-width="1"/><polyline id="SvgjsPolyline4808" points="300.5,299.6 314,290.6 323.6,283.4 331.3,276.7 334.7,273.3 338.3,269.3 340.9,266 344.9,260 346.9,256.3 348.7,252.5 350.6,247.5 352,242.9 352.9,238.8 353.8,232.8 354.3,224.4 354.2,217.8 353.6,210.1 352.8,203.5 350.8,191.7 349,182.9 345.1,165.9 339.5,142.6 335.6,124.4 334,116.1 331.3,100.2 329.2,84.7 327.9,72.8 326.8,59.6 325.8,40.4 325.5,29 325.5,7.4 325.7,0.2" fill="none" stroke="#000000" stroke-width="1"/><polyline id="SvgjsPolyline4809" points="582.6,292.3 581,271.9 581.1,264.7 582.1,259.4 583.1,256.6 584.5,253.9 585.8,251.9 588.5,248.7 591.6,245.9 594,244.1 599.7,240.7" fill="none" stroke="#000000" stroke-width="1"/><polyline id="SvgjsPolyline4810" points="582.1,284.8 581.1,275.9 579.5,264 578.9,256.2 578.9,252.6 579.1,249.6 579.5,246.6 580.3,243.1 581.5,239.7 582.8,237 585.7,232.5 587.3,230.6 589.7,228 591.5,226.4 594.8,223.8 599.8,220.5" fill="none" stroke="#000000" stroke-width="1"/><polyline id="SvgjsPolyline4811" points="582.2,286.5 581.5,279.4 580.3,271.1 577.2,253.9 577,253.4 575.8,245.7 575.4,242.1 575.1,237.9 575.1,233.1 575.3,230.1 575.9,225.9 576.9,221.9 578.3,217.9 580.2,214.1 583.1,209.6 587,205 589.6,202.5 594.2,198.7 598.6,195.6 599.7,195" fill="none" stroke="#000000" stroke-width="1"/><polyline id="SvgjsPolyline4812" points="581.9,283.1 580.3,273 579.5,269.5 576.9,261.5 574.7,256.6 571.4,250.9 569.3,247.9 565.1,242.8 560.1,237.7 555.6,233.7 550.4,229.6 542.6,224 528.5,214.9 501.3,198.5 489.6,191.1 483.6,187.1 475.3,181.2 463.9,172.4 459.3,168.5 452.2,162.1 446.2,156.2 442.5,152.3 434.2,142.8 429.4,136.6 423.5,128.3 419,121.2 415.4,115 411.3,107 407.1,97.7 404.9,92.1 402,83.6 399.7,75.5 397.8,67.3 396,56.6 395.3,50.7 394.7,42.9 394.5,37.5 394.5,29.7 394.9,20.7 396,9.4 397.3,0.5" fill="none" stroke="#000000" stroke-width="1"/><polyline id="SvgjsPolyline4813" points="582.7,299 582.6,292.4 582.1,285.2 581.4,278.7 580.1,270.4 577.2,256.9 572,237.2 570.3,230.2 568.7,221.9 568,216.6 567.7,212.4 567.7,205.8 568,202.2 569.2,195.7 571.3,189.4 573.4,185.1 575.2,182 576.9,179.5 581.1,174.4 585.3,170.2 589.4,166.6 592.2,164.4 599.6,159.2" fill="none" stroke="#000000" stroke-width="1"/><polyline id="SvgjsPolyline4814" points="580.1,270.9 579.1,265.7 577.7,259.8 574.4,248.3 570.3,236.3 561.6,212.1 558.8,202.9 557.6,198.2 556.4,192.4 555.6,187.6 555.2,184 555,181 555,175 555.3,170.9 556.7,163.2 557.7,159.7 559.4,155.2 562.3,149.3 564.5,145.7 566.9,142.3 569.9,138.5 573.5,134.5 576.9,131.1 582.7,125.9 589.8,120.3 599.6,113.4" fill="none" stroke="#000000" stroke-width="1"/><polyline id="SvgjsPolyline4815" points="580.3,272.7 579.1,266.9 577.3,260.5 574.8,253.7 572.6,248.8 571.2,246.1 567.6,239.9 563.5,234 559.4,228.8 553.4,222.1 544.4,213.3 531.8,202.2 509.6,183.8 499.6,175.2 488.1,164.6 478.8,155.3 474.7,150.9 468.8,144.1 462.8,136.6 458.9,131.3 455.2,125.8 452,120.7 448.4,114.5 445.9,109.7 443.3,104.3 440.5,97.7 438.2,91.5 435.6,82.9 433.9,75.9 432.6,68.8 431.9,63.4 431.3,55.7 431.2,53.3 431.3,43.1 431.8,36.5 432.6,29.9 433.7,23.4 435.5,15.2 437.2,8.8 439.9,0.2" fill="none" stroke="#000000" stroke-width="1"/><polyline id="SvgjsPolyline4816" points="581.4,279.5 580.5,272.9 579.1,265.9 577.8,260.6 575.3,252 571.7,241.8 569,235.1 565.6,227.4 553.5,202 549.3,192.7 546.1,184.9 542.9,175.8 540.6,167.8 539.8,164.3 538.6,157.2 538,150 538,144.6 538.3,140.4 539,135.6 539.7,132.1 540.6,128.6 543,121.9 545,117.5 547.6,112.7 550.8,107.7 554,103.3 557.4,99.1 561,95.1 566.9,89.1 570.4,85.8 579.4,77.9 600,61.3" fill="none" stroke="#000000" stroke-width="1"/><polyline id="SvgjsPolyline4817" points="580.8,275.2 580.1,271 578.5,264 577,258.8 574,250.3 571.6,244.8 568.9,239.5 565.6,233.7 563.4,230.2 560,225.2 556.1,219.9 549.3,211.5 542.6,203.8 518.8,178.4 507.6,165.9 506.9,164.9 501.8,159 493.7,148.6 488.5,141.2 484.6,135.2 478.9,125.3 474.2,115.6 471.7,109.5 469.9,104.4 467.8,97.5 466.4,91.7 464.7,81 464.2,74.4 464.1,67.8 464.3,63 465.1,55.3 466.1,49.3 467.7,42.3 469.9,34.8 472.1,28.6 474.6,22.5 477.3,16.5 480.5,10 486,0" fill="none" stroke="#000000" stroke-width="1"/><polyline id="SvgjsPolyline4818" points="581.9,283.3 581.2,277.3 580.1,270.8 577.5,259.7 576,254.5 573,246 570.1,238.8 566.3,230.6 561.4,221 554.3,208.5 554.1,207.9 543.6,189.7 538.5,180.2 534,171 529.8,161.1 527.6,154.9 526.2,150.3 524.1,141.5 523.4,137.4 522.7,130.8 522.6,129 522.7,120.6 523.1,116.4 524.1,110.5 525.4,105.3 527.5,99 530.4,92.4 533.2,87.1 536,82.5 540.1,76.6 543.4,72.3 548,66.8 554.5,59.7 562.5,51.6 584.7,30.5 592.7,22.4 595.1,19.7 596,18.9 599.9,14.4" fill="none" stroke="#000000" stroke-width="1"/><polyline id="SvgjsPolyline4819" points="579.9,270 577.5,260.1 575.5,253.8 573.8,249.3 571.5,243.8 569.7,240 567.5,235.7 565.1,231.5 562.4,226.9 559.8,222.9 553.6,214 545.6,203.5 521.4,173.7 512.4,161.7 506.3,152.8 502.5,146.7 498.3,139.4 493.2,129.2 490,121.4 488.4,116.9 487.3,113.5 485.3,105.9 484.8,103.6 483.4,94.7 482.9,87.5 482.9,80.9 483.2,76.1 483.9,70.7 485.3,63.1 487,56.7 489.3,49.9 491.3,44.9 494.3,38.3 497.9,31.4 501.2,25.7 506,18.1 512.1,9.1 518.4,0.4" fill="none" stroke="#000000" stroke-width="1"/><polyline id="SvgjsPolyline4820" points="576.6,256.9 573.7,248.3 571.3,242.2 568.1,235.1 564,227.1 560.8,221.3 554,210 540.7,189.3 534.4,179.1 527,166 524.3,160.7 521.5,154.7 519.4,149.7 516.2,140.7 513.9,132 512.9,126.7 512.3,122.5 511.9,117.7 511.8,111.7 512.3,103.9 512.7,101 513.7,95.7 515.4,89.3 517.4,83.6 520.3,77 522.8,72.2 527.1,65 533.3,56.2 537.8,50.5 541.7,46 542.4,45 549.2,37.4 550.1,36.6 553.7,32.6 571,14.3 577.4,7.1 583.1,0.1" fill="none" stroke="#000000" stroke-width="1"/><polyline id="SvgjsPolyline4821" points="582.5,291.6 582.2,286.2 581.5,279.6 580.4,272.5 578.9,265.5 577.7,260.8 575,252.2 571.9,244.4 569.4,239 565.5,231.5 562.5,226.4 558,219.3 552.9,211.8 542.9,198.3 530.4,182.2 522.2,171.1 515.4,161.2 510.3,153.1 504.7,143.1 502.3,138.3 498.9,130.6 497,125.6 495.1,119.9 493.4,113.5 492.1,107 491.2,99.9 490.9,95.1 490.9,89.1 491.2,84.3 491.6,80.7 493.2,71.9 495.1,64.9 497.5,58.1 499.6,53.1 503,46.1 506.5,39.8 510.6,33.2 515.3,26.2 520.2,19.4 534.9,0.4" fill="none" stroke="#000000" stroke-width="1"/><polyline id="SvgjsPolyline4822" points="581.7,281.7 580.5,274.6 579.3,269.9 577.7,265.4 576.2,262.1 573.2,256.9 569.9,252.6 567.1,249.5 562.7,245.4 559,242.4 554.6,239.2 549.1,235.6 542.4,231.7 538.2,229.3 529.7,224.8 497,208.3 491.2,205.2 485.5,201.9 484.9,201.7 475.1,195.9 470,192.7 459.6,185.6 454.8,182 447.3,176 438.8,168.4 430.8,160.3 425.6,154.5 420.6,148.4 415.2,141.3 409.1,132.3 404.8,125.2 400.4,117.3 395.7,107.6 392.2,99.3 389.3,91.4 386.1,81.1 384,72.9 382.4,65.3 380.7,54.6 379.8,46.3 379.2,36.7 379.1,23.5 379.3,18.1 380.1,6.7 380.9,0.2" fill="none" stroke="#000000" stroke-width="1"/><polyline id="SvgjsPolyline4823" points="299.5,300.1 278.2,306.4 265.7,310.7 260.7,312.7 255.8,314.9 252,316.8 245.3,320.8 242.4,322.9 240.1,324.8 237.9,326.9 235.1,330 233,333 230.9,336.6 229.7,339.3 228.5,342.7 227.7,345.6 226.7,351.5 226.4,355.7 226.4,362.3 226.9,368.9 227.6,374.3 228.4,379 230.4,388.4 232.6,397.1 234.7,404.6 239.6,420.7 246.7,443 253.4,466 257.8,483.5 260.2,494.6 262.4,506.4 264,516.5 265.4,527.2 266.3,535.6 267.6,552.3 268.2,566.1 268.4,576.9 268.4,584.7 268.1,599.7" fill="none" stroke="#000000" stroke-width="1"/><polyline id="SvgjsPolyline4824" points="299.5,299.7 287.8,292.3 276.5,284.4 271.8,280.7 266.8,276.3 261.7,271.3 259.3,268.6 254.6,262.4 252.1,258.3 249.4,252.9 247.5,247.9 246,242.7 245.2,238.6 244.4,233.2 244,227.2 244,220.6 244.2,217 245.2,206.9 246.6,198 248.2,189.7 250,181.5 259.1,144.2 263.4,124.9 265.7,113.1 267.3,103.7 269.7,87.6 270.9,77.5 272.1,65 273.3,46.4 273.9,25.4 273.9,11.6 273.6,0.2" fill="none" stroke="#000000" stroke-width="1"/><polyline id="SvgjsPolyline4825" points="299.3,300 236.9,300.4 223.1,300.7 217.1,301 213.5,301.3 211.2,301.7 209.4,302.2 208.4,302.8 207.5,303.6 207.2,304.1 206.8,305.3 206.4,307.6 206.3,311.2 206.6,317.8 207.6,328 208.5,334.5 211,348.1 213,356.9 214.5,362.7 218.1,375.4 222.5,389.1 231.9,415.7 232.2,416.2 240.7,439.9 246.4,457 250.4,470.2 253.4,481.2 255.8,491.1 257.6,499.3 259.7,510.5 262,525.4 263.2,535.5 264.4,549.2 265,559.4 265.4,572 265.4,589.4 265.1,599.6" fill="none" stroke="#000000" stroke-width="1"/><polyline id="SvgjsPolyline4826" points="300.2,300 274,296.8 259.8,294.6 251.6,293 245.7,291.6 240.5,290.1 233.8,287.6 230.5,286 227.5,284.2 225.5,282.8 222.4,279.9 220.9,278 219.3,275.5 218.5,273.9 217.7,271.7 216.4,267 215.9,263.4 215.7,260.5 215.7,255.1 216.5,246.1 217.1,241.9 218.2,236 220.8,224.9 223.5,215.1 227.8,201.4 242.3,159.4 246.6,146.3 249.6,136.5 253,124.4 254.8,117.4 257,108.1 259.3,96.9 262,80.9 262.9,74.4 264.2,63.1 265.2,51.1 265.8,40.9 266.2,28.3 266.2,9.7 265.9,0.1" fill="none" stroke="#000000" stroke-width="1"/><polyline id="SvgjsPolyline4827" points="299.5,300.3 284.6,309.4 279.6,312.7 273.8,316.9 268.6,321 264.1,325 260.3,328.8 257.1,332.4 254.2,336.2 251.6,340.2 249.5,343.9 247.3,348.8 245.9,352.8 244.4,358.6 243.2,366.3 242.8,374.1 242.9,379.5 243.2,384.3 244.3,393.8 245.9,403.3 248.1,413.9 249.6,420.3 258.6,456.4 262.2,472.2 265.8,490.4 268.4,506.4 269.6,515.4 271,527.9 271.8,536.8 273,556.6 273.5,577 273.4,593.8 273.2,599.8" fill="none" stroke="#000000" stroke-width="1"/><polyline id="SvgjsPolyline4828" points="299.7,300.6 291.7,316 287.4,325.3 285.3,330.2 282.9,336.4 280.6,343.2 277.9,353.1 275.9,363 274.7,372 274,381.5 273.8,393.5 274.1,402.5 274.6,410.9 276.5,431.2 279.7,458.6 282.2,481.9 283.8,499.8 285.2,520.2 286,536.4 286.7,559.8 286.9,577.8 286.7,600" fill="none" stroke="#000000" stroke-width="1"/><polyline id="SvgjsPolyline4829" points="580.8,274.9 579.2,265.4 574.4,243.7 572.6,233.7 571.9,227.1 571.8,220.5 572.2,215.7 572.7,212.8 573.9,208.1 575.9,203.1 578.2,198.9 581.7,194 585.3,190 590.6,185.1 594.9,181.8 598.3,179.4 599.9,178.5" fill="none" stroke="#000000" stroke-width="1"/><polyline id="SvgjsPolyline4830" points="580.9,276 579.9,270.7 577.9,263.2 576.1,258.1 573.4,252.1 571.7,248.9 569.5,245.3 566.4,240.9 563.8,237.6 558.6,231.8 554.3,227.6 549.4,223.2 540.5,216 531.4,209.2 508.8,193.3 495.7,183.8 483.4,174.2 475.6,167.6 470.7,163.2 462.5,155.3 457.5,150.1 451.5,143.4 446.2,136.9 439.8,128.2 435.8,122.2 433,117.6 428.6,109.7 424.9,102.2 422.5,96.7 419.7,89.4 417.8,83.7 415.4,75 414.1,69.2 412.5,59.7 412,55.5 411.3,45.4 411.2,39.4 411.6,29.2 412.4,20.8 413.2,14.9 414.8,6 416.1,0.1" fill="none" stroke="#000000" stroke-width="1"/><polyline id="SvgjsPolyline4831" points="580.1,270.8 579.1,265.5 576.1,253.3 572,239.5 568.9,229.8 565.8,218.8 564.3,212.4 562.9,204.1 562.5,199.9 562.4,192.7 562.8,187.9 563.9,182 564.7,179.1 565.9,175.7 569,169.2 571.5,165.2 573.6,162.2 578.3,156.7 582.1,152.9 585.7,149.7 589.9,146.3 594.2,143.1 599.7,139.4" fill="none" stroke="#000000" stroke-width="1"/><polyline id="SvgjsPolyline4832" points="577.5,259.5 577.1,257.7 574.7,249.7 570.9,238.9 568.3,232.2 561.1,215.1 556.4,203.4 553,193.8 551.6,189.2 549.4,180.4 548.3,173.9 547.9,170.4 547.7,167.4 547.7,161.4 548.1,156.6 549.1,150.7 549.7,148.3 551.1,143.7 552.6,139.8 555.2,134.4 556.4,132.3 559.6,127.3 562.1,123.9 563.6,122 568.8,116.2 572.2,112.8 578.4,107.2 583,103.3 588.2,99.2 599.8,90.7" fill="none" stroke="#000000" stroke-width="1"/><polyline id="SvgjsPolyline4833" points="578.7,265.2 577.1,259.4 574.9,253.2 571.5,245.5 566.2,236.1 563.2,231.6 559.3,226.3 555.9,222.1 550.8,216.2 542.5,207.5 533.5,198.7 519,185.2 505.6,172.3 496.8,163.3 487.2,152.6 478.9,142.3 474.3,136 471.6,132 468.7,127.4 464.2,119.7 459.1,109.5 456.1,102.3 453.3,94.3 451.8,89.2 449.9,81 448.9,75.1 448.4,70.9 447.8,61.9 447.8,55.9 448.4,46.9 448.9,42.8 450.2,35.1 451.7,28.6 453.6,21.7 456.3,13.7 458.4,8.1 461.7,0.4" fill="none" stroke="#000000" stroke-width="1"/><polyline id="SvgjsPolyline4834" points="579.3,267.2 578.1,261.9 576,254.4 573.1,245.9 570,238.1 565.3,227.7 560.2,217.5 549.8,197.9 543.9,186.1 540.2,177.9 537.5,171.2 535.9,166.7 533.3,158.1 532.1,152.8 531.2,147.5 530.5,139.1 530.5,134.3 530.9,128.9 531.4,125.3 532.4,120.6 533.3,117.2 535.5,110.9 538.5,104.4 541.7,98.6 544.3,94.6 547.8,89.7 550.4,86.4 556.8,79.2 560.5,75.3 565.2,70.7 570.9,65.4 580.8,56.6 588.1,50.4 599.7,40" fill="none" stroke="#000000" stroke-width="1"/><polyline id="SvgjsPolyline4835" points="579.6,268.5 578.5,263.2 576.3,255.1 574.9,250.5 571.7,241.5 566.5,228.7 558.6,211.2 552.9,198 550.7,192.4 547.9,184.5 546.5,179.9 545.3,175.2 544.4,171.1 543.6,166.4 542.9,158.6 542.9,153.2 543.2,149 543.5,146.6 544.5,141.3 545.4,137.9 547.6,131.6 549.6,127.3 551.3,124.1 553.8,120 556.9,115.6 559.9,111.8 565.9,105.1 573.7,97.7 581,91.4 590.9,83.6 599.6,77.1" fill="none" stroke="#000000" stroke-width="1"/><polyline id="SvgjsPolyline4836" points="576.9,258.4 575.6,254.4 573.5,248.8 571.6,244.4 569.5,240.1 563.9,230.2 557.2,220.2 549.9,210.7 542.6,201.9 522,178.5 521.3,177.5 518.5,174.4 517.8,173.4 513.5,168.4 507.5,160.9 502.1,153.7 496,144.8 492.8,139.7 489.5,134 484.6,124.4 480.6,115 477.6,105.9 475.7,98.3 474.6,92.4 474,87.6 473.5,80.4 473.5,73.8 473.9,67.9 474.4,63.7 475.8,56 477.9,47.9 480.6,39.9 482.6,34.9 485.8,27.8 488.5,22.4 493.2,14 497.8,6.3 501.7,0.3" fill="none" stroke="#000000" stroke-width="1"/><polyline id="SvgjsPolyline4837" points="578.1,262.2 576.1,255.2 573.3,247.3 571.7,243.4 568.5,236.3 565.2,229.9 563.4,226.8 563.2,226.2 556.4,214.9 552.5,208.9 544.8,197.4 539.3,189.5 529.1,174 520.6,159.5 516.8,152 513.6,144.9 511.4,139.3 508.8,131.3 507.6,126.7 506.6,122 505.7,116 505.2,110 505.1,104.6 505.6,96.9 506.5,90.9 507.4,86.8 509.2,80.5 510.6,76.5 513.2,70.4 516.1,64.5 519.7,58.3 522.6,53.8 526.4,48.3 532.2,40.7 538.7,32.8 559.4,9.5 567.1,0.3" fill="none" stroke="#000000" stroke-width="1"/><polyline id="SvgjsPolyline4838" points="299,300.1 274.1,303.5 256.9,306.5 249.9,308.1 241.8,310.4 236.8,312.3 233.5,313.8 230.3,315.5 227.3,317.5 223.8,320.7 221.5,323.5 219.7,326.7 218,331.1 217.3,334.1 216.8,337.6 216.5,341.8 216.5,346 216.9,352 217.4,356.2 218.8,364.5 220.6,372.7 223.7,384.3 227.9,398 231.9,410 242.9,441.7 246.8,453.7 249.6,462.9 252.4,472.7 255.8,486.1 258.4,497.8 259.8,505.5 260,506 261.6,515.5 263.4,528.6 264.5,538.7 265.6,553.1 266.1,563.3 266.4,577.1 266.3,591.5 266,599.9" fill="none" stroke="#000000" stroke-width="1"/><polyline id="SvgjsPolyline4839" points="299,300 271.4,298.9 249.9,297.7 234.9,296.3 226,294.8 221.4,293.5 218.1,292.1 216.1,290.8 213.9,288.8 212.7,287.4 211.5,285.3 210.5,282.5 209.8,278.3 209.6,275.9 209.6,270.5 210.1,264 210.7,259.2 212.2,250.3 213.3,245 216.6,231.6 221.4,215.5 225,204.7 242.7,155 245.9,145.3 248.4,137.3 252.2,124 255.3,111.8 258,99.5 261.2,81.2 261.9,76.4 263.6,62.1 264.6,50.1 265.3,37 265.6,24.4 265.5,8.2 265.2,0.4" fill="none" stroke="#000000" stroke-width="1"/><polyline id="SvgjsPolyline4840" points="17,299.7 21.8,299.4 35.6,299.2 129.2,298.7 155.6,298.4 173.6,298 184.4,297.5 189.2,297.1 195.1,296.2 198.5,295.1 200.1,294.2 201.9,292.6 203.5,290.1 204.9,285.5 208.1,265.9 209.9,255.9 212.4,244.8 216.1,230.9 219.6,219.4 222.8,209.7 230.4,188.2 230.7,187.7 238,167.4 242.8,153.8 246,144.1 251.5,125.7 253.8,117 256.3,106.5 258.5,95.9 261.3,79.3 262.7,68.6 264.1,54.3 264.9,41.7 265.4,25.5 265.4,12.9 265,0.3" fill="none" stroke="#000000" stroke-width="1"/><polyline id="SvgjsPolyline4841" points="17.5,300.4 16.9,300.5 17.4,300.9 19.7,301.3 30.5,301.8 55.7,302.3 97.7,302.8 131.9,303.4 153.5,304 169.7,304.8 176.8,305.4 182.8,306.1 189.9,307.5 193.8,308.9 196,310 198,311.3 200.1,313.4 202.3,317 204.2,322.1 206.1,329.6 208.7,341.9 210.9,351.3 214.1,363.5 217.5,375 222,388.7 230,411.3 230.3,411.8 238.7,434.9 245.3,454.3 250.4,470.9 253.8,483.6 256.3,494.1 258.5,504.7 261.1,520.1 262.6,531.4 264,545.7 264.8,558.3 265.3,574.5 265.3,587.1 264.9,599.7" fill="none" stroke="#000000" stroke-width="1"/><polyline id="SvgjsPolyline4842" points="17.3,300.2 17.3,288.8 16.6,285.9 15.6,283.7 14.9,282.7 13.2,281 11.8,279.9 9.2,278.4 7,277.4 0.2,275.1" fill="none" stroke="#000000" stroke-width="1"/><polyline id="SvgjsPolyline4843" points="16.8,299.8 17.3,300.1 17.3,295.3 17.5,294.1 18.2,292.4 19.4,291.1 22,289.6 26.5,288 30.6,287 41.8,285 53.1,283.5 102.7,278.3 117,276.6 126.5,275.3 135.4,273.9 146,271.9 153.6,270.1 159.3,268.5 166.2,266.2 170,264.6 176,261.7 180.1,259.2 184,256.4 187.2,253.6 191.4,249.4 193.3,247.1 198.6,239.8 201.7,234.7 205.2,228.4 211.6,215.5 221.5,193.6 232.2,168.2 238.7,151.4 243.5,137.8 246.8,127.5 249,120 251.5,110.8 253.2,103.8 256.4,88.5 258.8,73.7 260.2,62.4 261.5,47.4 262.3,29.4 262.4,17.4 262.2,6.1 261.9,0.1" fill="none" stroke="#000000" stroke-width="1"/><polyline id="SvgjsPolyline4844" points="17.5,299.8 16.9,299.7 17.3,299.2 17.2,298.6 17.3,296.9 18.1,295.9 18.6,295.6 19.7,295.1 23.2,294.2 29.1,293.3 35.7,292.6 48.8,291.6 102.2,288.7 124.9,287.2 136.9,286.2 148.2,285 161.9,283 169.5,281.4 175.3,279.8 178.7,278.6 183.1,276.7 187.7,274 190.2,272.2 194.1,268.5 196,266.2 198.4,262.7 200.5,259.1 203.9,252 206.2,246.5 221.7,204.9 235.1,170.2 243,148.2 246.2,138.5 250.5,124.1 254,110.8 257.8,93.2 260.2,79 261.7,67.7 262.7,58.1 263.9,40.8 264.3,28.8 264.4,19.2 264,0.6" fill="none" stroke="#000000" stroke-width="1"/><polyline id="SvgjsPolyline4845" points="17.3,299.9 17.3,309.5 17,311.2 16.6,312.4 15.4,314.5 13.3,316.6 10.2,318.5 8,319.5 4.7,320.7 0,322" fill="none" stroke="#000000" stroke-width="1"/><polyline id="SvgjsPolyline4846" points="17.3,299.7 17.3,304.5 17.5,306.3 18.1,308 19.1,309.4 20.1,310.2 23.2,311.9 26.6,313.1 30.7,314.2 35.9,315.3 47.2,317.2 53.7,318.1 100.8,323.5 112.7,325 125.2,326.8 134.7,328.4 144.1,330.3 153.4,332.6 160.3,334.7 166.5,337 170.3,338.7 177.2,342.4 182.1,345.8 185.4,348.5 189.7,352.6 192.1,355.3 195.8,360 199.2,365 200.8,367.5 205,374.8 212.1,388.7 221.2,408.3 230.7,430.3 238.6,450.4 243.2,463.4 245.8,471.4 249.2,482.9 252.9,497.5 255.4,509.2 257.3,519.8 258.6,528.7 259.7,537.7 260.4,544.8 261.2,555.6 261.8,570 261.9,584.4 261.7,594 261.4,600" fill="none" stroke="#000000" stroke-width="1"/><polyline id="SvgjsPolyline4847" points="17.6,304.1 18.4,304.9 19.4,305.5 20.5,306 23.4,306.8 30.5,308 37.7,308.8 56.2,310.3 104.1,313.3 126.9,315.1 133.4,315.7 147.1,317.3 159,319.2 167.2,321 171.8,322.3 177.5,324.3 180.2,325.5 185.5,328.4 187.9,330.1 191.6,333.3 194.8,336.8 198.3,341.7 202.1,348.5 206.1,357.2 210.4,367.8 219,390.2 230.9,420.3 237.5,437.7 243.9,455.8 246.5,463.8 249.1,472.4 252,482.8 254.6,493.3 257.9,509.2 260.3,524 262.1,538.9 263.3,553.8 263.9,567 264.1,582 263.7,599.4" fill="none" stroke="#000000" stroke-width="1"/><polyline id="SvgjsPolyline4848" points="17,299.4 17.5,299.2 17.1,298.7 17.4,298.2 17.1,297.7 16,297.2 14.2,296.7 8.9,296 0.5,295.4" fill="none" stroke="#000000" stroke-width="1"/><polyline id="SvgjsPolyline4849" points="17.3,300.3 17.3,294.9 17.8,287.7 18.5,284.2 19.5,281.4 21,278.8 22.9,276.5 26.1,273.7 30.6,270.8 34.9,268.6 38.2,267.2 44.4,264.9 51.3,262.7 68.6,258 105.3,248.8 116.3,245.7 128.3,241.9 133.4,240.1 133.9,239.8 137.9,238.4 145,235.4 153.2,231.5 159,228.3 167.1,223.2 172.4,219.3 178.4,214.3 181.9,211 185.7,207.2 194,197.7 199.1,191 202.9,185.6 207.5,178.6 216,164.1 222.9,150.8 228.9,137.7 233,127.7 237.5,115.3 241.4,102.7 244.3,91.6 246.5,81.7 248.9,68.1 250.5,55.6 251.7,41.2 252.2,28.6 252.2,13.6 251.7,0.5" fill="none" stroke="#000000" stroke-width="1"/><polyline id="SvgjsPolyline4850" points="17.3,295.2 17.9,284.4 18,279.6 17.7,276 17.3,273.7 16.6,271.4 15.5,269.2 13.9,266.7 12.3,264.9 10.1,262.9 7.6,261.1 4.6,259.3 0.2,257.2" fill="none" stroke="#000000" stroke-width="1"/><polyline id="SvgjsPolyline4851" points="17.5,292.4 17.9,289.4 18.4,287.7 19.6,285.6 22.1,283.1 24.1,281.7 27.9,279.8 31.2,278.5 35.8,277 43.9,274.9 56.2,272.3 69.8,269.8 94.1,265.7 107.6,263.2 119.4,260.8 130.5,258.2 138.6,256 143.8,254.4 153.4,251 158.3,248.9 163.8,246.3 168.5,243.7 175.5,239.1 180.7,235 184.3,231.8 189.7,226.2 193.6,221.6 200,212.9 204.6,205.9 207.1,201.8 211.6,194 211.8,193.4 215.6,186.6 223.1,171.6 229.6,157.4 236.2,141.3 241.9,125.5 245.8,112.9 249.9,97.2 252.5,84.9 254.7,71.8 256.3,59.3 257.5,45.6 258.2,30 258.3,15.6 257.8,0" fill="none" stroke="#000000" stroke-width="1"/><polyline id="SvgjsPolyline4852" points="17.3,299.8 17.3,305.2 17.7,311.8 18.5,316.5 19.6,319.9 21,322.6 23.6,325.9 26.2,328.4 30.1,331.2 33.2,333 38.6,335.6 42.5,337.2 52.1,340.6 65.3,344.6 99.5,353.9 116.2,358.9 128.1,363 132.6,364.7 140.3,367.9 147.4,371.2 151.7,373.4 159.5,377.9 162,379.5 168.9,384.3 175,389.2 179.9,393.6 185,398.7 191,405.4 197,412.9 202.6,420.7 206.9,427.2 211,433.9 216.9,444.3 222.1,454.4 227.6,466.4 231.7,476.4 235.6,487.1 239.7,500.3 243,513.1 245.2,523.7 246.9,533.7 248.6,547.4 249.4,557 250,570.2 250,586.4 249.4,599.6" fill="none" stroke="#000000" stroke-width="1"/><polyline id="SvgjsPolyline4853" points="17.1,303.9 16.8,304.5 15.9,305.2 12.5,306.5 7.2,307.5 0.1,308.3" fill="none" stroke="#000000" stroke-width="1"/><polyline id="SvgjsPolyline4854" points="17.3,305.6 17.8,315.2 17.7,318.8 17.2,322.4 16.7,324.1 15.7,326.3 14,328.8 12.3,330.5 10,332.4 7,334.4 4.3,335.8 0.5,337.4" fill="none" stroke="#000000" stroke-width="1"/><polyline id="SvgjsPolyline4855" points="17.4,307.1 17.9,311.2 18.6,313.5 19.1,314.6 20.1,316.1 21.8,317.9 24.1,319.7 27.3,321.5 29.4,322.5 35.6,324.8 46,327.7 54.8,329.7 67.7,332.3 100.8,338.5 120.7,342.8 132.9,346 142.1,348.8 147.2,350.6 154.4,353.5 158.8,355.5 165.7,359.1 169.8,361.6 176.2,366.1 179.9,369.1 185.2,374 188.1,377 192.1,381.5 196.2,386.7 200.4,392.5 206.3,401.6 209.4,406.7 214.7,416.1 222.1,430.5 227.5,441.9 234.3,457.9 236.7,464.1 241.1,476.5 244.2,486.3 247.7,499 251,513.6 253.5,527.8 255.4,542.7 256.5,555.8 257.1,569 257.2,585.2 256.7,599.6" fill="none" stroke="#000000" stroke-width="1"/><polyline id="SvgjsPolyline4856" points="17.4,300.5 17.3,294.6 17.8,286.2 18.5,280.2 19.2,276.1 20.8,269.7 22.2,265.7 23.4,263 26.6,257.2 28.3,254.7 30.9,251.4 34.6,247.5 40,242.7 43.8,239.8 51.8,234.4 57.4,231 69,224.6 98.9,209.3 110,203.3 125,194.5 134,188.6 139.4,184.8 145.6,180.1 152.6,174.4 158.9,168.8 167,160.8 172.6,154.6 176.5,150 181.7,143.4 186.6,136.5 191.5,129 196.6,120.2 200.5,112.7 204.5,104 207,97.9 210.8,87.1 212.7,80.8 214.9,72.1 216.6,63.9 217.9,55.6 219.1,44.2 219.6,34.6 219.6,23.2 219.3,16.1 218.6,7.1 217.8,0.5" fill="none" stroke="#000000" stroke-width="1"/><polyline id="SvgjsPolyline4857" points="17.6,289 18,284.8 18.8,280 20.1,275.4 21.5,272.1 23.7,268.5 27.2,264.4 29.9,262 34.3,258.8 38.3,256.3 42,254.3 46.3,252.2 54,248.8 66.9,243.8 103.1,231 113.2,227.1 122.6,223.2 129.7,220 141.5,214 150.3,208.9 156.8,204.6 163.1,200 170.1,194.3 176.3,188.6 183,181.8 189.7,174.1 194.9,167.5 201.5,158.2 207.3,149.1 211.8,141.3 217.6,130.1 221.6,121.4 225.7,111.4 229.7,100.1 232.8,89.7 235,81 236.9,72.2 238.8,60.9 240.1,50.2 240.8,41.9 241.4,26.9 241.2,11.9 240.5,0.5" fill="none" stroke="#000000" stroke-width="1"/><polyline id="SvgjsPolyline4858" points="18,283.8 19.1,271.8 19.2,265.2 18.9,261.6 18.6,259.9 18,257.5 17,254.7 14.7,250.5 12.5,247.6 11.3,246.3 8.2,243.5 6.3,242 0.7,238.5 0.1,238.3" fill="none" stroke="#000000" stroke-width="1"/><polyline id="SvgjsPolyline4859" points="17.7,312.2 18.4,320 21.2,339.6 22,347.3 22.1,355.1 21.8,358.7 21.2,362.3 19.8,366.9 18.4,370.2 16.3,373.8 14.9,375.8 13,378.1 8.7,382.3 5.4,384.9 0.4,388.2" fill="none" stroke="#000000" stroke-width="1"/><polyline id="SvgjsPolyline4860" points="17.6,311.2 18.2,317.2 19.2,323.1 20.3,327.2 21.3,330 22.8,333.3 25.3,337.4 27.9,340.7 30.8,343.7 33.5,346.1 36.8,348.7 41.8,352.1 44.8,353.9 49.5,356.6 54.3,359.1 70.1,366.4 99.4,378.8 112,384.5 120.1,388.4 127,392 135.4,396.7 140.5,399.8 148.5,405.1 155.8,410.4 162.3,415.7 168.6,421.3 175,427.6 181.5,434.7 186.1,440.2 190.9,446.4 196.1,453.7 201.6,462.3 206.1,470.1 210.8,479.2 214.8,487.9 218.2,496.2 222,507 225.2,517.9 227.8,529 229.8,540.2 231.2,551.6 231.7,557.5 232.2,567.7 232.3,576.7 232,586.9 231.1,599.5" fill="none" stroke="#000000" stroke-width="1"/><polyline id="SvgjsPolyline4861" points="17.7,311.7 18.1,315.9 18.6,318.9 19.3,321.8 20.7,325.7 22.7,329.5 25.6,333.3 27.7,335.4 31.9,338.8 34.4,340.5 40.1,343.8 44.4,345.9 48.8,347.9 57.1,351.3 74.6,357.6 84.9,361 103.6,367.6 115.9,372.2 123.7,375.4 133,379.6 144.2,385.4 149.9,388.7 159.9,395.3 166.1,400 170.3,403.5 176.1,408.7 181.6,414.2 188,421.3 193.7,428.3 200.1,437 207.3,448.1 212.4,456.9 217.7,467 223.2,479 226.8,487.9 230.4,498.1 233.7,509 236.2,518.9 238.4,529.5 240.2,540.7 241.3,550.3 242.1,560.4 242.5,570.6 242.5,583.2 242.2,591.6 241.7,599.4" fill="none" stroke="#000000" stroke-width="1"/><polyline id="SvgjsPolyline4862" points="17.9,315.2 18.5,322.9 18.4,330.1 18,333.1 17.4,335.4 15.8,339.3 13.4,342.8 11.4,345 9.6,346.6 4.2,350.4 0.5,352.4" fill="none" stroke="#000000" stroke-width="1"/><polyline id="SvgjsPolyline4863" points="17.3,296.8 17.5,290.2 18.2,281.9 19.2,274.1 22.7,253.4 23.5,246.9 23.8,242.1 23.8,237.3 23.6,234.3 23,230.1 22.3,227.2 20.7,222.7 19.1,219.4 16.2,214.9 13.1,211.2 8.8,207.1 6,204.8 0,200.7" fill="none" stroke="#000000" stroke-width="1"/><polyline id="SvgjsPolyline4864" points="17.3,300.1 17.4,292.3 18,284 18.8,277.4 19.8,271.5 20.8,266.8 22.8,259.3 25.1,252.4 27.8,245.8 31.5,238.2 33.5,234.5 38.2,226.9 43.3,219.4 46.9,214.6 52.1,208 58.3,200.7 59,199.7 74.4,182.1 85.6,168.8 91.6,161.3 95.2,156.5 101.1,148.1 104.7,142.6 108.1,137 111.6,130.7 113.5,126.9 116.5,120.4 118.5,115.4 120.7,109.1 121.9,105.1 123.5,98.7 124.7,92.2 125.3,87.5 125.8,79.7 125.8,74.9 125.3,67.1 124.4,61.1 123.2,54.7 120.8,46 118.2,38.6 113.9,28.7 109.8,20.7 105.9,13.9 100.3,4.7 97.3,0.2" fill="none" stroke="#000000" stroke-width="1"/><polyline id="SvgjsPolyline4865" points="18.5,280.2 19.6,273.1 21.4,265.6 23.7,258.7 25.6,254.3 28.1,249.5 31.3,244.4 36,238.2 40.4,233.3 43.8,229.9 49.1,225.1 57.5,218.2 70.5,208.6 89.8,195.3 105.9,183.8 118.7,173.9 124.7,168.9 131.9,162.5 138.4,156.3 142.6,152 152.5,140.8 159.5,131.8 164.3,124.9 168.4,118.3 172.3,111.5 175.6,105.1 180.4,94.1 183.8,84.5 185.2,79.9 187,72.9 188,68.2 189.4,59.9 190.1,54 190.6,47.4 190.8,41.4 190.6,31.2 190.2,25.2 189.1,15.7 187.5,6.2 186.2,0.3" fill="none" stroke="#000000" stroke-width="1"/><polyline id="SvgjsPolyline4866" points="17.3,296.9 17.5,290.3 18.3,281.9 19.4,276 20,273.7 21.6,269.2 23.2,265.9 25.7,261.9 29.2,257.7 33.1,254 35.4,252.1 40.8,248.3 48,244 53.3,241.2 65.8,235.3 97.3,221.9 113.1,214.7 122.8,209.9 127.5,207.3 128.1,207.1 138,201.4 141,199.5 150,193.5 155.8,189.2 162.3,183.9 169,177.9 175,172 183,163.1 190.5,153.7 192.6,150.8 200.9,138.3 206.6,128.4 211.5,118.8 215.9,108.9 218.3,102.8 222.6,90.3 225.5,79.9 228.1,68.2 229.8,58.1 230.7,51 231.5,42 232,30.6 232,20.4 231.6,10.2 230.8,0" fill="none" stroke="#000000" stroke-width="1"/><polyline id="SvgjsPolyline4867" points="17.8,286.9 18.7,278.5 19.8,272.6 21.3,266.8 23.3,261.1 25,257.3 26.7,254.1 28.6,251.1 30.3,248.6 32.9,245.3 36.1,241.7 40.4,237.5 45.4,233.2 51.6,228.5 57,224.7 69.7,216.6 94.4,201.9 109.7,192.4 118.7,186.4 126.5,180.8 136.9,172.7 144.2,166.4 149.9,161.1 155.4,155.6 161.5,149 169.9,138.8 175.9,130.5 179.2,125.5 183.2,118.9 188.4,109.4 192,101.8 195,94.6 197.8,86.7 199.8,80.4 201.8,72.8 203.1,67 204.8,56.9 205.4,52.1 206.1,43.8 206.4,36 206.3,27 205.8,18 204.8,8.4 203.5,0.1" fill="none" stroke="#000000" stroke-width="1"/><polyline id="SvgjsPolyline4868" points="18.2,282.2 20.5,263.2 20.9,256 20.7,251.2 20.4,248.8 19.3,244.1 18.5,241.9 17.2,239.1 14.3,234.6 12.3,232.3 10.2,230.2 6.1,226.7 2.6,224.3 0.1,222.8" fill="none" stroke="#000000" stroke-width="1"/><polyline id="SvgjsPolyline4869" points="17.3,300.6 17.4,307.8 18.3,318.6 19.9,328.7 21.4,335.1 23,340.3 25,345.9 26.2,348.7 29.1,354.6 31.8,359.2 35.1,364.3 41.3,372.4 47.3,379.1 53.6,385.5 66,396.8 92.5,419.4 103.7,429.4 104.5,430.3 109.8,435.2 120.3,445.9 129,455.8 132.4,460 138.5,468.2 143.5,475.7 146.9,481.3 150.1,487.1 152.8,492.5 154.8,496.8 157.5,503.5 159.9,510.3 161.9,517.2 163.5,524.2 164.9,532.5 165.5,537.9 165.9,544.5 165.9,553.5 165.6,558.9 165,564.8 163.9,572 162.4,579.6 160.8,586 158.6,593.5 156.5,599.7" fill="none" stroke="#000000" stroke-width="1"/><polyline id="SvgjsPolyline4870" points="18.5,321.2 19.5,330.1 19.8,334.9 19.8,339.1 19.6,342.1 19,345.7 17.8,349.7 16,353.5 14.7,355.5 12.4,358.3 10.3,360.4 6.6,363.5 3.1,365.9 0.1,367.7" fill="none" stroke="#000000" stroke-width="1"/><polyline id="SvgjsPolyline4871" points="17.5,308.3 18,316.1 18.7,322 19.7,328.6 21.9,339.7 26.2,358.5 28.1,369.1 28.8,376.9 28.8,383.5 28.3,388.2 27,394.1 25.4,398.6 23.6,402.4 22.1,405 20.4,407.5 18.6,409.9 16.2,412.6 12.4,416.4 10.6,418 5.9,421.7 0.4,425.4" fill="none" stroke="#000000" stroke-width="1"/><polyline id="SvgjsPolyline4872" points="19.9,329.7 24,352.8 24.8,359.9 25,364.1 24.9,368.3 24.6,371.3 23.6,376.6 22.3,380.6 21.1,383.4 18.4,388 16.6,390.5 13.5,394.1 9.6,397.8 4.9,401.6 0.4,404.6" fill="none" stroke="#000000" stroke-width="1"/><polyline id="SvgjsPolyline4873" points="17.6,311.1 18.2,317.6 19.3,324.8 20.8,331.2 22.7,336.9 24.9,341.8 28.6,348 31.9,352.3 37.2,358 41.2,361.6 45.4,365 51.7,369.6 56.2,372.6 66.4,378.9 82,387.9 82.6,388.1 93.5,394.4 94.1,394.6 96.7,396.1 111.6,405 118.7,409.5 125.7,414.2 133.5,419.8 139.2,424.2 144.3,428.4 152.8,436 161.7,444.9 167.7,451.6 170,454.4 176.6,462.9 181.1,469.3 185.3,475.9 189.2,482.6 193.9,491.7 196.9,498.2 200.5,507.1 202.3,512.2 205.1,521.4 207.5,531.3 209.5,542.5 210,546.1 210.9,555.7 211.3,564.1 211.3,573.1 211,580.3 210.2,589.8 208.9,599.9" fill="none" stroke="#000000" stroke-width="1"/><polyline id="SvgjsPolyline4874" points="17.6,289.5 18.1,282.9 18.6,278.8 19.8,271 20.9,265.1 23,255.8 27.9,236 28.9,231.3 30,224.8 30.7,217.6 30.8,214.6 30.7,210.4 30.4,206.8 29.3,200.9 27.2,194.7 26.5,193 25.1,190.3 22.9,186.7 21.2,184.3 16.5,178.8 14.4,176.7 10.8,173.5 6.1,169.8 0.1,165.8" fill="none" stroke="#000000" stroke-width="1"/><polyline id="SvgjsPolyline4875" points="18.6,279 20,269.5 20.2,269 21.7,260.7 24.6,247.2 26.5,235.3 26.9,230 26.9,224.6 26.6,221 25.9,216.8 24.6,212.2 23,208.3 20.7,204.1 17.2,199.3 13.9,195.7 9.1,191.2 2.9,186.5 0.4,184.9" fill="none" stroke="#000000" stroke-width="1"/><polyline id="SvgjsPolyline4876" points="17.9,285.4 18.6,278.8 19.7,271.7 21,265.2 23.5,255.3 26.7,245 31.3,232 31.6,231.5 35.7,220.2 36,219.7 39,211.2 41.9,202 43.6,195.6 44.6,191 45.5,185.6 45.9,182.1 46.2,177.3 46.2,173.1 45.9,168.9 45.1,163.5 44.7,161.8 43.6,157.7 42.2,153.8 40.5,149.9 38.8,146.7 36,142.1 33.9,139.2 31.3,135.9 25.6,129.7 22.6,126.8 18.1,122.8 9.6,116.1 3.8,111.9 0.3,109.6" fill="none" stroke="#000000" stroke-width="1"/><polyline id="SvgjsPolyline4877" points="19,276.5 19.2,274.7 20.4,268.3 22.2,260.7 23.5,256 24.8,252 28.7,241.3 34.3,228.7 34.9,227.7 36.4,224.4 40.5,216.4 52.4,194.2 57.5,184 61.7,174.7 65.3,165.2 66.7,161.2 68.5,154.8 69.3,151.3 70.6,143.6 71.1,138.2 71.2,135.2 71.1,129.8 70.6,124.5 69.8,119.7 68.5,114.5 66.4,108.2 64,102.7 61.2,97.4 58.7,93.3 54.6,87.4 50.5,82.2 46.2,77.2 41.7,72.4 36.6,67.3 26.5,57.9 7.6,41.2 1,35.1 0.2,34.2" fill="none" stroke="#000000" stroke-width="1"/><polyline id="SvgjsPolyline4878" points="18.9,277.3 20.1,270.2 21.5,264.4 22.5,260.9 25.8,251.9 28.9,245.4 31.3,241.2 33.1,238.2 37.2,232.2 44,223.8 47.6,219.8 53.9,213.4 59.1,208.4 65.3,202.8 75.2,194 84.3,186.2 97.3,174.6 98.1,173.7 101.7,170.5 107.3,165.1 116.9,155.2 126,144.8 131.2,138.2 135.1,132.9 141.4,123.4 145.9,115.6 149.2,109.2 152.4,102.1 154.2,97.6 157.1,89.1 158.4,84.5 159.8,78.6 161.2,71 162,64.4 162.5,56 162.5,50 162.3,45.2 161.5,36.9 160.4,29.7 158.8,22.1 157,15.1 154.9,8.3 152.1,0.3" fill="none" stroke="#000000" stroke-width="1"/><polyline id="SvgjsPolyline4879" points="18.2,282.6 18.5,279.6 19.5,273 21.2,264.8 22.1,261.3 23.6,256.1 25.3,251 25.6,250.5 27,246.5 29.8,239.9 34.3,230.7 40.8,219.3 48.5,207.1 63.6,184.7 68.8,176.6 75.3,165.8 77.9,161.1 82,153.1 84.5,147.6 87.4,140.4 88.8,136.4 90.7,130.1 92.2,123.7 93.1,118.3 93.8,111.2 93.9,104 93.6,99.2 92.6,92 91.5,86.8 90.2,82.1 87.8,75.4 85.1,69.3 81.8,62.9 78.4,57.3 75.1,52.3 69.8,45 65.7,39.8 61.4,34.8 60.7,33.8 48.8,20.3 43.9,15 43.6,14.5 36,6 31.4,0.5" fill="none" stroke="#000000" stroke-width="1"/><polyline id="SvgjsPolyline4880" points="22.1,261.6 23.6,256.4 25.2,251.8 26.2,249 28.5,243.5 31.3,237.5 33.8,232.7 39.6,222.9 46.6,212.4 49.4,208.5 55.1,200.8 72.6,177.9 80.3,167.2 85.6,159.2 89.1,153.6 92.1,148.4 96.8,139.3 99.3,133.9 100.9,130 104.6,119.2 106.1,113.4 107.4,106.9 108.3,99.8 108.6,95 108.6,89 108,81.2 106.7,73.5 105.9,70 103.5,62 101.6,56.9 98.7,50.3 95.7,44.4 91.2,36.7 88.3,32.1 84.6,26.6 79.3,19.3 70.2,7.4 64.6,0.4" fill="none" stroke="#000000" stroke-width="1"/><polyline id="SvgjsPolyline4881" points="20.1,270.1 22.1,261.9 23.9,256.2 25.8,251.1 27.7,246.7 30.1,241.9 33.4,236.1 34.9,233.6 39.3,227.1 46.3,218.1 54.2,209.1 65.4,197.4 82,180.9 91.2,171.4 100.9,160.8 107.5,153 113.4,145.4 117.6,139.6 122.9,131.5 127.7,123.3 129.4,120.1 132.3,114.2 135.4,107 137.7,100.8 140.1,92.8 141.5,86.9 143,78 143.6,72.1 143.8,67.9 143.8,60.7 143.4,54.1 142,44 140.2,35.8 138.4,29.4 135.9,22 133.3,15.3 130.4,8.7 126.2,0.1" fill="none" stroke="#000000" stroke-width="1"/><polyline id="SvgjsPolyline4882" points="19.6,272.9 20,270.5 21.9,262.3 23.6,256.6 25.8,250.3 27.6,245.9 30.1,240.4 33.5,234.1 33.7,233.5 39.3,224.3 46.5,213.9 56.4,201.1 68.6,186.3 80.6,171.3 87.8,161.7 94.9,151.3 100.8,141.5 104.2,135.2 107.3,128.7 109.4,123.7 111.7,117.5 113.8,110.6 115.2,104.8 116.6,96.5 117.2,89.9 117.2,79.7 116.6,73.2 115.5,66.6 114.6,62.5 112.5,55 110.9,50.5 108.2,43.8 105.1,37.3 102.3,32 96.5,22.2 92.6,16.2 88.2,9.7 81.5,0.5" fill="none" stroke="#000000" stroke-width="1"/><polyline id="SvgjsPolyline4883" points="21.4,264.8 23.1,258.4 25.5,251.6 27.1,247.7 31,239.6 35.2,232.4 37.8,228.3 43.4,220.5 52.1,209.8 62.1,198.6 76.9,182.9 80.1,179.3 81,178.5 89,169.6 97.2,160 103.9,151.5 107.8,146.2 111.2,141.2 115.4,134.6 119.3,127.9 122.6,121.5 125.1,116 127.8,109.4 129,106 131.1,99.1 132.4,93.8 134,85 134.4,81.4 134.9,74.2 134.9,68.2 134.5,61.6 133.7,55.1 132.1,46.8 130.9,42.2 128.2,33.6 126.5,29.1 123.5,21.9 121.2,17 117.1,9 112.1,0.1" fill="none" stroke="#000000" stroke-width="1"/><polyline id="SvgjsPolyline4884" points="18.9,277 19.6,272.9 21.2,265.9 22.6,261.2 25.3,253.9 27.9,248.5 31.5,242.3 34.2,238.3 38.6,232.6 46.3,224.2 54.6,216.4 64.7,207.9 95.9,183.5 105.2,175.9 114.7,167.6 123,159.8 129.3,153.4 134.2,148.1 140.4,140.8 144.5,135.6 148.4,130.3 152.1,124.8 155.6,119.2 158.3,114.5 162.7,106 165.4,100 167,96.1 170.4,86.5 171.9,81.3 173.9,73.1 175.1,66.6 175.9,60.7 176.4,55.3 176.7,49.3 176.7,42.1 176.2,33.1 175.3,25.4 173.8,16.5 172.4,10.1 169.8,0.2" fill="none" stroke="#000000" stroke-width="1"/><polyline id="SvgjsPolyline4885" points="18.1,316.6 18.7,322 20.8,333.8 22.5,340.8 25,349.4 26.5,354 30,363.6 42.8,395.3 46,404.4 48.4,412.4 49.9,418.8 51.2,427.1 51.6,432.5 51.6,437.9 51.4,440.9 50.2,448.6 48.8,453.8 47.6,457.2 44.6,463.8 41.9,468.4 38.5,473.4 35.9,476.7 31.1,482.1 27.3,485.9 23.8,489.1 18.8,493.5 11.7,499.1 0.1,507.6" fill="none" stroke="#000000" stroke-width="1"/><polyline id="SvgjsPolyline4886" points="19.3,325.6 20.5,332.1 21.9,337.9 23.4,343.1 25.3,348.8 27,353.3 29.6,359.3 32.5,365.3 35.1,370 35.3,370.6 40.8,379.9 46.7,388.9 53.2,398.3 69.3,420.7 78.6,434.7 85.6,446.6 89.7,454.6 93.6,463.4 95.5,468.4 97.2,473.6 98.5,478.2 99.7,483.5 100.7,489.4 101.1,493 101.5,499.5 101.3,507.3 100.9,511.5 99.6,519.2 97.8,526.2 96.5,530.2 94.8,534.7 91.6,541.8 89.1,546.6 85.8,552.3 81.9,558.3 76.7,565.7 67.1,578 61,585.4 55.9,591.3 49.1,599.7" fill="none" stroke="#000000" stroke-width="1"/><polyline id="SvgjsPolyline4887" points="19.3,325.1 20.5,330.9 22.3,337.3 23.5,340.7 25.9,346.2 29.7,353 32.4,357 36.1,361.7 39.3,365.3 45.7,371.6 48.4,374 58.7,382.3 70.8,391.1 86.7,401.9 103.4,413.6 115.4,422.6 127.9,432.9 132.4,436.9 138.5,442.7 145.6,450 150.8,455.8 155.4,461.4 161.2,469 168.2,479.5 173.3,488.3 175.8,493.1 179.8,501.8 182.9,509.6 185.9,518.8 187.6,525.1 189.4,533.3 190.4,539.3 191.1,544.6 191.8,553.6 192,560.2 191.8,569.2 191.4,575.2 190.4,584.1 188.5,595.4 187.6,599.5" fill="none" stroke="#000000" stroke-width="1"/><polyline id="SvgjsPolyline4888" points="18.6,321.2 20,329.4 21.5,335.9 23.3,342.2 25.3,347.9 27.1,352.3 29.9,358.3 31.3,361 35.5,368.2 41.2,376.7 44.8,381.5 49.7,387.6 51.7,389.8 52.4,390.8 65.2,405.1 66.1,405.9 75.4,416.1 76.3,416.9 83.9,425.4 84.8,426.2 96.1,439.4 104.6,450.3 108.1,455.2 113.4,463.2 116.5,468.3 119.7,474.1 124.4,483.8 127.1,490.5 128.7,495 130.9,502.5 132,507.2 133,512.5 133.9,519.6 134.3,526.2 134.3,532.2 133.4,543 132.2,550.1 130.7,556.5 129.2,561.7 127.1,568 123.5,576.9 121,582.3 115.5,593 111.6,599.8" fill="none" stroke="#000000" stroke-width="1"/><polyline id="SvgjsPolyline4889" points="21.7,336.4 23.4,342.2 24.6,345.6 26.4,350 29.2,356 33,362.8 36.6,368.3 40.1,373.2 44.2,378.4 47.7,382.5 54.2,389.6 63.9,399.4 77.3,412.3 80,414.7 91.6,426 101.2,435.9 113.1,449.4 121.9,460.8 128.6,470.8 131.7,475.9 134.6,481.2 139.3,490.9 142.2,498.1 144,503.2 146.2,510.7 147.8,517.7 148.8,523.7 149.5,529.6 149.9,536.8 149.9,542.8 149.4,550.6 148.6,557.1 147.3,564.2 145.3,572.4 143.6,578.1 140.4,587.2 138.4,592.2 135,599.9" fill="none" stroke="#000000" stroke-width="1"/><polyline id="SvgjsPolyline4890" points="20.7,332.1 22.5,338.5 23.9,342.5 26.5,348.5 28.4,352.3 30.2,355.4 34.2,361.4 38.3,366.6 42.3,371.1 49,377.9 58.9,386.6 69.2,394.9 85.4,407.3 86.9,408.3 103.4,421.3 112.6,429 120.2,435.8 125.4,440.8 129.2,444.6 135.8,451.6 140.9,457.5 145.4,463.1 149,467.9 152.8,473.4 157,479.9 160.3,485.6 162.3,489.3 166.5,498 169.7,505.7 171.9,511.9 173.5,517.1 175.7,525.8 177.5,535.9 178.1,540.6 178.7,547.8 178.9,553.8 178.8,561 178.4,567.6 177.7,574.1 176.2,583.6 174.3,592.4 172.3,600" fill="none" stroke="#000000" stroke-width="1"/><polyline id="SvgjsPolyline4891" points="18.3,318.9 19.9,329.6 21.6,337.8 24.4,348.8 31.3,373.1 33.3,381.9 34.3,387.8 34.9,393.7 35,400.9 34.7,404.5 33.7,410.4 32.6,414.5 31.8,416.8 29.1,422.8 27.3,425.9 24.9,429.4 22.7,432.2 19.5,435.8 14.3,440.7 11.5,443.1 6.3,447.1 0.3,451.1" fill="none" stroke="#000000" stroke-width="1"/><polyline id="SvgjsPolyline4892" points="19.1,275.5 20.3,268.4 22.1,260.2 25.5,247.5 31.7,226.8 33.5,219.8 34.8,213.9 35.6,209.2 36.3,202.6 36.4,196 36.1,191.9 35.2,186.5 34.3,183 32.7,178.5 31.8,176.3 29.6,172 26,166.5 23.4,163.2 21,160.5 17.6,157.1 14.5,154.3 6,147.6 0,143.6" fill="none" stroke="#000000" stroke-width="1"/><polyline id="SvgjsPolyline4893" points="21.9,261.8 22.6,258.9 24.8,251.4 29,239.5 35.4,224 41.5,210.3 45.9,199.8 50.4,187.4 51.5,183.9 53.7,175.2 55,167.5 55.3,164.5 55.5,160.9 55.5,156.1 55.3,152.5 54.9,149 54.3,145.4 53,140.2 50.8,133.9 49.6,131.2 47.4,126.9 44.6,122.3 41.5,117.9 38.5,114.1 33.3,108.3 29.9,104.9 24.6,100 15.4,92.3 0.1,80.7" fill="none" stroke="#000000" stroke-width="1"/><polyline id="SvgjsPolyline4894" points="20.4,268.3 21.9,261.2 24.9,250.2 27.4,242.2 34.5,221.2 36.6,214.3 39,205 40.4,197.3 41.1,190.1 41.1,184.1 40.7,179.4 40,175.2 39.3,172.3 38.4,169.4 36.7,164.9 34.6,160.6 31.8,156 29.7,153.1 27,149.8 23.4,145.8 16.9,139.6 13.7,136.9 9.4,133.6 0.1,127.1" fill="none" stroke="#000000" stroke-width="1"/><polyline id="SvgjsPolyline4895" points="19.9,270.8 22.5,259.7 24.6,252.8 27.9,243.8 30,238.8 32.8,232.8 37.7,223.2 41.2,216.9 58.1,188.6 64,178.1 69.7,166.9 74,157 77.5,146.8 79.2,140.4 79.9,136.9 80.7,132.1 81.2,127.3 81.4,123.7 81.3,116.6 80.8,111.2 79.8,105.3 78.5,100 76.2,93.2 73.3,86.6 71.1,82.3 67.4,76.2 63.3,70.2 57.8,63.1 49.1,53.2 43.3,47.1 29.2,33.2 15.3,19.1 6.9,9.7 3.5,5.5 0.3,1.1" fill="none" stroke="#000000" stroke-width="1"/><polyline id="SvgjsPolyline4896" points="20,270.3 21.8,262.1 23.9,254.6 24.8,251.7 28.9,240.4 31.4,234.3 35.3,225.6 42.6,210.4 43.2,209.4 43.9,207.7 44.5,206.7 45.2,205 45.8,204 46.5,202.3 47.1,201.3 51.6,191.4 55.9,180.9 57.7,175.8 60.5,166 61.4,161.9 62.2,157.2 62.9,149.4 62.9,144 62.5,138.6 61.4,132.1 60.5,128.6 58.6,122.9 57,119 54.9,114.7 51.6,109 48.9,105 45.3,100.3 40.2,94.3 30.9,85 18.7,74.3 0,59.2" fill="none" stroke="#000000" stroke-width="1"/><polyline id="SvgjsPolyline4897" points="24.9,252.4 27.7,245.1 31.4,236.9 35.9,228.4 40.5,220.7 44.4,214.6 49.1,207.7 57.1,196.4 62.8,188.7 72.8,174.4 78.4,165.9 86,153 89.3,146.6 91.6,141.7 93.9,136.2 96,130.5 98.1,123.6 99.5,117.8 100.7,110.7 101.1,107.1 101.4,102.3 101.4,96.3 100.7,88 99.9,83.2 98.4,76.8 97,72.2 94.7,66 91.5,58.9 88.7,53.6 84.4,46.4 81.1,41.4 76.9,35.5 72.2,29.3 67.3,23.2 48.1,0.2" fill="none" stroke="#000000" stroke-width="1"/><polyline id="SvgjsPolyline4898" points="20,270.4 21.7,262.8 24.4,253.5 26.2,248.4 29.1,241.2 33.7,231.4 36.3,226.7 36.5,226.1 43.4,214.2 47.5,207.5 61.1,186.3 68.2,174.5 73.4,165 78.8,153.6 80.6,149.2 83.4,141.2 85,135.5 86.1,130.8 87.4,122.5 87.8,117.1 87.8,110.5 87.4,105.1 86.5,99.2 85.3,93.9 83.9,89.3 82.1,84.2 79.4,78.2 77.2,73.9 72.6,66.2 70.6,63.2 66,56.9 58.4,47.6 50.8,39.1 27.3,14.3 21.7,8 15.3,0.1" fill="none" stroke="#000000" stroke-width="1"/><polyline id="SvgjsPolyline4899" points="21.8,263.3 22.8,259.8 25.2,253 28.9,244.8 32.1,239 34.3,235.5 37.7,230.5 40.2,227.2 46.7,219.3 54.9,210.5 63,202.5 84.1,182.9 95.4,172.1 106.7,160.5 113.5,152.9 122.2,142.2 126.1,136.9 130.2,130.9 133.4,125.8 137.3,119.1 139.8,114.3 142.6,108.3 144.7,103.4 147,97.2 149.6,88.6 151.1,82.1 152.5,73.8 153.3,65.5 153.5,58.9 153.4,54.1 153,48.1 152.3,42.1 151.2,35.6 149.5,28 147.9,22.2 144.9,13.1 144.6,12.6 143.2,8.6 139.7,0.3" fill="none" stroke="#000000" stroke-width="1"/><polyline id="SvgjsPolyline4900" points="19.2,325.3 21.1,335.3 23.1,343.5 24.4,348.1 27.8,359 35.3,381.1 37.7,389.2 39,394.4 39.9,398.5 40.8,403.9 41.3,408.6 41.5,415.2 40.9,422.4 39.7,428.3 38.3,432.9 37,436.2 34.6,441.1 33.1,443.7 29.7,448.6 25.5,453.7 23.4,455.9 21.3,458 15.5,463.2 8.9,468.4 0,474.6" fill="none" stroke="#000000" stroke-width="1"/><polyline id="SvgjsPolyline4901" points="19.3,325.7 20.9,334 23.3,343.3 25.9,351.3 29.5,360.8 33.9,370.7 37.8,378.8 48.3,399 54.2,410.8 58.4,420.1 61.1,426.8 62.7,431.3 64.7,437.6 65.9,442.3 66.7,445.8 67.7,451.7 68.2,456.5 68.4,460.7 68.3,466.1 67.8,471.4 67,476.2 65.7,481.4 64.8,484.3 63.1,488.8 61.4,492.6 58.9,497.4 55.1,503.5 51.6,508.4 49,511.7 43.9,517.6 43,518.4 40.6,521.1 34.2,527.4 22.2,538.3 21.2,539 12.2,546.9 11.2,547.6 0.4,557.1" fill="none" stroke="#000000" stroke-width="1"/><polyline id="SvgjsPolyline4902" points="20.6,332.7 22.7,341.4 24.4,347.2 26.9,354.6 29,360.2 34.1,372.3 48.3,403.5 51.2,410.7 54.6,420.3 57.1,429.6 58.4,436.7 58.9,440.9 59.2,446.2 58.9,454 57.9,460.6 57.2,463.5 56.6,465.8 54.2,472.6 52.2,477 50.2,480.7 47.4,485.3 42.8,491.6 35.7,499.7 28.4,506.8 23,511.6 17,516.6 0.4,529.5" fill="none" stroke="#000000" stroke-width="1"/><polyline id="SvgjsPolyline4903" points="22.5,340.7 23.9,346 26.4,354 31.4,368.1 35.3,378.2 39.2,388.9 41.8,396.9 43.7,403.8 44.9,409.1 45.8,414.4 46.4,420.4 46.5,427 45.9,433.6 45.1,437.7 44.2,441.2 42.4,446.3 40.7,450.1 39.3,452.8 36.5,457.4 31.4,464.1 27.8,468.1 24,471.9 16.8,478.3 10.2,483.5 0.4,490.4" fill="none" stroke="#000000" stroke-width="1"/><polyline id="SvgjsPolyline4904" points="17.9,314.2 18.7,321.9 20.1,330.2 21.4,336.1 24.2,345.9 27.4,354.9 29.7,360.4 33.5,368.6 38.8,378.7 46,391.2 56.6,408.6 64.1,421.6 70.4,433.9 74.7,443.8 78.4,454.6 80.4,462.7 81.9,472.2 82.3,478.8 82.2,484.2 81.6,490.8 80.4,497.3 79,502.5 77,508.2 74.4,514.2 72.5,518 68.9,524.2 66.6,527.7 61.3,535 55.2,542.4 51.2,546.9 41.7,556.9 23.4,575.1 18,580.7 8.8,591 4.3,596.6 2.2,599.5" fill="none" stroke="#000000" stroke-width="1"/><polyline id="SvgjsPolyline4905" points="22.6,340.2 26.3,351 28.4,356 31.8,363 33.8,366.7 39.7,376.4 46.2,385.8 53.1,394.9 63.6,408 73.9,420.5 85.6,435.7 92.8,446.1 98.2,454.7 103.4,464.2 105,467.4 108.4,475.1 110.3,480.1 112.4,486.4 114.5,494.5 115.8,501.6 116.3,505.8 116.8,514.2 116.7,519.6 116.1,526.7 114.9,533.9 114,538 112.4,543.7 109.6,551.7 108,555.5 105.5,561 101.3,569 96.1,577.7 90.5,586.2 84.3,595.1 80.7,599.9" fill="none" stroke="#000000" stroke-width="1"/><polyline id="SvgjsPolyline4906" points="20.4,331.2 21.1,334.7 22.6,340.5 24.2,345.7 26.8,353 30.3,361.3 34.3,369.4 42.6,384 48.7,393.6 62.3,414.1 68.4,423.8 73,431.5 75.6,436.2 78.4,441.5 81,447 84.5,455.2 86.9,462 89,469.5 89.9,473.6 90.8,479 91.4,484.9 91.6,490.3 91.4,495.7 90.7,502.3 89.3,509.3 87.5,515.7 85.9,520.2 82.8,527.4 80.3,532.2 76.7,538.4 73.4,543.4 69.9,548.3 65.5,554 61.3,559.1 53.8,567.7 33.6,589.8 25,599.9" fill="none" stroke="#000000" stroke-width="1"/><polyline id="SvgjsPolyline4907" points="19.4,326 20.1,330.1 21.9,337.7 23.2,342.3 25.3,348.6 26.8,352.5 30.2,360.2 33.2,366.1 37.7,373.9 43.5,382.9 51.5,394.2 71.2,419.9 81.1,433.5 87.4,443 92,450.7 95.2,456.5 97.9,461.9 100.6,467.9 103.8,476.3 106.5,485.5 107.3,489 108.4,495.5 108.8,498.5 109.3,505.7 109.2,512.9 108.6,519.5 107.5,526 106.4,530.7 104.9,535.8 102.7,542.1 99.6,549.2 96.9,554.6 95.1,557.7 94.9,558.3 89.6,567 86.6,571.5 80.7,579.8 65.3,599.8" fill="none" stroke="#000000" stroke-width="1"/><polyline id="SvgjsPolyline4908" points="20.4,331.4 21.5,336.1 22.8,340.7 25.7,349.2 27.3,353.1 30.1,359.1 32.6,363.9 35.9,369.6 41.9,378.6 50.2,389.6 59.8,401.1 73.3,416.4 86.1,431.5 92.4,439.5 99.5,449.2 104.8,457.2 107.3,461.3 111.1,468.1 113.3,472.4 115.6,477.3 117.9,482.8 121.4,493 122.8,498.3 123.9,503.5 125.1,511.3 125.6,517.8 125.7,522 125.6,526.2 125.2,531.6 124.7,535.8 123.3,543.5 121,552.2 117.8,561.2 114.2,569.5 109.3,579.1 105.4,585.9 101.7,592 96.8,599.6" fill="none" stroke="#000000" stroke-width="1"/><polyline id="SvgjsPolyline4909" points="21.7,262.7 22.5,259.2 24.3,252.9 28.3,240.9 32.6,229.7 39,214.2 42.7,204.7 44.9,198.4 47.2,191 49.3,182.2 50.2,176.9 50.6,173.3 50.8,170.3 50.8,163.7 50.4,159 49.6,154.2 48.4,149.6 46.8,145 44.9,140.6 41.4,134.4 38,129.4 35.4,126.1 30.6,120.7 26.8,116.9 19.6,110.5 12.6,104.9 7.8,101.3 0.4,96.1" fill="none" stroke="#000000" stroke-width="1"/><polyline id="SvgjsPolyline4910" points="23.1,257.6 24.9,251.8 28.2,242.8 30.3,237.8 33.3,231.3 39.3,219.5 57.5,187.1 64,174.2 68.3,164.3 72.2,153 74,146 75,140.7 75.6,135.9 76,129.3 75.9,123.9 75.6,120.4 74.6,113.8 73.8,110.3 72.2,105.1 69.9,99 67,93 64.3,88.3 61.1,83.3 58.3,79.4 51.5,71 48.3,67.4 42.1,60.9 33.5,52.5 25.1,44.8 24.3,43.9 15.9,36.2 10.7,31.2 5.2,25.7 0.3,20.4" fill="none" stroke="#000000" stroke-width="1"/><polyline id="SvgjsPolyline4911" points="22.3,339.3 22.7,341.1 24.8,348 26.8,353.6 29.5,360.3 33.7,369.6 40.3,382.4 51.8,402.8 59.2,416.5 62.7,423.5 66.4,431.7 68.4,436.7 70.6,442.9 72.3,448.7 73.8,455.1 74.7,460.4 75.4,468.8 75.4,473.6 75,479 74.1,484.9 72.7,490.8 70.4,497.6 69,500.9 67.2,504.7 64,510.5 60.4,516 57.6,519.9 50.8,528.3 44.3,535.4 31.9,547.6 16.9,561.4 8.2,569.7 2.7,575.2 0.3,577.9" fill="none" stroke="#000000" stroke-width="1"/></g></svg>