<?xml version="1.0" encoding="UTF-8" standalone="no"?><svg id="SvgjsSvg1001" width="600" height="600" xmlns="http://www.w3.org/2000/svg" version="1.1" xmlns:xlink="http://www.w3.org/1999/xlink" xmlns:svgjs="http://svgjs.com/svgjs"><title xmlns="http://www.w3.org/1999/xhtml">function vectorField(p) {
  return {
    x: Math.sqrt(p.x*p.x + p.y * p.y),
    y: Math.cos(p.y*Math.sin(Math.sqrt(p.x*p.x + p.y * p.y)))
  };
}</title><g id="SvgjsG2095"><polyline id="SvgjsPolyline2096" points="0.3,465.2 9.9,465.4 21.9,466.3 36.8,468.2 51.6,470.7 62.8,472.8 81,476.5 111.5,483.1 129.6,487.2 152.5,492 175,495.9 186.9,497.4 196.5,498.2 205.5,498.6 212.1,498.6 218.1,498.4 225.8,497.8 233.6,496.8 239.5,495.8 244.8,494.7 254.1,492.4 266.8,488.7 287.9,481.9 304.6,476.9 322.5,472 355.1,463.7 376.5,457.8 392.6,453 426.3,442.2 441.2,437.7 449.3,435.5 457.5,433.5 465.1,431.9 474,430.4 482.4,429.4 493.1,428.7 501.5,428.6 514.1,429.1 523.7,429.9 535.6,431.2 558.8,434.2 574.9,436 584.5,436.8 594.1,437.3 599.5,437.4" fill="none" stroke="#000000" stroke-width="1"/><polyline id="SvgjsPolyline2097" points="0.2,453.2 8.6,453.4 18.8,454.1 26.5,454.9 38.4,456.5 65.6,461.2 105.6,469.2 119.8,471.9 132.2,474 139.9,475.1 150.7,476.3 158.4,476.8 172.8,476.8 178.2,476.4 184.8,475.6 190.1,474.7 194.8,473.7 202.4,471.8 207.5,470.3 227,464.1 238.5,460.8 249.6,458.2 261.5,456.1 273.4,454.6 284.7,453.6 321.8,451.5 338.6,450.2 356.5,448.1 366,446.6 373,445.3 387.7,442.1 402.8,438.1 416.6,434 449.7,423.4 463,419.6 475.8,416.5 481.7,415.3 489.4,414 498.9,412.8 507.3,412.1 517.5,411.7 527.7,411.7 546.9,412.5 562.4,413.6 581.6,414.7 591.2,415 599.6,415" fill="none" stroke="#000000" stroke-width="1"/><polyline id="SvgjsPolyline2098" points="0.5,477.2 7.1,477.1 13.7,477.3 20.2,477.7 29.8,478.7 42.3,480.5 64.7,484.6 85.3,488.8 111.7,494.5 135.1,499.8 184.7,511.4 205.8,516 230.5,521 256.5,525.9 281.8,531 301.7,535.5 330.2,542.6 348.3,546.8 365.4,550.2 379,552.4 390.9,554 401.6,555.2 441.7,558.8 460.2,560.8 475,562.9 508.7,568.8 517.6,569.9 524.2,570.4 535,570.5 543.4,570 555.9,568.5 570.7,566.1 581.4,564.6 591,563.7 595.2,563.5 600,563.5" fill="none" stroke="#000000" stroke-width="1"/><polyline id="SvgjsPolyline2099" points="0.1,458.8 9.1,459 21,459.9 31.1,461.1 41.8,462.7 58.4,465.6 80.2,469.9 127.7,479.9 137.7,481.8 153.7,484.4 164.5,485.7 175.8,486.5 185.4,486.6 192,486.3 196.8,485.9 203.4,485.1 208.7,484.2 218,482.1 226.7,479.7 246.7,473.3 256.5,470.4 267.5,467.5 277.5,465.3 296.4,462 316.6,459.2 322.6,458.5 342.2,455.7 360.5,452.5 374.6,449.5 390.9,445.4 402.4,442.1 420.2,436.6 439.6,430.3 456.9,425.2 465,423.1 472,421.5 486.8,418.9 494.5,418 504.1,417.3 509.5,417.1 520.3,417.1 537.1,417.9 566.4,420.4 581.9,421.5 591.5,421.9 599.9,422" fill="none" stroke="#000000" stroke-width="1"/><polyline id="SvgjsPolyline2100" points="0.1,470 10.3,470.1 20.4,470.8 29.4,471.8 40.7,473.5 53.1,475.6 77.8,480.5 104.8,486.3 157.5,498.2 179.8,502.7 195.8,505.4 207.7,507 214.8,507.8 224.4,508.6 231.6,509 237.6,509.2 251.4,509.2 263.4,508.6 270.5,508 280.7,506.8 296.7,504.2 309,501.7 324.8,498 376.4,484.4 384,482.5 396.3,479.7 403.3,478.3 414.6,476.4 422.9,475.4 433.7,474.7 442.7,474.7 449.9,475.1 457.6,475.9 466,477.2 471.9,478.2 480.7,480 500,484.3 527,490 542.3,493 560.1,496 572,497.4 580.4,497.9 590,497.9 599.6,497.3" fill="none" stroke="#000000" stroke-width="1"/><polyline id="SvgjsPolyline2101" points="0.2,467.9 11,468.1 23.5,469.1 37.8,471 51.4,473.3 68.5,476.6 89.7,481 154.1,495.3 167.6,498 180.6,500.3 195.5,502.4 207.4,503.6 218.2,504.2 229,504.3 238.6,503.9 244.6,503.4 252.9,502.4 262.4,500.8 267.7,499.7 281.1,496.4 297.8,491.5 318.9,484.7 322.4,483.7 328.6,481.6 363,470.9 404.1,457.7 419.6,452.9 434,448.8 441.6,446.9 453.3,444.4 462.2,443 473,441.9 479,441.6 489.2,441.6 499.4,442.2 505.9,442.8 519.6,444.6 556.9,450.7 573,452.9 586.7,454.2 595.1,454.6 599.9,454.6" fill="none" stroke="#000000" stroke-width="1"/><polyline id="SvgjsPolyline2102" points="0.2,441.2 8,441.4 18.8,442.1 29.6,443.2 36.7,444.1 49.2,445.9 61,447.8 86.4,452.2 99.5,454.3 115.5,456.4 121.5,457 131.7,457.6 141.3,457.6 145.5,457.4 153.8,456.6 165.1,454.6 177.3,451.4 196.7,445.2 209.4,441.6 215.8,440.1 220.5,439.2 228.2,437.9 236,437 248.6,436.2 263,436.1 279.1,436.7 315.1,438.9 330.1,439.4 341.5,439.4 350.5,439.1 357.1,438.7 364.8,438 373.8,436.9 389.7,434.1 397.3,432.4 406.1,430.2 423.3,425.2 458.8,413.9 468.6,411.1 476.7,409 489.6,406.2 497.9,404.8 506.3,403.7 521.2,402.5 535.6,402.1 548.2,402.2 579.4,403.1 599.8,403.1" fill="none" stroke="#000000" stroke-width="1"/><polyline id="SvgjsPolyline2103" points="0.3,447.2 6.9,447.3 17.6,448 29,449.2 37.9,450.4 62.8,454.5 98.7,461.2 116.5,464.2 126,465.5 138.6,466.7 144.5,467 154.1,467 158.3,466.8 167.9,465.8 178.5,463.8 186.1,461.9 199.3,457.9 205.5,455.8 213,453.5 222.8,450.8 232.2,448.7 242.3,447 247,446.4 258.4,445.4 274.6,444.8 289.6,444.8 306.4,445.1 325.6,445.1 340.6,444.6 351.9,443.8 359.7,443 368,441.9 378.7,440.1 385.7,438.7 395.7,436.4 408.4,433 426.2,427.6 449.1,420.2 466.9,415 472.7,413.5 482.1,411.4 490.9,409.8 497.5,408.8 505.2,407.9 516.6,407.1 522,406.9 537.6,406.9 583.2,408.8 600,408.9" fill="none" stroke="#000000" stroke-width="1"/><polyline id="SvgjsPolyline2104" points="0.3,489.3 7.5,488.9 13.5,488.9 20.7,489.2 27.8,489.8 39.1,491.2 56.3,494.1 69.3,496.6 124.5,507.9 159.7,515.7 195.9,524.3 277.4,544.4 300.2,549.7 324.3,554.6 338.5,557 347.4,558.3 357.5,559.6 372.5,561.2 394.6,563 428.1,565.2 442.5,566.4 450.2,567.2 466.3,569.3 503,575.6 512.5,576.7 519.1,577.1 528.1,577.1 539.4,576.3 549.6,575 569.7,571.8 581,570.5 589.4,570 596,570 599.6,570.2" fill="none" stroke="#000000" stroke-width="1"/><polyline id="SvgjsPolyline2105" points="0.6,472.8 7.8,472.8 13.2,473 25.1,474 35.8,475.4 53.6,478.4 69.5,481.5 101.2,488.2 158.5,501.3 175.5,505 196.1,509.1 213.9,512.1 232.9,514.7 247.8,516.3 267.5,517.9 304.6,520.3 317.8,521.5 330.9,523.1 345.7,525.6 351.6,526.8 366.8,530.3 390.1,536 405.9,539.3 422.5,542.1 430.8,543.3 462.4,547.2 480.2,549.7 497.4,552.6 505.6,554.2 524.6,557.3 533.5,558.2 539.5,558.5 546.1,558.5 552.1,558.2 562.2,557.2 568.8,556.3 588.4,553.2 596.7,552.2 599.7,552" fill="none" stroke="#000000" stroke-width="1"/><polyline id="SvgjsPolyline2106" points="0.5,471.4 11.3,471.5 22.1,472.3 36.3,474.1 52.9,476.9 71.8,480.6 98.8,486.3 159.6,500.1 177.2,503.8 185.5,505.4 205,508.7 215.1,510.1 222.9,511 236,512.2 248,512.9 258.2,513.2 272,513.2 287.6,512.7 300.2,512 331.9,509.7 347.5,508.9 363.7,508.8 372.6,509.2 384.6,510.4 396.4,512.3 411.7,515.6 433.3,520.8 451.5,524.6 504.7,533.7 525.3,537.6 533.6,539 540.2,539.9 551.5,540.9 561.1,541 565.9,540.8 576.7,539.8 599.8,536.3" fill="none" stroke="#000000" stroke-width="1"/><polyline id="SvgjsPolyline2107" points="0.3,470.8 10.5,470.9 21.9,471.7 36.2,473.5 52.8,476.3 53.3,476.5 69.3,479.5 92.2,484.3 116.2,489.6 154.2,498.3 177.1,503.1 189.5,505.4 201.9,507.4 211.5,508.7 224.6,510.1 237.7,511 250.9,511.4 265.3,511.2 280.9,510.3 290.5,509.4 305.4,507.6 319,505.6 354,499.9 367.6,498 377.8,496.9 389.7,496.1 393.3,496 403.5,496.1 416.7,497.2 430.9,499.5 442.1,501.9 466,507.5 480.1,510.5 534.3,520.9 549.1,523.3 561.1,524.5 565.3,524.7 574.3,524.7 584.4,524 592.8,523 599.9,521.9" fill="none" stroke="#000000" stroke-width="1"/><polyline id="SvgjsPolyline2108" points="0.5,470.5 1.1,470.4 8.9,470.5 14.9,470.8 22.1,471.4 36.4,473.2 50.6,475.6 65.9,478.5 90,483.5 123.4,490.9 152.6,497.6 179.6,503.2 192.6,505.5 203.9,507.2 218.2,508.9 227.8,509.7 234.4,510.1 243.4,510.4 254.8,510.4 268.5,509.8 284.7,508.3 296.6,506.7 316.7,503.2 336.1,499.2 363.6,493.2 374.2,491.1 388.4,488.7 399.7,487.3 405.7,486.8 411.7,486.5 421.9,486.5 427.3,486.8 435.7,487.6 447.5,489.4 459.3,491.8 485,497.7 507.3,502.4 536.8,508.2 553.9,511.1 566.4,512.5 576,512.9 586.2,512.6 593.4,512 599.9,511.2" fill="none" stroke="#000000" stroke-width="1"/><polyline id="SvgjsPolyline2109" points="0.2,469.4 7.4,469.4 14,469.7 27.7,471 38.4,472.5 49.7,474.4 60.9,476.5 84.4,481.3 113.7,487.7 128.3,491.1 155.8,497.2 165.8,499.3 179.4,501.9 195.4,504.5 209.1,506.2 221,507.2 233.6,507.7 245,507.6 251.6,507.3 259.4,506.7 266.5,505.9 274.3,504.8 279.6,503.9 289.6,501.9 304.2,498.4 320.4,493.9 336.5,489.1 384.6,474.2 407.1,467.8 421.1,464.4 429.9,462.6 440,461 448.4,460.1 455.6,459.7 465.8,459.7 469.9,459.9 480.7,460.9 487.2,461.8 497.9,463.6 540.8,472.2 563.3,476.1 572.2,477.3 581.8,478.2 590.8,478.6 599.8,478.5" fill="none" stroke="#000000" stroke-width="1"/><polyline id="SvgjsPolyline2110" points="0.6,468.8 9.6,468.9 22.2,469.8 33.5,471.2 50.1,473.9 71.3,478 93.6,482.7 156.8,496.8 174.5,500.3 188.7,502.7 203,504.6 213.7,505.6 222.1,506.1 234.7,506.3 241.9,506.1 248.5,505.7 259.2,504.6 273.4,502.3 285.7,499.6 299.7,495.9 315.2,491.3 387.2,468.3 414.2,460.1 428.1,456.4 440.4,453.7 449.3,452.2 457.6,451.2 467.2,450.6 476.8,450.6 482.8,450.9 490,451.5 496,452.2 505.5,453.6 521.4,456.4 551.5,462 567.5,464.5 576.4,465.6 584.2,466.3 592,466.7 596.8,466.8 599.8,466.7" fill="none" stroke="#000000" stroke-width="1"/><polyline id="SvgjsPolyline2111" points="0.3,429.2 8.7,429.4 16.5,429.8 32.7,431.2 53.5,433.7 77.3,436.9 94,438.7 106.6,439.5 116.8,439.6 122.2,439.4 129.4,438.8 138.9,437.4 144.7,436.2 155.8,433.3 183.8,424.5 193.7,421.9 199.6,420.6 206.6,419.3 213.8,418.3 223.3,417.4 228.7,417.1 244.9,417 259.3,417.7 279,419.5 319.5,424.3 336.9,425.8 350.7,426.4 360.3,426.4 369.8,426 378.2,425.3 388.3,424 399.6,422 408.9,419.9 417.1,417.8 429.2,414.3 457.7,405.1 477.3,399.3 491.9,395.7 497.1,394.6 507.2,392.8 514.9,391.7 523.8,390.7 533.4,389.9 542.4,389.4 556.8,388.9 586.8,388.3 600,387.7" fill="none" stroke="#000000" stroke-width="1"/><polyline id="SvgjsPolyline2112" points="0.5,501.3 7.1,500.7 11.3,500.5 20.9,500.5 28,500.9 37,501.8 42.9,502.6 60.7,505.6 99,513.1 133.2,519.5 169.1,526.7 199,533.2 259.2,547 285,552.5 297.4,554.9 313.4,557.7 325.8,559.6 339.5,561.4 356.2,563.2 374.1,564.7 422.7,567.6 445.4,569.5 454.9,570.6 465.6,572.1 479.8,574.5 489.8,576.4 500.5,578.1 507.1,578.9 514.8,579.5 524.4,579.6 530.4,579.3 538.2,578.6 551.9,576.7 560.7,575.2 569.6,573.9 581.6,572.7 592.4,572.4 599.6,572.8" fill="none" stroke="#000000" stroke-width="1"/><polyline id="SvgjsPolyline2113" points="0.5,471.9 7.1,471.9 12.5,472.1 22.6,472.9 33.4,474.2 50.5,477 68.2,480.4 91.7,485.3 114,490.2 158.4,500.4 180.1,505 199.6,508.6 213.2,510.7 221.6,511.8 233.5,513.1 244.3,514 258,514.8 278.4,515.3 326.4,515.2 343.2,515.9 355.2,517 360.5,517.7 375.9,520.4 388.8,523.3 403.3,526.9 415,529.6 429.1,532.5 448.7,535.8 483.7,540.9 499.7,543.6 515,546.5 525,548.2 536.9,549.8 546.5,550.4 553.1,550.4 560.9,550 574,548.5 588.3,546.2 599.5,544.6" fill="none" stroke="#000000" stroke-width="1"/><polyline id="SvgjsPolyline2114" points="0.4,417.2 12.4,417.4 26.2,418.1 44.2,419.5 65.1,421.4 80.6,422.4 93.8,422.7 104.6,422.3 114.8,421.3 127.2,419.1 131.9,418 140,415.8 165.7,407.6 174.9,404.9 181.3,403.2 193,400.6 204.3,398.7 215,397.4 224.5,396.6 231.7,396.2 244.3,395.8 253.3,395.7 291.7,396.1 340.9,397.2 357.1,397.2 367.9,396.9 375.1,396.5 380.5,396.1 390,395.1 396.6,394.2 408.4,392.1 416.6,390.3 425.3,388.1 444.9,382.3 472.3,373.3 483.1,369.9 500.4,365 513.8,361.7 532.6,357.8 554.5,354.1 599.7,347.7" fill="none" stroke="#000000" stroke-width="1"/><polyline id="SvgjsPolyline2115" points="0.4,422.4 14.8,422.8 26.8,423.6 39.9,424.8 70.4,428.1 87.7,429.5 99.7,429.9 111.1,429.6 117.1,429.1 124.2,428.2 131.3,426.9 138.3,425.3 149.3,422.2 164.7,417.2 176.2,413.7 183.7,411.7 191.3,409.9 204.3,407.6 209.7,406.9 218,406.1 229.4,405.5 241.4,405.4 249.8,405.6 267.8,406.6 292.3,408.8 328.7,412.7 347.2,414.1 358.6,414.5 366.4,414.5 373,414.3 383.2,413.6 392.7,412.5 404.6,410.5 416.3,407.9 427.9,404.8 435.9,402.4 465.6,392.8 482.3,387.8 496.2,384.2 510.3,381.2 526.3,378.6 542.4,376.7 556.1,375.5 581.3,373.8 599.8,372.3" fill="none" stroke="#000000" stroke-width="1"/><polyline id="SvgjsPolyline2116" points="0.5,513.4 6.5,512.6 13.7,512 17.9,511.8 26.9,511.8 35.3,512.3 43.6,513.2 51.3,514.3 62,516.1 87.9,521.1 112.7,525.6 153,532.3 184.9,537.8 206.7,541.9 246.1,549.7 271.5,554.5 298.1,559 308.2,560.5 324.3,562.6 339.8,564.3 366.7,566.5 388.8,567.8 413.4,569 430.2,570.1 438.5,570.8 451.7,572.2 460.6,573.4 471.3,575.1 484.2,577.5 499.6,580 505.6,580.7 514.6,581.3 523.6,581.3 533.8,580.6 546.2,579 565.8,575.9 578.3,574.5 588.5,574.1 595.7,574.3 599.9,574.6" fill="none" stroke="#000000" stroke-width="1"/><polyline id="SvgjsPolyline2117" points="0.4,405.2 16.6,405.2 35.8,405.8 56.8,406.7 65.2,406.9 74.8,406.9 87.4,406.4 96.9,405.5 103.5,404.6 113.5,402.7 124,400.1 133.2,397.4 153.7,390.7 164,387.5 180.2,383 196.6,379.2 233.1,371.9 244.7,369 251.6,366.9 258.3,364.4 264.4,361.7 269.7,358.9 274.7,355.7 280,351.7 283.6,348.5 286.5,345.5 290.4,340.9 294.5,335 298,328.7 300.2,323.7 302,318.7 303.8,311.7 304.7,306.4 305.7,295.6 306.8,289.1 308.3,283.3 309.7,279.3 312.9,272.2 316.9,265.5 319,262.6 323.7,257.1 327.5,253.3 331.2,250.2 336.1,246.7 342.2,243 346,241.1 353.1,238 361.6,235 365.6,233.8 377.8,230.6 407.7,223.9 424,219.8 442.4,214.4 463.5,207.5 476.7,203.5 486,201.1 497.2,198.8 503.1,197.9 510.9,197 515.6,196.6 526.4,196.1 543.8,196.1 581,197.2 599.6,197.1" fill="none" stroke="#000000" stroke-width="1"/><polyline id="SvgjsPolyline2118" points="0.3,411.1 11.1,411.1 23.1,411.5 37.5,412.3 56.6,413.6 75.2,414.4 89.6,414.3 95,414 104.5,413.1 115.2,411.4 126.9,408.7 139.6,405 156.1,399.6 169.3,395.6 179.8,392.8 190.3,390.4 200.3,388.5 212.8,386.6 230.6,384.4 249.7,382.3 258.6,381.1 271.7,378.9 278.7,377.4 285.1,375.8 290.9,374.1 296,372.4 304.4,369.1 310.9,366.1 315.2,363.9 322.5,359.7 331,354.2 337.4,349.7 348.9,341 361.1,331.3 366.9,327 369.2,325.1 378.4,318.4 391.3,309.6 403.6,302.1 414.1,296.3 424.3,291.2 434.2,286.7 442.4,283.2 458.1,277.1 479.6,269.6 498.5,263.7 508.3,260.9 518.2,258.3 530.5,255.4 545.7,252.3 568.8,248.5 599.8,244.4" fill="none" stroke="#000000" stroke-width="1"/><polyline id="SvgjsPolyline2119" points="0.5,413.8 10.7,413.9 25.1,414.5 65.2,417.4 78.3,418 82.5,418.1 93.3,418 100.5,417.6 105.9,417.1 110.7,416.5 118.4,415.2 126.6,413.4 137.5,410.4 164.4,401.8 173.1,399.3 184.1,396.5 194.1,394.4 198.2,393.7 210.1,391.9 225,390.3 235.2,389.5 266.9,387.5 284.3,386 303.9,383.6 327,379.8 349.4,375.4 369.9,370.9 381.6,368.1 401.3,362.8 418.5,357.5 429.3,353.9 463.2,341.9 478,336.9 495.8,331.3 514.2,326 531,321.6 549.7,317.1 572.5,312 599.6,306.4" fill="none" stroke="#000000" stroke-width="1"/><polyline id="SvgjsPolyline2120" points="0.4,415.2 13,415.4 23.8,415.9 35.8,416.7 62.7,418.9 75.9,419.7 90.3,420 102.3,419.5 108.8,418.9 115.9,417.9 126,415.9 137,413 150.2,408.9 162.7,404.8 175.4,401.1 188.2,398 195.3,396.6 206,394.9 219.1,393.4 234,392.3 246.6,391.7 269.4,391 289.2,390.2 307.8,389.2 327.5,387.9 343.7,386.7 358.6,385.4 371.7,384 379.5,383 389.6,381.4 399.6,379.6 411.3,377 423.5,373.8 440.7,368.6 470.9,358.5 484.6,354.1 497.2,350.3 516.9,345 536.2,340.5 551.5,337.3 573.9,333 599.9,328.3" fill="none" stroke="#000000" stroke-width="1"/><polyline id="SvgjsPolyline2121" points="0.5,419.3 11.9,419.5 27.4,420.4 44.8,421.9 62.7,423.7 82.4,425.2 90.2,425.5 100.4,425.5 107,425.2 111.8,424.8 117.8,424.1 125.5,422.8 136,420.4 146.4,417.4 169.8,409.9 179,407.3 187.2,405.3 191.9,404.3 207.3,401.8 215.6,400.9 227.6,400.1 238.4,399.8 249.2,399.8 271.4,400.5 298.4,402.1 331.3,404.5 352.2,405.5 357,405.6 369.6,405.5 378,405.1 386.4,404.4 395.3,403.3 406,401.5 419.5,398.5 430.5,395.5 440.8,392.4 469.3,383.1 483.1,378.9 495.8,375.4 512.2,371.6 518.7,370.3 535.2,367.5 545.9,366 558.4,364.5 585.9,361.6 599.6,360" fill="none" stroke="#000000" stroke-width="1"/><polyline id="SvgjsPolyline2122" points="0.4,525.6 11.7,523.9 23.7,522.9 26.7,522.8 34.5,522.9 39.9,523.2 46.4,523.8 54.2,524.8 62.5,526.1 97.3,532.6 125.7,537.3 142.3,539.7 188.7,546 214.2,549.8 268.7,558.4 299,562.6 322.9,565.3 347.4,567.4 373.7,569 401.3,570.2 419.9,571.2 430.1,571.9 441.4,572.9 450.4,573.9 459.9,575.2 494.8,581.2 503.7,582.3 512.7,582.9 521.7,582.9 525.9,582.7 537.2,581.6 543.8,580.7 563.9,577.5 575.2,576.2 581.8,575.8 589,575.7 595.6,576 599.8,576.4" fill="none" stroke="#000000" stroke-width="1"/><polyline id="SvgjsPolyline2123" points="0.2,393.2 20,392.7 50.6,392.5 64.9,392 76.9,391.1 82.3,390.5 88.8,389.6 98.9,387.8 110,385.2 122.1,381.8 138.1,376.7 158.6,369.9 196.5,358.3 207.3,354.7 213.5,352.4 222.9,348.5 226.7,346.7 231.5,344.2 237.6,340.5 242.1,337.4 247.3,333.3 253,328 257.4,323.1 261.1,318.4 264.5,313.4 267.3,308.8 269.3,305.1 273.2,297 277.2,287.6 281.4,278.3 284.7,271.9 287.7,266.7 290.7,262.2 295.4,256 298.6,252.4 302,249 305.1,246.2 310.8,241.8 313.8,239.8 319.5,236.5 323.8,234.4 329.9,231.8 334.4,230.2 344.2,227.3 354.8,224.9 360.6,223.8 392.6,218.5 403.8,216.4 416.1,213.7 423.7,211.8 434.1,208.9 447.3,204.8 463.8,199.4 474.8,196.2 479.4,195 487,193.3 496.5,191.7 503,190.9 509,190.4 517.4,190 527,189.9 544.4,190.4 560.6,191.3 579.2,192.1 587,192.3 599.6,192.3" fill="none" stroke="#000000" stroke-width="1"/><polyline id="SvgjsPolyline2124" points="0.1,399.4 9.1,399.2 19.9,399.2 45.7,399.7 69.1,399.6 75.7,399.3 84.7,398.6 93,397.6 102.5,396 112.4,393.8 123.4,390.8 137.2,386.5 155.4,380.5 174.4,374.8 184.2,372.1 205.7,366.6 217.3,363.4 224.7,361.1 232.7,358.3 238.8,355.8 242.6,354 247.9,351.2 252.5,348.4 256.4,345.6 259.7,343 262.4,340.6 266.2,336.8 268.6,334.1 271.2,330.8 274.9,325.3 276.7,322.2 279.1,317.4 281.8,310.7 284.4,302.1 287.4,289.8 289.1,284.1 291.1,278.4 293.5,272.9 295.1,269.7 297.5,265.5 301.1,260 304.1,256.2 308.9,250.9 313.8,246.5 318.1,243.2 321.1,241.2 326.8,237.9 331.1,235.8 335.5,233.9 341.7,231.6 348.6,229.5 359.1,226.9 372.6,224.2 391,221 391.5,220.8 400.4,219.2 416.8,215.6 426.1,213.2 435.9,210.4 446.8,207 461,202.3 473.7,198.5 484.7,195.7 496.5,193.5 505.5,192.4 510.2,192 521.6,191.5 533,191.5 540.8,191.7 580.4,193.4 599.6,193.5" fill="none" stroke="#000000" stroke-width="1"/><polyline id="SvgjsPolyline2125" points="0.3,408.3 12.3,408.3 20.1,408.5 33.9,409.1 55.5,410.3 69.3,410.8 81.9,410.8 87.3,410.6 96.8,409.9 102.8,409.2 115.8,406.9 126.3,404.3 135.5,401.6 148.6,397.3 165.2,392.1 173.3,389.8 184.9,386.9 200.8,383.6 216.8,380.9 232.8,378.5 247,376 255.8,374.1 265.6,371.4 274.1,368.4 278.5,366.5 283.9,363.8 292.1,358.8 296.9,355.2 301.4,351.3 304.8,347.9 309.6,342.5 315.6,334.3 318.2,330.2 321.8,324 330.6,306.9 335.3,298.5 338.4,293.4 340.1,290.9 342.5,287.5 347,281.9 349.4,279.2 354.5,274.1 357.2,271.7 362.8,267.2 370.8,261.9 376.5,258.6 380.8,256.4 389,252.7 395.7,250 411.5,244.4 437.2,236.2 459.5,228.9 464,227.3 479.4,222.4 489.8,219.4 502.7,216.3 508.5,215.2 520.4,213.3 527.6,212.5 538.9,211.6 553.3,211 577.3,210.6 599.5,209.9" fill="none" stroke="#000000" stroke-width="1"/><polyline id="SvgjsPolyline2126" points="0.2,407.1 12.2,407.1 20.6,407.3 35.6,407.9 52.3,408.8 67.3,409.3 79.3,409.3 85.3,409.1 94.9,408.4 103.8,407.3 112.7,405.7 124.4,402.9 138.2,398.8 152.4,394.1 163.3,390.7 173.1,387.9 182.4,385.5 188.8,384 199.4,381.8 234.3,375.7 243.7,373.8 254.2,371.2 262.2,368.7 268.9,366.1 272.2,364.6 275.4,363 281.1,359.7 286.5,355.9 289.8,353.2 295,348.3 298.2,344.7 300.8,341.4 303.9,337 306.4,332.9 309.2,327.6 311.9,321.5 314.2,315.4 319.7,297.6 322.4,290.3 326.2,282.1 328.6,278 330.9,274.5 334.9,269.2 337.7,266 340.6,263 344.6,259.4 347.9,256.8 354.9,252.1 358,250.3 363.9,247.3 374.4,242.9 379.5,241.1 388.7,238.2 404.2,233.8 417,230.4 434.3,225.4 448.6,220.9 470.8,213.6 482.3,210.2 492.2,207.7 499.3,206.2 507.6,204.8 516.5,203.7 524.9,203 533.2,202.6 541.6,202.4 557.2,202.4 584.2,202.7 599.8,202.4" fill="none" stroke="#000000" stroke-width="1"/><polyline id="SvgjsPolyline2127" points="0.6,412.4 8.4,412.4 21,412.8 33.6,413.5 60.5,415.4 75.5,416.1 90.5,416.1 98.3,415.7 105.4,415 117.9,413 127.8,410.7 139.9,407.2 159.3,400.9 171.4,397.3 183,394.3 195.9,391.6 204.2,390.2 214.3,388.8 232.2,386.9 256.1,384.8 268.7,383.4 275.2,382.5 287.6,380.4 298.2,378.1 306.9,375.8 317.8,372.4 330.2,367.9 340.2,363.8 350.1,359.5 362.1,354 398.4,336.8 428.4,323.1 441.1,317.7 453.4,312.8 462.4,309.5 462.9,309.2 474.8,305 491.9,299.4 505.1,295.4 523,290.4 539.3,286.2 566.8,279.9 585,276.2 599.8,273.5" fill="none" stroke="#000000" stroke-width="1"/><polyline id="SvgjsPolyline2128" points="0.5,409.8 8.3,409.8 20.3,410.1 38.3,411 59.3,412.3 73.7,412.8 83.9,412.8 89.3,412.6 95.9,412.2 104.2,411.3 109,410.6 115.4,409.4 126,406.9 135.8,404.1 158.6,396.7 167.2,394.1 178.2,391.1 189.3,388.5 195.8,387.2 211.8,384.5 243.9,380.2 253.4,378.7 262.8,376.9 270.4,375.1 276.2,373.5 283,371.2 286.3,369.9 289.7,368.5 295.1,365.9 301.9,362.1 307.4,358.4 311.7,355.2 314.5,352.9 319.4,348.5 327.8,339.9 334.9,331.8 342.5,322.5 348.7,315.2 354.3,308.9 359.3,303.7 364.9,298.3 369.4,294.3 374.5,290.1 378.3,287.2 384.7,282.7 388.7,280.1 397.5,275 407.7,269.8 417,265.6 427,261.5 441.6,256 457.4,250.4 472.2,245.4 487.6,240.5 499.2,237.2 507.3,235.1 514.3,233.5 524.9,231.4 541,229 552.9,227.7 567.2,226.5 587,225.2 599.5,224.2" fill="none" stroke="#000000" stroke-width="1"/><polyline id="SvgjsPolyline2129" points="0.3,411.8 10.5,411.8 20.1,412.1 38.1,413.1 59.6,414.6 75.8,415.3 88.4,415.3 93.2,415.1 99.2,414.7 105.7,414 113.5,412.8 118.8,411.8 128.7,409.4 142.5,405.3 152.7,401.9 169.9,396.6 183.9,393 193.3,391 207.5,388.6 218.8,387.1 249.2,384 264.1,382.2 277.1,380.1 288.3,377.7 294.1,376.2 300.4,374.3 309.5,371.1 316.7,368.2 324.3,364.7 335.5,358.9 343.9,354.1 383.3,330.1 398.9,321.1 399.5,320.9 406.8,316.8 419.6,310.2 432.1,304.3 443.1,299.5 458.7,293.3 465.5,290.9 466,290.6 480.2,285.7 493.4,281.5 508.9,276.9 528,271.8 545.6,267.7 563.8,264 578.5,261.4 599.9,257.9" fill="none" stroke="#000000" stroke-width="1"/><polyline id="SvgjsPolyline2130" points="0.3,410.5 9.9,410.5 24.9,411 61.5,413.2 76.5,413.7 83.1,413.7 92.1,413.4 99.8,412.8 105.8,412.1 115.3,410.5 126.4,407.9 138.5,404.4 155,399 165.3,395.8 175.7,392.9 186.8,390.2 195,388.5 209.8,386 224.7,384 242.6,381.9 253.9,380.3 268.6,377.7 275.1,376.2 282,374.3 291.1,371.2 298.3,368.2 305.8,364.4 313,360.1 316,358.1 319.9,355.3 324.1,352 329.7,347.3 336.8,340.9 358.8,319.7 368.7,310.9 378.5,303 386.8,297 396.8,290.5 406.7,284.8 411.5,282.3 424.5,276.1 430,273.7 443.9,268.1 455.7,263.7 472.7,257.8 484.7,253.9 495.6,250.6 508.9,246.9 514.2,245.6 522.9,243.6 531.8,241.8 549.5,238.9 569.2,236.5 599.6,233.5" fill="none" stroke="#000000" stroke-width="1"/><polyline id="SvgjsPolyline2131" points="0.2,413.1 9.2,413.1 23,413.6 39.2,414.6 65.5,416.5 77.5,417 82.9,417.1 91.3,417 99.1,416.6 104.5,416.1 108.7,415.6 118.7,413.9 127.5,411.9 138.5,408.8 163,400.9 170.5,398.7 181.5,395.8 195.6,392.8 207.5,390.9 218.8,389.5 230.1,388.4 265.4,385.6 275,384.6 285.7,383.2 304,380 315.1,377.5 328.5,374 346.9,368.5 362.3,363.5 389.5,354 391.1,353.3 403,349 438.2,335.3 456.7,328.3 474.8,321.9 496.5,314.9 508,311.5 521.3,307.8 543.4,302.1 570.9,295.7 586.7,292.3 599.7,289.7" fill="none" stroke="#000000" stroke-width="1"/><polyline id="SvgjsPolyline2132" points="0.5,537.7 17.1,535.1 27.9,534 34.5,533.7 38.7,533.7 45.9,534 51.8,534.5 60.2,535.5 70.3,537.1 110.4,544.4 125.2,546.7 137.7,548.4 167.5,551.8 195.6,554.6 215.9,556.8 277.8,564 306.5,566.9 325.6,568.5 341.8,569.6 364.6,570.8 409.5,572.6 426.3,573.6 438.3,574.6 446.6,575.5 457.9,577 492.2,582.9 499.9,583.9 505.3,584.4 511.3,584.7 518.5,584.7 523.3,584.5 530.5,583.9 544.2,582.1 563.1,579.1 569.7,578.3 576.9,577.7 581.1,577.5 588.9,577.5 594.9,577.8 599.6,578.3" fill="none" stroke="#000000" stroke-width="1"/><polyline id="SvgjsPolyline2133" points="0.3,381.2 42.8,378.9 56,377.9 65.5,376.9 75,375.6 82.7,374.3 93.3,372.1 103.8,369.5 113.6,366.7 127.3,362.4 145,356.5 172.2,347 173.8,346.3 179.5,344.3 191.2,339.6 201,335.2 209.6,330.8 216.8,326.6 220.9,324 225.3,320.9 231,316.5 239.5,308.9 244.9,303.3 249.7,297.9 253.1,293.7 259.6,285.1 269.7,270.9 273.3,266.1 277.8,260.5 281.4,256.4 285.1,252.5 291.7,246.4 294.5,244.1 300.3,239.9 308.6,235 315.1,231.9 319.5,230.1 325.8,227.9 331.5,226.2 336.2,225 341.4,223.8 349.7,222.2 361.5,220.3 385.9,216.9 401.9,214.2 411.3,212.3 421.8,209.8 432.8,206.8 445.4,202.9 461.9,197.5 471.7,194.6 484,191.6 490.4,190.4 496.4,189.5 500.5,189 509.5,188.3 518.5,188 525.1,188 540.7,188.5 570.7,190.2 580.3,190.6 588,190.8 599.4,190.8" fill="none" stroke="#000000" stroke-width="1"/><polyline id="SvgjsPolyline2134" points="0.2,409.1 10.4,409.1 21.2,409.4 34.4,410 58.3,411.4 73.9,411.9 80.5,411.9 91.3,411.5 95.5,411.2 104.4,410.2 115.7,408.2 119.8,407.3 127.9,405.2 135.4,403 158.2,395.6 165.1,393.5 173.2,391.2 184.8,388.3 197.2,385.7 213.1,383 235.7,379.8 248.2,377.8 254.1,376.7 262.3,374.9 268.6,373.2 273.8,371.6 282.2,368.4 286.6,366.4 291.4,363.9 296.5,360.8 299,359.1 303.8,355.5 307.9,351.9 312.2,347.8 315.4,344.3 318.2,341.1 322.3,335.9 327.2,329.1 338.8,311.6 343.3,305.2 348.8,298.1 353.1,293.1 356.4,289.6 359.8,286.2 365.6,281 369.8,277.6 374.2,274.4 381.2,269.8 384.8,267.7 391.7,264 396,261.9 407,257.1 416.5,253.4 448.2,242.3 478.4,232.3 492.2,228.2 504.4,225.1 510.9,223.7 521.5,221.8 531,220.5 540.6,219.5 560.3,218.2 587.3,217.1 599.9,216.4" fill="none" stroke="#000000" stroke-width="1"/><polyline id="SvgjsPolyline2135" points="0.5,549.7 10.6,548.5 24.2,546.3 31.4,545.4 42.2,544.7 48.2,544.7 54.8,545 64.9,546 71.4,546.9 86.8,549.5 103.3,552.6 127.6,556.6 143.7,558.7 158,560.2 184.9,562.4 221.4,564.8 272.3,568.6 310.6,571.2 326.8,572.1 352,573.2 408.9,575.1 425.7,576.1 441.2,577.5 450.2,578.6 458.5,579.8 470.9,581.9 482.7,584.1 491.6,585.5 498.2,586.3 506.5,586.9 514.9,587 521.5,586.7 527.5,586.2 540,584.6 555.4,582.1 562.5,581.1 573.3,580 579.9,579.7 585.3,579.7 591.9,580 599.6,580.8" fill="none" stroke="#000000" stroke-width="1"/><polyline id="SvgjsPolyline2136" points="0.1,369.2 35.9,365.9 55,363.6 69.8,361.2 79.8,359.2 86.8,357.6 94.4,355.7 108.2,351.8 122,347.5 135.1,343.1 149.8,337.9 159.9,334.1 171.6,329.4 177.6,326.8 184.2,323.8 192.8,319.5 204.3,313 214.3,306.5 221.6,301.2 230,294.4 239.4,286 250.9,274.6 260.9,264.2 269.9,255.4 275.7,250.2 283.2,244.2 288.6,240.4 290.7,239.1 297.9,234.9 301.7,233 304.9,231.5 311,229 319.6,226.1 325.3,224.5 332.9,222.7 344.1,220.7 353.6,219.2 374.5,216.6 390.5,214.4 402.9,212.3 411.8,210.5 422.3,208 430.4,205.8 441.3,202.5 460.7,196.2 474.5,192.2 485.7,189.7 495.7,188.1 502.3,187.4 510.1,186.9 522.7,186.7 538.3,187.2 578.4,189.5 588.6,189.8 599.4,189.8" fill="none" stroke="#000000" stroke-width="1"/><polyline id="SvgjsPolyline2137" points="0.4,561.7 5.2,561.6 13.6,560.9 19,560.2 36.2,557.5 46.9,556.4 51.1,556.2 58.9,556.2 64.9,556.5 73.3,557.3 81.6,558.4 97,561 116.4,564.6 136.6,567.8 154.5,570 171.2,571.5 192.7,572.8 225.1,574 314.5,576.7 396.1,578.4 417.6,579.4 430.8,580.4 445.1,582 452.2,583 485.4,588.7 494.3,589.8 502.7,590.4 507.5,590.5 512.9,590.4 518.3,590.1 524.8,589.5 535.5,588.1 555.7,584.9 562.8,584 569.4,583.4 576,583.1 584.4,583.2 592.8,583.8 599.9,584.7" fill="none" stroke="#000000" stroke-width="1"/><polyline id="SvgjsPolyline2138" points="0.1,357.2 26.9,353.8 41.8,351.6 57.7,348.9 64.8,347.5 83.5,343.2 95.1,340.1 103.7,337.6 113.5,334.6 127.2,330.1 147.5,322.8 162,317 174.6,311.4 185.9,305.8 199,298.5 210.2,291.5 219.1,285.4 230.2,277.2 243.4,266.8 250.8,260.7 265.5,249.3 271.4,245.1 278.9,240.2 288.3,234.9 297,230.8 303.1,228.4 312.2,225.3 318,223.7 326.2,221.8 342.2,219 351.1,217.8 372.5,215.4 386.8,213.6 405.2,210.6 411.1,209.4 418.1,207.8 432.6,203.9 445.2,200 455.4,196.6 469.2,192.4 477.4,190.3 483.2,189 495.6,187 502.8,186.3 510,185.9 525,185.8 540,186.4 562.7,187.9 577.7,188.7 592.1,189.1 599.9,189.1" fill="none" stroke="#000000" stroke-width="1"/><polyline id="SvgjsPolyline2139" points="0,573.7 7.2,574.1 15.6,574.1 19.8,573.9 28.7,573 45.3,570.4 56.1,569.1 62.7,568.7 74.1,568.8 83,569.5 92.5,570.7 103.8,572.5 132.7,577.7 152.3,580.7 169.6,582.7 187.6,584.1 207.9,585 232.5,585.4 273.9,585.3 332.1,584.8 371.1,584.8 398.7,585.4 417.9,586.5 432.2,587.9 443.5,589.4 468.9,593.8 479.6,595.5 485.6,596.2 494.6,596.8 499.4,596.9 504.2,596.8 511.3,596.4 515.5,596 523.9,595 551.1,590.8 557.1,590.1 564.9,589.5 576.3,589.4 582.9,589.8 591.2,590.7 599.5,591.9" fill="none" stroke="#000000" stroke-width="1"/><polyline id="SvgjsPolyline2140" points="0.4,345 16.4,342.6 36,339.3 51.9,336.2 71.8,331.7 91.5,326.5 109.3,321.2 120.2,317.7 131,314 141.7,310.1 151.2,306.4 163.3,301.3 177,295 186.1,290.4 195.1,285.6 210.7,276.6 219.4,271.3 253.7,249.2 263.4,243.3 272.3,238.3 279.8,234.5 290.8,229.7 299.3,226.6 309.6,223.5 320.7,220.9 332.5,218.8 346.8,216.9 383.2,213 393.3,211.6 408.1,209 418,206.8 429.1,203.9 442.3,199.9 458.8,194.5 470.3,191.1 476.1,189.6 482,188.3 488.5,187.1 495,186.2 507,185.2 512.4,185 523.2,185 541.8,185.8 565.1,187.4 578.3,188.1 592.1,188.5 599.9,188.5" fill="none" stroke="#000000" stroke-width="1"/><polyline id="SvgjsPolyline2141" points="0.4,585.7 6.9,586.6 16.5,587.5 21.8,587.8 30.8,587.8 38.6,587.3 44.6,586.6 61.2,584 68.3,583.1 78.5,582.4 86.3,582.4 97.1,583.1 108.4,584.5 124.4,587.1 135.6,589.2 160.5,593.4 172.3,595.1 190.8,597.2 208.8,598.6 229.1,599.5 245.3,599.8 266.9,599.8 327.5,598.8 356.3,598.7 375.5,599.1 391.7,600" fill="none" stroke="#000000" stroke-width="1"/><polyline id="SvgjsPolyline2142" points="0.2,583.9 8.5,584.9 18.7,585.6 30.1,585.5 35.5,585.1 41.4,584.4 58,581.8 65.2,580.9 75.3,580.2 83.1,580.2 93.9,580.9 105.2,582.3 119.5,584.6 132.4,587 157.3,591.2 168.6,592.8 184.1,594.6 202.6,596.1 216.4,596.8 230.2,597.2 262.6,597.3 332.8,596 341.8,595.9 370,596 386.2,596.5 398.1,597.2 410.7,598.3 420.8,599.5 423.8,600" fill="none" stroke="#000000" stroke-width="1"/><polyline id="SvgjsPolyline2143" points="0.4,332.9 15.8,330.2 32.9,326.9 51.1,323 68.6,318.8 87.7,313.7 104.4,308.8 122.7,302.9 137.4,297.7 149.7,293 159.7,288.9 170.7,284.1 183.2,278.3 204.2,267.9 248.3,244.8 260.7,238.7 269.4,234.7 281.6,229.7 290.1,226.7 299.3,223.9 307.4,221.8 317.4,219.7 331,217.5 347.1,215.6 369.8,213.5 381.8,212.2 392.5,210.8 406.1,208.5 415.5,206.5 429.4,202.9 443.2,198.7 462,192.6 470.1,190.3 475.9,188.8 481.8,187.5 494.2,185.5 506.2,184.5 511.6,184.3 521.8,184.3 540.4,185.1 563.1,186.7 579.3,187.6 588.3,187.9 599.7,187.9" fill="none" stroke="#000000" stroke-width="1"/><polyline id="SvgjsPolyline2144" points="0.6,597.9 15.4,600" fill="none" stroke="#000000" stroke-width="1"/><polyline id="SvgjsPolyline2145" points="0,596.2 16.6,598.6 29.8,600" fill="none" stroke="#000000" stroke-width="1"/><polyline id="SvgjsPolyline2146" points="0.6,595.1 15.4,597.2 23.2,598.1 34,598.9 41.2,599 48.3,598.7 56.7,597.9 73.3,595.3 82.8,594.1 91.8,593.5 100.2,593.5 106.2,593.8 117.6,594.9 129.4,596.6 148.4,599.9" fill="none" stroke="#000000" stroke-width="1"/><polyline id="SvgjsPolyline2147" points="0.1,320.8 19,317.1 31.3,314.5 49.5,310.4 62.9,307.1 88.4,300.3 105.6,295.2 118.8,291 137.5,284.5 138,284.2 147.6,280.7 161,275.4 183.1,266.1 223.8,248.4 249.3,237.8 258.8,234.1 272.9,229 280.4,226.6 290.7,223.6 301.8,220.9 310.6,219.1 318.9,217.7 326,216.7 340.9,215 367.8,212.7 383.4,211.1 395.2,209.5 404.1,208 416.5,205.4 428.1,202.4 437.3,199.7 459.6,192.5 465.9,190.6 473.4,188.6 482.8,186.5 489.9,185.3 496.4,184.5 508.4,183.7 523.4,183.7 540.2,184.5 559.3,185.9 575.5,186.9 589.3,187.4 599.5,187.4" fill="none" stroke="#000000" stroke-width="1"/><polyline id="SvgjsPolyline2148" points="0.3,308.5 27.9,302.8 54.2,296.7 78,290.6 89.6,287.4 102.2,283.7 116,279.4 126.8,275.8 142.1,270.4 193.1,251 210,244.9 225.9,239.4 241.9,234.2 262,228.1 274.7,224.6 284,222.3 294,220.1 306.4,217.8 316.5,216.3 325.4,215.2 334.4,214.3 377.4,210.8 391.7,209.1 404.2,207.1 416.5,204.5 428.1,201.5 437.9,198.6 457.3,192.3 465.9,189.7 471.1,188.3 481.1,186 490,184.5 494.7,183.9 501.9,183.3 507.9,183 522.3,183 537.3,183.7 561.8,185.5 578.6,186.5 590.6,186.9 599.6,186.9" fill="none" stroke="#000000" stroke-width="1"/><polyline id="SvgjsPolyline2149" points="0.3,296.3 27.3,290.7 47.8,286.1 68.8,281 83.3,277.2 104.6,271.1 123.5,265.1 177.8,246 191.5,241.5 204.7,237.5 220.3,233.2 230.8,230.5 244.2,227.3 264.1,222.9 283,219.2 293.6,217.4 303.1,216 319.2,214.1 334.2,212.8 360.5,211.1 377.8,209.7 391,208.2 406.4,205.7 418.7,203 430.3,199.9 442.3,196.2 458.3,191 470.4,187.5 480.9,185.1 488.6,183.8 495.2,183 503,182.4 508.3,182.2 523.3,182.3 537.1,183 566.5,185.2 578.4,185.9 589.8,186.3 599.4,186.3" fill="none" stroke="#000000" stroke-width="1"/><polyline id="SvgjsPolyline2150" points="0.2,284 15,281.2 42,275.6 59.6,271.7 80,266.7 99.1,261.5 116.9,256.1 137.4,249.3 162.3,240.7 176.1,236.3 188.7,232.6 204.4,228.6 214.4,226.4 226.7,224 245.7,220.8 261.1,218.5 278.9,216.1 302.8,213.4 315.3,212.3 326.7,211.5 360.9,209.7 369.8,209.1 382.4,208 397.9,206 403.8,205 413.2,203.1 427.2,199.6 439.8,195.8 456.4,190.4 470.2,186.4 476,185 482.5,183.7 489.6,182.6 495,182 506.4,181.3 522.6,181.4 535.7,182.1 571.6,184.8 586,185.5 599.8,185.7" fill="none" stroke="#000000" stroke-width="1"/><polyline id="SvgjsPolyline2151" points="0.3,271.8 33.4,265.8 52.2,262.1 69.8,258.3 84.4,254.8 98.3,251.1 113.3,246.7 129.8,241.4 160,231.3 175.5,226.6 184.8,224.1 197.6,221.1 204.1,219.8 217.1,217.6 228.4,216.1 244.5,214.4 275,212 291.8,210.9 312.2,209.8 349.3,208.5 367.9,207.6 379.9,206.7 392.4,205.3 397.8,204.5 409.6,202.4 417.2,200.7 424.2,198.9 434,196.1 460.3,187.7 472.4,184.4 480.6,182.7 486.6,181.7 493.1,180.9 497.9,180.5 506.9,180.1 519.5,180.2 537.5,181.2 571.6,183.9 588.3,184.7 599.7,184.8" fill="none" stroke="#000000" stroke-width="1"/><polyline id="SvgjsPolyline2152" points="0.5,259.6 27.8,255.3 52.7,251.1 67.4,248.3 80.9,245.4 97.8,241.2 109.9,237.8 121.4,234.3 156.7,222.7 166.5,219.7 175.7,217.1 185.6,214.6 194.4,212.7 203.9,211 212.2,209.8 221.1,208.8 229.5,208.1 237.9,207.6 251.1,207.1 274.5,206.7 334.5,206.3 353.7,206 365.1,205.6 374,205.1 386.6,204 396.7,202.7 406.2,201.1 418.5,198.4 432.9,194.4 454.7,187.4 462.7,185 470.2,183 475.5,181.8 483.8,180.3 490.9,179.4 496.9,178.9 502.9,178.6 515.5,178.6 520.9,178.8 532.9,179.5 561,181.9 576.5,183 590.9,183.6 599.9,183.6" fill="none" stroke="#000000" stroke-width="1"/><polyline id="SvgjsPolyline2153" points="0.4,247.4 32,243.4 51.6,240.7 69.4,237.8 86.4,234.4 99.3,231.3 114.3,227.2 125.8,223.7 158.3,213.1 174.4,208.4 184.3,205.9 193.7,203.9 203.8,202.2 211.5,201.2 226.5,200 234.3,199.7 246.3,199.6 266.6,200.1 308,201.9 335.6,202.7 342.2,202.8 361.4,202.7 372.2,202.3 381.2,201.7 395.5,200.1 407.3,198.1 415.5,196.3 420.8,195 431.7,191.9 455.7,184.2 463.8,181.9 473.7,179.5 479,178.5 485,177.6 489.7,177.1 498.1,176.5 512.5,176.4 517.9,176.6 529.3,177.3 558,179.9 577.7,181.4 591.5,182 599.9,182" fill="none" stroke="#000000" stroke-width="1"/><polyline id="SvgjsPolyline2154" points="0,235.4 14.4,233.9 37.7,231.8 53.8,230.1 71,227.8 87.6,224.9 99.9,222.2 109.8,219.7 117.3,217.6 130.5,213.6 163,203.1 178,198.8 186.2,196.8 193.2,195.3 205.1,193.3 215.2,192.1 221.8,191.6 230.8,191.2 244,191.2 250,191.4 261.4,192 270.9,192.7 303.8,195.6 327.1,197.3 346.9,198.2 351.7,198.3 369.1,198.2 380.5,197.6 388.3,196.9 395.4,196 406.1,194.2 413.1,192.7 423.6,190 436.2,186.2 449.3,181.9 456.2,179.8 464.3,177.6 471.9,175.9 480.8,174.4 491,173.4 497.6,173.1 506.6,173.1 519.7,173.7 531.1,174.6 552.6,176.8 574.1,178.7 588.5,179.5 599.9,179.7" fill="none" stroke="#000000" stroke-width="1"/><polyline id="SvgjsPolyline2155" points="0.6,223.3 15.5,222.2 44.9,220.6 61.6,219.3 71.2,218.3 78.9,217.3 90.8,215.4 104.3,212.6 120,208.6 133.8,204.5 150.3,199.1 168.1,193.5 173.8,191.8 185.4,188.7 197.7,186 207.8,184.3 216.7,183.2 222.7,182.7 232.9,182.2 244.3,182.2 257.5,182.8 273,184.1 315.9,189 335.7,190.8 351.8,191.7 362.6,191.9 369.8,191.8 380,191.3 389.6,190.4 394.9,189.7 406.2,187.7 413.2,186.1 424.2,183.1 446.5,176 454.5,173.6 460.3,172.1 465.6,170.9 472.7,169.6 482.8,168.4 494.2,167.9 502,168 510.4,168.4 527.7,169.9 559.3,173.5 570.7,174.6 586.8,175.7 599.4,176" fill="none" stroke="#000000" stroke-width="1"/><polyline id="SvgjsPolyline2156" points="0.2,211.3 9.8,210.8 42.8,210.2 60.8,209.6 76.4,208.5 84.7,207.6 91.3,206.7 104.9,204.3 113.1,202.5 121.8,200.3 137.3,195.8 173.4,184.3 182,181.8 192.5,179.1 203,176.8 214.3,174.9 221.4,174 229.2,173.3 239.4,172.8 251.4,172.8 264.6,173.4 273.5,174.1 285.5,175.3 323.6,179.8 339.1,181.2 355.3,182 370.3,181.9 378.7,181.4 384.7,180.8 389.4,180.2 398.3,178.7 406.5,176.9 414.1,174.9 427.3,170.9 433.5,168.8 441.6,166.3 447.9,164.5 454.3,162.9 459,161.9 467.9,160.5 473.9,159.9 482.3,159.5 492.5,159.6 499.6,160 508,160.7 522.9,162.4 550.9,166.2 568.7,168.3 585.5,169.7 594.5,170.1 599.9,170.1" fill="none" stroke="#000000" stroke-width="1"/><polyline id="SvgjsPolyline2157" points="0.2,199.2 21.2,199.1 47,199.7 56,199.8 67.4,199.7 82.4,199 90.2,198.3 99.7,197.1 109.8,195.4 115.1,194.3 122.1,192.7 130.2,190.6 147.5,185.5 164,180.1 182.4,174.4 197.4,170.3 203.2,168.9 214.4,166.6 225.1,164.9 233.4,163.9 241.8,163.2 249.6,162.8 253.2,162.7 270,162.8 288,163.7 326.2,166.6 336.4,167.1 344.2,167.3 351.4,167.3 360.4,167 373,165.9 380.7,164.8 386.6,163.7 398.3,160.9 409.8,157.5 426.9,152 439.1,148.8 450.3,146.8 459.9,145.9 465.3,145.7 473.7,145.8 479.7,146.1 486.9,146.7 496.4,147.8 507.1,149.3 544.4,155.4 562.2,158 572.9,159.3 582.5,160.2 592.7,160.8 599.9,160.9" fill="none" stroke="#000000" stroke-width="1"/><polyline id="SvgjsPolyline2158" points="0.5,187.2 7.1,187.2 18.5,187.5 31.1,188.1 53.9,189.5 71.9,190.1 82.7,190 89.9,189.7 100.6,188.8 107.8,187.9 120.8,185.6 133.6,182.6 140.6,180.7 154.9,176.4 180.6,168.1 195,163.8 211.8,159.4 226.5,156.3 236.6,154.6 243.7,153.6 255.6,152.3 262.8,151.7 281.4,150.7 304.2,150.1 321.6,149.4 335.9,148.3 347.8,146.8 357.9,145 363.7,143.7 370.7,141.9 379.3,139.4 398.8,133.2 405.1,131.4 411.5,129.8 416.8,128.7 423.9,127.6 432.9,126.8 447.9,126.8 456.3,127.4 467.6,128.7 490.1,132.4 533.7,140.9 558.5,145.2 569.8,146.8 581.7,148.1 592.5,148.8 599.7,148.9" fill="none" stroke="#000000" stroke-width="1"/><polyline id="SvgjsPolyline2159" points="0.1,192.9 16.3,192.9 54.6,194.4 75,194.5 87.6,193.9 99.6,192.7 115,190.2 126.1,187.7 142.9,183.1 178.3,171.8 197.3,166.3 204.9,164.4 214.9,162.2 229,159.7 242.1,158.1 253.5,157.2 263.1,156.8 282.9,156.7 318.9,157.7 335.7,157.7 347.1,157.2 355.4,156.5 362.6,155.6 371.5,154.1 379.7,152.3 391.8,149 406.1,144.4 417,141.1 425.2,139 434.6,137.2 440,136.5 445.9,136 450.7,135.8 460.3,135.9 464.5,136.1 476.5,137.2 488.4,138.8 509.7,142.4 538,147.6 550.4,149.7 562.3,151.5 576,153.2 584.9,154 593.9,154.5 599.9,154.6" fill="none" stroke="#000000" stroke-width="1"/><polyline id="SvgjsPolyline2160" points="0.4,175.2 10,175.4 22.6,176.1 31.6,176.8 63.8,179.8 80,180.7 92.6,180.8 98,180.6 108.8,179.8 115.3,179 127.2,177 131.9,176 139.5,174.2 147,172.2 163.7,167.2 185.9,160 198.6,156.1 217,150.9 228.7,148 238,145.9 251.6,143.2 266.9,140.5 299.5,135.2 316.6,131.8 324.2,130 337.5,126.4 366.1,117.4 376,114.7 384.7,112.8 390.7,111.8 395.4,111.2 402.6,110.6 408,110.4 414,110.4 423,110.8 430.2,111.4 441.5,112.8 453.3,114.7 468.1,117.5 529.7,130.5 542.1,132.9 558,135.7 568.1,137.2 582.4,138.8 592.6,139.4 599.8,139.5" fill="none" stroke="#000000" stroke-width="1"/><polyline id="SvgjsPolyline2161" points="0.2,181.7 16.4,182.1 31.4,183 57.7,185 76.9,185.8 84.7,185.8 94.9,185.4 103.3,184.7 113.4,183.4 125.8,181.1 135.1,178.9 141.5,177.2 159.9,171.7 182.7,164.3 195.9,160.3 209.2,156.6 223.8,153.1 238.5,150.2 256.3,147.5 271.8,145.7 307.7,142.3 317.8,141.1 330.2,139.2 342.6,136.7 352.5,134.2 366.3,130.1 381.1,125.3 393.9,121.8 399.7,120.5 406.8,119.3 416.4,118.3 424.2,118 433.8,118.2 442.1,118.8 451.1,119.8 459.4,121 475.4,123.8 537.1,136.3 561.3,140.5 573.8,142.2 581.6,143 590.6,143.6 599.6,143.8" fill="none" stroke="#000000" stroke-width="1"/><polyline id="SvgjsPolyline2162" points="0.5,163.2 5.9,163.3 15.5,163.8 25,164.6 40.5,166.3 59,168.7 72.1,170.2 88.3,171.5 98.5,171.8 108.1,171.6 117.6,170.9 128.9,169.4 136,168.1 142.5,166.7 156.4,163.1 173.1,158.1 198.2,150 217.1,144.2 241.4,137.4 279.8,127.6 293.1,124 310.9,118.7 328.6,113 345.3,108 351.1,106.5 358.7,104.8 368.8,103.1 374.7,102.4 383.1,101.8 396.3,101.7 402.9,102 415.5,103.1 426.8,104.6 441,107 455.7,109.9 519,123.7 547.8,129.4 566.2,132.4 577.5,133.8 589.5,134.7 597.3,134.9 599.7,134.8" fill="none" stroke="#000000" stroke-width="1"/><polyline id="SvgjsPolyline2163" points="0,151.2 12,151.6 19.8,152.2 27.5,153 45.4,155.4 76.2,160.1 89.3,161.7 97.7,162.4 106.1,162.8 117.5,162.7 125.3,162.2 135.4,161 142.5,159.8 151.9,157.8 161.2,155.5 172.2,152.4 189.4,147.1 202.5,142.8 228.8,134.5 271.9,121.5 310.2,109.3 326.9,104.4 332.7,102.9 342.1,100.8 353.3,98.9 361.1,98 371.9,97.3 381.5,97.2 393.5,97.7 407.2,99 420.9,100.9 435.6,103.5 448.6,106.1 512.4,120.2 531.2,124.1 549.5,127.6 566.1,130.3 575.6,131.5 584.6,132.3 590,132.6 599.6,132.7" fill="none" stroke="#000000" stroke-width="1"/><polyline id="SvgjsPolyline2164" points="0.1,139.2 7.9,139.3 15.1,139.7 22.8,140.4 31.2,141.4 42.5,143.1 88,150.9 95.7,152 103.5,152.9 110.6,153.5 116.6,153.8 126.8,153.8 134,153.4 141.8,152.6 153.6,150.7 161.3,149.1 172.9,146.2 183.9,143.1 209.1,135.3 284.5,111.1 299.4,106.5 314.4,102.3 322,100.4 330.8,98.5 341.5,96.7 348.6,95.8 355.2,95.2 366,94.7 375.6,94.7 389.3,95.4 398.9,96.3 413.2,98.2 426.8,100.5 439.2,102.9 459.7,107.3 486,113.3 510.6,118.7 535.3,123.8 551.8,126.9 564.9,129 576.8,130.5 588.7,131.4 595.3,131.6 599.5,131.5" fill="none" stroke="#000000" stroke-width="1"/><polyline id="SvgjsPolyline2165" points="0,127.2 9.6,127.2 15.6,127.5 25.8,128.4 32.9,129.3 53.6,132.7 97.2,141.1 107.9,142.8 115,143.7 122.8,144.4 128.8,144.7 138.4,144.7 146.8,144.2 156.9,143 164.6,141.7 175.8,139.3 188,136.2 211.6,129.3 262.5,113.2 282,107.2 297,102.9 309.2,99.8 323.3,96.8 330.4,95.6 336.9,94.7 342.3,94.1 354.9,93.2 368.1,93 380.7,93.5 392.6,94.5 406.9,96.3 418.2,98.1 418.7,98.3 434.1,101.1 444.7,103.3 495,114.6 522,120.4 547.3,125.4 562.1,127.9 572.2,129.3 583.5,130.4 590.7,130.8 599.7,130.8" fill="none" stroke="#000000" stroke-width="1"/><polyline id="SvgjsPolyline2166" points="0.3,115.2 4.5,115 15.9,115.1 26.7,115.9 36.2,117.1 47.5,118.9 55.7,120.4 74,124 103.9,130.3 112.2,131.9 124.6,133.9 130.6,134.6 140.2,135.3 149.8,135.4 156.4,135.1 162.3,134.6 168.9,133.8 179.5,132 193.6,128.9 212.2,124 233.5,117.8 259.3,110 277.8,104.7 295.8,100 306.9,97.5 313.4,96.2 323.4,94.5 335.4,93 343.7,92.3 351.5,91.9 364.7,91.8 371.3,92 379.7,92.5 393.4,93.8 404.7,95.3 415.4,97 423.7,98.5 447.2,103.3 484.6,111.8 515.7,118.6 539.8,123.5 556.3,126.5 568.2,128.3 580.7,129.7 590.9,130.3 599.9,130.3" fill="none" stroke="#000000" stroke-width="1"/><polyline id="SvgjsPolyline2167" points="0.3,103.2 8.7,102.6 20.1,102.6 30.3,103.3 39.2,104.4 50.5,106.2 67,109.3 89.3,113.9 122.1,121.1 132.7,123.1 142.8,124.6 151.2,125.4 157.8,125.7 165,125.7 175.2,125.1 185.3,123.9 196.5,122 204.8,120.3 226.3,115.1 259.4,106.3 260.5,105.9 274.5,102.3 291.4,98.3 305.5,95.5 319.8,93.2 328.1,92.2 335.9,91.5 350.3,90.8 361.1,90.8 367.6,91 379,91.7 392.8,93.1 407.6,95.2 423,97.9 447.6,103 496.2,114 518.5,118.8 545,124.1 562.1,127 572.8,128.5 581.8,129.4 590.8,129.9 599.8,129.9" fill="none" stroke="#000000" stroke-width="1"/><polyline id="SvgjsPolyline2168" points="0.5,91.1 7.7,90.3 13,89.9 17.8,89.7 25,89.7 37,90.5 43.6,91.3 58.4,93.7 89,99.7 104.8,103 135.3,109.9 146.4,112.2 157.1,114 163.6,114.8 173.8,115.5 184,115.5 191.2,115.1 202,114 220.9,110.9 237.3,107.5 261.9,101.9 279.5,98.1 290.1,96 310.3,92.7 325.2,91 332.9,90.4 340.7,90 353.9,89.8 368.9,90.3 382.7,91.4 397.6,93.2 413.6,95.8 423.6,97.6 448.8,102.9 489.2,112.1 512.1,117.1 527.9,120.4 549.1,124.5 562.2,126.7 577,128.6 587.2,129.4 592.6,129.6 599.8,129.6" fill="none" stroke="#000000" stroke-width="1"/><polyline id="SvgjsPolyline2169" points="0.2,79.1 4.4,78.4 13.9,77.2 18.1,76.8 25.3,76.4 36.1,76.5 43.3,77 48.6,77.6 58.7,79.1 68.8,80.9 69.3,81.1 74.1,81.9 74.6,82.1 116.5,90.1 134.7,94 158.6,99.6 169.8,101.9 176.9,103.1 182.2,103.8 189.4,104.5 194.8,104.8 203.8,104.9 209.8,104.7 224.8,103.5 243.2,101 274,95.8 294.1,92.7 306.6,91.1 322.7,89.6 331.1,89.1 340.1,88.8 352.7,88.8 365.3,89.3 376.1,90.1 387.4,91.3 400.5,93.1 415.3,95.6 424.7,97.4 448.8,102.5 486.8,111.2 511.4,116.6 530.2,120.5 546.1,123.6 563.3,126.5 570.4,127.5 577.6,128.3 586.5,129 591.3,129.2 599.7,129.2" fill="none" stroke="#000000" stroke-width="1"/><polyline id="SvgjsPolyline2170" points="0.2,66.9 18.6,64.1 24.6,63.4 32.3,62.8 44.3,62.7 50.9,63.1 57.5,63.8 68.8,65.5 96.5,70.7 137.9,77.9 155.5,81.5 182.9,88 194.7,90.5 204.7,92.2 213.1,93.2 217.9,93.6 226.3,94 237.1,94 247.2,93.6 264.6,92.3 301,88.9 313,88.1 326.2,87.5 350.2,87.5 361,88 374.7,89.1 391.4,91.1 403.9,93 415.7,95.1 426.9,97.3 452.7,102.9 498.3,113.3 524.1,118.8 545.9,123.1 563.7,126.1 576.2,127.7 588.1,128.6 595.3,128.8 599.5,128.7" fill="none" stroke="#000000" stroke-width="1"/><polyline id="SvgjsPolyline2171" points="0.1,54.8 7.3,53.9 26.8,50.8 39.9,49.3 48.3,48.9 52.5,48.9 59.7,49.2 68.7,50.1 85.9,52.9 94.7,54.6 113,57.8 130.8,60.5 152.2,63.5 166.4,65.8 185.3,69.5 195.8,71.9 211.5,75.8 223.8,78.6 232.6,80.3 245.7,82.3 258.2,83.5 272.6,84.2 282.8,84.4 317,84.4 341,85 351.8,85.6 364.4,86.6 373.9,87.6 386.4,89.2 409.5,93 424.8,96 451.8,101.9 467.5,105.6 500.9,113.1 522,117.6 547.9,122.7 562.7,125.2 574,126.7 581.2,127.4 587.8,127.8 593.8,128 599.8,127.9" fill="none" stroke="#000000" stroke-width="1"/><polyline id="SvgjsPolyline2172" points="0.4,42.7 12.4,41.7 22.5,40.3 40.8,37.4 47.4,36.6 54.6,36 58.8,35.8 69,35.9 76.7,36.5 83.3,37.3 99.9,40.1 112.8,42.5 130,45.2 142.5,46.8 165.2,49.2 186.7,51.7 196.8,53.1 211.6,55.6 225.1,58.3 233.9,60.3 265.3,68 283.5,71.8 300.7,74.7 308.4,75.8 343,80 365.6,83 389.9,86.9 402.8,89.3 415.2,91.8 432.8,95.6 465.5,103.2 500.6,111.1 524.7,116.2 547.1,120.6 562.5,123.2 573.8,124.7 587.5,125.8 599.5,125.9" fill="none" stroke="#000000" stroke-width="1"/><polyline id="SvgjsPolyline2173" points="0.4,30.7 9.4,30.8 14.2,30.6 21.4,30 31.5,28.7 51.1,25.6 61.8,24.3 71.4,23.7 82.2,23.8 90.5,24.5 99.4,25.7 130.8,31.2 144.4,33.1 156.4,34.4 168.9,35.5 201.2,37.7 219.8,39.2 237.1,41 247.2,42.3 255.5,43.5 269.7,45.9 278.6,47.6 295,51.1 320.7,57.2 357.9,66.5 392.3,74.9 441.9,86.8 474.7,94.2 524.6,104.6 545.2,108.6 561.2,111.3 569.5,112.4 579.1,113.3 584.5,113.6 592.9,113.7 599.5,113.4" fill="none" stroke="#000000" stroke-width="1"/><polyline id="SvgjsPolyline2174" points="0.3,18.6 6.9,19.3 13.5,19.7 22.5,19.7 26.7,19.5 32.7,19 38.6,18.3 65.9,14.1 73.7,13.2 83.8,12.5 95.2,12.6 103,13.2 110.7,14.2 137.9,18.9 148.6,20.6 158.1,21.8 173.1,23.2 189.2,24.2 200.6,24.7 254,26.3 287.6,27.8 321.1,29.8 372,33.2 407.9,35.3 436.7,37.4 456.4,39.4 468.9,41 492,44.7 520.3,49.9 531.6,51.6 541.7,52.7 548.9,53.1 556.7,53.1 563.9,52.7 573.4,51.6 590.6,48.9 599.6,47.9" fill="none" stroke="#000000" stroke-width="1"/><polyline id="SvgjsPolyline2175" points="0.5,25.1 5.9,25.5 10.1,25.6 16.1,25.5 21.5,25.2 31.1,24.2 38.2,23.2 53.6,20.7 66.1,19.1 76.3,18.4 85.3,18.4 93.1,18.9 100.8,19.8 112.7,21.7 113.2,21.9 122.7,23.6 135.1,25.7 150.6,27.8 160.1,28.8 179.9,30.3 230.8,33 245.1,34 260.1,35.3 276.8,37.1 292.3,39.1 307.1,41.3 332,45.5 357.3,50.2 390.9,56.7 412.7,60.7 498,74.9 539.8,82.8 551.7,84.7 564.8,86.2 576.2,86.7 585.8,86.4 591.8,85.9 599.5,84.9" fill="none" stroke="#000000" stroke-width="1"/><polyline id="SvgjsPolyline2176" points="0.1,27.3 5.5,27.6 12.7,27.6 18.7,27.3 22.3,27 33,25.7 53.1,22.5 64.4,21.1 73.4,20.5 77.6,20.4 83.6,20.5 92,21.1 98.6,21.9 106.9,23.2 119.8,25.6 133.5,27.9 144.1,29.4 155.5,30.7 174.6,32.3 207.5,34.2 230.9,35.8 243.4,36.9 258.4,38.5 268.5,39.8 283.3,42 294,43.8 294.5,44 309.9,46.8 340.4,53.3 404.1,68 433.4,74.4 461.1,80 505.9,88.5 539.4,95.1 557.8,98.2 568.5,99.5 573.3,99.9 578.7,100.2 586.5,100.3 593.7,100 599.6,99.5" fill="none" stroke="#000000" stroke-width="1"/><polyline id="SvgjsPolyline2177" points="0.6,6.5 7.1,7.5 19.6,8.9 28,9.3 35.2,9.2 48.4,8.1 58.5,6.7 78,3.6 86.4,2.6 90.6,2.2 97.7,1.8 101.9,1.7 107.3,1.8 116.3,2.4 125.2,3.5 157.2,9 167.3,10.4 176.2,11.4 187,12.3 201.4,13.1 226,13.7 260.2,13.7 336.4,12.8 367.6,12.7 391.6,13.1 404.2,13.6 414.3,14.2 431.7,15.7 446,17.4 464.4,20.2 501,26.7 515.3,28.6 524.8,29.3 534.4,29.4 544.6,28.7 551.8,27.8 569,25.1 577.9,24.2 588.1,23.9 599.5,24.5" fill="none" stroke="#000000" stroke-width="1"/><polyline id="SvgjsPolyline2178" points="0.3,22.2 6.2,22.7 11,22.9 16.4,22.9 23,22.6 29,22.1 35.6,21.3 58.7,17.7 71.2,16.2 79,15.7 88.6,15.7 92.8,15.9 99.4,16.5 108.3,17.7 130.1,21.6 142.6,23.6 150.9,24.7 161.1,25.8 173,26.8 191.6,27.9 235.3,29.7 262.9,31.3 288.6,33.4 315.5,36.2 342.9,39.5 386.3,45 413.1,48.1 447.1,51.8 468.6,54.5 481.6,56.4 501.2,59.7 522.4,63.7 539.5,66.6 552.1,68.1 559.8,68.6 564,68.7 573.6,68.4 579.6,67.9 586.8,67 599.8,64.9" fill="none" stroke="#000000" stroke-width="1"/><polyline id="SvgjsPolyline2179" points="0.2,14.1 6.8,14.9 15.8,15.6 25.4,15.7 31.4,15.4 36.1,15 44.5,14 64,10.9 78.9,9 87.9,8.4 98.1,8.4 105.9,8.9 114.2,9.9 146.2,15.4 157.4,17 169.4,18.3 189.1,19.7 204.1,20.3 220.3,20.7 284.5,21.6 380.5,23.6 404.5,24.4 424.2,25.5 444.6,27.3 457.7,28.9 465.4,30 488.5,33.9 497.9,35.7 515.6,38.7 525.8,40 534.7,40.7 546.1,40.8 550.3,40.6 561.1,39.5 578.3,36.8 584.8,36 592.6,35.4 599.8,35.3" fill="none" stroke="#000000" stroke-width="1"/><polyline id="SvgjsPolyline2180" points="184.4,0 192.7,1 206.5,2.1 220.9,2.8 232.8,3.1 241.8,3.2 266.4,3.1 324,2 344.4,1.8 369,2 392.4,2.9 411,4.3 428.8,6.3 445.5,8.7 491.6,16.7 504.1,18.3 514.3,19 517.9,19.1 524.5,19 532.8,18.4 543.6,17 551.8,15.6 559,14.6 566.1,13.9 572.1,13.6 578.1,13.6 585.9,14 592.5,14.6 599.6,15.5" fill="none" stroke="#000000" stroke-width="1"/><polyline id="SvgjsPolyline2181" points="465.9,0.1 477.8,1.8 489.1,2.9 495.1,3.2 504.1,3.2 514.9,2.4 524.4,1.1 530.9,0" fill="none" stroke="#000000" stroke-width="1"/><polyline id="SvgjsPolyline2182" points="440.6,0 454.8,2.6 477.9,6.5 488.6,7.9 500,8.8 510.2,8.9 518.5,8.4 526.3,7.5 544.1,4.7 550,4 558.4,3.4 567.4,3.4 578.8,4.2 588.9,5.4 599.6,7" fill="none" stroke="#000000" stroke-width="1"/></g></svg>