<?xml version="1.0"?><svg  viewBox="0 0 200 200" width="290mm" height="290mm" xmlns="http://www.w3.org/2000/svg"  version="1.2" viewport-fill="#fff">
  <polyline points="10.00,25.00,10.70,25.00,11.05,25.61,10.70,26.21,11.05,26.82,11.75,26.82,12.10,26.21,11.75,25.61,12.10,25.00,12.80,25.00,13.15,25.61,13.85,25.61,14.20,25.00,14.90,25.00,15.25,25.61,14.90,26.21,14.20,26.21,13.85,26.82,14.20,27.42,13.85,28.03,13.15,28.03,12.80,27.42,12.10,27.42,11.75,28.03,12.10,28.64,12.80,28.64,13.15,29.24,12.80,29.85,13.15,30.46,13.85,30.46,14.20,29.85,14.90,29.85,15.25,30.46,14.90,31.06,14.20,31.06,13.85,31.67,14.20,32.27,14.90,32.27,15.25,32.88,14.90,33.49,15.25,34.09,15.95,34.09,16.30,33.49,15.95,32.88,16.30,32.27,17.00,32.27,17.35,31.67,17.00,31.06,16.30,31.06,15.95,30.46,16.30,29.85,17.00,29.85,17.35,30.46,18.05,30.46,18.40,29.85,18.05,29.24,18.40,28.64,19.10,28.64,19.45,28.03,19.10,27.42,18.40,27.42,18.05,28.03,17.35,28.03,17.00,27.42,17.35,26.82,17.00,26.21,16.30,26.21,15.95,25.61,16.30,25.00,17.00,25.00,17.35,25.61,18.05,25.61,18.40,25.00,19.10,25.00,19.45,25.61,19.10,26.21,19.45,26.82,20.15,26.82,20.50,26.21,20.15,25.61,20.50,25.00,21.20,25.00,21.55,25.61,22.25,25.61,22.60,25.00,23.30,25.00,23.65,25.61,23.30,26.21,22.60,26.21,22.25,26.82,22.60,27.42,23.30,27.42,23.65,28.03,23.30,28.64,23.65,29.24,24.35,29.24,24.70,28.64,24.35,28.03,24.70,27.42,25.40,27.42,25.75,26.82,25.40,26.21,24.70,26.21,24.35,25.61,24.70,25.00,25.40,25.00,25.75,25.61,26.45,25.61,26.80,25.00,27.50,25.00,27.85,25.61,27.50,26.21,27.85,26.82,28.55,26.82,28.90,26.21,28.55,25.61,28.90,25.00,29.60,25.00,29.95,25.61,30.65,25.61,31.00,25.00,31.70,25.00,32.05,25.61,31.70,26.21,31.00,26.21,30.65,26.82,31.00,27.42,30.65,28.03,29.95,28.03,29.60,27.42,28.90,27.42,28.55,28.03,28.90,28.64,29.60,28.64,29.95,29.24,29.60,29.85,28.90,29.85,28.55,30.46,28.90,31.06,28.55,31.67,27.85,31.67,27.50,31.06,27.85,30.46,27.50,29.85,26.80,29.85,26.45,30.46,25.75,30.46,25.40,29.85,24.70,29.85,24.35,30.46,24.70,31.06,25.40,31.06,25.75,31.67,25.40,32.27,25.75,32.88,26.45,32.88,26.80,32.27,27.50,32.27,27.85,32.88,27.50,33.49,26.80,33.49,26.45,34.09,26.80,34.70,26.45,35.31,25.75,35.31,25.40,34.70,24.70,34.70,24.35,35.31,24.70,35.91,25.40,35.91,25.75,36.52,25.40,37.12,24.70,37.12,24.35,37.73,24.70,38.34,24.35,38.94,23.65,38.94,23.30,38.34,23.65,37.73,23.30,37.12,22.60,37.12,22.25,36.52,22.60,35.91,23.30,35.91,23.65,35.31,23.30,34.70,22.60,34.70,22.25,35.31,21.55,35.31,21.20,34.70,20.50,34.70,20.15,35.31,20.50,35.91,20.15,36.52,19.45,36.52,19.10,35.91,19.45,35.31,19.10,34.70,18.40,34.70,18.05,35.31,17.35,35.31,17.00,34.70,16.30,34.70,15.95,35.31,16.30,35.91,17.00,35.91,17.35,36.52,17.00,37.12,17.35,37.73,18.05,37.73,18.40,37.12,19.10,37.12,19.45,37.73,19.10,38.34,18.40,38.34,18.05,38.94,18.40,39.55,19.10,39.55,19.45,40.16,19.10,40.76,19.45,41.37,20.15,41.37,20.50,40.76,20.15,40.16,20.50,39.55,21.20,39.55,21.55,40.16,22.25,40.16,22.60,39.55,23.30,39.55,23.65,40.16,23.30,40.76,22.60,40.76,22.25,41.37,22.60,41.97,22.25,42.58,21.55,42.58,21.20,41.97,20.50,41.97,20.15,42.58,20.50,43.19,21.20,43.19,21.55,43.79,21.20,44.40,21.55,45.01,22.25,45.01,22.60,44.40,23.30,44.40,23.65,45.01,23.30,45.61,22.60,45.61,22.25,46.22,22.60,46.82,23.30,46.82,23.65,47.43,23.30,48.04,23.65,48.64,24.35,48.64,24.70,48.04,24.35,47.43,24.70,46.82,25.40,46.82,25.75,46.22,25.40,45.61,24.70,45.61,24.35,45.01,24.70,44.40,25.40,44.40,25.75,45.01,26.45,45.01,26.80,44.40,27.50,44.40,27.85,45.01,27.50,45.61,27.85,46.22,28.55,46.22,28.90,45.61,28.55,45.01,28.90,44.40,29.60,44.40,29.95,45.01,30.65,45.01,31.00,44.40,31.70,44.40,32.05,45.01,31.70,45.61,31.00,45.61,30.65,46.22,31.00,46.82,30.65,47.43,29.95,47.43,29.60,46.82,28.90,46.82,28.55,47.43,28.90,48.04,29.60,48.04,29.95,48.64,29.60,49.25,28.90,49.25,28.55,49.85,28.90,50.46,28.55,51.07,27.85,51.07,27.50,50.46,27.85,49.85,27.50,49.25,26.80,49.25,26.45,49.85,25.75,49.85,25.40,49.25,24.70,49.25,24.35,49.85,24.70,50.46,25.40,50.46,25.75,51.07,25.40,51.67,25.75,52.28,26.45,52.28,26.80,51.67,27.50,51.67,27.85,52.28,27.50,52.89,26.80,52.89,26.45,53.49,26.80,54.10,27.50,54.10,27.85,54.70,27.50,55.31,27.85,55.92,28.55,55.92,28.90,55.31,28.55,54.70,28.90,54.10,29.60,54.10,29.95,54.70,30.65,54.70,31.00,54.10,31.70,54.10,32.05,54.70,31.70,55.31,31.00,55.31,30.65,55.92,31.00,56.52,30.65,57.13,29.95,57.13,29.60,56.52,28.90,56.52,28.55,57.13,28.90,57.74,29.60,57.74,29.95,58.34,29.60,58.95,29.95,59.55,30.65,59.55,31.00,58.95,31.70,58.95,32.05,59.55,31.70,60.16,31.00,60.16,30.65,60.77,31.00,61.37,31.70,61.37,32.05,61.98,31.70,62.59,32.05,63.19,32.75,63.19,33.10,62.59,32.75,61.98,33.10,61.37,33.80,61.37,34.15,60.77,33.80,60.16,33.10,60.16,32.75,59.55,33.10,58.95,33.80,58.95,34.15,59.55,34.85,59.55,35.20,58.95,34.85,58.34,35.20,57.74,35.90,57.74,36.25,57.13,35.90,56.52,35.20,56.52,34.85,57.13,34.15,57.13,33.80,56.52,34.15,55.92,33.80,55.31,33.10,55.31,32.75,54.70,33.10,54.10,33.80,54.10,34.15,54.70,34.85,54.70,35.20,54.10,35.90,54.10,36.25,54.70,35.90,55.31,36.25,55.92,36.95,55.92,37.30,55.31,36.95,54.70,37.30,54.10,38.00,54.10,38.35,53.49,38.00,52.89,37.30,52.89,36.95,52.28,37.30,51.67,38.00,51.67,38.35,52.28,39.05,52.28,39.40,51.67,39.05,51.07,39.40,50.46,40.10,50.46,40.45,49.85,40.10,49.25,39.40,49.25,39.05,49.85,38.35,49.85,38.00,49.25,37.30,49.25,36.95,49.85,37.30,50.46,36.95,51.07,36.25,51.07,35.90,50.46,36.25,49.85,35.90,49.25,35.20,49.25,34.85,48.64,35.20,48.04,35.90,48.04,36.25,47.43,35.90,46.82,35.20,46.82,34.85,47.43,34.15,47.43,33.80,46.82,34.15,46.22,33.80,45.61,33.10,45.61,32.75,45.01,33.10,44.40,33.80,44.40,34.15,45.01,34.85,45.01,35.20,44.40,35.90,44.40,36.25,45.01,35.90,45.61,36.25,46.22,36.95,46.22,37.30,45.61,36.95,45.01,37.30,44.40,38.00,44.40,38.35,45.01,39.05,45.01,39.40,44.40,40.10,44.40,40.45,45.01,40.10,45.61,39.40,45.61,39.05,46.22,39.40,46.82,40.10,46.82,40.45,47.43,40.10,48.04,40.45,48.64,41.15,48.64,41.50,48.04,41.15,47.43,41.50,46.82,42.20,46.82,42.55,46.22,42.20,45.61,41.50,45.61,41.15,45.01,41.50,44.40,42.20,44.40,42.55,45.01,43.25,45.01,43.60,44.40,43.25,43.79,43.60,43.19,44.30,43.19,44.65,42.58,44.30,41.97,43.60,41.97,43.25,42.58,42.55,42.58,42.20,41.97,42.55,41.37,42.20,40.76,41.50,40.76,41.15,40.16,41.50,39.55,42.20,39.55,42.55,40.16,43.25,40.16,43.60,39.55,44.30,39.55,44.65,40.16,44.30,40.76,44.65,41.37,45.35,41.37,45.70,40.76,45.35,40.16,45.70,39.55,46.40,39.55,46.75,38.94,46.40,38.34,45.70,38.34,45.35,37.73,45.70,37.12,46.40,37.12,46.75,37.73,47.45,37.73,47.80,37.12,47.45,36.52,47.80,35.91,48.50,35.91,48.85,35.31,48.50,34.70,47.80,34.70,47.45,35.31,46.75,35.31,46.40,34.70,45.70,34.70,45.35,35.31,45.70,35.91,45.35,36.52,44.65,36.52,44.30,35.91,44.65,35.31,44.30,34.70,43.60,34.70,43.25,35.31,42.55,35.31,42.20,34.70,41.50,34.70,41.15,35.31,41.50,35.91,42.20,35.91,42.55,36.52,42.20,37.12,41.50,37.12,41.15,37.73,41.50,38.34,41.15,38.94,40.45,38.94,40.10,38.34,40.45,37.73,40.10,37.12,39.40,37.12,39.05,36.52,39.40,35.91,40.10,35.91,40.45,35.31,40.10,34.70,39.40,34.70,39.05,35.31,38.35,35.31,38.00,34.70,38.35,34.09,38.00,33.49,37.30,33.49,36.95,32.88,37.30,32.27,38.00,32.27,38.35,32.88,39.05,32.88,39.40,32.27,39.05,31.67,39.40,31.06,40.10,31.06,40.45,30.46,40.10,29.85,39.40,29.85,39.05,30.46,38.35,30.46,38.00,29.85,37.30,29.85,36.95,30.46,37.30,31.06,36.95,31.67,36.25,31.67,35.90,31.06,36.25,30.46,35.90,29.85,35.20,29.85,34.85,29.24,35.20,28.64,35.90,28.64,36.25,28.03,35.90,27.42,35.20,27.42,34.85,28.03,34.15,28.03,33.80,27.42,34.15,26.82,33.80,26.21,33.10,26.21,32.75,25.61,33.10,25.00,33.80,25.00,34.15,25.61,34.85,25.61,35.20,25.00,35.90,25.00,36.25,25.61,35.90,26.21,36.25,26.82,36.95,26.82,37.30,26.21,36.95,25.61,37.30,25.00,38.00,25.00,38.35,25.61,39.05,25.61,39.40,25.00,40.10,25.00,40.45,25.61,40.10,26.21,39.40,26.21,39.05,26.82,39.40,27.42,40.10,27.42,40.45,28.03,40.10,28.64,40.45,29.24,41.15,29.24,41.50,28.64,41.15,28.03,41.50,27.42,42.20,27.42,42.55,26.82,42.20,26.21,41.50,26.21,41.15,25.61,41.50,25.00,42.20,25.00,42.55,25.61,43.25,25.61,43.60,25.00,44.30,25.00,44.65,25.61,44.30,26.21,44.65,26.82,45.35,26.82,45.70,26.21,45.35,25.61,45.70,25.00,46.40,25.00,46.75,25.61,47.45,25.61,47.80,25.00,48.50,25.00,48.85,25.61,48.50,26.21,47.80,26.21,47.45,26.82,47.80,27.42,47.45,28.03,46.75,28.03,46.40,27.42,45.70,27.42,45.35,28.03,45.70,28.64,46.40,28.64,46.75,29.24,46.40,29.85,46.75,30.46,47.45,30.46,47.80,29.85,48.50,29.85,48.85,30.46,48.50,31.06,47.80,31.06,47.45,31.67,47.80,32.27,48.50,32.27,48.85,32.88,48.50,33.49,48.85,34.09,49.55,34.09,49.90,33.49,49.55,32.88,49.90,32.27,50.60,32.27,50.95,31.67,50.60,31.06,49.90,31.06,49.55,30.46,49.90,29.85,50.60,29.85,50.95,30.46,51.65,30.46,52.00,29.85,51.65,29.24,52.00,28.64,52.70,28.64,53.05,28.03,52.70,27.42,52.00,27.42,51.65,28.03,50.95,28.03,50.60,27.42,50.95,26.82,50.60,26.21,49.90,26.21,49.55,25.61,49.90,25.00,50.60,25.00,50.95,25.61,51.65,25.61,52.00,25.00,52.70,25.00,53.05,25.61,52.70,26.21,53.05,26.82,53.75,26.82,54.10,26.21,53.75,25.61,54.10,25.00,54.80,25.00,55.15,25.61,55.85,25.61,56.20,25.00,56.90,25.00,57.25,25.61,56.90,26.21,56.20,26.21,55.85,26.82,56.20,27.42,56.90,27.42,57.25,28.03,56.90,28.64,57.25,29.24,57.95,29.24,58.30,28.64,57.95,28.03,58.30,27.42,59.00,27.42,59.35,26.82,59.00,26.21,58.30,26.21,57.95,25.61,58.30,25.00,59.00,25.00,59.35,25.61,60.05,25.61,60.40,25.00,61.10,25.00,61.45,25.61,61.10,26.21,61.45,26.82,62.15,26.82,62.50,26.21,62.15,25.61,62.50,25.00,63.20,25.00,63.55,25.61,64.25,25.61,64.60,25.00,65.30,25.00,65.65,25.61,65.30,26.21,64.60,26.21,64.25,26.82,64.60,27.42,64.25,28.03,63.55,28.03,63.20,27.42,62.50,27.42,62.15,28.03,62.50,28.64,63.20,28.64,63.55,29.24,63.20,29.85,62.50,29.85,62.15,30.46,62.50,31.06,62.15,31.67,61.45,31.67,61.10,31.06,61.45,30.46,61.10,29.85,60.40,29.85,60.05,30.46,59.35,30.46,59.00,29.85,58.30,29.85,57.95,30.46,58.30,31.06,59.00,31.06,59.35,31.67,59.00,32.27,59.35,32.88,60.05,32.88,60.40,32.27,61.10,32.27,61.45,32.88,61.10,33.49,60.40,33.49,60.05,34.09,60.40,34.70,61.10,34.70,61.45,35.31,61.10,35.91,61.45,36.52,62.15,36.52,62.50,35.91,62.15,35.31,62.50,34.70,63.20,34.70,63.55,35.31,64.25,35.31,64.60,34.70,65.30,34.70,65.65,35.31,65.30,35.91,64.60,35.91,64.25,36.52,64.60,37.12,64.25,37.73,63.55,37.73,63.20,37.12,62.50,37.12,62.15,37.73,62.50,38.34,63.20,38.34,63.55,38.94,63.20,39.55,63.55,40.16,64.25,40.16,64.60,39.55,65.30,39.55,65.65,40.16,65.30,40.76,64.60,40.76,64.25,41.37,64.60,41.97,65.30,41.97,65.65,42.58,65.30,43.19,65.65,43.79,66.35,43.79,66.70,43.19,66.35,42.58,66.70,41.97,67.40,41.97,67.75,41.37,67.40,40.76,66.70,40.76,66.35,40.16,66.70,39.55,67.40,39.55,67.75,40.16,68.45,40.16,68.80,39.55,68.45,38.94,68.80,38.34,69.50,38.34,69.85,37.73,69.50,37.12,68.80,37.12,68.45,37.73,67.75,37.73,67.40,37.12,67.75,36.52,67.40,35.91,66.70,35.91,66.35,35.31,66.70,34.70,67.40,34.70,67.75,35.31,68.45,35.31,68.80,34.70,69.50,34.70,69.85,35.31,69.50,35.91,69.85,36.52,70.55,36.52,70.90,35.91,70.55,35.31,70.90,34.70,71.60,34.70,71.95,34.09,71.60,33.49,70.90,33.49,70.55,32.88,70.90,32.27,71.60,32.27,71.95,32.88,72.65,32.88,73.00,32.27,72.65,31.67,73.00,31.06,73.70,31.06,74.05,30.46,73.70,29.85,73.00,29.85,72.65,30.46,71.95,30.46,71.60,29.85,70.90,29.85,70.55,30.46,70.90,31.06,70.55,31.67,69.85,31.67,69.50,31.06,69.85,30.46,69.50,29.85,68.80,29.85,68.45,29.24,68.80,28.64,69.50,28.64,69.85,28.03,69.50,27.42,68.80,27.42,68.45,28.03,67.75,28.03,67.40,27.42,67.75,26.82,67.40,26.21,66.70,26.21,66.35,25.61,66.70,25.00,67.40,25.00,67.75,25.61,68.45,25.61,68.80,25.00,69.50,25.00,69.85,25.61,69.50,26.21,69.85,26.82,70.55,26.82,70.90,26.21,70.55,25.61,70.90,25.00,71.60,25.00,71.95,25.61,72.65,25.61,73.00,25.00,73.70,25.00,74.05,25.61,73.70,26.21,73.00,26.21,72.65,26.82,73.00,27.42,73.70,27.42,74.05,28.03,73.70,28.64,74.05,29.24,74.75,29.24,75.10,28.64,74.75,28.03,75.10,27.42,75.80,27.42,76.15,26.82,75.80,26.21,75.10,26.21,74.75,25.61,75.10,25.00,75.80,25.00,76.15,25.61,76.85,25.61,77.20,25.00,77.90,25.00,78.25,25.61,77.90,26.21,78.25,26.82,78.95,26.82,79.30,26.21,78.95,25.61,79.30,25.00,80.00,25.00,80.35,25.61,81.05,25.61,81.40,25.00,82.10,25.00,82.45,25.61,82.10,26.21,81.40,26.21,81.05,26.82,81.40,27.42,81.05,28.03,80.35,28.03,80.00,27.42,79.30,27.42,78.95,28.03,79.30,28.64,80.00,28.64,80.35,29.24,80.00,29.85,80.35,30.46,81.05,30.46,81.40,29.85,82.10,29.85,82.45,30.46,82.10,31.06,81.40,31.06,81.05,31.67,81.40,32.27,82.10,32.27,82.45,32.88,82.10,33.49,82.45,34.09,83.15,34.09,83.50,33.49,83.15,32.88,83.50,32.27,84.20,32.27,84.55,31.67,84.20,31.06,83.50,31.06,83.15,30.46,83.50,29.85,84.20,29.85,84.55,30.46,85.25,30.46,85.60,29.85,85.25,29.24,85.60,28.64,86.30,28.64,86.65,28.03,86.30,27.42,85.60,27.42,85.25,28.03,84.55,28.03,84.20,27.42,84.55,26.82,84.20,26.21,83.50,26.21,83.15,25.61,83.50,25.00,84.20,25.00,84.55,25.61,85.25,25.61,85.60,25.00,86.30,25.00,86.65,25.61,86.30,26.21,86.65,26.82,87.35,26.82,87.70,26.21,87.35,25.61,87.70,25.00,88.40,25.00,88.75,25.61,89.45,25.61,89.80,25.00,90.50,25.00,90.85,25.61,90.50,26.21,89.80,26.21,89.45,26.82,89.80,27.42,90.50,27.42,90.85,28.03,90.50,28.64,90.85,29.24,91.55,29.24,91.90,28.64,91.55,28.03,91.90,27.42,92.60,27.42,92.95,26.82,92.60,26.21,91.90,26.21,91.55,25.61,91.90,25.00,92.60,25.00,92.95,25.61,93.65,25.61,94.00,25.00,94.70,25.00,95.05,25.61,94.70,26.21,95.05,26.82,95.75,26.82,96.10,26.21,95.75,25.61,96.10,25.00,96.80,25.00,97.15,25.61,97.85,25.61,98.20,25.00,98.90,25.00,99.25,25.61,98.90,26.21,98.20,26.21,97.85,26.82,98.20,27.42,97.85,28.03,97.15,28.03,96.80,27.42,96.10,27.42,95.75,28.03,96.10,28.64,96.80,28.64,97.15,29.24,96.80,29.85,96.10,29.85,95.75,30.46,96.10,31.06,95.75,31.67,95.05,31.67,94.70,31.06,95.05,30.46,94.70,29.85,94.00,29.85,93.65,30.46,92.95,30.46,92.60,29.85,91.90,29.85,91.55,30.46,91.90,31.06,92.60,31.06,92.95,31.67,92.60,32.27,92.95,32.88,93.65,32.88,94.00,32.27,94.70,32.27,95.05,32.88,94.70,33.49,94.00,33.49,93.65,34.09,94.00,34.70,93.65,35.31,92.95,35.31,92.60,34.70,91.90,34.70,91.55,35.31,91.90,35.91,92.60,35.91,92.95,36.52,92.60,37.12,91.90,37.12,91.55,37.73,91.90,38.34,91.55,38.94,90.85,38.94,90.50,38.34,90.85,37.73,90.50,37.12,89.80,37.12,89.45,36.52,89.80,35.91,90.50,35.91,90.85,35.31,90.50,34.70,89.80,34.70,89.45,35.31,88.75,35.31,88.40,34.70,87.70,34.70,87.35,35.31,87.70,35.91,87.35,36.52,86.65,36.52,86.30,35.91,86.65,35.31,86.30,34.70,85.60,34.70,85.25,35.31,84.55,35.31,84.20,34.70,83.50,34.70,83.15,35.31,83.50,35.91,84.20,35.91,84.55,36.52,84.20,37.12,84.55,37.73,85.25,37.73,85.60,37.12,86.30,37.12,86.65,37.73,86.30,38.34,85.60,38.34,85.25,38.94,85.60,39.55,86.30,39.55,86.65,40.16,86.30,40.76,86.65,41.37,87.35,41.37,87.70,40.76,87.35,40.16,87.70,39.55,88.40,39.55,88.75,40.16,89.45,40.16,89.80,39.55,90.50,39.55,90.85,40.16,90.50,40.76,89.80,40.76,89.45,41.37,89.80,41.97,89.45,42.58,88.75,42.58,88.40,41.97,87.70,41.97,87.35,42.58,87.70,43.19,88.40,43.19,88.75,43.79,88.40,44.40,87.70,44.40,87.35,45.01,87.70,45.61,87.35,46.22,86.65,46.22,86.30,45.61,86.65,45.01,86.30,44.40,85.60,44.40,85.25,45.01,84.55,45.01,84.20,44.40,83.50,44.40,83.15,45.01,83.50,45.61,84.20,45.61,84.55,46.22,84.20,46.82,84.55,47.43,85.25,47.43,85.60,46.82,86.30,46.82,86.65,47.43,86.30,48.04,85.60,48.04,85.25,48.64,85.60,49.25,85.25,49.85,84.55,49.85,84.20,49.25,83.50,49.25,83.15,49.85,83.50,50.46,84.20,50.46,84.55,51.07,84.20,51.67,83.50,51.67,83.15,52.28,83.50,52.89,83.15,53.49,82.45,53.49,82.10,52.89,82.45,52.28,82.10,51.67,81.40,51.67,81.05,51.07,81.40,50.46,82.10,50.46,82.45,49.85,82.10,49.25,81.40,49.25,81.05,49.85,80.35,49.85,80.00,49.25,80.35,48.64,80.00,48.04,79.30,48.04,78.95,47.43,79.30,46.82,80.00,46.82,80.35,47.43,81.05,47.43,81.40,46.82,81.05,46.22,81.40,45.61,82.10,45.61,82.45,45.01,82.10,44.40,81.40,44.40,81.05,45.01,80.35,45.01,80.00,44.40,79.30,44.40,78.95,45.01,79.30,45.61,78.95,46.22,78.25,46.22,77.90,45.61,78.25,45.01,77.90,44.40,77.20,44.40,76.85,45.01,76.15,45.01,75.80,44.40,75.10,44.40,74.75,45.01,75.10,45.61,75.80,45.61,76.15,46.22,75.80,46.82,75.10,46.82,74.75,47.43,75.10,48.04,74.75,48.64,74.05,48.64,73.70,48.04,74.05,47.43,73.70,46.82,73.00,46.82,72.65,46.22,73.00,45.61,73.70,45.61,74.05,45.01,73.70,44.40,73.00,44.40,72.65,45.01,71.95,45.01,71.60,44.40,70.90,44.40,70.55,45.01,70.90,45.61,70.55,46.22,69.85,46.22,69.50,45.61,69.85,45.01,69.50,44.40,68.80,44.40,68.45,45.01,67.75,45.01,67.40,44.40,66.70,44.40,66.35,45.01,66.70,45.61,67.40,45.61,67.75,46.22,67.40,46.82,67.75,47.43,68.45,47.43,68.80,46.82,69.50,46.82,69.85,47.43,69.50,48.04,68.80,48.04,68.45,48.64,68.80,49.25,69.50,49.25,69.85,49.85,69.50,50.46,69.85,51.07,70.55,51.07,70.90,50.46,70.55,49.85,70.90,49.25,71.60,49.25,71.95,49.85,72.65,49.85,73.00,49.25,73.70,49.25,74.05,49.85,73.70,50.46,73.00,50.46,72.65,51.07,73.00,51.67,72.65,52.28,71.95,52.28,71.60,51.67,70.90,51.67,70.55,52.28,70.90,52.89,71.60,52.89,71.95,53.49,71.60,54.10,71.95,54.70,72.65,54.70,73.00,54.10,73.70,54.10,74.05,54.70,73.70,55.31,73.00,55.31,72.65,55.92,73.00,56.52,73.70,56.52,74.05,57.13,73.70,57.74,74.05,58.34,74.75,58.34,75.10,57.74,74.75,57.13,75.10,56.52,75.80,56.52,76.15,55.92,75.80,55.31,75.10,55.31,74.75,54.70,75.10,54.10,75.80,54.10,76.15,54.70,76.85,54.70,77.20,54.10,77.90,54.10,78.25,54.70,77.90,55.31,78.25,55.92,78.95,55.92,79.30,55.31,78.95,54.70,79.30,54.10,80.00,54.10,80.35,54.70,81.05,54.70,81.40,54.10,82.10,54.10,82.45,54.70,82.10,55.31,81.40,55.31,81.05,55.92,81.40,56.52,81.05,57.13,80.35,57.13,80.00,56.52,79.30,56.52,78.95,57.13,79.30,57.74,80.00,57.74,80.35,58.34,80.00,58.95,79.30,58.95,78.95,59.55,79.30,60.16,78.95,60.77,78.25,60.77,77.90,60.16,78.25,59.55,77.90,58.95,77.20,58.95,76.85,59.55,76.15,59.55,75.80,58.95,75.10,58.95,74.75,59.55,75.10,60.16,75.80,60.16,76.15,60.77,75.80,61.37,76.15,61.98,76.85,61.98,77.20,61.37,77.90,61.37,78.25,61.98,77.90,62.59,77.20,62.59,76.85,63.19,77.20,63.80,76.85,64.40,76.15,64.40,75.80,63.80,75.10,63.80,74.75,64.40,75.10,65.01,75.80,65.01,76.15,65.62,75.80,66.22,75.10,66.22,74.75,66.83,75.10,67.44,74.75,68.04,74.05,68.04,73.70,67.44,74.05,66.83,73.70,66.22,73.00,66.22,72.65,65.62,73.00,65.01,73.70,65.01,74.05,64.40,73.70,63.80,73.00,63.80,72.65,64.40,71.95,64.40,71.60,63.80,70.90,63.80,70.55,64.40,70.90,65.01,70.55,65.62,69.85,65.62,69.50,65.01,69.85,64.40,69.50,63.80,68.80,63.80,68.45,64.40,67.75,64.40,67.40,63.80,66.70,63.80,66.35,64.40,66.70,65.01,67.40,65.01,67.75,65.62,67.40,66.22,67.75,66.83,68.45,66.83,68.80,66.22,69.50,66.22,69.85,66.83,69.50,67.44,68.80,67.44,68.45,68.04,68.80,68.65,69.50,68.65,69.85,69.25,69.50,69.86,69.85,70.47,70.55,70.47,70.90,69.86,70.55,69.25,70.90,68.65,71.60,68.65,71.95,69.25,72.65,69.25,73.00,68.65,73.70,68.65,74.05,69.25,73.70,69.86,73.00,69.86,72.65,70.47,73.00,71.07,72.65,71.68,71.95,71.68,71.60,71.07,70.90,71.07,70.55,71.68,70.90,72.28,71.60,72.28,71.95,72.89,71.60,73.50,70.90,73.50,70.55,74.10,70.90,74.71,70.55,75.32,69.85,75.32,69.50,74.71,69.85,74.10,69.50,73.50,68.80,73.50,68.45,74.10,67.75,74.10,67.40,73.50,66.70,73.50,66.35,74.10,66.70,74.71,67.40,74.71,67.75,75.32,67.40,75.92,67.75,76.53,68.45,76.53,68.80,75.92,69.50,75.92,69.85,76.53,69.50,77.13,68.80,77.13,68.45,77.74,68.80,78.35,68.45,78.95,67.75,78.95,67.40,78.35,66.70,78.35,66.35,78.95,66.70,79.56,67.40,79.56,67.75,80.17,67.40,80.77,66.70,80.77,66.35,81.38,66.70,81.98,66.35,82.59,65.65,82.59,65.30,81.98,65.65,81.38,65.30,80.77,64.60,80.77,64.25,80.17,64.60,79.56,65.30,79.56,65.65,78.95,65.30,78.35,64.60,78.35,64.25,78.95,63.55,78.95,63.20,78.35,63.55,77.74,63.20,77.13,62.50,77.13,62.15,76.53,62.50,75.92,63.20,75.92,63.55,76.53,64.25,76.53,64.60,75.92,64.25,75.32,64.60,74.71,65.30,74.71,65.65,74.10,65.30,73.50,64.60,73.50,64.25,74.10,63.55,74.10,63.20,73.50,62.50,73.50,62.15,74.10,62.50,74.71,62.15,75.32,61.45,75.32,61.10,74.71,61.45,74.10,61.10,73.50,60.40,73.50,60.05,72.89,60.40,72.28,61.10,72.28,61.45,71.68,61.10,71.07,60.40,71.07,60.05,71.68,59.35,71.68,59.00,71.07,59.35,70.47,59.00,69.86,58.30,69.86,57.95,69.25,58.30,68.65,59.00,68.65,59.35,69.25,60.05,69.25,60.40,68.65,61.10,68.65,61.45,69.25,61.10,69.86,61.45,70.47,62.15,70.47,62.50,69.86,62.15,69.25,62.50,68.65,63.20,68.65,63.55,68.04,63.20,67.44,62.50,67.44,62.15,66.83,62.50,66.22,63.20,66.22,63.55,66.83,64.25,66.83,64.60,66.22,64.25,65.62,64.60,65.01,65.30,65.01,65.65,64.40,65.30,63.80,64.60,63.80,64.25,64.40,63.55,64.40,63.20,63.80,62.50,63.80,62.15,64.40,62.50,65.01,62.15,65.62,61.45,65.62,61.10,65.01,61.45,64.40,61.10,63.80,60.40,63.80,60.05,64.40,59.35,64.40,59.00,63.80,58.30,63.80,57.95,64.40,58.30,65.01,59.00,65.01,59.35,65.62,59.00,66.22,58.30,66.22,57.95,66.83,58.30,67.44,57.95,68.04,57.25,68.04,56.90,67.44,57.25,66.83,56.90,66.22,56.20,66.22,55.85,65.62,56.20,65.01,56.90,65.01,57.25,64.40,56.90,63.80,56.20,63.80,55.85,64.40,55.15,64.40,54.80,63.80,54.10,63.80,53.75,64.40,54.10,65.01,53.75,65.62,53.05,65.62,52.70,65.01,53.05,64.40,52.70,63.80,52.00,63.80,51.65,64.40,50.95,64.40,50.60,63.80,49.90,63.80,49.55,64.40,49.90,65.01,50.60,65.01,50.95,65.62,50.60,66.22,50.95,66.83,51.65,66.83,52.00,66.22,52.70,66.22,53.05,66.83,52.70,67.44,52.00,67.44,51.65,68.04,52.00,68.65,51.65,69.25,50.95,69.25,50.60,68.65,49.90,68.65,49.55,69.25,49.90,69.86,50.60,69.86,50.95,70.47,50.60,71.07,49.90,71.07,49.55,71.68,49.90,72.28,49.55,72.89,48.85,72.89,48.50,72.28,48.85,71.68,48.50,71.07,47.80,71.07,47.45,70.47,47.80,69.86,48.50,69.86,48.85,69.25,48.50,68.65,47.80,68.65,47.45,69.25,46.75,69.25,46.40,68.65,46.75,68.04,46.40,67.44,45.70,67.44,45.35,66.83,45.70,66.22,46.40,66.22,46.75,66.83,47.45,66.83,47.80,66.22,47.45,65.62,47.80,65.01,48.50,65.01,48.85,64.40,48.50,63.80,47.80,63.80,47.45,64.40,46.75,64.40,46.40,63.80,45.70,63.80,45.35,64.40,45.70,65.01,45.35,65.62,44.65,65.62,44.30,65.01,44.65,64.40,44.30,63.80,43.60,63.80,43.25,64.40,42.55,64.40,42.20,63.80,41.50,63.80,41.15,64.40,41.50,65.01,42.20,65.01,42.55,65.62,42.20,66.22,41.50,66.22,41.15,66.83,41.50,67.44,41.15,68.04,40.45,68.04,40.10,67.44,40.45,66.83,40.10,66.22,39.40,66.22,39.05,65.62,39.40,65.01,40.10,65.01,40.45,64.40,40.10,63.80,39.40,63.80,39.05,64.40,38.35,64.40,38.00,63.80,37.30,63.80,36.95,64.40,37.30,65.01,36.95,65.62,36.25,65.62,35.90,65.01,36.25,64.40,35.90,63.80,35.20,63.80,34.85,64.40,34.15,64.40,33.80,63.80,33.10,63.80,32.75,64.40,33.10,65.01,33.80,65.01,34.15,65.62,33.80,66.22,34.15,66.83,34.85,66.83,35.20,66.22,35.90,66.22,36.25,66.83,35.90,67.44,35.20,67.44,34.85,68.04,35.20,68.65,35.90,68.65,36.25,69.25,35.90,69.86,36.25,70.47,36.95,70.47,37.30,69.86,36.95,69.25,37.30,68.65,38.00,68.65,38.35,69.25,39.05,69.25,39.40,68.65,40.10,68.65,40.45,69.25,40.10,69.86,39.40,69.86,39.05,70.47,39.40,71.07,39.05,71.68,38.35,71.68,38.00,71.07,37.30,71.07,36.95,71.68,37.30,72.28,38.00,72.28,38.35,72.89,38.00,73.50,38.35,74.10,39.05,74.10,39.40,73.50,40.10,73.50,40.45,74.10,40.10,74.71,39.40,74.71,39.05,75.32,39.40,75.92,40.10,75.92,40.45,76.53,40.10,77.13,40.45,77.74,41.15,77.74,41.50,77.13,41.15,76.53,41.50,75.92,42.20,75.92,42.55,75.32,42.20,74.71,41.50,74.71,41.15,74.10,41.50,73.50,42.20,73.50,42.55,74.10,43.25,74.10,43.60,73.50,44.30,73.50,44.65,74.10,44.30,74.71,44.65,75.32,45.35,75.32,45.70,74.71,45.35,74.10,45.70,73.50,46.40,73.50,46.75,74.10,47.45,74.10,47.80,73.50,48.50,73.50,48.85,74.10,48.50,74.71,47.80,74.71,47.45,75.32,47.80,75.92,47.45,76.53,46.75,76.53,46.40,75.92,45.70,75.92,45.35,76.53,45.70,77.13,46.40,77.13,46.75,77.74,46.40,78.35,45.70,78.35,45.35,78.95,45.70,79.56,45.35,80.17,44.65,80.17,44.30,79.56,44.65,78.95,44.30,78.35,43.60,78.35,43.25,78.95,42.55,78.95,42.20,78.35,41.50,78.35,41.15,78.95,41.50,79.56,42.20,79.56,42.55,80.17,42.20,80.77,42.55,81.38,43.25,81.38,43.60,80.77,44.30,80.77,44.65,81.38,44.30,81.98,43.60,81.98,43.25,82.59,43.60,83.20,44.30,83.20,44.65,83.80,44.30,84.41,44.65,85.02,45.35,85.02,45.70,84.41,45.35,83.80,45.70,83.20,46.40,83.20,46.75,83.80,47.45,83.80,47.80,83.20,48.50,83.20,48.85,83.80,48.50,84.41,47.80,84.41,47.45,85.02,47.80,85.62,47.45,86.23,46.75,86.23,46.40,85.62,45.70,85.62,45.35,86.23,45.70,86.83,46.40,86.83,46.75,87.44,46.40,88.05,46.75,88.65,47.45,88.65,47.80,88.05,48.50,88.05,48.85,88.65,48.50,89.26,47.80,89.26,47.45,89.87,47.80,90.47,48.50,90.47,48.85,91.08,48.50,91.68,48.85,92.29,49.55,92.29,49.90,91.68,49.55,91.08,49.90,90.47,50.60,90.47,50.95,89.87,50.60,89.26,49.90,89.26,49.55,88.65,49.90,88.05,50.60,88.05,50.95,88.65,51.65,88.65,52.00,88.05,51.65,87.44,52.00,86.83,52.70,86.83,53.05,86.23,52.70,85.62,52.00,85.62,51.65,86.23,50.95,86.23,50.60,85.62,50.95,85.02,50.60,84.41,49.90,84.41,49.55,83.80,49.90,83.20,50.60,83.20,50.95,83.80,51.65,83.80,52.00,83.20,52.70,83.20,53.05,83.80,52.70,84.41,53.05,85.02,53.75,85.02,54.10,84.41,53.75,83.80,54.10,83.20,54.80,83.20,55.15,83.80,55.85,83.80,56.20,83.20,56.90,83.20,57.25,83.80,56.90,84.41,56.20,84.41,55.85,85.02,56.20,85.62,56.90,85.62,57.25,86.23,56.90,86.83,57.25,87.44,57.95,87.44,58.30,86.83,57.95,86.23,58.30,85.62,59.00,85.62,59.35,85.02,59.00,84.41,58.30,84.41,57.95,83.80,58.30,83.20,59.00,83.20,59.35,83.80,60.05,83.80,60.40,83.20,61.10,83.20,61.45,83.80,61.10,84.41,61.45,85.02,62.15,85.02,62.50,84.41,62.15,83.80,62.50,83.20,63.20,83.20,63.55,83.80,64.25,83.80,64.60,83.20,65.30,83.20,65.65,83.80,65.30,84.41,64.60,84.41,64.25,85.02,64.60,85.62,64.25,86.23,63.55,86.23,63.20,85.62,62.50,85.62,62.15,86.23,62.50,86.83,63.20,86.83,63.55,87.44,63.20,88.05,62.50,88.05,62.15,88.65,62.50,89.26,62.15,89.87,61.45,89.87,61.10,89.26,61.45,88.65,61.10,88.05,60.40,88.05,60.05,88.65,59.35,88.65,59.00,88.05,58.30,88.05,57.95,88.65,58.30,89.26,59.00,89.26,59.35,89.87,59.00,90.47,59.35,91.08,60.05,91.08,60.40,90.47,61.10,90.47,61.45,91.08,61.10,91.68,60.40,91.68,60.05,92.29,60.40,92.90,60.05,93.50,59.35,93.50,59.00,92.90,58.30,92.90,57.95,93.50,58.30,94.11,59.00,94.11,59.35,94.72,59.00,95.32,58.30,95.32,57.95,95.93,58.30,96.53,57.95,97.14,57.25,97.14,56.90,96.53,57.25,95.93,56.90,95.32,56.20,95.32,55.85,94.72,56.20,94.11,56.90,94.11,57.25,93.50,56.90,92.90,56.20,92.90,55.85,93.50,55.15,93.50,54.80,92.90,54.10,92.90,53.75,93.50,54.10,94.11,53.75,94.72,53.05,94.72,52.70,94.11,53.05,93.50,52.70,92.90,52.00,92.90,51.65,93.50,50.95,93.50,50.60,92.90,49.90,92.90,49.55,93.50,49.90,94.11,50.60,94.11,50.95,94.72,50.60,95.32,50.95,95.93,51.65,95.93,52.00,95.32,52.70,95.32,53.05,95.93,52.70,96.53,52.00,96.53,51.65,97.14,52.00,97.75,52.70,97.75,53.05,98.35,52.70,98.96,53.05,99.56,53.75,99.56,54.10,98.96,53.75,98.35,54.10,97.75,54.80,97.75,55.15,98.35,55.85,98.35,56.20,97.75,56.90,97.75,57.25,98.35,56.90,98.96,56.20,98.96,55.85,99.56,56.20,100.17,55.85,100.78,55.15,100.78,54.80,100.17,54.10,100.17,53.75,100.78,54.10,101.38,54.80,101.38,55.15,101.99,54.80,102.60,55.15,103.20,55.85,103.20,56.20,102.60,56.90,102.60,57.25,103.20,56.90,103.81,56.20,103.81,55.85,104.41,56.20,105.02,56.90,105.02,57.25,105.63,56.90,106.23,57.25,106.84,57.95,106.84,58.30,106.23,57.95,105.63,58.30,105.02,59.00,105.02,59.35,104.41,59.00,103.81,58.30,103.81,57.95,103.20,58.30,102.60,59.00,102.60,59.35,103.20,60.05,103.20,60.40,102.60,61.10,102.60,61.45,103.20,61.10,103.81,61.45,104.41,62.15,104.41,62.50,103.81,62.15,103.20,62.50,102.60,63.20,102.60,63.55,103.20,64.25,103.20,64.60,102.60,65.30,102.60,65.65,103.20,65.30,103.81,64.60,103.81,64.25,104.41,64.60,105.02,64.25,105.63,63.55,105.63,63.20,105.02,62.50,105.02,62.15,105.63,62.50,106.23,63.20,106.23,63.55,106.84,63.20,107.45,62.50,107.45,62.15,108.05,62.50,108.66,62.15,109.26,61.45,109.26,61.10,108.66,61.45,108.05,61.10,107.45,60.40,107.45,60.05,108.05,59.35,108.05,59.00,107.45,58.30,107.45,57.95,108.05,58.30,108.66,59.00,108.66,59.35,109.26,59.00,109.87,59.35,110.48,60.05,110.48,60.40,109.87,61.10,109.87,61.45,110.48,61.10,111.08,60.40,111.08,60.05,111.69,60.40,112.30,61.10,112.30,61.45,112.90,61.10,113.51,61.45,114.11,62.15,114.11,62.50,113.51,62.15,112.90,62.50,112.30,63.20,112.30,63.55,112.90,64.25,112.90,64.60,112.30,65.30,112.30,65.65,112.90,65.30,113.51,64.60,113.51,64.25,114.11,64.60,114.72,64.25,115.33,63.55,115.33,63.20,114.72,62.50,114.72,62.15,115.33,62.50,115.93,63.20,115.93,63.55,116.54,63.20,117.15,63.55,117.75,64.25,117.75,64.60,117.15,65.30,117.15,65.65,117.75,65.30,118.36,64.60,118.36,64.25,118.96,64.60,119.57,65.30,119.57,65.65,120.18,65.30,120.78,65.65,121.39,66.35,121.39,66.70,120.78,66.35,120.18,66.70,119.57,67.40,119.57,67.75,118.96,67.40,118.36,66.70,118.36,66.35,117.75,66.70,117.15,67.40,117.15,67.75,117.75,68.45,117.75,68.80,117.15,68.45,116.54,68.80,115.93,69.50,115.93,69.85,115.33,69.50,114.72,68.80,114.72,68.45,115.33,67.75,115.33,67.40,114.72,67.75,114.11,67.40,113.51,66.70,113.51,66.35,112.90,66.70,112.30,67.40,112.30,67.75,112.90,68.45,112.90,68.80,112.30,69.50,112.30,69.85,112.90,69.50,113.51,69.85,114.11,70.55,114.11,70.90,113.51,70.55,112.90,70.90,112.30,71.60,112.30,71.95,111.69,71.60,111.08,70.90,111.08,70.55,110.48,70.90,109.87,71.60,109.87,71.95,110.48,72.65,110.48,73.00,109.87,72.65,109.26,73.00,108.66,73.70,108.66,74.05,108.05,73.70,107.45,73.00,107.45,72.65,108.05,71.95,108.05,71.60,107.45,70.90,107.45,70.55,108.05,70.90,108.66,70.55,109.26,69.85,109.26,69.50,108.66,69.85,108.05,69.50,107.45,68.80,107.45,68.45,106.84,68.80,106.23,69.50,106.23,69.85,105.63,69.50,105.02,68.80,105.02,68.45,105.63,67.75,105.63,67.40,105.02,67.75,104.41,67.40,103.81,66.70,103.81,66.35,103.20,66.70,102.60,67.40,102.60,67.75,103.20,68.45,103.20,68.80,102.60,69.50,102.60,69.85,103.20,69.50,103.81,69.85,104.41,70.55,104.41,70.90,103.81,70.55,103.20,70.90,102.60,71.60,102.60,71.95,103.20,72.65,103.20,73.00,102.60,73.70,102.60,74.05,103.20,73.70,103.81,73.00,103.81,72.65,104.41,73.00,105.02,73.70,105.02,74.05,105.63,73.70,106.23,74.05,106.84,74.75,106.84,75.10,106.23,74.75,105.63,75.10,105.02,75.80,105.02,76.15,104.41,75.80,103.81,75.10,103.81,74.75,103.20,75.10,102.60,75.80,102.60,76.15,103.20,76.85,103.20,77.20,102.60,77.90,102.60,78.25,103.20,77.90,103.81,78.25,104.41,78.95,104.41,79.30,103.81,78.95,103.20,79.30,102.60,80.00,102.60,80.35,103.20,81.05,103.20,81.40,102.60,82.10,102.60,82.45,103.20,82.10,103.81,81.40,103.81,81.05,104.41,81.40,105.02,81.05,105.63,80.35,105.63,80.00,105.02,79.30,105.02,78.95,105.63,79.30,106.23,80.00,106.23,80.35,106.84,80.00,107.45,80.35,108.05,81.05,108.05,81.40,107.45,82.10,107.45,82.45,108.05,82.10,108.66,81.40,108.66,81.05,109.26,81.40,109.87,82.10,109.87,82.45,110.48,82.10,111.08,82.45,111.69,83.15,111.69,83.50,111.08,83.15,110.48,83.50,109.87,84.20,109.87,84.55,109.26,84.20,108.66,83.50,108.66,83.15,108.05,83.50,107.45,84.20,107.45,84.55,108.05,85.25,108.05,85.60,107.45,85.25,106.84,85.60,106.23,86.30,106.23,86.65,105.63,86.30,105.02,85.60,105.02,85.25,105.63,84.55,105.63,84.20,105.02,84.55,104.41,84.20,103.81,83.50,103.81,83.15,103.20,83.50,102.60,84.20,102.60,84.55,103.20,85.25,103.20,85.60,102.60,86.30,102.60,86.65,103.20,86.30,103.81,86.65,104.41,87.35,104.41,87.70,103.81,87.35,103.20,87.70,102.60,88.40,102.60,88.75,103.20,89.45,103.20,89.80,102.60,90.50,102.60,90.85,103.20,90.50,103.81,89.80,103.81,89.45,104.41,89.80,105.02,90.50,105.02,90.85,105.63,90.50,106.23,90.85,106.84,91.55,106.84,91.90,106.23,91.55,105.63,91.90,105.02,92.60,105.02,92.95,104.41,92.60,103.81,91.90,103.81,91.55,103.20,91.90,102.60,92.60,102.60,92.95,103.20,93.65,103.20,94.00,102.60,94.70,102.60,95.05,103.20,94.70,103.81,95.05,104.41,95.75,104.41,96.10,103.81,95.75,103.20,96.10,102.60,96.80,102.60,97.15,103.20,97.85,103.20,98.20,102.60,98.90,102.60,99.25,103.20,98.90,103.81,98.20,103.81,97.85,104.41,98.20,105.02,97.85,105.63,97.15,105.63,96.80,105.02,96.10,105.02,95.75,105.63,96.10,106.23,96.80,106.23,97.15,106.84,96.80,107.45,96.10,107.45,95.75,108.05,96.10,108.66,95.75,109.26,95.05,109.26,94.70,108.66,95.05,108.05,94.70,107.45,94.00,107.45,93.65,108.05,92.95,108.05,92.60,107.45,91.90,107.45,91.55,108.05,91.90,108.66,92.60,108.66,92.95,109.26,92.60,109.87,92.95,110.48,93.65,110.48,94.00,109.87,94.70,109.87,95.05,110.48,94.70,111.08,94.00,111.08,93.65,111.69,94.00,112.30,93.65,112.90,92.95,112.90,92.60,112.30,91.90,112.30,91.55,112.90,91.90,113.51,92.60,113.51,92.95,114.11,92.60,114.72,91.90,114.72,91.55,115.33,91.90,115.93,91.55,116.54,90.85,116.54,90.50,115.93,90.85,115.33,90.50,114.72,89.80,114.72,89.45,114.11,89.80,113.51,90.50,113.51,90.85,112.90,90.50,112.30,89.80,112.30,89.45,112.90,88.75,112.90,88.40,112.30,87.70,112.30,87.35,112.90,87.70,113.51,87.35,114.11,86.65,114.11,86.30,113.51,86.65,112.90,86.30,112.30,85.60,112.30,85.25,112.90,84.55,112.90,84.20,112.30,83.50,112.30,83.15,112.90,83.50,113.51,84.20,113.51,84.55,114.11,84.20,114.72,84.55,115.33,85.25,115.33,85.60,114.72,86.30,114.72,86.65,115.33,86.30,115.93,85.60,115.93,85.25,116.54,85.60,117.15,86.30,117.15,86.65,117.75,86.30,118.36,86.65,118.96,87.35,118.96,87.70,118.36,87.35,117.75,87.70,117.15,88.40,117.15,88.75,117.75,89.45,117.75,89.80,117.15,90.50,117.15,90.85,117.75,90.50,118.36,89.80,118.36,89.45,118.96,89.80,119.57,89.45,120.18,88.75,120.18,88.40,119.57,87.70,119.57,87.35,120.18,87.70,120.78,88.40,120.78,88.75,121.39,88.40,121.99,87.70,121.99,87.35,122.60,87.70,123.21,87.35,123.81,86.65,123.81,86.30,123.21,86.65,122.60,86.30,121.99,85.60,121.99,85.25,122.60,84.55,122.60,84.20,121.99,83.50,121.99,83.15,122.60,83.50,123.21,84.20,123.21,84.55,123.81,84.20,124.42,84.55,125.03,85.25,125.03,85.60,124.42,86.30,124.42,86.65,125.03,86.30,125.63,85.60,125.63,85.25,126.24,85.60,126.84,85.25,127.45,84.55,127.45,84.20,126.84,83.50,126.84,83.15,127.45,83.50,128.06,84.20,128.06,84.55,128.66,84.20,129.27,83.50,129.27,83.15,129.88,83.50,130.48,83.15,131.09,82.45,131.09,82.10,130.48,82.45,129.88,82.10,129.27,81.40,129.27,81.05,128.66,81.40,128.06,82.10,128.06,82.45,127.45,82.10,126.84,81.40,126.84,81.05,127.45,80.35,127.45,80.00,126.84,80.35,126.24,80.00,125.63,79.30,125.63,78.95,125.03,79.30,124.42,80.00,124.42,80.35,125.03,81.05,125.03,81.40,124.42,81.05,123.81,81.40,123.21,82.10,123.21,82.45,122.60,82.10,121.99,81.40,121.99,81.05,122.60,80.35,122.60,80.00,121.99,79.30,121.99,78.95,122.60,79.30,123.21,78.95,123.81,78.25,123.81,77.90,123.21,78.25,122.60,77.90,121.99,77.20,121.99,76.85,122.60,76.15,122.60,75.80,121.99,75.10,121.99,74.75,122.60,75.10,123.21,75.80,123.21,76.15,123.81,75.80,124.42,75.10,124.42,74.75,125.03,75.10,125.63,74.75,126.24,74.05,126.24,73.70,125.63,74.05,125.03,73.70,124.42,73.00,124.42,72.65,123.81,73.00,123.21,73.70,123.21,74.05,122.60,73.70,121.99,73.00,121.99,72.65,122.60,71.95,122.60,71.60,121.99,70.90,121.99,70.55,122.60,70.90,123.21,70.55,123.81,69.85,123.81,69.50,123.21,69.85,122.60,69.50,121.99,68.80,121.99,68.45,122.60,67.75,122.60,67.40,121.99,66.70,121.99,66.35,122.60,66.70,123.21,67.40,123.21,67.75,123.81,67.40,124.42,67.75,125.03,68.45,125.03,68.80,124.42,69.50,124.42,69.85,125.03,69.50,125.63,68.80,125.63,68.45,126.24,68.80,126.84,69.50,126.84,69.85,127.45,69.50,128.06,69.85,128.66,70.55,128.66,70.90,128.06,70.55,127.45,70.90,126.84,71.60,126.84,71.95,127.45,72.65,127.45,73.00,126.84,73.70,126.84,74.05,127.45,73.70,128.06,73.00,128.06,72.65,128.66,73.00,129.27,72.65,129.88,71.95,129.88,71.60,129.27,70.90,129.27,70.55,129.88,70.90,130.48,71.60,130.48,71.95,131.09,71.60,131.69,71.95,132.30,72.65,132.30,73.00,131.69,73.70,131.69,74.05,132.30,73.70,132.91,73.00,132.91,72.65,133.51,73.00,134.12,73.70,134.12,74.05,134.73,73.70,135.33,74.05,135.94,74.75,135.94,75.10,135.33,74.75,134.73,75.10,134.12,75.80,134.12,76.15,133.51,75.80,132.91,75.10,132.91,74.75,132.30,75.10,131.69,75.80,131.69,76.15,132.30,76.85,132.30,77.20,131.69,77.90,131.69,78.25,132.30,77.90,132.91,78.25,133.51,78.95,133.51,79.30,132.91,78.95,132.30,79.30,131.69,80.00,131.69,80.35,132.30,81.05,132.30,81.40,131.69,82.10,131.69,82.45,132.30,82.10,132.91,81.40,132.91,81.05,133.51,81.40,134.12,81.05,134.73,80.35,134.73,80.00,134.12,79.30,134.12,78.95,134.73,79.30,135.33,80.00,135.33,80.35,135.94,80.00,136.54,79.30,136.54,78.95,137.15,79.30,137.76,78.95,138.36,78.25,138.36,77.90,137.76,78.25,137.15,77.90,136.54,77.20,136.54,76.85,137.15,76.15,137.15,75.80,136.54,75.10,136.54,74.75,137.15,75.10,137.76,75.80,137.76,76.15,138.36,75.80,138.97,76.15,139.58,76.85,139.58,77.20,138.97,77.90,138.97,78.25,139.58,77.90,140.18,77.20,140.18,76.85,140.79,77.20,141.39,77.90,141.39,78.25,142.00,77.90,142.61,78.25,143.21,78.95,143.21,79.30,142.61,78.95,142.00,79.30,141.39,80.00,141.39,80.35,142.00,81.05,142.00,81.40,141.39,82.10,141.39,82.45,142.00,82.10,142.61,81.40,142.61,81.05,143.21,81.40,143.82,81.05,144.42,80.35,144.42,80.00,143.82,79.30,143.82,78.95,144.42,79.30,145.03,80.00,145.03,80.35,145.64,80.00,146.24,80.35,146.85,81.05,146.85,81.40,146.24,82.10,146.24,82.45,146.85,82.10,147.46,81.40,147.46,81.05,148.06,81.40,148.67,82.10,148.67,82.45,149.27,82.10,149.88,82.45,150.49,83.15,150.49,83.50,149.88,83.15,149.27,83.50,148.67,84.20,148.67,84.55,148.06,84.20,147.46,83.50,147.46,83.15,146.85,83.50,146.24,84.20,146.24,84.55,146.85,85.25,146.85,85.60,146.24,85.25,145.64,85.60,145.03,86.30,145.03,86.65,144.42,86.30,143.82,85.60,143.82,85.25,144.42,84.55,144.42,84.20,143.82,84.55,143.21,84.20,142.61,83.50,142.61,83.15,142.00,83.50,141.39,84.20,141.39,84.55,142.00,85.25,142.00,85.60,141.39,86.30,141.39,86.65,142.00,86.30,142.61,86.65,143.21,87.35,143.21,87.70,142.61,87.35,142.00,87.70,141.39,88.40,141.39,88.75,142.00,89.45,142.00,89.80,141.39,90.50,141.39,90.85,142.00,90.50,142.61,89.80,142.61,89.45,143.21,89.80,143.82,90.50,143.82,90.85,144.42,90.50,145.03,90.85,145.64,91.55,145.64,91.90,145.03,91.55,144.42,91.90,143.82,92.60,143.82,92.95,143.21,92.60,142.61,91.90,142.61,91.55,142.00,91.90,141.39,92.60,141.39,92.95,142.00,93.65,142.00,94.00,141.39,94.70,141.39,95.05,142.00,94.70,142.61,95.05,143.21,95.75,143.21,96.10,142.61,95.75,142.00,96.10,141.39,96.80,141.39,97.15,142.00,97.85,142.00,98.20,141.39,98.90,141.39,99.25,142.00,98.90,142.61,98.20,142.61,97.85,143.21,98.20,143.82,97.85,144.42,97.15,144.42,96.80,143.82,96.10,143.82,95.75,144.42,96.10,145.03,96.80,145.03,97.15,145.64,96.80,146.24,96.10,146.24,95.75,146.85,96.10,147.46,95.75,148.06,95.05,148.06,94.70,147.46,95.05,146.85,94.70,146.24,94.00,146.24,93.65,146.85,92.95,146.85,92.60,146.24,91.90,146.24,91.55,146.85,91.90,147.46,92.60,147.46,92.95,148.06,92.60,148.67,92.95,149.27,93.65,149.27,94.00,148.67,94.70,148.67,95.05,149.27,94.70,149.88,94.00,149.88,93.65,150.49,94.00,151.09,93.65,151.70,92.95,151.70,92.60,151.09,91.90,151.09,91.55,151.70,91.90,152.31,92.60,152.31,92.95,152.91,92.60,153.52,91.90,153.52,91.55,154.12,91.90,154.73,91.55,155.34,90.85,155.34,90.50,154.73,90.85,154.12,90.50,153.52,89.80,153.52,89.45,152.91,89.80,152.31,90.50,152.31,90.85,151.70,90.50,151.09,89.80,151.09,89.45,151.70,88.75,151.70,88.40,151.09,87.70,151.09,87.35,151.70,87.70,152.31,87.35,152.91,86.65,152.91,86.30,152.31,86.65,151.70,86.30,151.09,85.60,151.09,85.25,151.70,84.55,151.70,84.20,151.09,83.50,151.09,83.15,151.70,83.50,152.31,84.20,152.31,84.55,152.91,84.20,153.52,84.55,154.12,85.25,154.12,85.60,153.52,86.30,153.52,86.65,154.12,86.30,154.73,85.60,154.73,85.25,155.34,85.60,155.94,86.30,155.94,86.65,156.55,86.30,157.16,86.65,157.76,87.35,157.76,87.70,157.16,87.35,156.55,87.70,155.94,88.40,155.94,88.75,156.55,89.45,156.55,89.80,155.94,90.50,155.94,90.85,156.55,90.50,157.16,89.80,157.16,89.45,157.76,89.80,158.37,89.45,158.97,88.75,158.97,88.40,158.37,87.70,158.37,87.35,158.97,87.70,159.58,88.40,159.58,88.75,160.19,88.40,160.79,88.75,161.40,89.45,161.40,89.80,160.79,90.50,160.79,90.85,161.40,90.50,162.01,89.80,162.01,89.45,162.61,89.80,163.22,90.50,163.22,90.85,163.82,90.50,164.43,90.85,165.04,91.55,165.04,91.90,164.43,91.55,163.82,91.90,163.22,92.60,163.22,92.95,162.61,92.60,162.01,91.90,162.01,91.55,161.40,91.90,160.79,92.60,160.79,92.95,161.40,93.65,161.40,94.00,160.79,94.70,160.79,95.05,161.40,94.70,162.01,95.05,162.61,95.75,162.61,96.10,162.01,95.75,161.40,96.10,160.79,96.80,160.79,97.15,161.40,97.85,161.40,98.20,160.79,98.90,160.79,99.25,161.40,98.90,162.01,98.20,162.01,97.85,162.61,98.20,163.22,97.85,163.82,97.15,163.82,96.80,163.22,96.10,163.22,95.75,163.82,96.10,164.43,96.80,164.43,97.15,165.04,96.80,165.64,96.10,165.64,95.75,166.25,96.10,166.85,95.75,167.46,95.05,167.46,94.70,166.85,95.05,166.25,94.70,165.64,94.00,165.64,93.65,166.25,92.95,166.25,92.60,165.64,91.90,165.64,91.55,166.25,91.90,166.85,92.60,166.85,92.95,167.46,92.60,168.07,92.95,168.67,93.65,168.67,94.00,168.07,94.70,168.07,95.05,168.67,94.70,169.28,94.00,169.28,93.65,169.89,94.00,170.49,94.70,170.49,95.05,171.10,94.70,171.70,95.05,172.31,95.75,172.31,96.10,171.70,95.75,171.10,96.10,170.49,96.80,170.49,97.15,171.10,97.85,171.10,98.20,170.49,98.90,170.49,99.25,171.10,98.90,171.70,98.20,171.70,97.85,172.31,98.20,172.92,97.85,173.52,97.15,173.52,96.80,172.92,96.10,172.92,95.75,173.52,96.10,174.13,96.80,174.13,97.15,174.74,96.80,175.34,97.15,175.95,97.85,175.95,98.20,175.34,98.90,175.34,99.25,175.95,98.90,176.55,98.20,176.55,97.85,177.16,98.20,177.77,98.90,177.77,99.25,178.37,98.90,178.98,99.25,179.59,99.95,179.59,100.30,178.98,99.95,178.37,100.30,177.77,101.00,177.77,101.35,177.16,101.00,176.55,100.30,176.55,99.95,175.95,100.30,175.34,101.00,175.34,101.35,175.95,102.05,175.95,102.40,175.34,102.05,174.74,102.40,174.13,103.10,174.13,103.45,173.52,103.10,172.92,102.40,172.92,102.05,173.52,101.35,173.52,101.00,172.92,101.35,172.31,101.00,171.70,100.30,171.70,99.95,171.10,100.30,170.49,101.00,170.49,101.35,171.10,102.05,171.10,102.40,170.49,103.10,170.49,103.45,171.10,103.10,171.70,103.45,172.31,104.15,172.31,104.50,171.70,104.15,171.10,104.50,170.49,105.20,170.49,105.55,169.89,105.20,169.28,104.50,169.28,104.15,168.67,104.50,168.07,105.20,168.07,105.55,168.67,106.25,168.67,106.60,168.07,106.25,167.46,106.60,166.85,107.30,166.85,107.65,166.25,107.30,165.64,106.60,165.64,106.25,166.25,105.55,166.25,105.20,165.64,104.50,165.64,104.15,166.25,104.50,166.85,104.15,167.46,103.45,167.46,103.10,166.85,103.45,166.25,103.10,165.64,102.40,165.64,102.05,165.04,102.40,164.43,103.10,164.43,103.45,163.82,103.10,163.22,102.40,163.22,102.05,163.82,101.35,163.82,101.00,163.22,101.35,162.61,101.00,162.01,100.30,162.01,99.95,161.40,100.30,160.79,101.00,160.79,101.35,161.40,102.05,161.40,102.40,160.79,103.10,160.79,103.45,161.40,103.10,162.01,103.45,162.61,104.15,162.61,104.50,162.01,104.15,161.40,104.50,160.79,105.20,160.79,105.55,161.40,106.25,161.40,106.60,160.79,107.30,160.79,107.65,161.40,107.30,162.01,106.60,162.01,106.25,162.61,106.60,163.22,107.30,163.22,107.65,163.82,107.30,164.43,107.65,165.04,108.35,165.04,108.70,164.43,108.35,163.82,108.70,163.22,109.40,163.22,109.75,162.61,109.40,162.01,108.70,162.01,108.35,161.40,108.70,160.79,109.40,160.79,109.75,161.40,110.45,161.40,110.80,160.79,110.45,160.19,110.80,159.58,111.50,159.58,111.85,158.97,111.50,158.37,110.80,158.37,110.45,158.97,109.75,158.97,109.40,158.37,109.75,157.76,109.40,157.16,108.70,157.16,108.35,156.55,108.70,155.94,109.40,155.94,109.75,156.55,110.45,156.55,110.80,155.94,111.50,155.94,111.85,156.55,111.50,157.16,111.85,157.76,112.55,157.76,112.90,157.16,112.55,156.55,112.90,155.94,113.60,155.94,113.95,155.34,113.60,154.73,112.90,154.73,112.55,154.12,112.90,153.52,113.60,153.52,113.95,154.12,114.65,154.12,115.00,153.52,114.65,152.91,115.00,152.31,115.70,152.31,116.05,151.70,115.70,151.09,115.00,151.09,114.65,151.70,113.95,151.70,113.60,151.09,112.90,151.09,112.55,151.70,112.90,152.31,112.55,152.91,111.85,152.91,111.50,152.31,111.85,151.70,111.50,151.09,110.80,151.09,110.45,151.70,109.75,151.70,109.40,151.09,108.70,151.09,108.35,151.70,108.70,152.31,109.40,152.31,109.75,152.91,109.40,153.52,108.70,153.52,108.35,154.12,108.70,154.73,108.35,155.34,107.65,155.34,107.30,154.73,107.65,154.12,107.30,153.52,106.60,153.52,106.25,152.91,106.60,152.31,107.30,152.31,107.65,151.70,107.30,151.09,106.60,151.09,106.25,151.70,105.55,151.70,105.20,151.09,105.55,150.49,105.20,149.88,104.50,149.88,104.15,149.27,104.50,148.67,105.20,148.67,105.55,149.27,106.25,149.27,106.60,148.67,106.25,148.06,106.60,147.46,107.30,147.46,107.65,146.85,107.30,146.24,106.60,146.24,106.25,146.85,105.55,146.85,105.20,146.24,104.50,146.24,104.15,146.85,104.50,147.46,104.15,148.06,103.45,148.06,103.10,147.46,103.45,146.85,103.10,146.24,102.40,146.24,102.05,145.64,102.40,145.03,103.10,145.03,103.45,144.42,103.10,143.82,102.40,143.82,102.05,144.42,101.35,144.42,101.00,143.82,101.35,143.21,101.00,142.61,100.30,142.61,99.95,142.00,100.30,141.39,101.00,141.39,101.35,142.00,102.05,142.00,102.40,141.39,103.10,141.39,103.45,142.00,103.10,142.61,103.45,143.21,104.15,143.21,104.50,142.61,104.15,142.00,104.50,141.39,105.20,141.39,105.55,142.00,106.25,142.00,106.60,141.39,107.30,141.39,107.65,142.00,107.30,142.61,106.60,142.61,106.25,143.21,106.60,143.82,107.30,143.82,107.65,144.42,107.30,145.03,107.65,145.64,108.35,145.64,108.70,145.03,108.35,144.42,108.70,143.82,109.40,143.82,109.75,143.21,109.40,142.61,108.70,142.61,108.35,142.00,108.70,141.39,109.40,141.39,109.75,142.00,110.45,142.00,110.80,141.39,111.50,141.39,111.85,142.00,111.50,142.61,111.85,143.21,112.55,143.21,112.90,142.61,112.55,142.00,112.90,141.39,113.60,141.39,113.95,142.00,114.65,142.00,115.00,141.39,115.70,141.39,116.05,142.00,115.70,142.61,115.00,142.61,114.65,143.21,115.00,143.82,114.65,144.42,113.95,144.42,113.60,143.82,112.90,143.82,112.55,144.42,112.90,145.03,113.60,145.03,113.95,145.64,113.60,146.24,113.95,146.85,114.65,146.85,115.00,146.24,115.70,146.24,116.05,146.85,115.70,147.46,115.00,147.46,114.65,148.06,115.00,148.67,115.70,148.67,116.05,149.27,115.70,149.88,116.05,150.49,116.75,150.49,117.10,149.88,116.75,149.27,117.10,148.67,117.80,148.67,118.15,148.06,117.80,147.46,117.10,147.46,116.75,146.85,117.10,146.24,117.80,146.24,118.15,146.85,118.85,146.85,119.20,146.24,118.85,145.64,119.20,145.03,119.90,145.03,120.25,144.42,119.90,143.82,119.20,143.82,118.85,144.42,118.15,144.42,117.80,143.82,118.15,143.21,117.80,142.61,117.10,142.61,116.75,142.00,117.10,141.39,117.80,141.39,118.15,142.00,118.85,142.00,119.20,141.39,119.90,141.39,120.25,142.00,119.90,142.61,120.25,143.21,120.95,143.21,121.30,142.61,120.95,142.00,121.30,141.39,122.00,141.39,122.35,140.79,122.00,140.18,121.30,140.18,120.95,139.58,121.30,138.97,122.00,138.97,122.35,139.58,123.05,139.58,123.40,138.97,123.05,138.36,123.40,137.76,124.10,137.76,124.45,137.15,124.10,136.54,123.40,136.54,123.05,137.15,122.35,137.15,122.00,136.54,121.30,136.54,120.95,137.15,121.30,137.76,120.95,138.36,120.25,138.36,119.90,137.76,120.25,137.15,119.90,136.54,119.20,136.54,118.85,135.94,119.20,135.33,119.90,135.33,120.25,134.73,119.90,134.12,119.20,134.12,118.85,134.73,118.15,134.73,117.80,134.12,118.15,133.51,117.80,132.91,117.10,132.91,116.75,132.30,117.10,131.69,117.80,131.69,118.15,132.30,118.85,132.30,119.20,131.69,119.90,131.69,120.25,132.30,119.90,132.91,120.25,133.51,120.95,133.51,121.30,132.91,120.95,132.30,121.30,131.69,122.00,131.69,122.35,132.30,123.05,132.30,123.40,131.69,124.10,131.69,124.45,132.30,124.10,132.91,123.40,132.91,123.05,133.51,123.40,134.12,124.10,134.12,124.45,134.73,124.10,135.33,124.45,135.94,125.15,135.94,125.50,135.33,125.15,134.73,125.50,134.12,126.20,134.12,126.55,133.51,126.20,132.91,125.50,132.91,125.15,132.30,125.50,131.69,126.20,131.69,126.55,132.30,127.25,132.30,127.60,131.69,127.25,131.09,127.60,130.48,128.30,130.48,128.65,129.88,128.30,129.27,127.60,129.27,127.25,129.88,126.55,129.88,126.20,129.27,126.55,128.66,126.20,128.06,125.50,128.06,125.15,127.45,125.50,126.84,126.20,126.84,126.55,127.45,127.25,127.45,127.60,126.84,128.30,126.84,128.65,127.45,128.30,128.06,128.65,128.66,129.35,128.66,129.70,128.06,129.35,127.45,129.70,126.84,130.40,126.84,130.75,126.24,130.40,125.63,129.70,125.63,129.35,125.03,129.70,124.42,130.40,124.42,130.75,125.03,131.45,125.03,131.80,124.42,131.45,123.81,131.80,123.21,132.50,123.21,132.85,122.60,132.50,121.99,131.80,121.99,131.45,122.60,130.75,122.60,130.40,121.99,129.70,121.99,129.35,122.60,129.70,123.21,129.35,123.81,128.65,123.81,128.30,123.21,128.65,122.60,128.30,121.99,127.60,121.99,127.25,122.60,126.55,122.60,126.20,121.99,125.50,121.99,125.15,122.60,125.50,123.21,126.20,123.21,126.55,123.81,126.20,124.42,125.50,124.42,125.15,125.03,125.50,125.63,125.15,126.24,124.45,126.24,124.10,125.63,124.45,125.03,124.10,124.42,123.40,124.42,123.05,123.81,123.40,123.21,124.10,123.21,124.45,122.60,124.10,121.99,123.40,121.99,123.05,122.60,122.35,122.60,122.00,121.99,121.30,121.99,120.95,122.60,121.30,123.21,120.95,123.81,120.25,123.81,119.90,123.21,120.25,122.60,119.90,121.99,119.20,121.99,118.85,122.60,118.15,122.60,117.80,121.99,117.10,121.99,116.75,122.60,117.10,123.21,117.80,123.21,118.15,123.81,117.80,124.42,118.15,125.03,118.85,125.03,119.20,124.42,119.90,124.42,120.25,125.03,119.90,125.63,119.20,125.63,118.85,126.24,119.20,126.84,118.85,127.45,118.15,127.45,117.80,126.84,117.10,126.84,116.75,127.45,117.10,128.06,117.80,128.06,118.15,128.66,117.80,129.27,117.10,129.27,116.75,129.88,117.10,130.48,116.75,131.09,116.05,131.09,115.70,130.48,116.05,129.88,115.70,129.27,115.00,129.27,114.65,128.66,115.00,128.06,115.70,128.06,116.05,127.45,115.70,126.84,115.00,126.84,114.65,127.45,113.95,127.45,113.60,126.84,113.95,126.24,113.60,125.63,112.90,125.63,112.55,125.03,112.90,124.42,113.60,124.42,113.95,125.03,114.65,125.03,115.00,124.42,114.65,123.81,115.00,123.21,115.70,123.21,116.05,122.60,115.70,121.99,115.00,121.99,114.65,122.60,113.95,122.60,113.60,121.99,112.90,121.99,112.55,122.60,112.90,123.21,112.55,123.81,111.85,123.81,111.50,123.21,111.85,122.60,111.50,121.99,110.80,121.99,110.45,121.39,110.80,120.78,111.50,120.78,111.85,120.18,111.50,119.57,110.80,119.57,110.45,120.18,109.75,120.18,109.40,119.57,109.75,118.96,109.40,118.36,108.70,118.36,108.35,117.75,108.70,117.15,109.40,117.15,109.75,117.75,110.45,117.75,110.80,117.15,111.50,117.15,111.85,117.75,111.50,118.36,111.85,118.96,112.55,118.96,112.90,118.36,112.55,117.75,112.90,117.15,113.60,117.15,113.95,116.54,113.60,115.93,112.90,115.93,112.55,115.33,112.90,114.72,113.60,114.72,113.95,115.33,114.65,115.33,115.00,114.72,114.65,114.11,115.00,113.51,115.70,113.51,116.05,112.90,115.70,112.30,115.00,112.30,114.65,112.90,113.95,112.90,113.60,112.30,112.90,112.30,112.55,112.90,112.90,113.51,112.55,114.11,111.85,114.11,111.50,113.51,111.85,112.90,111.50,112.30,110.80,112.30,110.45,112.90,109.75,112.90,109.40,112.30,108.70,112.30,108.35,112.90,108.70,113.51,109.40,113.51,109.75,114.11,109.40,114.72,108.70,114.72,108.35,115.33,108.70,115.93,108.35,116.54,107.65,116.54,107.30,115.93,107.65,115.33,107.30,114.72,106.60,114.72,106.25,114.11,106.60,113.51,107.30,113.51,107.65,112.90,107.30,112.30,106.60,112.30,106.25,112.90,105.55,112.90,105.20,112.30,105.55,111.69,105.20,111.08,104.50,111.08,104.15,110.48,104.50,109.87,105.20,109.87,105.55,110.48,106.25,110.48,106.60,109.87,106.25,109.26,106.60,108.66,107.30,108.66,107.65,108.05,107.30,107.45,106.60,107.45,106.25,108.05,105.55,108.05,105.20,107.45,104.50,107.45,104.15,108.05,104.50,108.66,104.15,109.26,103.45,109.26,103.10,108.66,103.45,108.05,103.10,107.45,102.40,107.45,102.05,106.84,102.40,106.23,103.10,106.23,103.45,105.63,103.10,105.02,102.40,105.02,102.05,105.63,101.35,105.63,101.00,105.02,101.35,104.41,101.00,103.81,100.30,103.81,99.95,103.20,100.30,102.60,101.00,102.60,101.35,103.20,102.05,103.20,102.40,102.60,103.10,102.60,103.45,103.20,103.10,103.81,103.45,104.41,104.15,104.41,104.50,103.81,104.15,103.20,104.50,102.60,105.20,102.60,105.55,103.20,106.25,103.20,106.60,102.60,107.30,102.60,107.65,103.20,107.30,103.81,106.60,103.81,106.25,104.41,106.60,105.02,107.30,105.02,107.65,105.63,107.30,106.23,107.65,106.84,108.35,106.84,108.70,106.23,108.35,105.63,108.70,105.02,109.40,105.02,109.75,104.41,109.40,103.81,108.70,103.81,108.35,103.20,108.70,102.60,109.40,102.60,109.75,103.20,110.45,103.20,110.80,102.60,111.50,102.60,111.85,103.20,111.50,103.81,111.85,104.41,112.55,104.41,112.90,103.81,112.55,103.20,112.90,102.60,113.60,102.60,113.95,103.20,114.65,103.20,115.00,102.60,115.70,102.60,116.05,103.20,115.70,103.81,115.00,103.81,114.65,104.41,115.00,105.02,114.65,105.63,113.95,105.63,113.60,105.02,112.90,105.02,112.55,105.63,112.90,106.23,113.60,106.23,113.95,106.84,113.60,107.45,113.95,108.05,114.65,108.05,115.00,107.45,115.70,107.45,116.05,108.05,115.70,108.66,115.00,108.66,114.65,109.26,115.00,109.87,115.70,109.87,116.05,110.48,115.70,111.08,116.05,111.69,116.75,111.69,117.10,111.08,116.75,110.48,117.10,109.87,117.80,109.87,118.15,109.26,117.80,108.66,117.10,108.66,116.75,108.05,117.10,107.45,117.80,107.45,118.15,108.05,118.85,108.05,119.20,107.45,118.85,106.84,119.20,106.23,119.90,106.23,120.25,105.63,119.90,105.02,119.20,105.02,118.85,105.63,118.15,105.63,117.80,105.02,118.15,104.41,117.80,103.81,117.10,103.81,116.75,103.20,117.10,102.60,117.80,102.60,118.15,103.20,118.85,103.20,119.20,102.60,119.90,102.60,120.25,103.20,119.90,103.81,120.25,104.41,120.95,104.41,121.30,103.81,120.95,103.20,121.30,102.60,122.00,102.60,122.35,103.20,123.05,103.20,123.40,102.60,124.10,102.60,124.45,103.20,124.10,103.81,123.40,103.81,123.05,104.41,123.40,105.02,124.10,105.02,124.45,105.63,124.10,106.23,124.45,106.84,125.15,106.84,125.50,106.23,125.15,105.63,125.50,105.02,126.20,105.02,126.55,104.41,126.20,103.81,125.50,103.81,125.15,103.20,125.50,102.60,126.20,102.60,126.55,103.20,127.25,103.20,127.60,102.60,128.30,102.60,128.65,103.20,128.30,103.81,128.65,104.41,129.35,104.41,129.70,103.81,129.35,103.20,129.70,102.60,130.40,102.60,130.75,103.20,131.45,103.20,131.80,102.60,132.50,102.60,132.85,103.20,132.50,103.81,131.80,103.81,131.45,104.41,131.80,105.02,131.45,105.63,130.75,105.63,130.40,105.02,129.70,105.02,129.35,105.63,129.70,106.23,130.40,106.23,130.75,106.84,130.40,107.45,129.70,107.45,129.35,108.05,129.70,108.66,129.35,109.26,128.65,109.26,128.30,108.66,128.65,108.05,128.30,107.45,127.60,107.45,127.25,108.05,126.55,108.05,126.20,107.45,125.50,107.45,125.15,108.05,125.50,108.66,126.20,108.66,126.55,109.26,126.20,109.87,126.55,110.48,127.25,110.48,127.60,109.87,128.30,109.87,128.65,110.48,128.30,111.08,127.60,111.08,127.25,111.69,127.60,112.30,128.30,112.30,128.65,112.90,128.30,113.51,128.65,114.11,129.35,114.11,129.70,113.51,129.35,112.90,129.70,112.30,130.40,112.30,130.75,112.90,131.45,112.90,131.80,112.30,132.50,112.30,132.85,112.90,132.50,113.51,131.80,113.51,131.45,114.11,131.80,114.72,131.45,115.33,130.75,115.33,130.40,114.72,129.70,114.72,129.35,115.33,129.70,115.93,130.40,115.93,130.75,116.54,130.40,117.15,130.75,117.75,131.45,117.75,131.80,117.15,132.50,117.15,132.85,117.75,132.50,118.36,131.80,118.36,131.45,118.96,131.80,119.57,132.50,119.57,132.85,120.18,132.50,120.78,132.85,121.39,133.55,121.39,133.90,120.78,133.55,120.18,133.90,119.57,134.60,119.57,134.95,118.96,134.60,118.36,133.90,118.36,133.55,117.75,133.90,117.15,134.60,117.15,134.95,117.75,135.65,117.75,136.00,117.15,135.65,116.54,136.00,115.93,136.70,115.93,137.05,115.33,136.70,114.72,136.00,114.72,135.65,115.33,134.95,115.33,134.60,114.72,134.95,114.11,134.60,113.51,133.90,113.51,133.55,112.90,133.90,112.30,134.60,112.30,134.95,112.90,135.65,112.90,136.00,112.30,136.70,112.30,137.05,112.90,136.70,113.51,137.05,114.11,137.75,114.11,138.10,113.51,137.75,112.90,138.10,112.30,138.80,112.30,139.15,111.69,138.80,111.08,138.10,111.08,137.75,110.48,138.10,109.87,138.80,109.87,139.15,110.48,139.85,110.48,140.20,109.87,139.85,109.26,140.20,108.66,140.90,108.66,141.25,108.05,140.90,107.45,140.20,107.45,139.85,108.05,139.15,108.05,138.80,107.45,138.10,107.45,137.75,108.05,138.10,108.66,137.75,109.26,137.05,109.26,136.70,108.66,137.05,108.05,136.70,107.45,136.00,107.45,135.65,106.84,136.00,106.23,136.70,106.23,137.05,105.63,136.70,105.02,136.00,105.02,135.65,105.63,134.95,105.63,134.60,105.02,134.95,104.41,134.60,103.81,133.90,103.81,133.55,103.20,133.90,102.60,134.60,102.60,134.95,103.20,135.65,103.20,136.00,102.60,136.70,102.60,137.05,103.20,136.70,103.81,137.05,104.41,137.75,104.41,138.10,103.81,137.75,103.20,138.10,102.60,138.80,102.60,139.15,103.20,139.85,103.20,140.20,102.60,140.90,102.60,141.25,103.20,140.90,103.81,140.20,103.81,139.85,104.41,140.20,105.02,140.90,105.02,141.25,105.63,140.90,106.23,141.25,106.84,141.95,106.84,142.30,106.23,141.95,105.63,142.30,105.02,143.00,105.02,143.35,104.41,143.00,103.81,142.30,103.81,141.95,103.20,142.30,102.60,143.00,102.60,143.35,103.20,144.05,103.20,144.40,102.60,144.05,101.99,144.40,101.38,145.10,101.38,145.45,100.78,145.10,100.17,144.40,100.17,144.05,100.78,143.35,100.78,143.00,100.17,143.35,99.56,143.00,98.96,142.30,98.96,141.95,98.35,142.30,97.75,143.00,97.75,143.35,98.35,144.05,98.35,144.40,97.75,145.10,97.75,145.45,98.35,145.10,98.96,145.45,99.56,146.15,99.56,146.50,98.96,146.15,98.35,146.50,97.75,147.20,97.75,147.55,97.14,147.20,96.53,146.50,96.53,146.15,95.93,146.50,95.32,147.20,95.32,147.55,95.93,148.25,95.93,148.60,95.32,148.25,94.72,148.60,94.11,149.30,94.11,149.65,93.50,149.30,92.90,148.60,92.90,148.25,93.50,147.55,93.50,147.20,92.90,146.50,92.90,146.15,93.50,146.50,94.11,146.15,94.72,145.45,94.72,145.10,94.11,145.45,93.50,145.10,92.90,144.40,92.90,144.05,93.50,143.35,93.50,143.00,92.90,142.30,92.90,141.95,93.50,142.30,94.11,143.00,94.11,143.35,94.72,143.00,95.32,142.30,95.32,141.95,95.93,142.30,96.53,141.95,97.14,141.25,97.14,140.90,96.53,141.25,95.93,140.90,95.32,140.20,95.32,139.85,94.72,140.20,94.11,140.90,94.11,141.25,93.50,140.90,92.90,140.20,92.90,139.85,93.50,139.15,93.50,138.80,92.90,139.15,92.29,138.80,91.68,138.10,91.68,137.75,91.08,138.10,90.47,138.80,90.47,139.15,91.08,139.85,91.08,140.20,90.47,139.85,89.87,140.20,89.26,140.90,89.26,141.25,88.65,140.90,88.05,140.20,88.05,139.85,88.65,139.15,88.65,138.80,88.05,138.10,88.05,137.75,88.65,138.10,89.26,137.75,89.87,137.05,89.87,136.70,89.26,137.05,88.65,136.70,88.05,136.00,88.05,135.65,87.44,136.00,86.83,136.70,86.83,137.05,86.23,136.70,85.62,136.00,85.62,135.65,86.23,134.95,86.23,134.60,85.62,134.95,85.02,134.60,84.41,133.90,84.41,133.55,83.80,133.90,83.20,134.60,83.20,134.95,83.80,135.65,83.80,136.00,83.20,136.70,83.20,137.05,83.80,136.70,84.41,137.05,85.02,137.75,85.02,138.10,84.41,137.75,83.80,138.10,83.20,138.80,83.20,139.15,83.80,139.85,83.80,140.20,83.20,140.90,83.20,141.25,83.80,140.90,84.41,140.20,84.41,139.85,85.02,140.20,85.62,140.90,85.62,141.25,86.23,140.90,86.83,141.25,87.44,141.95,87.44,142.30,86.83,141.95,86.23,142.30,85.62,143.00,85.62,143.35,85.02,143.00,84.41,142.30,84.41,141.95,83.80,142.30,83.20,143.00,83.20,143.35,83.80,144.05,83.80,144.40,83.20,145.10,83.20,145.45,83.80,145.10,84.41,145.45,85.02,146.15,85.02,146.50,84.41,146.15,83.80,146.50,83.20,147.20,83.20,147.55,83.80,148.25,83.80,148.60,83.20,149.30,83.20,149.65,83.80,149.30,84.41,148.60,84.41,148.25,85.02,148.60,85.62,148.25,86.23,147.55,86.23,147.20,85.62,146.50,85.62,146.15,86.23,146.50,86.83,147.20,86.83,147.55,87.44,147.20,88.05,147.55,88.65,148.25,88.65,148.60,88.05,149.30,88.05,149.65,88.65,149.30,89.26,148.60,89.26,148.25,89.87,148.60,90.47,149.30,90.47,149.65,91.08,149.30,91.68,149.65,92.29,150.35,92.29,150.70,91.68,150.35,91.08,150.70,90.47,151.40,90.47,151.75,89.87,151.40,89.26,150.70,89.26,150.35,88.65,150.70,88.05,151.40,88.05,151.75,88.65,152.45,88.65,152.80,88.05,152.45,87.44,152.80,86.83,153.50,86.83,153.85,86.23,153.50,85.62,152.80,85.62,152.45,86.23,151.75,86.23,151.40,85.62,151.75,85.02,151.40,84.41,150.70,84.41,150.35,83.80,150.70,83.20,151.40,83.20,151.75,83.80,152.45,83.80,152.80,83.20,153.50,83.20,153.85,83.80,153.50,84.41,153.85,85.02,154.55,85.02,154.90,84.41,154.55,83.80,154.90,83.20,155.60,83.20,155.95,82.59,155.60,81.98,154.90,81.98,154.55,81.38,154.90,80.77,155.60,80.77,155.95,81.38,156.65,81.38,157.00,80.77,156.65,80.17,157.00,79.56,157.70,79.56,158.05,78.95,157.70,78.35,157.00,78.35,156.65,78.95,155.95,78.95,155.60,78.35,154.90,78.35,154.55,78.95,154.90,79.56,154.55,80.17,153.85,80.17,153.50,79.56,153.85,78.95,153.50,78.35,152.80,78.35,152.45,77.74,152.80,77.13,153.50,77.13,153.85,76.53,153.50,75.92,152.80,75.92,152.45,76.53,151.75,76.53,151.40,75.92,151.75,75.32,151.40,74.71,150.70,74.71,150.35,74.10,150.70,73.50,151.40,73.50,151.75,74.10,152.45,74.10,152.80,73.50,153.50,73.50,153.85,74.10,153.50,74.71,153.85,75.32,154.55,75.32,154.90,74.71,154.55,74.10,154.90,73.50,155.60,73.50,155.95,74.10,156.65,74.10,157.00,73.50,157.70,73.50,158.05,74.10,157.70,74.71,157.00,74.71,156.65,75.32,157.00,75.92,157.70,75.92,158.05,76.53,157.70,77.13,158.05,77.74,158.75,77.74,159.10,77.13,158.75,76.53,159.10,75.92,159.80,75.92,160.15,75.32,159.80,74.71,159.10,74.71,158.75,74.10,159.10,73.50,159.80,73.50,160.15,74.10,160.85,74.10,161.20,73.50,160.85,72.89,161.20,72.28,161.90,72.28,162.25,71.68,161.90,71.07,161.20,71.07,160.85,71.68,160.15,71.68,159.80,71.07,160.15,70.47,159.80,69.86,159.10,69.86,158.75,69.25,159.10,68.65,159.80,68.65,160.15,69.25,160.85,69.25,161.20,68.65,161.90,68.65,162.25,69.25,161.90,69.86,162.25,70.47,162.95,70.47,163.30,69.86,162.95,69.25,163.30,68.65,164.00,68.65,164.35,68.04,164.00,67.44,163.30,67.44,162.95,66.83,163.30,66.22,164.00,66.22,164.35,66.83,165.05,66.83,165.40,66.22,165.05,65.62,165.40,65.01,166.10,65.01,166.45,64.40,166.10,63.80,165.40,63.80,165.05,64.40,164.35,64.40,164.00,63.80,163.30,63.80,162.95,64.40,163.30,65.01,162.95,65.62,162.25,65.62,161.90,65.01,162.25,64.40,161.90,63.80,161.20,63.80,160.85,64.40,160.15,64.40,159.80,63.80,159.10,63.80,158.75,64.40,159.10,65.01,159.80,65.01,160.15,65.62,159.80,66.22,159.10,66.22,158.75,66.83,159.10,67.44,158.75,68.04,158.05,68.04,157.70,67.44,158.05,66.83,157.70,66.22,157.00,66.22,156.65,65.62,157.00,65.01,157.70,65.01,158.05,64.40,157.70,63.80,157.00,63.80,156.65,64.40,155.95,64.40,155.60,63.80,154.90,63.80,154.55,64.40,154.90,65.01,154.55,65.62,153.85,65.62,153.50,65.01,153.85,64.40,153.50,63.80,152.80,63.80,152.45,64.40,151.75,64.40,151.40,63.80,150.70,63.80,150.35,64.40,150.70,65.01,151.40,65.01,151.75,65.62,151.40,66.22,151.75,66.83,152.45,66.83,152.80,66.22,153.50,66.22,153.85,66.83,153.50,67.44,152.80,67.44,152.45,68.04,152.80,68.65,152.45,69.25,151.75,69.25,151.40,68.65,150.70,68.65,150.35,69.25,150.70,69.86,151.40,69.86,151.75,70.47,151.40,71.07,150.70,71.07,150.35,71.68,150.70,72.28,150.35,72.89,149.65,72.89,149.30,72.28,149.65,71.68,149.30,71.07,148.60,71.07,148.25,70.47,148.60,69.86,149.30,69.86,149.65,69.25,149.30,68.65,148.60,68.65,148.25,69.25,147.55,69.25,147.20,68.65,147.55,68.04,147.20,67.44,146.50,67.44,146.15,66.83,146.50,66.22,147.20,66.22,147.55,66.83,148.25,66.83,148.60,66.22,148.25,65.62,148.60,65.01,149.30,65.01,149.65,64.40,149.30,63.80,148.60,63.80,148.25,64.40,147.55,64.40,147.20,63.80,146.50,63.80,146.15,64.40,146.50,65.01,146.15,65.62,145.45,65.62,145.10,65.01,145.45,64.40,145.10,63.80,144.40,63.80,144.05,64.40,143.35,64.40,143.00,63.80,142.30,63.80,141.95,64.40,142.30,65.01,143.00,65.01,143.35,65.62,143.00,66.22,142.30,66.22,141.95,66.83,142.30,67.44,141.95,68.04,141.25,68.04,140.90,67.44,141.25,66.83,140.90,66.22,140.20,66.22,139.85,65.62,140.20,65.01,140.90,65.01,141.25,64.40,140.90,63.80,140.20,63.80,139.85,64.40,139.15,64.40,138.80,63.80,138.10,63.80,137.75,64.40,138.10,65.01,137.75,65.62,137.05,65.62,136.70,65.01,137.05,64.40,136.70,63.80,136.00,63.80,135.65,64.40,134.95,64.40,134.60,63.80,133.90,63.80,133.55,64.40,133.90,65.01,134.60,65.01,134.95,65.62,134.60,66.22,134.95,66.83,135.65,66.83,136.00,66.22,136.70,66.22,137.05,66.83,136.70,67.44,136.00,67.44,135.65,68.04,136.00,68.65,136.70,68.65,137.05,69.25,136.70,69.86,137.05,70.47,137.75,70.47,138.10,69.86,137.75,69.25,138.10,68.65,138.80,68.65,139.15,69.25,139.85,69.25,140.20,68.65,140.90,68.65,141.25,69.25,140.90,69.86,140.20,69.86,139.85,70.47,140.20,71.07,139.85,71.68,139.15,71.68,138.80,71.07,138.10,71.07,137.75,71.68,138.10,72.28,138.80,72.28,139.15,72.89,138.80,73.50,138.10,73.50,137.75,74.10,138.10,74.71,137.75,75.32,137.05,75.32,136.70,74.71,137.05,74.10,136.70,73.50,136.00,73.50,135.65,74.10,134.95,74.10,134.60,73.50,133.90,73.50,133.55,74.10,133.90,74.71,134.60,74.71,134.95,75.32,134.60,75.92,134.95,76.53,135.65,76.53,136.00,75.92,136.70,75.92,137.05,76.53,136.70,77.13,136.00,77.13,135.65,77.74,136.00,78.35,135.65,78.95,134.95,78.95,134.60,78.35,133.90,78.35,133.55,78.95,133.90,79.56,134.60,79.56,134.95,80.17,134.60,80.77,133.90,80.77,133.55,81.38,133.90,81.98,133.55,82.59,132.85,82.59,132.50,81.98,132.85,81.38,132.50,80.77,131.80,80.77,131.45,80.17,131.80,79.56,132.50,79.56,132.85,78.95,132.50,78.35,131.80,78.35,131.45,78.95,130.75,78.95,130.40,78.35,130.75,77.74,130.40,77.13,129.70,77.13,129.35,76.53,129.70,75.92,130.40,75.92,130.75,76.53,131.45,76.53,131.80,75.92,131.45,75.32,131.80,74.71,132.50,74.71,132.85,74.10,132.50,73.50,131.80,73.50,131.45,74.10,130.75,74.10,130.40,73.50,129.70,73.50,129.35,74.10,129.70,74.71,129.35,75.32,128.65,75.32,128.30,74.71,128.65,74.10,128.30,73.50,127.60,73.50,127.25,72.89,127.60,72.28,128.30,72.28,128.65,71.68,128.30,71.07,127.60,71.07,127.25,71.68,126.55,71.68,126.20,71.07,126.55,70.47,126.20,69.86,125.50,69.86,125.15,69.25,125.50,68.65,126.20,68.65,126.55,69.25,127.25,69.25,127.60,68.65,128.30,68.65,128.65,69.25,128.30,69.86,128.65,70.47,129.35,70.47,129.70,69.86,129.35,69.25,129.70,68.65,130.40,68.65,130.75,68.04,130.40,67.44,129.70,67.44,129.35,66.83,129.70,66.22,130.40,66.22,130.75,66.83,131.45,66.83,131.80,66.22,131.45,65.62,131.80,65.01,132.50,65.01,132.85,64.40,132.50,63.80,131.80,63.80,131.45,64.40,130.75,64.40,130.40,63.80,129.70,63.80,129.35,64.40,129.70,65.01,129.35,65.62,128.65,65.62,128.30,65.01,128.65,64.40,128.30,63.80,127.60,63.80,127.25,64.40,126.55,64.40,126.20,63.80,125.50,63.80,125.15,64.40,125.50,65.01,126.20,65.01,126.55,65.62,126.20,66.22,125.50,66.22,125.15,66.83,125.50,67.44,125.15,68.04,124.45,68.04,124.10,67.44,124.45,66.83,124.10,66.22,123.40,66.22,123.05,65.62,123.40,65.01,124.10,65.01,124.45,64.40,124.10,63.80,123.40,63.80,123.05,64.40,122.35,64.40,122.00,63.80,122.35,63.19,122.00,62.59,121.30,62.59,120.95,61.98,121.30,61.37,122.00,61.37,122.35,61.98,123.05,61.98,123.40,61.37,123.05,60.77,123.40,60.16,124.10,60.16,124.45,59.55,124.10,58.95,123.40,58.95,123.05,59.55,122.35,59.55,122.00,58.95,121.30,58.95,120.95,59.55,121.30,60.16,120.95,60.77,120.25,60.77,119.90,60.16,120.25,59.55,119.90,58.95,119.20,58.95,118.85,58.34,119.20,57.74,119.90,57.74,120.25,57.13,119.90,56.52,119.20,56.52,118.85,57.13,118.15,57.13,117.80,56.52,118.15,55.92,117.80,55.31,117.10,55.31,116.75,54.70,117.10,54.10,117.80,54.10,118.15,54.70,118.85,54.70,119.20,54.10,119.90,54.10,120.25,54.70,119.90,55.31,120.25,55.92,120.95,55.92,121.30,55.31,120.95,54.70,121.30,54.10,122.00,54.10,122.35,54.70,123.05,54.70,123.40,54.10,124.10,54.10,124.45,54.70,124.10,55.31,123.40,55.31,123.05,55.92,123.40,56.52,124.10,56.52,124.45,57.13,124.10,57.74,124.45,58.34,125.15,58.34,125.50,57.74,125.15,57.13,125.50,56.52,126.20,56.52,126.55,55.92,126.20,55.31,125.50,55.31,125.15,54.70,125.50,54.10,126.20,54.10,126.55,54.70,127.25,54.70,127.60,54.10,127.25,53.49,127.60,52.89,128.30,52.89,128.65,52.28,128.30,51.67,127.60,51.67,127.25,52.28,126.55,52.28,126.20,51.67,126.55,51.07,126.20,50.46,125.50,50.46,125.15,49.85,125.50,49.25,126.20,49.25,126.55,49.85,127.25,49.85,127.60,49.25,128.30,49.25,128.65,49.85,128.30,50.46,128.65,51.07,129.35,51.07,129.70,50.46,129.35,49.85,129.70,49.25,130.40,49.25,130.75,48.64,130.40,48.04,129.70,48.04,129.35,47.43,129.70,46.82,130.40,46.82,130.75,47.43,131.45,47.43,131.80,46.82,131.45,46.22,131.80,45.61,132.50,45.61,132.85,45.01,132.50,44.40,131.80,44.40,131.45,45.01,130.75,45.01,130.40,44.40,129.70,44.40,129.35,45.01,129.70,45.61,129.35,46.22,128.65,46.22,128.30,45.61,128.65,45.01,128.30,44.40,127.60,44.40,127.25,45.01,126.55,45.01,126.20,44.40,125.50,44.40,125.15,45.01,125.50,45.61,126.20,45.61,126.55,46.22,126.20,46.82,125.50,46.82,125.15,47.43,125.50,48.04,125.15,48.64,124.45,48.64,124.10,48.04,124.45,47.43,124.10,46.82,123.40,46.82,123.05,46.22,123.40,45.61,124.10,45.61,124.45,45.01,124.10,44.40,123.40,44.40,123.05,45.01,122.35,45.01,122.00,44.40,121.30,44.40,120.95,45.01,121.30,45.61,120.95,46.22,120.25,46.22,119.90,45.61,120.25,45.01,119.90,44.40,119.20,44.40,118.85,45.01,118.15,45.01,117.80,44.40,117.10,44.40,116.75,45.01,117.10,45.61,117.80,45.61,118.15,46.22,117.80,46.82,118.15,47.43,118.85,47.43,119.20,46.82,119.90,46.82,120.25,47.43,119.90,48.04,119.20,48.04,118.85,48.64,119.20,49.25,118.85,49.85,118.15,49.85,117.80,49.25,117.10,49.25,116.75,49.85,117.10,50.46,117.80,50.46,118.15,51.07,117.80,51.67,117.10,51.67,116.75,52.28,117.10,52.89,116.75,53.49,116.05,53.49,115.70,52.89,116.05,52.28,115.70,51.67,115.00,51.67,114.65,51.07,115.00,50.46,115.70,50.46,116.05,49.85,115.70,49.25,115.00,49.25,114.65,49.85,113.95,49.85,113.60,49.25,113.95,48.64,113.60,48.04,112.90,48.04,112.55,47.43,112.90,46.82,113.60,46.82,113.95,47.43,114.65,47.43,115.00,46.82,114.65,46.22,115.00,45.61,115.70,45.61,116.05,45.01,115.70,44.40,115.00,44.40,114.65,45.01,113.95,45.01,113.60,44.40,112.90,44.40,112.55,45.01,112.90,45.61,112.55,46.22,111.85,46.22,111.50,45.61,111.85,45.01,111.50,44.40,110.80,44.40,110.45,43.79,110.80,43.19,111.50,43.19,111.85,42.58,111.50,41.97,110.80,41.97,110.45,42.58,109.75,42.58,109.40,41.97,109.75,41.37,109.40,40.76,108.70,40.76,108.35,40.16,108.70,39.55,109.40,39.55,109.75,40.16,110.45,40.16,110.80,39.55,111.50,39.55,111.85,40.16,111.50,40.76,111.85,41.37,112.55,41.37,112.90,40.76,112.55,40.16,112.90,39.55,113.60,39.55,113.95,38.94,113.60,38.34,112.90,38.34,112.55,37.73,112.90,37.12,113.60,37.12,113.95,37.73,114.65,37.73,115.00,37.12,114.65,36.52,115.00,35.91,115.70,35.91,116.05,35.31,115.70,34.70,115.00,34.70,114.65,35.31,113.95,35.31,113.60,34.70,112.90,34.70,112.55,35.31,112.90,35.91,112.55,36.52,111.85,36.52,111.50,35.91,111.85,35.31,111.50,34.70,110.80,34.70,110.45,35.31,109.75,35.31,109.40,34.70,108.70,34.70,108.35,35.31,108.70,35.91,109.40,35.91,109.75,36.52,109.40,37.12,108.70,37.12,108.35,37.73,108.70,38.34,108.35,38.94,107.65,38.94,107.30,38.34,107.65,37.73,107.30,37.12,106.60,37.12,106.25,36.52,106.60,35.91,107.30,35.91,107.65,35.31,107.30,34.70,106.60,34.70,106.25,35.31,105.55,35.31,105.20,34.70,105.55,34.09,105.20,33.49,104.50,33.49,104.15,32.88,104.50,32.27,105.20,32.27,105.55,32.88,106.25,32.88,106.60,32.27,106.25,31.67,106.60,31.06,107.30,31.06,107.65,30.46,107.30,29.85,106.60,29.85,106.25,30.46,105.55,30.46,105.20,29.85,104.50,29.85,104.15,30.46,104.50,31.06,104.15,31.67,103.45,31.67,103.10,31.06,103.45,30.46,103.10,29.85,102.40,29.85,102.05,29.24,102.40,28.64,103.10,28.64,103.45,28.03,103.10,27.42,102.40,27.42,102.05,28.03,101.35,28.03,101.00,27.42,101.35,26.82,101.00,26.21,100.30,26.21,99.95,25.61,100.30,25.00,101.00,25.00,101.35,25.61,102.05,25.61,102.40,25.00,103.10,25.00,103.45,25.61,103.10,26.21,103.45,26.82,104.15,26.82,104.50,26.21,104.15,25.61,104.50,25.00,105.20,25.00,105.55,25.61,106.25,25.61,106.60,25.00,107.30,25.00,107.65,25.61,107.30,26.21,106.60,26.21,106.25,26.82,106.60,27.42,107.30,27.42,107.65,28.03,107.30,28.64,107.65,29.24,108.35,29.24,108.70,28.64,108.35,28.03,108.70,27.42,109.40,27.42,109.75,26.82,109.40,26.21,108.70,26.21,108.35,25.61,108.70,25.00,109.40,25.00,109.75,25.61,110.45,25.61,110.80,25.00,111.50,25.00,111.85,25.61,111.50,26.21,111.85,26.82,112.55,26.82,112.90,26.21,112.55,25.61,112.90,25.00,113.60,25.00,113.95,25.61,114.65,25.61,115.00,25.00,115.70,25.00,116.05,25.61,115.70,26.21,115.00,26.21,114.65,26.82,115.00,27.42,114.65,28.03,113.95,28.03,113.60,27.42,112.90,27.42,112.55,28.03,112.90,28.64,113.60,28.64,113.95,29.24,113.60,29.85,113.95,30.46,114.65,30.46,115.00,29.85,115.70,29.85,116.05,30.46,115.70,31.06,115.00,31.06,114.65,31.67,115.00,32.27,115.70,32.27,116.05,32.88,115.70,33.49,116.05,34.09,116.75,34.09,117.10,33.49,116.75,32.88,117.10,32.27,117.80,32.27,118.15,31.67,117.80,31.06,117.10,31.06,116.75,30.46,117.10,29.85,117.80,29.85,118.15,30.46,118.85,30.46,119.20,29.85,118.85,29.24,119.20,28.64,119.90,28.64,120.25,28.03,119.90,27.42,119.20,27.42,118.85,28.03,118.15,28.03,117.80,27.42,118.15,26.82,117.80,26.21,117.10,26.21,116.75,25.61,117.10,25.00,117.80,25.00,118.15,25.61,118.85,25.61,119.20,25.00,119.90,25.00,120.25,25.61,119.90,26.21,120.25,26.82,120.95,26.82,121.30,26.21,120.95,25.61,121.30,25.00,122.00,25.00,122.35,25.61,123.05,25.61,123.40,25.00,124.10,25.00,124.45,25.61,124.10,26.21,123.40,26.21,123.05,26.82,123.40,27.42,124.10,27.42,124.45,28.03,124.10,28.64,124.45,29.24,125.15,29.24,125.50,28.64,125.15,28.03,125.50,27.42,126.20,27.42,126.55,26.82,126.20,26.21,125.50,26.21,125.15,25.61,125.50,25.00,126.20,25.00,126.55,25.61,127.25,25.61,127.60,25.00,128.30,25.00,128.65,25.61,128.30,26.21,128.65,26.82,129.35,26.82,129.70,26.21,129.35,25.61,129.70,25.00,130.40,25.00,130.75,25.61,131.45,25.61,131.80,25.00,132.50,25.00,132.85,25.61,132.50,26.21,131.80,26.21,131.45,26.82,131.80,27.42,131.45,28.03,130.75,28.03,130.40,27.42,129.70,27.42,129.35,28.03,129.70,28.64,130.40,28.64,130.75,29.24,130.40,29.85,129.70,29.85,129.35,30.46,129.70,31.06,129.35,31.67,128.65,31.67,128.30,31.06,128.65,30.46,128.30,29.85,127.60,29.85,127.25,30.46,126.55,30.46,126.20,29.85,125.50,29.85,125.15,30.46,125.50,31.06,126.20,31.06,126.55,31.67,126.20,32.27,126.55,32.88,127.25,32.88,127.60,32.27,128.30,32.27,128.65,32.88,128.30,33.49,127.60,33.49,127.25,34.09,127.60,34.70,128.30,34.70,128.65,35.31,128.30,35.91,128.65,36.52,129.35,36.52,129.70,35.91,129.35,35.31,129.70,34.70,130.40,34.70,130.75,35.31,131.45,35.31,131.80,34.70,132.50,34.70,132.85,35.31,132.50,35.91,131.80,35.91,131.45,36.52,131.80,37.12,131.45,37.73,130.75,37.73,130.40,37.12,129.70,37.12,129.35,37.73,129.70,38.34,130.40,38.34,130.75,38.94,130.40,39.55,130.75,40.16,131.45,40.16,131.80,39.55,132.50,39.55,132.85,40.16,132.50,40.76,131.80,40.76,131.45,41.37,131.80,41.97,132.50,41.97,132.85,42.58,132.50,43.19,132.85,43.79,133.55,43.79,133.90,43.19,133.55,42.58,133.90,41.97,134.60,41.97,134.95,41.37,134.60,40.76,133.90,40.76,133.55,40.16,133.90,39.55,134.60,39.55,134.95,40.16,135.65,40.16,136.00,39.55,135.65,38.94,136.00,38.34,136.70,38.34,137.05,37.73,136.70,37.12,136.00,37.12,135.65,37.73,134.95,37.73,134.60,37.12,134.95,36.52,134.60,35.91,133.90,35.91,133.55,35.31,133.90,34.70,134.60,34.70,134.95,35.31,135.65,35.31,136.00,34.70,136.70,34.70,137.05,35.31,136.70,35.91,137.05,36.52,137.75,36.52,138.10,35.91,137.75,35.31,138.10,34.70,138.80,34.70,139.15,34.09,138.80,33.49,138.10,33.49,137.75,32.88,138.10,32.27,138.80,32.27,139.15,32.88,139.85,32.88,140.20,32.27,139.85,31.67,140.20,31.06,140.90,31.06,141.25,30.46,140.90,29.85,140.20,29.85,139.85,30.46,139.15,30.46,138.80,29.85,138.10,29.85,137.75,30.46,138.10,31.06,137.75,31.67,137.05,31.67,136.70,31.06,137.05,30.46,136.70,29.85,136.00,29.85,135.65,29.24,136.00,28.64,136.70,28.64,137.05,28.03,136.70,27.42,136.00,27.42,135.65,28.03,134.95,28.03,134.60,27.42,134.95,26.82,134.60,26.21,133.90,26.21,133.55,25.61,133.90,25.00,134.60,25.00,134.95,25.61,135.65,25.61,136.00,25.00,136.70,25.00,137.05,25.61,136.70,26.21,137.05,26.82,137.75,26.82,138.10,26.21,137.75,25.61,138.10,25.00,138.80,25.00,139.15,25.61,139.85,25.61,140.20,25.00,140.90,25.00,141.25,25.61,140.90,26.21,140.20,26.21,139.85,26.82,140.20,27.42,140.90,27.42,141.25,28.03,140.90,28.64,141.25,29.24,141.95,29.24,142.30,28.64,141.95,28.03,142.30,27.42,143.00,27.42,143.35,26.82,143.00,26.21,142.30,26.21,141.95,25.61,142.30,25.00,143.00,25.00,143.35,25.61,144.05,25.61,144.40,25.00,145.10,25.00,145.45,25.61,145.10,26.21,145.45,26.82,146.15,26.82,146.50,26.21,146.15,25.61,146.50,25.00,147.20,25.00,147.55,25.61,148.25,25.61,148.60,25.00,149.30,25.00,149.65,25.61,149.30,26.21,148.60,26.21,148.25,26.82,148.60,27.42,148.25,28.03,147.55,28.03,147.20,27.42,146.50,27.42,146.15,28.03,146.50,28.64,147.20,28.64,147.55,29.24,147.20,29.85,147.55,30.46,148.25,30.46,148.60,29.85,149.30,29.85,149.65,30.46,149.30,31.06,148.60,31.06,148.25,31.67,148.60,32.27,149.30,32.27,149.65,32.88,149.30,33.49,149.65,34.09,150.35,34.09,150.70,33.49,150.35,32.88,150.70,32.27,151.40,32.27,151.75,31.67,151.40,31.06,150.70,31.06,150.35,30.46,150.70,29.85,151.40,29.85,151.75,30.46,152.45,30.46,152.80,29.85,152.45,29.24,152.80,28.64,153.50,28.64,153.85,28.03,153.50,27.42,152.80,27.42,152.45,28.03,151.75,28.03,151.40,27.42,151.75,26.82,151.40,26.21,150.70,26.21,150.35,25.61,150.70,25.00,151.40,25.00,151.75,25.61,152.45,25.61,152.80,25.00,153.50,25.00,153.85,25.61,153.50,26.21,153.85,26.82,154.55,26.82,154.90,26.21,154.55,25.61,154.90,25.00,155.60,25.00,155.95,25.61,156.65,25.61,157.00,25.00,157.70,25.00,158.05,25.61,157.70,26.21,157.00,26.21,156.65,26.82,157.00,27.42,157.70,27.42,158.05,28.03,157.70,28.64,158.05,29.24,158.75,29.24,159.10,28.64,158.75,28.03,159.10,27.42,159.80,27.42,160.15,26.82,159.80,26.21,159.10,26.21,158.75,25.61,159.10,25.00,159.80,25.00,160.15,25.61,160.85,25.61,161.20,25.00,161.90,25.00,162.25,25.61,161.90,26.21,162.25,26.82,162.95,26.82,163.30,26.21,162.95,25.61,163.30,25.00,164.00,25.00,164.35,25.61,165.05,25.61,165.40,25.00,166.10,25.00,166.45,25.61,166.10,26.21,165.40,26.21,165.05,26.82,165.40,27.42,165.05,28.03,164.35,28.03,164.00,27.42,163.30,27.42,162.95,28.03,163.30,28.64,164.00,28.64,164.35,29.24,164.00,29.85,163.30,29.85,162.95,30.46,163.30,31.06,162.95,31.67,162.25,31.67,161.90,31.06,162.25,30.46,161.90,29.85,161.20,29.85,160.85,30.46,160.15,30.46,159.80,29.85,159.10,29.85,158.75,30.46,159.10,31.06,159.80,31.06,160.15,31.67,159.80,32.27,160.15,32.88,160.85,32.88,161.20,32.27,161.90,32.27,162.25,32.88,161.90,33.49,161.20,33.49,160.85,34.09,161.20,34.70,160.85,35.31,160.15,35.31,159.80,34.70,159.10,34.70,158.75,35.31,159.10,35.91,159.80,35.91,160.15,36.52,159.80,37.12,159.10,37.12,158.75,37.73,159.10,38.34,158.75,38.94,158.05,38.94,157.70,38.34,158.05,37.73,157.70,37.12,157.00,37.12,156.65,36.52,157.00,35.91,157.70,35.91,158.05,35.31,157.70,34.70,157.00,34.70,156.65,35.31,155.95,35.31,155.60,34.70,154.90,34.70,154.55,35.31,154.90,35.91,154.55,36.52,153.85,36.52,153.50,35.91,153.85,35.31,153.50,34.70,152.80,34.70,152.45,35.31,151.75,35.31,151.40,34.70,150.70,34.70,150.35,35.31,150.70,35.91,151.40,35.91,151.75,36.52,151.40,37.12,151.75,37.73,152.45,37.73,152.80,37.12,153.50,37.12,153.85,37.73,153.50,38.34,152.80,38.34,152.45,38.94,152.80,39.55,153.50,39.55,153.85,40.16,153.50,40.76,153.85,41.37,154.55,41.37,154.90,40.76,154.55,40.16,154.90,39.55,155.60,39.55,155.95,40.16,156.65,40.16,157.00,39.55,157.70,39.55,158.05,40.16,157.70,40.76,157.00,40.76,156.65,41.37,157.00,41.97,156.65,42.58,155.95,42.58,155.60,41.97,154.90,41.97,154.55,42.58,154.90,43.19,155.60,43.19,155.95,43.79,155.60,44.40,155.95,45.01,156.65,45.01,157.00,44.40,157.70,44.40,158.05,45.01,157.70,45.61,157.00,45.61,156.65,46.22,157.00,46.82,157.70,46.82,158.05,47.43,157.70,48.04,158.05,48.64,158.75,48.64,159.10,48.04,158.75,47.43,159.10,46.82,159.80,46.82,160.15,46.22,159.80,45.61,159.10,45.61,158.75,45.01,159.10,44.40,159.80,44.40,160.15,45.01,160.85,45.01,161.20,44.40,161.90,44.40,162.25,45.01,161.90,45.61,162.25,46.22,162.95,46.22,163.30,45.61,162.95,45.01,163.30,44.40,164.00,44.40,164.35,45.01,165.05,45.01,165.40,44.40,166.10,44.40,166.45,45.01,166.10,45.61,165.40,45.61,165.05,46.22,165.40,46.82,165.05,47.43,164.35,47.43,164.00,46.82,163.30,46.82,162.95,47.43,163.30,48.04,164.00,48.04,164.35,48.64,164.00,49.25,163.30,49.25,162.95,49.85,163.30,50.46,162.95,51.07,162.25,51.07,161.90,50.46,162.25,49.85,161.90,49.25,161.20,49.25,160.85,49.85,160.15,49.85,159.80,49.25,159.10,49.25,158.75,49.85,159.10,50.46,159.80,50.46,160.15,51.07,159.80,51.67,160.15,52.28,160.85,52.28,161.20,51.67,161.90,51.67,162.25,52.28,161.90,52.89,161.20,52.89,160.85,53.49,161.20,54.10,161.90,54.10,162.25,54.70,161.90,55.31,162.25,55.92,162.95,55.92,163.30,55.31,162.95,54.70,163.30,54.10,164.00,54.10,164.35,54.70,165.05,54.70,165.40,54.10,166.10,54.10,166.45,54.70,166.10,55.31,165.40,55.31,165.05,55.92,165.40,56.52,165.05,57.13,164.35,57.13,164.00,56.52,163.30,56.52,162.95,57.13,163.30,57.74,164.00,57.74,164.35,58.34,164.00,58.95,164.35,59.55,165.05,59.55,165.40,58.95,166.10,58.95,166.45,59.55,166.10,60.16,165.40,60.16,165.05,60.77,165.40,61.37,166.10,61.37,166.45,61.98,166.10,62.59,166.45,63.19,167.15,63.19,167.50,62.59,167.15,61.98,167.50,61.37,168.20,61.37,168.55,60.77,168.20,60.16,167.50,60.16,167.15,59.55,167.50,58.95,168.20,58.95,168.55,59.55,169.25,59.55,169.60,58.95,169.25,58.34,169.60,57.74,170.30,57.74,170.65,57.13,170.30,56.52,169.60,56.52,169.25,57.13,168.55,57.13,168.20,56.52,168.55,55.92,168.20,55.31,167.50,55.31,167.15,54.70,167.50,54.10,168.20,54.10,168.55,54.70,169.25,54.70,169.60,54.10,170.30,54.10,170.65,54.70,170.30,55.31,170.65,55.92,171.35,55.92,171.70,55.31,171.35,54.70,171.70,54.10,172.40,54.10,172.75,53.49,172.40,52.89,171.70,52.89,171.35,52.28,171.70,51.67,172.40,51.67,172.75,52.28,173.45,52.28,173.80,51.67,173.45,51.07,173.80,50.46,174.50,50.46,174.85,49.85,174.50,49.25,173.80,49.25,173.45,49.85,172.75,49.85,172.40,49.25,171.70,49.25,171.35,49.85,171.70,50.46,171.35,51.07,170.65,51.07,170.30,50.46,170.65,49.85,170.30,49.25,169.60,49.25,169.25,48.64,169.60,48.04,170.30,48.04,170.65,47.43,170.30,46.82,169.60,46.82,169.25,47.43,168.55,47.43,168.20,46.82,168.55,46.22,168.20,45.61,167.50,45.61,167.15,45.01,167.50,44.40,168.20,44.40,168.55,45.01,169.25,45.01,169.60,44.40,170.30,44.40,170.65,45.01,170.30,45.61,170.65,46.22,171.35,46.22,171.70,45.61,171.35,45.01,171.70,44.40,172.40,44.40,172.75,45.01,173.45,45.01,173.80,44.40,174.50,44.40,174.85,45.01,174.50,45.61,173.80,45.61,173.45,46.22,173.80,46.82,174.50,46.82,174.85,47.43,174.50,48.04,174.85,48.64,175.55,48.64,175.90,48.04,175.55,47.43,175.90,46.82,176.60,46.82,176.95,46.22,176.60,45.61,175.90,45.61,175.55,45.01,175.90,44.40,176.60,44.40,176.95,45.01,177.65,45.01,178.00,44.40,177.65,43.79,178.00,43.19,178.70,43.19,179.05,42.58,178.70,41.97,178.00,41.97,177.65,42.58,176.95,42.58,176.60,41.97,176.95,41.37,176.60,40.76,175.90,40.76,175.55,40.16,175.90,39.55,176.60,39.55,176.95,40.16,177.65,40.16,178.00,39.55,178.70,39.55,179.05,40.16,178.70,40.76,179.05,41.37,179.75,41.37,180.10,40.76,179.75,40.16,180.10,39.55,180.80,39.55,181.15,38.94,180.80,38.34,180.10,38.34,179.75,37.73,180.10,37.12,180.80,37.12,181.15,37.73,181.85,37.73,182.20,37.12,181.85,36.52,182.20,35.91,182.90,35.91,183.25,35.31,182.90,34.70,182.20,34.70,181.85,35.31,181.15,35.31,180.80,34.70,180.10,34.70,179.75,35.31,180.10,35.91,179.75,36.52,179.05,36.52,178.70,35.91,179.05,35.31,178.70,34.70,178.00,34.70,177.65,35.31,176.95,35.31,176.60,34.70,175.90,34.70,175.55,35.31,175.90,35.91,176.60,35.91,176.95,36.52,176.60,37.12,175.90,37.12,175.55,37.73,175.90,38.34,175.55,38.94,174.85,38.94,174.50,38.34,174.85,37.73,174.50,37.12,173.80,37.12,173.45,36.52,173.80,35.91,174.50,35.91,174.85,35.31,174.50,34.70,173.80,34.70,173.45,35.31,172.75,35.31,172.40,34.70,172.75,34.09,172.40,33.49,171.70,33.49,171.35,32.88,171.70,32.27,172.40,32.27,172.75,32.88,173.45,32.88,173.80,32.27,173.45,31.67,173.80,31.06,174.50,31.06,174.85,30.46,174.50,29.85,173.80,29.85,173.45,30.46,172.75,30.46,172.40,29.85,171.70,29.85,171.35,30.46,171.70,31.06,171.35,31.67,170.65,31.67,170.30,31.06,170.65,30.46,170.30,29.85,169.60,29.85,169.25,29.24,169.60,28.64,170.30,28.64,170.65,28.03,170.30,27.42,169.60,27.42,169.25,28.03,168.55,28.03,168.20,27.42,168.55,26.82,168.20,26.21,167.50,26.21,167.15,25.61,167.50,25.00,168.20,25.00,168.55,25.61,169.25,25.61,169.60,25.00,170.30,25.00,170.65,25.61,170.30,26.21,170.65,26.82,171.35,26.82,171.70,26.21,171.35,25.61,171.70,25.00,172.40,25.00,172.75,25.61,173.45,25.61,173.80,25.00,174.50,25.00,174.85,25.61,174.50,26.21,173.80,26.21,173.45,26.82,173.80,27.42,174.50,27.42,174.85,28.03,174.50,28.64,174.85,29.24,175.55,29.24,175.90,28.64,175.55,28.03,175.90,27.42,176.60,27.42,176.95,26.82,176.60,26.21,175.90,26.21,175.55,25.61,175.90,25.00,176.60,25.00,176.95,25.61,177.65,25.61,178.00,25.00,178.70,25.00,179.05,25.61,178.70,26.21,179.05,26.82,179.75,26.82,180.10,26.21,179.75,25.61,180.10,25.00,180.80,25.00,181.15,25.61,181.85,25.61,182.20,25.00,182.90,25.00,183.25,25.61,182.90,26.21,182.20,26.21,181.85,26.82,182.20,27.42,181.85,28.03,181.15,28.03,180.80,27.42,180.10,27.42,179.75,28.03,180.10,28.64,180.80,28.64,181.15,29.24,180.80,29.85,181.15,30.46,181.85,30.46,182.20,29.85,182.90,29.85,183.25,30.46,182.90,31.06,182.20,31.06,181.85,31.67,182.20,32.27,182.90,32.27,183.25,32.88,182.90,33.49,183.25,34.09,183.95,34.09,184.30,33.49,183.95,32.88,184.30,32.27,185.00,32.27,185.35,31.67,185.00,31.06,184.30,31.06,183.95,30.46,184.30,29.85,185.00,29.85,185.35,30.46,186.05,30.46,186.40,29.85,186.05,29.24,186.40,28.64,187.10,28.64,187.45,28.03,187.10,27.42,186.40,27.42,186.05,28.03,185.35,28.03,185.00,27.42,185.35,26.82,185.00,26.21,184.30,26.21,183.95,25.61,184.30,25.00,185.00,25.00,185.35,25.61,186.05,25.61,186.40,25.00,187.10,25.00,187.45,25.61,187.10,26.21,187.45,26.82,188.15,26.82,188.50,26.21,188.15,25.61,188.50,25.00,189.20,25.00"  style="fill:none;stroke:#000;stroke-width:0.1953;opacity:1"/>
</svg>