<?xml version="1.0"?><svg  viewBox="0 0 200 200" width="290mm" height="290mm" xmlns="http://www.w3.org/2000/svg"  version="1.2" viewport-fill="#fff">
  <polyline points="40.00,150.00,41.00,150.00,41.50,149.13,41.00,148.27,41.50,147.40,42.50,147.40,43.00,148.27,42.50,149.13,43.00,150.00,44.00,150.00,44.50,149.13,45.50,149.13,46.00,150.00,47.00,150.00,47.50,149.13,47.00,148.27,46.00,148.27,45.50,147.40,46.00,146.54,45.50,145.67,44.50,145.67,44.00,146.54,43.00,146.54,42.50,145.67,43.00,144.80,44.00,144.80,44.50,143.94,44.00,143.07,44.50,142.21,45.50,142.21,46.00,143.07,47.00,143.07,47.50,142.21,47.00,141.34,46.00,141.34,45.50,140.47,46.00,139.61,47.00,139.61,47.50,138.74,47.00,137.88,47.50,137.01,48.50,137.01,49.00,137.88,48.50,138.74,49.00,139.61,50.00,139.61,50.50,140.47,50.00,141.34,49.00,141.34,48.50,142.21,49.00,143.07,50.00,143.07,50.50,142.21,51.50,142.21,52.00,143.07,51.50,143.94,52.00,144.80,53.00,144.80,53.50,145.67,53.00,146.54,52.00,146.54,51.50,145.67,50.50,145.67,50.00,146.54,50.50,147.40,50.00,148.27,49.00,148.27,48.50,149.13,49.00,150.00,50.00,150.00,50.50,149.13,51.50,149.13,52.00,150.00,53.00,150.00,53.50,149.13,53.00,148.27,53.50,147.40,54.50,147.40,55.00,148.27,54.50,149.13,55.00,150.00,56.00,150.00,56.50,149.13,57.50,149.13,58.00,150.00,59.00,150.00,59.50,149.13,59.00,148.27,58.00,148.27,57.50,147.40,58.00,146.54,59.00,146.54,59.50,145.67,59.00,144.80,59.50,143.94,60.50,143.94,61.00,144.80,60.50,145.67,61.00,146.54,62.00,146.54,62.50,147.40,62.00,148.27,61.00,148.27,60.50,149.13,61.00,150.00,62.00,150.00,62.50,149.13,63.50,149.13,64.00,150.00,65.00,150.00,65.50,149.13,65.00,148.27,65.50,147.40,66.50,147.40,67.00,148.27,66.50,149.13,67.00,150.00,68.00,150.00,68.50,149.13,69.50,149.13,70.00,150.00,71.00,150.00,71.50,149.13,71.00,148.27,70.00,148.27,69.50,147.40,70.00,146.54,69.50,145.67,68.50,145.67,68.00,146.54,67.00,146.54,66.50,145.67,67.00,144.80,68.00,144.80,68.50,143.94,68.00,143.07,67.00,143.07,66.50,142.21,67.00,141.34,66.50,140.47,65.50,140.47,65.00,141.34,65.50,142.21,65.00,143.07,64.00,143.07,63.50,142.21,62.50,142.21,62.00,143.07,61.00,143.07,60.50,142.21,61.00,141.34,62.00,141.34,62.50,140.47,62.00,139.61,62.50,138.74,63.50,138.74,64.00,139.61,65.00,139.61,65.50,138.74,65.00,137.88,64.00,137.88,63.50,137.01,64.00,136.14,63.50,135.28,62.50,135.28,62.00,136.14,61.00,136.14,60.50,135.28,61.00,134.41,62.00,134.41,62.50,133.55,62.00,132.68,61.00,132.68,60.50,131.81,61.00,130.95,60.50,130.08,59.50,130.08,59.00,130.95,59.50,131.81,59.00,132.68,58.00,132.68,57.50,133.55,58.00,134.41,59.00,134.41,59.50,135.28,59.00,136.14,58.00,136.14,57.50,135.28,56.50,135.28,56.00,136.14,55.00,136.14,54.50,135.28,55.00,134.41,54.50,133.55,53.50,133.55,53.00,134.41,53.50,135.28,53.00,136.14,52.00,136.14,51.50,135.28,50.50,135.28,50.00,136.14,49.00,136.14,48.50,135.28,49.00,134.41,50.00,134.41,50.50,133.55,50.00,132.68,50.50,131.81,51.50,131.81,52.00,132.68,53.00,132.68,53.50,131.81,53.00,130.95,52.00,130.95,51.50,130.08,52.00,129.22,53.00,129.22,53.50,128.35,53.00,127.48,53.50,126.62,54.50,126.62,55.00,127.48,54.50,128.35,55.00,129.22,56.00,129.22,56.50,128.35,57.50,128.35,58.00,129.22,59.00,129.22,59.50,128.35,59.00,127.48,58.00,127.48,57.50,126.62,58.00,125.75,57.50,124.89,56.50,124.89,56.00,125.75,55.00,125.75,54.50,124.89,55.00,124.02,56.00,124.02,56.50,123.15,56.00,122.29,56.50,121.42,57.50,121.42,58.00,122.29,59.00,122.29,59.50,121.42,59.00,120.56,58.00,120.56,57.50,119.69,58.00,118.82,59.00,118.82,59.50,117.96,59.00,117.09,59.50,116.23,60.50,116.23,61.00,117.09,60.50,117.96,61.00,118.82,62.00,118.82,62.50,119.69,62.00,120.56,61.00,120.56,60.50,121.42,61.00,122.29,62.00,122.29,62.50,121.42,63.50,121.42,64.00,122.29,65.00,122.29,65.50,121.42,65.00,120.56,65.50,119.69,66.50,119.69,67.00,120.56,66.50,121.42,67.00,122.29,68.00,122.29,68.50,121.42,69.50,121.42,70.00,122.29,71.00,122.29,71.50,121.42,71.00,120.56,70.00,120.56,69.50,119.69,70.00,118.82,69.50,117.96,68.50,117.96,68.00,118.82,67.00,118.82,66.50,117.96,67.00,117.09,68.00,117.09,68.50,116.23,68.00,115.36,67.00,115.36,66.50,114.49,67.00,113.63,66.50,112.76,65.50,112.76,65.00,113.63,65.50,114.49,65.00,115.36,64.00,115.36,63.50,114.49,62.50,114.49,62.00,115.36,61.00,115.36,60.50,114.49,61.00,113.63,62.00,113.63,62.50,112.76,62.00,111.89,62.50,111.03,63.50,111.03,64.00,111.89,65.00,111.89,65.50,111.03,65.00,110.16,64.00,110.16,63.50,109.30,64.00,108.43,65.00,108.43,65.50,107.56,65.00,106.70,65.50,105.83,66.50,105.83,67.00,106.70,66.50,107.56,67.00,108.43,68.00,108.43,68.50,107.56,69.50,107.56,70.00,108.43,71.00,108.43,71.50,107.56,71.00,106.70,70.00,106.70,69.50,105.83,70.00,104.97,69.50,104.10,68.50,104.10,68.00,104.97,67.00,104.97,66.50,104.10,67.00,103.23,68.00,103.23,68.50,102.37,68.00,101.50,68.50,100.64,69.50,100.64,70.00,101.50,71.00,101.50,71.50,100.64,71.00,99.77,70.00,99.77,69.50,98.90,70.00,98.04,71.00,98.04,71.50,97.17,71.00,96.31,71.50,95.44,72.50,95.44,73.00,96.31,72.50,97.17,73.00,98.04,74.00,98.04,74.50,98.90,74.00,99.77,73.00,99.77,72.50,100.64,73.00,101.50,74.00,101.50,74.50,100.64,75.50,100.64,76.00,101.50,75.50,102.37,76.00,103.23,77.00,103.23,77.50,104.10,77.00,104.97,76.00,104.97,75.50,104.10,74.50,104.10,74.00,104.97,74.50,105.83,74.00,106.70,73.00,106.70,72.50,107.56,73.00,108.43,74.00,108.43,74.50,107.56,75.50,107.56,76.00,108.43,77.00,108.43,77.50,107.56,77.00,106.70,77.50,105.83,78.50,105.83,79.00,106.70,78.50,107.56,79.00,108.43,80.00,108.43,80.50,109.30,80.00,110.16,79.00,110.16,78.50,111.03,79.00,111.89,80.00,111.89,80.50,111.03,81.50,111.03,82.00,111.89,81.50,112.76,82.00,113.63,83.00,113.63,83.50,114.49,83.00,115.36,82.00,115.36,81.50,114.49,80.50,114.49,80.00,115.36,79.00,115.36,78.50,114.49,79.00,113.63,78.50,112.76,77.50,112.76,77.00,113.63,77.50,114.49,77.00,115.36,76.00,115.36,75.50,116.23,76.00,117.09,77.00,117.09,77.50,117.96,77.00,118.82,76.00,118.82,75.50,117.96,74.50,117.96,74.00,118.82,74.50,119.69,74.00,120.56,73.00,120.56,72.50,121.42,73.00,122.29,74.00,122.29,74.50,121.42,75.50,121.42,76.00,122.29,77.00,122.29,77.50,121.42,77.00,120.56,77.50,119.69,78.50,119.69,79.00,120.56,78.50,121.42,79.00,122.29,80.00,122.29,80.50,121.42,81.50,121.42,82.00,122.29,83.00,122.29,83.50,121.42,83.00,120.56,82.00,120.56,81.50,119.69,82.00,118.82,83.00,118.82,83.50,117.96,83.00,117.09,83.50,116.23,84.50,116.23,85.00,117.09,84.50,117.96,85.00,118.82,86.00,118.82,86.50,119.69,86.00,120.56,85.00,120.56,84.50,121.42,85.00,122.29,86.00,122.29,86.50,121.42,87.50,121.42,88.00,122.29,87.50,123.15,88.00,124.02,89.00,124.02,89.50,124.89,89.00,125.75,88.00,125.75,87.50,124.89,86.50,124.89,86.00,125.75,86.50,126.62,86.00,127.48,85.00,127.48,84.50,128.35,85.00,129.22,86.00,129.22,86.50,128.35,87.50,128.35,88.00,129.22,89.00,129.22,89.50,128.35,89.00,127.48,89.50,126.62,90.50,126.62,91.00,127.48,90.50,128.35,91.00,129.22,92.00,129.22,92.50,130.08,92.00,130.95,91.00,130.95,90.50,131.81,91.00,132.68,92.00,132.68,92.50,131.81,93.50,131.81,94.00,132.68,93.50,133.55,94.00,134.41,95.00,134.41,95.50,135.28,95.00,136.14,94.00,136.14,93.50,135.28,92.50,135.28,92.00,136.14,91.00,136.14,90.50,135.28,91.00,134.41,90.50,133.55,89.50,133.55,89.00,134.41,89.50,135.28,89.00,136.14,88.00,136.14,87.50,135.28,86.50,135.28,86.00,136.14,85.00,136.14,84.50,135.28,85.00,134.41,86.00,134.41,86.50,133.55,86.00,132.68,85.00,132.68,84.50,131.81,85.00,130.95,84.50,130.08,83.50,130.08,83.00,130.95,83.50,131.81,83.00,132.68,82.00,132.68,81.50,133.55,82.00,134.41,83.00,134.41,83.50,135.28,83.00,136.14,82.00,136.14,81.50,135.28,80.50,135.28,80.00,136.14,80.50,137.01,80.00,137.88,79.00,137.88,78.50,138.74,79.00,139.61,80.00,139.61,80.50,138.74,81.50,138.74,82.00,139.61,81.50,140.47,82.00,141.34,83.00,141.34,83.50,142.21,83.00,143.07,82.00,143.07,81.50,142.21,80.50,142.21,80.00,143.07,79.00,143.07,78.50,142.21,79.00,141.34,78.50,140.47,77.50,140.47,77.00,141.34,77.50,142.21,77.00,143.07,76.00,143.07,75.50,143.94,76.00,144.80,77.00,144.80,77.50,145.67,77.00,146.54,76.00,146.54,75.50,145.67,74.50,145.67,74.00,146.54,74.50,147.40,74.00,148.27,73.00,148.27,72.50,149.13,73.00,150.00,74.00,150.00,74.50,149.13,75.50,149.13,76.00,150.00,77.00,150.00,77.50,149.13,77.00,148.27,77.50,147.40,78.50,147.40,79.00,148.27,78.50,149.13,79.00,150.00,80.00,150.00,80.50,149.13,81.50,149.13,82.00,150.00,83.00,150.00,83.50,149.13,83.00,148.27,82.00,148.27,81.50,147.40,82.00,146.54,83.00,146.54,83.50,145.67,83.00,144.80,83.50,143.94,84.50,143.94,85.00,144.80,84.50,145.67,85.00,146.54,86.00,146.54,86.50,147.40,86.00,148.27,85.00,148.27,84.50,149.13,85.00,150.00,86.00,150.00,86.50,149.13,87.50,149.13,88.00,150.00,89.00,150.00,89.50,149.13,89.00,148.27,89.50,147.40,90.50,147.40,91.00,148.27,90.50,149.13,91.00,150.00,92.00,150.00,92.50,149.13,93.50,149.13,94.00,150.00,95.00,150.00,95.50,149.13,95.00,148.27,94.00,148.27,93.50,147.40,94.00,146.54,93.50,145.67,92.50,145.67,92.00,146.54,91.00,146.54,90.50,145.67,91.00,144.80,92.00,144.80,92.50,143.94,92.00,143.07,92.50,142.21,93.50,142.21,94.00,143.07,95.00,143.07,95.50,142.21,95.00,141.34,94.00,141.34,93.50,140.47,94.00,139.61,95.00,139.61,95.50,138.74,95.00,137.88,95.50,137.01,96.50,137.01,97.00,137.88,96.50,138.74,97.00,139.61,98.00,139.61,98.50,140.47,98.00,141.34,97.00,141.34,96.50,142.21,97.00,143.07,98.00,143.07,98.50,142.21,99.50,142.21,100.00,143.07,99.50,143.94,100.00,144.80,101.00,144.80,101.50,145.67,101.00,146.54,100.00,146.54,99.50,145.67,98.50,145.67,98.00,146.54,98.50,147.40,98.00,148.27,97.00,148.27,96.50,149.13,97.00,150.00,98.00,150.00,98.50,149.13,99.50,149.13,100.00,150.00,101.00,150.00,101.50,149.13,101.00,148.27,101.50,147.40,102.50,147.40,103.00,148.27,102.50,149.13,103.00,150.00,104.00,150.00,104.50,149.13,105.50,149.13,106.00,150.00,107.00,150.00,107.50,149.13,107.00,148.27,106.00,148.27,105.50,147.40,106.00,146.54,107.00,146.54,107.50,145.67,107.00,144.80,107.50,143.94,108.50,143.94,109.00,144.80,108.50,145.67,109.00,146.54,110.00,146.54,110.50,147.40,110.00,148.27,109.00,148.27,108.50,149.13,109.00,150.00,110.00,150.00,110.50,149.13,111.50,149.13,112.00,150.00,113.00,150.00,113.50,149.13,113.00,148.27,113.50,147.40,114.50,147.40,115.00,148.27,114.50,149.13,115.00,150.00,116.00,150.00,116.50,149.13,117.50,149.13,118.00,150.00,119.00,150.00,119.50,149.13,119.00,148.27,118.00,148.27,117.50,147.40,118.00,146.54,117.50,145.67,116.50,145.67,116.00,146.54,115.00,146.54,114.50,145.67,115.00,144.80,116.00,144.80,116.50,143.94,116.00,143.07,115.00,143.07,114.50,142.21,115.00,141.34,114.50,140.47,113.50,140.47,113.00,141.34,113.50,142.21,113.00,143.07,112.00,143.07,111.50,142.21,110.50,142.21,110.00,143.07,109.00,143.07,108.50,142.21,109.00,141.34,110.00,141.34,110.50,140.47,110.00,139.61,110.50,138.74,111.50,138.74,112.00,139.61,113.00,139.61,113.50,138.74,113.00,137.88,112.00,137.88,111.50,137.01,112.00,136.14,113.00,136.14,113.50,135.28,113.00,134.41,113.50,133.55,114.50,133.55,115.00,134.41,114.50,135.28,115.00,136.14,116.00,136.14,116.50,135.28,117.50,135.28,118.00,136.14,119.00,136.14,119.50,135.28,119.00,134.41,118.00,134.41,117.50,133.55,118.00,132.68,117.50,131.81,116.50,131.81,116.00,132.68,115.00,132.68,114.50,131.81,115.00,130.95,116.00,130.95,116.50,130.08,116.00,129.22,116.50,128.35,117.50,128.35,118.00,129.22,119.00,129.22,119.50,128.35,119.00,127.48,118.00,127.48,117.50,126.62,118.00,125.75,119.00,125.75,119.50,124.89,119.00,124.02,119.50,123.15,120.50,123.15,121.00,124.02,120.50,124.89,121.00,125.75,122.00,125.75,122.50,126.62,122.00,127.48,121.00,127.48,120.50,128.35,121.00,129.22,122.00,129.22,122.50,128.35,123.50,128.35,124.00,129.22,123.50,130.08,124.00,130.95,125.00,130.95,125.50,131.81,125.00,132.68,124.00,132.68,123.50,131.81,122.50,131.81,122.00,132.68,122.50,133.55,122.00,134.41,121.00,134.41,120.50,135.28,121.00,136.14,122.00,136.14,122.50,135.28,123.50,135.28,124.00,136.14,125.00,136.14,125.50,135.28,125.00,134.41,125.50,133.55,126.50,133.55,127.00,134.41,126.50,135.28,127.00,136.14,128.00,136.14,128.50,137.01,128.00,137.88,127.00,137.88,126.50,138.74,127.00,139.61,128.00,139.61,128.50,138.74,129.50,138.74,130.00,139.61,129.50,140.47,130.00,141.34,131.00,141.34,131.50,142.21,131.00,143.07,130.00,143.07,129.50,142.21,128.50,142.21,128.00,143.07,127.00,143.07,126.50,142.21,127.00,141.34,126.50,140.47,125.50,140.47,125.00,141.34,125.50,142.21,125.00,143.07,124.00,143.07,123.50,143.94,124.00,144.80,125.00,144.80,125.50,145.67,125.00,146.54,124.00,146.54,123.50,145.67,122.50,145.67,122.00,146.54,122.50,147.40,122.00,148.27,121.00,148.27,120.50,149.13,121.00,150.00,122.00,150.00,122.50,149.13,123.50,149.13,124.00,150.00,125.00,150.00,125.50,149.13,125.00,148.27,125.50,147.40,126.50,147.40,127.00,148.27,126.50,149.13,127.00,150.00,128.00,150.00,128.50,149.13,129.50,149.13,130.00,150.00,131.00,150.00,131.50,149.13,131.00,148.27,130.00,148.27,129.50,147.40,130.00,146.54,131.00,146.54,131.50,145.67,131.00,144.80,131.50,143.94,132.50,143.94,133.00,144.80,132.50,145.67,133.00,146.54,134.00,146.54,134.50,147.40,134.00,148.27,133.00,148.27,132.50,149.13,133.00,150.00,134.00,150.00,134.50,149.13,135.50,149.13,136.00,150.00,137.00,150.00,137.50,149.13,137.00,148.27,137.50,147.40,138.50,147.40,139.00,148.27,138.50,149.13,139.00,150.00,140.00,150.00,140.50,149.13,141.50,149.13,142.00,150.00,143.00,150.00,143.50,149.13,143.00,148.27,142.00,148.27,141.50,147.40,142.00,146.54,141.50,145.67,140.50,145.67,140.00,146.54,139.00,146.54,138.50,145.67,139.00,144.80,140.00,144.80,140.50,143.94,140.00,143.07,140.50,142.21,141.50,142.21,142.00,143.07,143.00,143.07,143.50,142.21,143.00,141.34,142.00,141.34,141.50,140.47,142.00,139.61,143.00,139.61,143.50,138.74,143.00,137.88,143.50,137.01,144.50,137.01,145.00,137.88,144.50,138.74,145.00,139.61,146.00,139.61,146.50,140.47,146.00,141.34,145.00,141.34,144.50,142.21,145.00,143.07,146.00,143.07,146.50,142.21,147.50,142.21,148.00,143.07,147.50,143.94,148.00,144.80,149.00,144.80,149.50,145.67,149.00,146.54,148.00,146.54,147.50,145.67,146.50,145.67,146.00,146.54,146.50,147.40,146.00,148.27,145.00,148.27,144.50,149.13,145.00,150.00,146.00,150.00,146.50,149.13,147.50,149.13,148.00,150.00,149.00,150.00,149.50,149.13,149.00,148.27,149.50,147.40,150.50,147.40,151.00,148.27,150.50,149.13,151.00,150.00,152.00,150.00,152.50,149.13,153.50,149.13,154.00,150.00,155.00,150.00,155.50,149.13,155.00,148.27,154.00,148.27,153.50,147.40,154.00,146.54,155.00,146.54,155.50,145.67,155.00,144.80,155.50,143.94,156.50,143.94,157.00,144.80,156.50,145.67,157.00,146.54,158.00,146.54,158.50,147.40,158.00,148.27,157.00,148.27,156.50,149.13,157.00,150.00,158.00,150.00,158.50,149.13,159.50,149.13,160.00,150.00,161.00,150.00,161.50,149.13,161.00,148.27,161.50,147.40,162.50,147.40,163.00,148.27,162.50,149.13,163.00,150.00,164.00,150.00,164.50,149.13,165.50,149.13,166.00,150.00,167.00,150.00,167.50,149.13,167.00,148.27,166.00,148.27,165.50,147.40,166.00,146.54,165.50,145.67,164.50,145.67,164.00,146.54,163.00,146.54,162.50,145.67,163.00,144.80,164.00,144.80,164.50,143.94,164.00,143.07,163.00,143.07,162.50,142.21,163.00,141.34,162.50,140.47,161.50,140.47,161.00,141.34,161.50,142.21,161.00,143.07,160.00,143.07,159.50,142.21,158.50,142.21,158.00,143.07,157.00,143.07,156.50,142.21,157.00,141.34,158.00,141.34,158.50,140.47,158.00,139.61,158.50,138.74,159.50,138.74,160.00,139.61,161.00,139.61,161.50,138.74,161.00,137.88,160.00,137.88,159.50,137.01,160.00,136.14,159.50,135.28,158.50,135.28,158.00,136.14,157.00,136.14,156.50,135.28,157.00,134.41,158.00,134.41,158.50,133.55,158.00,132.68,157.00,132.68,156.50,131.81,157.00,130.95,156.50,130.08,155.50,130.08,155.00,130.95,155.50,131.81,155.00,132.68,154.00,132.68,153.50,133.55,154.00,134.41,155.00,134.41,155.50,135.28,155.00,136.14,154.00,136.14,153.50,135.28,152.50,135.28,152.00,136.14,151.00,136.14,150.50,135.28,151.00,134.41,150.50,133.55,149.50,133.55,149.00,134.41,149.50,135.28,149.00,136.14,148.00,136.14,147.50,135.28,146.50,135.28,146.00,136.14,145.00,136.14,144.50,135.28,145.00,134.41,146.00,134.41,146.50,133.55,146.00,132.68,146.50,131.81,147.50,131.81,148.00,132.68,149.00,132.68,149.50,131.81,149.00,130.95,148.00,130.95,147.50,130.08,148.00,129.22,149.00,129.22,149.50,128.35,149.00,127.48,149.50,126.62,150.50,126.62,151.00,127.48,150.50,128.35,151.00,129.22,152.00,129.22,152.50,128.35,153.50,128.35,154.00,129.22,155.00,129.22,155.50,128.35,155.00,127.48,154.00,127.48,153.50,126.62,154.00,125.75,153.50,124.89,152.50,124.89,152.00,125.75,151.00,125.75,150.50,124.89,151.00,124.02,152.00,124.02,152.50,123.15,152.00,122.29,151.00,122.29,150.50,121.42,151.00,120.56,150.50,119.69,149.50,119.69,149.00,120.56,149.50,121.42,149.00,122.29,148.00,122.29,147.50,121.42,146.50,121.42,146.00,122.29,145.00,122.29,144.50,121.42,145.00,120.56,146.00,120.56,146.50,119.69,146.00,118.82,146.50,117.96,147.50,117.96,148.00,118.82,149.00,118.82,149.50,117.96,149.00,117.09,148.00,117.09,147.50,116.23,148.00,115.36,147.50,114.49,146.50,114.49,146.00,115.36,145.00,115.36,144.50,114.49,145.00,113.63,146.00,113.63,146.50,112.76,146.00,111.89,145.00,111.89,144.50,111.03,145.00,110.16,144.50,109.30,143.50,109.30,143.00,110.16,143.50,111.03,143.00,111.89,142.00,111.89,141.50,112.76,142.00,113.63,143.00,113.63,143.50,114.49,143.00,115.36,142.00,115.36,141.50,114.49,140.50,114.49,140.00,115.36,140.50,116.23,140.00,117.09,139.00,117.09,138.50,117.96,139.00,118.82,140.00,118.82,140.50,117.96,141.50,117.96,142.00,118.82,141.50,119.69,142.00,120.56,143.00,120.56,143.50,121.42,143.00,122.29,142.00,122.29,141.50,121.42,140.50,121.42,140.00,122.29,139.00,122.29,138.50,121.42,139.00,120.56,138.50,119.69,137.50,119.69,137.00,120.56,137.50,121.42,137.00,122.29,136.00,122.29,135.50,121.42,134.50,121.42,134.00,122.29,133.00,122.29,132.50,121.42,133.00,120.56,134.00,120.56,134.50,119.69,134.00,118.82,133.00,118.82,132.50,117.96,133.00,117.09,132.50,116.23,131.50,116.23,131.00,117.09,131.50,117.96,131.00,118.82,130.00,118.82,129.50,119.69,130.00,120.56,131.00,120.56,131.50,121.42,131.00,122.29,130.00,122.29,129.50,121.42,128.50,121.42,128.00,122.29,127.00,122.29,126.50,121.42,127.00,120.56,126.50,119.69,125.50,119.69,125.00,120.56,125.50,121.42,125.00,122.29,124.00,122.29,123.50,121.42,122.50,121.42,122.00,122.29,121.00,122.29,120.50,121.42,121.00,120.56,122.00,120.56,122.50,119.69,122.00,118.82,122.50,117.96,123.50,117.96,124.00,118.82,125.00,118.82,125.50,117.96,125.00,117.09,124.00,117.09,123.50,116.23,124.00,115.36,125.00,115.36,125.50,114.49,125.00,113.63,125.50,112.76,126.50,112.76,127.00,113.63,126.50,114.49,127.00,115.36,128.00,115.36,128.50,114.49,129.50,114.49,130.00,115.36,131.00,115.36,131.50,114.49,131.00,113.63,130.00,113.63,129.50,112.76,130.00,111.89,129.50,111.03,128.50,111.03,128.00,111.89,127.00,111.89,126.50,111.03,127.00,110.16,128.00,110.16,128.50,109.30,128.00,108.43,128.50,107.56,129.50,107.56,130.00,108.43,131.00,108.43,131.50,107.56,131.00,106.70,130.00,106.70,129.50,105.83,130.00,104.97,131.00,104.97,131.50,104.10,131.00,103.23,131.50,102.37,132.50,102.37,133.00,103.23,132.50,104.10,133.00,104.97,134.00,104.97,134.50,105.83,134.00,106.70,133.00,106.70,132.50,107.56,133.00,108.43,134.00,108.43,134.50,107.56,135.50,107.56,136.00,108.43,137.00,108.43,137.50,107.56,137.00,106.70,137.50,105.83,138.50,105.83,139.00,106.70,138.50,107.56,139.00,108.43,140.00,108.43,140.50,107.56,141.50,107.56,142.00,108.43,143.00,108.43,143.50,107.56,143.00,106.70,142.00,106.70,141.50,105.83,142.00,104.97,141.50,104.10,140.50,104.10,140.00,104.97,139.00,104.97,138.50,104.10,139.00,103.23,140.00,103.23,140.50,102.37,140.00,101.50,139.00,101.50,138.50,100.64,139.00,99.77,138.50,98.90,137.50,98.90,137.00,99.77,137.50,100.64,137.00,101.50,136.00,101.50,135.50,100.64,134.50,100.64,134.00,101.50,133.00,101.50,132.50,100.64,133.00,99.77,134.00,99.77,134.50,98.90,134.00,98.04,134.50,97.17,135.50,97.17,136.00,98.04,137.00,98.04,137.50,97.17,137.00,96.31,136.00,96.31,135.50,95.44,136.00,94.57,135.50,93.71,134.50,93.71,134.00,94.57,133.00,94.57,132.50,93.71,133.00,92.84,134.00,92.84,134.50,91.98,134.00,91.11,133.00,91.11,132.50,90.24,133.00,89.38,132.50,88.51,131.50,88.51,131.00,89.38,131.50,90.24,131.00,91.11,130.00,91.11,129.50,91.98,130.00,92.84,131.00,92.84,131.50,93.71,131.00,94.57,130.00,94.57,129.50,93.71,128.50,93.71,128.00,94.57,127.00,94.57,126.50,93.71,127.00,92.84,126.50,91.98,125.50,91.98,125.00,92.84,125.50,93.71,125.00,94.57,124.00,94.57,123.50,93.71,122.50,93.71,122.00,94.57,121.00,94.57,120.50,93.71,121.00,92.84,122.00,92.84,122.50,91.98,122.00,91.11,122.50,90.24,123.50,90.24,124.00,91.11,125.00,91.11,125.50,90.24,125.00,89.38,124.00,89.38,123.50,88.51,124.00,87.65,125.00,87.65,125.50,86.78,125.00,85.91,125.50,85.05,126.50,85.05,127.00,85.91,126.50,86.78,127.00,87.65,128.00,87.65,128.50,86.78,129.50,86.78,130.00,87.65,131.00,87.65,131.50,86.78,131.00,85.91,130.00,85.91,129.50,85.05,130.00,84.18,129.50,83.32,128.50,83.32,128.00,84.18,127.00,84.18,126.50,83.32,127.00,82.45,128.00,82.45,128.50,81.58,128.00,80.72,127.00,80.72,126.50,79.85,127.00,78.99,126.50,78.12,125.50,78.12,125.00,78.99,125.50,79.85,125.00,80.72,124.00,80.72,123.50,79.85,122.50,79.85,122.00,80.72,121.00,80.72,120.50,79.85,121.00,78.99,122.00,78.99,122.50,78.12,122.00,77.25,122.50,76.39,123.50,76.39,124.00,77.25,125.00,77.25,125.50,76.39,125.00,75.52,124.00,75.52,123.50,74.66,124.00,73.79,123.50,72.92,122.50,72.92,122.00,73.79,121.00,73.79,120.50,72.92,121.00,72.06,122.00,72.06,122.50,71.19,122.00,70.33,121.00,70.33,120.50,69.46,121.00,68.59,120.50,67.73,119.50,67.73,119.00,68.59,119.50,69.46,119.00,70.33,118.00,70.33,117.50,71.19,118.00,72.06,119.00,72.06,119.50,72.92,119.00,73.79,118.00,73.79,117.50,72.92,116.50,72.92,116.00,73.79,116.50,74.66,116.00,75.52,115.00,75.52,114.50,76.39,115.00,77.25,116.00,77.25,116.50,76.39,117.50,76.39,118.00,77.25,117.50,78.12,118.00,78.99,119.00,78.99,119.50,79.85,119.00,80.72,118.00,80.72,117.50,79.85,116.50,79.85,116.00,80.72,115.00,80.72,114.50,79.85,115.00,78.99,114.50,78.12,113.50,78.12,113.00,78.99,113.50,79.85,113.00,80.72,112.00,80.72,111.50,81.58,112.00,82.45,113.00,82.45,113.50,83.32,113.00,84.18,112.00,84.18,111.50,83.32,110.50,83.32,110.00,84.18,110.50,85.05,110.00,85.91,109.00,85.91,108.50,86.78,109.00,87.65,110.00,87.65,110.50,86.78,111.50,86.78,112.00,87.65,113.00,87.65,113.50,86.78,113.00,85.91,113.50,85.05,114.50,85.05,115.00,85.91,114.50,86.78,115.00,87.65,116.00,87.65,116.50,88.51,116.00,89.38,115.00,89.38,114.50,90.24,115.00,91.11,116.00,91.11,116.50,90.24,117.50,90.24,118.00,91.11,117.50,91.98,118.00,92.84,119.00,92.84,119.50,93.71,119.00,94.57,118.00,94.57,117.50,93.71,116.50,93.71,116.00,94.57,115.00,94.57,114.50,93.71,115.00,92.84,114.50,91.98,113.50,91.98,113.00,92.84,113.50,93.71,113.00,94.57,112.00,94.57,111.50,93.71,110.50,93.71,110.00,94.57,109.00,94.57,108.50,93.71,109.00,92.84,110.00,92.84,110.50,91.98,110.00,91.11,109.00,91.11,108.50,90.24,109.00,89.38,108.50,88.51,107.50,88.51,107.00,89.38,107.50,90.24,107.00,91.11,106.00,91.11,105.50,91.98,106.00,92.84,107.00,92.84,107.50,93.71,107.00,94.57,106.00,94.57,105.50,93.71,104.50,93.71,104.00,94.57,103.00,94.57,102.50,93.71,103.00,92.84,102.50,91.98,101.50,91.98,101.00,92.84,101.50,93.71,101.00,94.57,100.00,94.57,99.50,93.71,98.50,93.71,98.00,94.57,97.00,94.57,96.50,93.71,97.00,92.84,98.00,92.84,98.50,91.98,98.00,91.11,98.50,90.24,99.50,90.24,100.00,91.11,101.00,91.11,101.50,90.24,101.00,89.38,100.00,89.38,99.50,88.51,100.00,87.65,99.50,86.78,98.50,86.78,98.00,87.65,97.00,87.65,96.50,86.78,97.00,85.91,98.00,85.91,98.50,85.05,98.00,84.18,97.00,84.18,96.50,83.32,97.00,82.45,96.50,81.58,95.50,81.58,95.00,82.45,95.50,83.32,95.00,84.18,94.00,84.18,93.50,85.05,94.00,85.91,95.00,85.91,95.50,86.78,95.00,87.65,94.00,87.65,93.50,86.78,92.50,86.78,92.00,87.65,92.50,88.51,92.00,89.38,91.00,89.38,90.50,90.24,91.00,91.11,92.00,91.11,92.50,90.24,93.50,90.24,94.00,91.11,93.50,91.98,94.00,92.84,95.00,92.84,95.50,93.71,95.00,94.57,94.00,94.57,93.50,93.71,92.50,93.71,92.00,94.57,91.00,94.57,90.50,93.71,91.00,92.84,90.50,91.98,89.50,91.98,89.00,92.84,89.50,93.71,89.00,94.57,88.00,94.57,87.50,93.71,86.50,93.71,86.00,94.57,85.00,94.57,84.50,93.71,85.00,92.84,86.00,92.84,86.50,91.98,86.00,91.11,85.00,91.11,84.50,90.24,85.00,89.38,84.50,88.51,83.50,88.51,83.00,89.38,83.50,90.24,83.00,91.11,82.00,91.11,81.50,91.98,82.00,92.84,83.00,92.84,83.50,93.71,83.00,94.57,82.00,94.57,81.50,93.71,80.50,93.71,80.00,94.57,79.00,94.57,78.50,93.71,79.00,92.84,78.50,91.98,77.50,91.98,77.00,92.84,77.50,93.71,77.00,94.57,76.00,94.57,75.50,93.71,74.50,93.71,74.00,94.57,73.00,94.57,72.50,93.71,73.00,92.84,74.00,92.84,74.50,91.98,74.00,91.11,74.50,90.24,75.50,90.24,76.00,91.11,77.00,91.11,77.50,90.24,77.00,89.38,76.00,89.38,75.50,88.51,76.00,87.65,77.00,87.65,77.50,86.78,77.00,85.91,77.50,85.05,78.50,85.05,79.00,85.91,78.50,86.78,79.00,87.65,80.00,87.65,80.50,86.78,81.50,86.78,82.00,87.65,83.00,87.65,83.50,86.78,83.00,85.91,82.00,85.91,81.50,85.05,82.00,84.18,81.50,83.32,80.50,83.32,80.00,84.18,79.00,84.18,78.50,83.32,79.00,82.45,80.00,82.45,80.50,81.58,80.00,80.72,80.50,79.85,81.50,79.85,82.00,80.72,83.00,80.72,83.50,79.85,83.00,78.99,82.00,78.99,81.50,78.12,82.00,77.25,83.00,77.25,83.50,76.39,83.00,75.52,83.50,74.66,84.50,74.66,85.00,75.52,84.50,76.39,85.00,77.25,86.00,77.25,86.50,78.12,86.00,78.99,85.00,78.99,84.50,79.85,85.00,80.72,86.00,80.72,86.50,79.85,87.50,79.85,88.00,80.72,89.00,80.72,89.50,79.85,89.00,78.99,89.50,78.12,90.50,78.12,91.00,78.99,90.50,79.85,91.00,80.72,92.00,80.72,92.50,79.85,93.50,79.85,94.00,80.72,95.00,80.72,95.50,79.85,95.00,78.99,94.00,78.99,93.50,78.12,94.00,77.25,93.50,76.39,92.50,76.39,92.00,77.25,91.00,77.25,90.50,76.39,91.00,75.52,92.00,75.52,92.50,74.66,92.00,73.79,91.00,73.79,90.50,72.92,91.00,72.06,90.50,71.19,89.50,71.19,89.00,72.06,89.50,72.92,89.00,73.79,88.00,73.79,87.50,72.92,86.50,72.92,86.00,73.79,85.00,73.79,84.50,72.92,85.00,72.06,86.00,72.06,86.50,71.19,86.00,70.33,86.50,69.46,87.50,69.46,88.00,70.33,89.00,70.33,89.50,69.46,89.00,68.59,88.00,68.59,87.50,67.73,88.00,66.86,89.00,66.86,89.50,66.00,89.00,65.13,89.50,64.26,90.50,64.26,91.00,65.13,90.50,66.00,91.00,66.86,92.00,66.86,92.50,66.00,93.50,66.00,94.00,66.86,95.00,66.86,95.50,66.00,95.00,65.13,94.00,65.13,93.50,64.26,94.00,63.40,93.50,62.53,92.50,62.53,92.00,63.40,91.00,63.40,90.50,62.53,91.00,61.67,92.00,61.67,92.50,60.80,92.00,59.93,92.50,59.07,93.50,59.07,94.00,59.93,95.00,59.93,95.50,59.07,95.00,58.20,94.00,58.20,93.50,57.34,94.00,56.47,95.00,56.47,95.50,55.60,95.00,54.74,95.50,53.87,96.50,53.87,97.00,54.74,96.50,55.60,97.00,56.47,98.00,56.47,98.50,57.34,98.00,58.20,97.00,58.20,96.50,59.07,97.00,59.93,98.00,59.93,98.50,59.07,99.50,59.07,100.00,59.93,99.50,60.80,100.00,61.67,101.00,61.67,101.50,62.53,101.00,63.40,100.00,63.40,99.50,62.53,98.50,62.53,98.00,63.40,98.50,64.26,98.00,65.13,97.00,65.13,96.50,66.00,97.00,66.86,98.00,66.86,98.50,66.00,99.50,66.00,100.00,66.86,101.00,66.86,101.50,66.00,101.00,65.13,101.50,64.26,102.50,64.26,103.00,65.13,102.50,66.00,103.00,66.86,104.00,66.86,104.50,66.00,105.50,66.00,106.00,66.86,107.00,66.86,107.50,66.00,107.00,65.13,106.00,65.13,105.50,64.26,106.00,63.40,107.00,63.40,107.50,62.53,107.00,61.67,107.50,60.80,108.50,60.80,109.00,61.67,108.50,62.53,109.00,63.40,110.00,63.40,110.50,64.26,110.00,65.13,109.00,65.13,108.50,66.00,109.00,66.86,110.00,66.86,110.50,66.00,111.50,66.00,112.00,66.86,113.00,66.86,113.50,66.00,113.00,65.13,113.50,64.26,114.50,64.26,115.00,65.13,114.50,66.00,115.00,66.86,116.00,66.86,116.50,66.00,117.50,66.00,118.00,66.86,119.00,66.86,119.50,66.00,119.00,65.13,118.00,65.13,117.50,64.26,118.00,63.40,117.50,62.53,116.50,62.53,116.00,63.40,115.00,63.40,114.50,62.53,115.00,61.67,116.00,61.67,116.50,60.80,116.00,59.93,115.00,59.93,114.50,59.07,115.00,58.20,114.50,57.34,113.50,57.34,113.00,58.20,113.50,59.07,113.00,59.93,112.00,59.93,111.50,59.07,110.50,59.07,110.00,59.93,109.00,59.93,108.50,59.07,109.00,58.20,110.00,58.20,110.50,57.34,110.00,56.47,110.50,55.60,111.50,55.60,112.00,56.47,113.00,56.47,113.50,55.60,113.00,54.74,112.00,54.74,111.50,53.87,112.00,53.01,111.50,52.14,110.50,52.14,110.00,53.01,109.00,53.01,108.50,52.14,109.00,51.27,110.00,51.27,110.50,50.41,110.00,49.54,109.00,49.54,108.50,48.68,109.00,47.81,108.50,46.94,107.50,46.94,107.00,47.81,107.50,48.68,107.00,49.54,106.00,49.54,105.50,50.41,106.00,51.27,107.00,51.27,107.50,52.14,107.00,53.01,106.00,53.01,105.50,52.14,104.50,52.14,104.00,53.01,103.00,53.01,102.50,52.14,103.00,51.27,102.50,50.41,101.50,50.41,101.00,51.27,101.50,52.14,101.00,53.01,100.00,53.01,99.50,52.14,98.50,52.14,98.00,53.01,97.00,53.01,96.50,52.14,97.00,51.27,98.00,51.27,98.50,50.41,98.00,49.54,98.50,48.68,99.50,48.68,100.00,49.54,101.00,49.54,101.50,48.68,101.00,47.81,100.00,47.81,99.50,46.94,100.00,46.08,101.00,46.08,101.50,45.21,101.00,44.34,101.50,43.48,102.50,43.48,103.00,44.34,102.50,45.21,103.00,46.08,104.00,46.08,104.50,45.21,105.50,45.21,106.00,46.08,107.00,46.08,107.50,45.21,107.00,44.34,106.00,44.34,105.50,43.48,106.00,42.61,105.50,41.75,104.50,41.75,104.00,42.61,103.00,42.61,102.50,41.75,103.00,40.88,104.00,40.88,104.50,40.01,104.00,39.15"  style="fill:none;stroke:#000;stroke-width:0.1953;opacity:1"/>
</svg>