<?xml version="1.0" encoding="UTF-8" standalone="no"?>
<svg
   style="fill-opacity:1; color-rendering:auto; color-interpolation:auto; text-rendering:auto; stroke:black; stroke-linecap:square; stroke-miterlimit:10; shape-rendering:auto; stroke-opacity:1; fill:black; stroke-dasharray:none; font-weight:normal; stroke-width:1; font-family:'Dialog'; font-style:normal; stroke-linejoin:miter; font-size:12px; stroke-dashoffset:0; image-rendering:auto;"
   width="606"
   height="606"
   version="1.1"
   id="svg505"
   sodipodi:docname="output.svg"
   inkscape:version="1.2.1 (9c6d41e, 2022-07-14)"
   xmlns:inkscape="http://www.inkscape.org/namespaces/inkscape"
   xmlns:sodipodi="http://sodipodi.sourceforge.net/DTD/sodipodi-0.dtd"
   xmlns="http://www.w3.org/2000/svg"
   xmlns:svg="http://www.w3.org/2000/svg">
  <sodipodi:namedview
     id="namedview507"
     pagecolor="#ffffff"
     bordercolor="#999999"
     borderopacity="1"
     inkscape:showpageshadow="0"
     inkscape:pageopacity="0"
     inkscape:pagecheckerboard="0"
     inkscape:deskcolor="#d1d1d1"
     showgrid="false"
     inkscape:zoom="1.6947195"
     inkscape:cx="100.01655"
     inkscape:cy="303.59006"
     inkscape:window-width="2560"
     inkscape:window-height="1387"
     inkscape:window-x="0"
     inkscape:window-y="25"
     inkscape:window-maximized="0"
     inkscape:current-layer="g501" />
  <!--Generated by the Batik Graphics2D SVG Generator-->
  <defs
     id="genericDefs" />
  <g
     id="g503">
    <g
       style="fill:rgb(220,220,220); fill-opacity:0; stroke-opacity:0; stroke-linecap:round; stroke:rgb(220,220,220);"
       id="g135">
      <path
         style="stroke:none;"
         d="M20 120 L92 120 L92 192 Z"
         id="path133" />
    </g>
    <g
       style="stroke-linecap:round;"
       id="g501">
      <line
         y2="74"
         style="fill:none;"
         x1="586"
         x2="514"
         y1="74"
         id="line257" />
      <line
         y2="74"
         style="fill:none;"
         x1="20"
         x2="256"
         y1="74"
         id="line259" />
      <line
         y2="120"
         style="fill:none"
         x1="20"
         x2="92"
         y1="120"
         id="line261" />
      <line
         y2="192"
         style="fill:none;"
         x1="92"
         x2="92"
         y1="120"
         id="line263" />
      <line
         y2="192"
         style="fill:none;"
         x1="92"
         x2="20"
         y1="192"
         id="line265" />
      <line
         y2="120"
         style="fill:none;"
         x1="20"
         x2="20"
         y1="192"
         id="line267" />
      <line
         y2="120"
         style="fill:none;"
         x1="102"
         x2="174"
         y1="120"
         id="line269" />
      <line
         y2="192"
         style="fill:none;"
         x1="174"
         x2="174"
         y1="120"
         id="line271" />
      <line
         y2="192"
         style="fill:none;"
         x1="174"
         x2="102"
         y1="192"
         id="line273" />
      <line
         y2="120"
         style="fill:none;"
         x1="102"
         x2="102"
         y1="192"
         id="line275" />
      <line
         y2="120"
         style="fill:none;"
         x1="184"
         x2="256"
         y1="120"
         id="line277" />
      <line
         y2="192"
         style="fill:none;"
         x1="256"
         x2="256"
         y1="120"
         id="line279" />
      <line
         y2="192"
         style="fill:none;"
         x1="256"
         x2="184"
         y1="192"
         id="line281" />
      <line
         y2="120"
         style="fill:none;"
         x1="184"
         x2="184"
         y1="192"
         id="line283" />
      <line
         y2="120"
         style="fill:none;"
         x1="266"
         x2="338"
         y1="120"
         id="line285" />
      <line
         y2="192"
         style="fill:none;"
         x1="338"
         x2="338"
         y1="120"
         id="line287" />
      <line
         y2="192"
         style="fill:none;"
         x1="338"
         x2="266"
         y1="192"
         id="line289" />
      <line
         y2="120"
         style="fill:none;"
         x1="266"
         x2="266"
         y1="192"
         id="line291" />
      <line
         y2="120"
         style="fill:none;"
         x1="348"
         x2="420"
         y1="120"
         id="line293" />
      <line
         y2="192"
         style="fill:none;"
         x1="420"
         x2="420"
         y1="120"
         id="line295" />
      <line
         y2="192"
         style="fill:none;"
         x1="420"
         x2="348"
         y1="192"
         id="line297" />
      <line
         y2="120"
         style="fill:none;"
         x1="348"
         x2="348"
         y1="192"
         id="line299" />
      <line
         y2="120"
         style="fill:none;"
         x1="430"
         x2="502"
         y1="120"
         id="line301" />
      <line
         y2="192"
         style="fill:none;"
         x1="502"
         x2="502"
         y1="120"
         id="line303" />
      <line
         y2="192"
         style="fill:none;"
         x1="502"
         x2="430"
         y1="192"
         id="line305" />
      <line
         y2="120"
         style="fill:none;"
         x1="430"
         x2="430"
         y1="192"
         id="line307" />
      <line
         y2="120"
         style="fill:none;"
         x1="512"
         x2="584"
         y1="120"
         id="line309" />
      <line
         y2="192"
         style="fill:none;"
         x1="584"
         x2="584"
         y1="120"
         id="line311" />
      <line
         y2="192"
         style="fill:none;"
         x1="584"
         x2="512"
         y1="192"
         id="line313" />
      <line
         y2="120"
         style="fill:none;"
         x1="512"
         x2="512"
         y1="192"
         id="line315" />
      <line
         y2="202"
         style="fill:none;"
         x1="20"
         x2="92"
         y1="202"
         id="line317" />
      <line
         y2="274"
         style="fill:none;"
         x1="92"
         x2="92"
         y1="202"
         id="line319" />
      <line
         y2="274"
         style="fill:none;"
         x1="92"
         x2="20"
         y1="274"
         id="line321" />
      <line
         y2="202"
         style="fill:none;"
         x1="20"
         x2="20"
         y1="274"
         id="line323" />
      <line
         y2="202"
         style="fill:none;"
         x1="102"
         x2="174"
         y1="202"
         id="line325" />
      <line
         y2="274"
         style="fill:none;"
         x1="174"
         x2="174"
         y1="202"
         id="line327" />
      <line
         y2="274"
         style="fill:none;"
         x1="174"
         x2="102"
         y1="274"
         id="line329" />
      <line
         y2="202"
         style="fill:none;"
         x1="102"
         x2="102"
         y1="274"
         id="line331" />
      <line
         y2="202"
         style="fill:none;"
         x1="184"
         x2="256"
         y1="202"
         id="line333" />
      <line
         y2="274"
         style="fill:none;"
         x1="256"
         x2="256"
         y1="202"
         id="line335" />
      <line
         y2="274"
         style="fill:none;"
         x1="256"
         x2="184"
         y1="274"
         id="line337" />
      <line
         y2="202"
         style="fill:none;"
         x1="184"
         x2="184"
         y1="274"
         id="line339" />
      <line
         y2="202"
         style="fill:none;"
         x1="266"
         x2="338"
         y1="202"
         id="line341" />
      <line
         y2="274"
         style="fill:none;"
         x1="338"
         x2="338"
         y1="202"
         id="line343" />
      <line
         y2="274"
         style="fill:none;"
         x1="338"
         x2="266"
         y1="274"
         id="line345" />
      <line
         y2="202"
         style="fill:none;"
         x1="266"
         x2="266"
         y1="274"
         id="line347" />
      <line
         y2="202"
         style="fill:none;"
         x1="348"
         x2="420"
         y1="202"
         id="line349" />
      <line
         y2="274"
         style="fill:none;"
         x1="420"
         x2="420"
         y1="202"
         id="line351" />
      <line
         y2="274"
         style="fill:none;"
         x1="420"
         x2="348"
         y1="274"
         id="line353" />
      <line
         y2="202"
         style="fill:none;"
         x1="348"
         x2="348"
         y1="274"
         id="line355" />
      <line
         y2="202"
         style="fill:none;"
         x1="430"
         x2="502"
         y1="202"
         id="line357" />
      <line
         y2="274"
         style="fill:none;"
         x1="502"
         x2="502"
         y1="202"
         id="line359" />
      <line
         y2="274"
         style="fill:none;"
         x1="502"
         x2="430"
         y1="274"
         id="line361" />
      <line
         y2="202"
         style="fill:none;"
         x1="430"
         x2="430"
         y1="274"
         id="line363" />
      <line
         y2="202"
         style="fill:none;"
         x1="512"
         x2="584"
         y1="202"
         id="line365" />
      <line
         y2="274"
         style="fill:none;"
         x1="584"
         x2="584"
         y1="202"
         id="line367" />
      <line
         y2="274"
         style="fill:none;"
         x1="584"
         x2="512"
         y1="274"
         id="line369" />
      <line
         y2="202"
         style="fill:none;"
         x1="512"
         x2="512"
         y1="274"
         id="line371" />
      <line
         y2="284"
         style="fill:none;"
         x1="20"
         x2="92"
         y1="284"
         id="line373" />
      <line
         y2="356"
         style="fill:none;"
         x1="92"
         x2="92"
         y1="284"
         id="line375" />
      <line
         y2="356"
         style="fill:none;"
         x1="92"
         x2="20"
         y1="356"
         id="line377" />
      <line
         y2="284"
         style="fill:none;"
         x1="20"
         x2="20"
         y1="356"
         id="line379" />
      <line
         y2="284"
         style="fill:none;"
         x1="102"
         x2="174"
         y1="284"
         id="line381" />
      <line
         y2="356"
         style="fill:none;"
         x1="174"
         x2="174"
         y1="284"
         id="line383" />
      <line
         y2="356"
         style="fill:none;"
         x1="174"
         x2="102"
         y1="356"
         id="line385" />
      <line
         y2="284"
         style="fill:none;"
         x1="102"
         x2="102"
         y1="356"
         id="line387" />
      <line
         y2="284"
         style="fill:none;"
         x1="184"
         x2="256"
         y1="284"
         id="line389" />
      <line
         y2="356"
         style="fill:none;"
         x1="256"
         x2="256"
         y1="284"
         id="line391" />
      <line
         y2="356"
         style="fill:none;"
         x1="256"
         x2="184"
         y1="356"
         id="line393" />
      <line
         y2="284"
         style="fill:none;"
         x1="184"
         x2="184"
         y1="356"
         id="line395" />
      <line
         y2="284"
         style="fill:none;"
         x1="266"
         x2="338"
         y1="284"
         id="line397" />
      <line
         y2="356"
         style="fill:none;"
         x1="338"
         x2="338"
         y1="284"
         id="line399" />
      <line
         y2="356"
         style="fill:none;"
         x1="338"
         x2="266"
         y1="356"
         id="line401" />
      <line
         y2="284"
         style="fill:none;"
         x1="266"
         x2="266"
         y1="356"
         id="line403" />
      <line
         y2="284"
         style="fill:none;"
         x1="348"
         x2="420"
         y1="284"
         id="line405" />
      <line
         y2="356"
         style="fill:none;"
         x1="420"
         x2="420"
         y1="284"
         id="line407" />
      <line
         y2="356"
         style="fill:none;"
         x1="420"
         x2="348"
         y1="356"
         id="line409" />
      <line
         y2="284"
         style="fill:none;"
         x1="348"
         x2="348"
         y1="356"
         id="line411" />
      <line
         y2="284"
         style="fill:none;"
         x1="430"
         x2="502"
         y1="284"
         id="line413" />
      <line
         y2="356"
         style="fill:none;"
         x1="502"
         x2="502"
         y1="284"
         id="line415" />
      <line
         y2="356"
         style="fill:none;"
         x1="502"
         x2="430"
         y1="356"
         id="line417" />
      <line
         y2="284"
         style="fill:none;"
         x1="430"
         x2="430"
         y1="356"
         id="line419" />
      <line
         y2="284"
         style="fill:none;"
         x1="512"
         x2="584"
         y1="284"
         id="line421" />
      <line
         y2="356"
         style="fill:none;"
         x1="584"
         x2="584"
         y1="284"
         id="line423" />
      <line
         y2="356"
         style="fill:none;"
         x1="584"
         x2="512"
         y1="356"
         id="line425" />
      <line
         y2="284"
         style="fill:none;"
         x1="512"
         x2="512"
         y1="356"
         id="line427" />
      <line
         y2="366"
         style="fill:none;"
         x1="20"
         x2="92"
         y1="366"
         id="line429" />
      <line
         y2="438"
         style="fill:none;"
         x1="92"
         x2="92"
         y1="366"
         id="line431" />
      <line
         y2="438"
         style="fill:none;"
         x1="92"
         x2="20"
         y1="438"
         id="line433" />
      <line
         y2="366"
         style="fill:none;"
         x1="20"
         x2="20"
         y1="438"
         id="line435" />
      <line
         y2="366"
         style="fill:none;"
         x1="102"
         x2="174"
         y1="366"
         id="line437" />
      <line
         y2="438"
         style="fill:none;"
         x1="174"
         x2="174"
         y1="366"
         id="line439" />
      <line
         y2="438"
         style="fill:none;"
         x1="174"
         x2="102"
         y1="438"
         id="line441" />
      <line
         y2="366"
         style="fill:none;"
         x1="102"
         x2="102"
         y1="438"
         id="line443" />
      <line
         y2="366"
         style="fill:none;"
         x1="184"
         x2="256"
         y1="366"
         id="line445" />
      <line
         y2="438"
         style="fill:none;"
         x1="256"
         x2="256"
         y1="366"
         id="line447" />
      <line
         y2="438"
         style="fill:none;"
         x1="256"
         x2="184"
         y1="438"
         id="line449" />
      <line
         y2="366"
         style="fill:none;"
         x1="184"
         x2="184"
         y1="438"
         id="line451" />
      <line
         y2="366"
         style="fill:none;"
         x1="266"
         x2="338"
         y1="366"
         id="line453" />
      <line
         y2="438"
         style="fill:none;"
         x1="338"
         x2="338"
         y1="366"
         id="line455" />
      <line
         y2="438"
         style="fill:none"
         x1="338"
         x2="266"
         y1="438"
         id="line457" />
      <line
         y2="366"
         style="fill:none;"
         x1="266"
         x2="266"
         y1="438"
         id="line459" />
      <line
         y2="366"
         style="fill:none;"
         x1="348"
         x2="420"
         y1="366"
         id="line461" />
      <line
         y2="438"
         style="fill:none;"
         x1="420"
         x2="420"
         y1="366"
         id="line463" />
      <line
         y2="438"
         style="fill:none"
         x1="420"
         x2="348"
         y1="438"
         id="line465" />
      <line
         y2="366"
         style="fill:none;"
         x1="348"
         x2="348"
         y1="438"
         id="line467" />
      <line
         y2="366"
         style="fill:none;"
         x1="430"
         x2="502"
         y1="366"
         id="line469" />
      <line
         y2="438"
         style="fill:none;"
         x1="502"
         x2="502"
         y1="366"
         id="line471" />
      <line
         y2="438"
         style="fill:none;"
         x1="502"
         x2="430"
         y1="438"
         id="line473" />
      <line
         y2="366"
         style="fill:none;"
         x1="430"
         x2="430"
         y1="438"
         id="line475" />
      <line
         y2="366"
         style="fill:none;"
         x1="512"
         x2="584"
         y1="366"
         id="line477" />
      <line
         y2="438"
         style="fill:none;"
         x1="584"
         x2="584"
         y1="366"
         id="line479" />
      <line
         y2="438"
         style="fill:none;"
         x1="584"
         x2="512"
         y1="438"
         id="line481" />
      <line
         y2="366"
         style="fill:none;"
         x1="512"
         x2="512"
         y1="438"
         id="line483" />
      <line
         y2="448"
         style="fill:none;"
         x1="20"
         x2="92"
         y1="448"
         id="line485" />
      <line
         y2="520"
         style="fill:none;"
         x1="92"
         x2="92"
         y1="448"
         id="line487" />
      <line
         y2="520"
         style="fill:none;"
         x1="92"
         x2="20"
         y1="520"
         id="line489" />
      <line
         y2="448"
         style="fill:none;"
         x1="20"
         x2="20"
         y1="520"
         id="line491" />
      <line
         y2="448"
         style="fill:none;"
         x1="102"
         x2="174"
         y1="448"
         id="line493" />
      <line
         y2="520"
         style="fill:none;"
         x1="174"
         x2="174"
         y1="448"
         id="line495" />
      <line
         y2="520"
         style="fill:none;"
         x1="174"
         x2="102"
         y1="520"
         id="line497" />
      <line
         y2="448"
         style="fill:none;"
         x1="102"
         x2="102"
         y1="520"
         id="line499" />
    </g>
  </g>
  <plotdata
     application="axidraw"
     model="2"
     layer="-1"
     node="49"
     last_path="10"
     node_after_path="47"
     last_known_x="1.8124999999999967"
     last_known_y="2.1043307086614176"
     paused_x="1.8124999999999967"
     paused_y="2.1043307086614176"
     randseed="171629913315"
     row="0"
     id="1716299181" />
</svg>
