<?xml version="1.0" encoding="UTF-8" standalone="no"?><svg id="SvgjsSvg1001" width="600" height="600" xmlns="http://www.w3.org/2000/svg" version="1.1" xmlns:xlink="http://www.w3.org/1999/xlink" xmlns:svgjs="http://svgjs.com/svgjs"><title xmlns="http://www.w3.org/1999/xhtml">function vectorField(p) {
  return {
    x: Math.cos(Math.max((p.y+p.x),p.x/p.x)),
    y: p.x
  };
}</title><g id="SvgjsG4489"><polyline id="SvgjsPolyline4490" points="556.9,599.8 565.5,530.8 569,501 569.8,489.6 570.1,480.6 570,468 569.5,457.8 568.5,445.9 567.3,435.7 566.3,428.6 562.5,406.7 556.7,379.7 544.9,329.5 541.7,314.2 539.2,300.7 537.9,292.4 536.3,279.9 535.2,266.7 534.8,257.1 534.8,247.5 535.3,236.1 535.9,229 537.3,217.6 539.4,205.2 541.3,195.8 544.1,183.5 547,171.9 551.4,153.2 553.3,144.4 555.2,134.4 556.8,124.3 557.5,118.9 558.2,112.4 559.1,99.8 559.3,93.8 559.2,78.8 558.7,69.2 557.3,54.3 555.6,41.8 553.3,28.2 550.1,12.3 547.3,0" fill="none" stroke="#000000" stroke-width="1"/><polyline id="SvgjsPolyline4491" points="544.8,599.5 554.6,524.6 558.2,496 558.9,489.4 559.5,481.6 559.9,472.6 560,464.2 559.6,451.1 558.7,439.1 557.1,425.4 555,411.7 552,395.8 546.8,372.4 533.5,318.2 531,307.1 527.5,289.4 525.5,277 523.9,263.9 523.1,253.7 522.7,242.9 522.8,232.7 523.2,224.9 524.2,214.2 525.9,202.3 527.3,194.6 529.4,184.6 532.6,171.2 538.7,147.4 541.3,136.3 543.5,125.7 545.7,112.7 546.5,106.7 547.2,100.2 547.9,91.2 548.3,79.2 548.2,69.6 547.7,59.4 546.7,48.1 545.2,36.1 543.2,23.7 540.7,10.7 538.4,0.2" fill="none" stroke="#000000" stroke-width="1"/><polyline id="SvgjsPolyline4492" points="569,599.5 578.1,523.3 579.7,507.8 580.2,500 580.5,491 580.4,477.8 579.9,467 579,456.2 577.8,445.5 576.2,434.2 574,421.2 571.5,408.2 568.8,395.3 560.3,357.9 556.6,340.9 554.1,328.5 551.3,312.6 549.8,302.5 548.3,289.3 547.5,278.6 547.2,271.4 547.2,257.6 547.7,247.4 548.5,238.4 549.6,229.5 551.4,218.2 553.8,205.9 556.9,191.8 561.3,173.1 563.6,162.6 565.7,152 567.5,141.3 568.8,131.8 570.2,116.9 570.6,109.1 570.7,93.5 570.3,83.3 569.2,69.5 568.1,60 566.1,46.3 563.8,33.3 560.2,15.7 556.7,0.5" fill="none" stroke="#000000" stroke-width="1"/><polyline id="SvgjsPolyline4493" points="532.7,599.7 541.9,532.6 548.7,480.2 549.4,471.8 549.9,459.8 549.9,451.4 549.5,440.6 548.3,426.3 546.8,414.4 544.9,402.5 544.7,402 543.8,396.6 541.8,386.6 538.4,371.4 536,361.5 525,319.1 521.1,303.4 518.4,291.7 515.5,277.6 513.1,263.4 511.8,253.3 511,244.9 510.4,233.5 510.4,222.1 510.8,213.7 511.4,206.5 512.1,200.6 514.1,188.1 516.1,178.1 518,170 527.5,134 531.1,118.8 534.1,102.9 535.2,95.2 536.5,82 537,71.2 537,60.4 536.6,50.8 535.9,41.9 534.7,31.1 533.5,22.8 532.1,14.5 529.3,0.4" fill="none" stroke="#000000" stroke-width="1"/><polyline id="SvgjsPolyline4494" points="581.1,599.8 587.5,543.8 590,520.5 590.6,511.5 590.9,503.7 590.9,489.9 590.2,474.9 589.2,463.6 588.1,454 586.5,442.8 583.8,426.8 579.5,405 568.5,354 566.2,342.2 562.9,322.7 561.4,311.4 560.5,303 559.8,294 559.3,283.2 559.3,270 559.5,264.7 560.5,250.9 561.3,243.7 562.2,237.2 565.4,218.9 574.8,175.5 576.2,168.4 578.8,153 580,144.1 580.7,137.5 581.5,127.4 581.9,118.4 582,113 581.9,103.4 581.4,92 580.3,78.8 578.8,66.3 577.3,56.2 574.5,40.3 569.3,15 566,0.4" fill="none" stroke="#000000" stroke-width="1"/><polyline id="SvgjsPolyline4495" points="520.5,599.9 529.3,539.3 538.4,473.3 539.2,465.5 539.9,453.6 540,442.2 539.5,429.6 538.2,415.2 536.5,402.8 534.8,392.7 531.6,376.8 528.2,362.2 524.8,348.8 512.5,303.7 508.6,288.6 504.9,272.8 503.2,264.6 500.5,249.2 499.4,240.9 498.5,231.9 497.9,221.1 497.9,209.1 498.3,201.3 499.6,188.8 501.1,179.3 503,169.9 505.5,159.4 509.4,144.9 513.4,131.1 516.4,120.1 519.8,106.1 521.4,98.5 522.9,90.2 524,82.5 524.8,75.3 525.4,67.5 525.7,60.9 525.7,48.3 525.4,41.1 524.5,29.8 523.6,22 522.1,11.9 519.9,0.1" fill="none" stroke="#000000" stroke-width="1"/><polyline id="SvgjsPolyline4496" points="593.1,600 600,537.3" fill="none" stroke="#000000" stroke-width="1"/><polyline id="SvgjsPolyline4497" points="600,452.5 597.3,436.5 595.2,425.3 583.6,368.3 579.4,344.1 577.9,333.4 576.6,322 575.8,312.5 575.4,305.3 575.1,294.5 575.3,281.9 575.8,272.9 576.4,265.7 577.2,258.6 578.4,249.7 580.9,234.9 583.2,223.1 589.8,191.4 593.4,170.7 595.4,154.6 596.3,143.2 596.8,130 596.7,116.8 596.1,104.2 594.7,88.7 593.2,76.8 590.6,60.2 588,46 583.1,21.9 578.4,0.2" fill="none" stroke="#000000" stroke-width="1"/><polyline id="SvgjsPolyline4498" points="508.4,599.9 518.6,532.9 528.7,462.8 529.6,453.8 530.2,442.4 530.2,429.2 529.8,420.9 529.2,413.1 528.3,404.7 526.7,393.4 523.9,378.1 520.8,364 518.4,354.1 514.1,337.9 507.9,315.9 502.5,297.5 496.6,276.1 492.7,260.4 489.7,246.3 487.4,232.7 486.1,222 485.4,213 485.2,208.2 485.2,196.8 485.6,189 486.5,180 488.8,165.8 489.9,160.5 492.3,150.6 494.5,142.5 503.9,110.9 507.6,97 509.6,88.2 511,81.1 512.9,68.7 513.9,58.5 514.3,51.3 514.4,47.7 514.3,35.1 513.8,26.1 513.2,19.6 512.3,11.8 510.5,0.6" fill="none" stroke="#000000" stroke-width="1"/><polyline id="SvgjsPolyline4499" points="600,388.8 599.5,386.5 595.6,363.4 593.8,350.3 592.6,339.6 591.8,330 591.1,315 591.2,298.2 591.7,288.6 592.5,279.1 593.6,269.5 594.6,262.4 597.4,245.8 599.9,232.9" fill="none" stroke="#000000" stroke-width="1"/><polyline id="SvgjsPolyline4500" points="599.9,410.8 596.7,395 593,375.5 589.4,353.6 588.2,344.7 587,333.9 586,321.4 585.5,308.8 585.5,298 586.1,284.2 586.8,275.8 588.1,264.5 589.3,256.2 592.2,239.6 598.6,207.9 599.9,200.8" fill="none" stroke="#000000" stroke-width="1"/><polyline id="SvgjsPolyline4501" points="600,45 593.1,10.9 591.1,0.2" fill="none" stroke="#000000" stroke-width="1"/><polyline id="SvgjsPolyline4502" points="496.2,599.8 501.3,569 507.5,529.9 514.7,483.1 519,454 520.2,442 520.7,431.9 520.7,421.1 520.3,412.1 519.2,399.5 517.7,388.2 515.1,373.4 511.5,357 506.7,338.4 503.1,325.7 489.7,281.5 485,265.4 481.4,252.1 477.8,236.9 475.9,227.5 474.9,221.6 473.4,210.9 472.4,198.9 472.2,194.1 472.2,185.1 472.5,178.5 473,172.5 473.7,166.6 475.6,155.3 476.6,150.6 478.9,141.3 482,130.4 491.1,101.7 494.8,89.1 496.9,80.9 498.5,73.9 501.1,59.1 502.1,50.8 502.7,43 503,34.6 503,28.6 502.5,17.2 501.9,10.1 500.7,0.5" fill="none" stroke="#000000" stroke-width="1"/><polyline id="SvgjsPolyline4503" points="484.1,599.6 497.3,522.1 504,480.7 509.7,443.9 510.5,436.8 511.3,424.8 511.4,412.8 511,403.2 510,391.9 508.6,381.1 506.8,370.5 505.4,363.4 501.9,348.2 497.6,332 492.5,314.7 486,294.1 476.9,266.2 471.8,249.5 467.9,235.7 464.6,222.3 462.6,212.9 460.3,198.7 459.1,186.1 458.8,174.1 459.1,166.3 460,156.8 461.6,146.7 463.5,137.9 466.1,128 468,121.7 472.5,108 479.5,87.6 482,79.6 485.8,65.7 488.1,55.1 489.9,43.9 490.5,38.5 491.2,28.9 491.4,22.3 491.3,13.3 491,7.3 490.4,0.2" fill="none" stroke="#000000" stroke-width="1"/><polyline id="SvgjsPolyline4504" points="471.8,599.9 478.2,565.7 486.8,517.3 500,438.6 501.6,425.5 502.1,418.3 502.3,412.9 502.3,402.7 501.9,394.3 500.6,380.5 499.7,374 498.1,364.5 496.1,354.5 494.5,347.5 491.4,335.3 487.3,320.9 482.3,304.8 473.9,279.8 466.4,258.3 459.6,237.8 455.2,223.4 451.3,208.9 449.4,200.7 448.1,194.3 446.3,183 445.8,178.9 445.2,171.7 444.9,160.3 445.4,150.1 446.2,142.9 448.2,131.7 450.8,121.2 455.3,106.9 461,91.1 461.3,90.6 463.7,83.8 464,83.3 469.7,66.8 473.1,55.3 475.4,46 477.5,34.8 478.7,25.3 479.1,20.5 479.5,11.5 479.5,4.9 479.3,0.1" fill="none" stroke="#000000" stroke-width="1"/><polyline id="SvgjsPolyline4505" points="459.7,599.5 467.3,561.2 473.8,527 482.4,479.8 491.4,427.8 492.6,418.2 493.4,406.9 493.5,394.3 493.1,385.9 491.9,373.3 491.2,368 489.3,356.7 485.9,340.9 481.1,322.9 475.8,305.7 471.6,293.2 466,277.4 454.1,245.3 447.4,226.7 441.7,209.6 437,193.5 435.5,187.7 433.9,180.6 431.6,167.6 430.9,161.7 430.4,155.7 430.2,151.5 430.2,143.7 430.5,137.7 430.9,133.5 432.1,125.2 433.7,117.6 436.2,108.3 438.2,102 440.6,95.2 454.5,60.1 459,47 460.9,40.7 462.1,36.1 464,27.9 465.7,17.8 466.4,11.9 466.9,5.9 467.1,0.5" fill="none" stroke="#000000" stroke-width="1"/><polyline id="SvgjsPolyline4506" points="447.3,600 455.6,561.3 465,514.8 476.2,455.9 480.6,431.7 483.4,415.1 484.6,403.8 485,395.4 485,385.8 484.5,376.2 483.7,367.8 482.6,359.5 481.2,351.2 479.9,344.7 478.2,337.1 475.7,327.2 470.3,308.8 467.7,300.8 462.3,285.5 456.9,270.9 448.6,249.7 436.1,218.5 431.6,206.7 428.8,198.8 428.5,198.3 424.6,186.9 420.9,174.9 417.9,163.2 415.6,151.5 414.8,145.5 414.2,139 414,134.8 414,127.6 414.3,122.2 414.8,117.4 416.3,108.5 418,101.5 419.5,96.3 421.8,89.5 422.1,89 424.6,82.2 428.1,73.9 436.7,54.8 439.3,48.7 443.3,38.7 445.7,31.9 448.2,23.9 449.9,17.5 451.2,11.6 453,0.4" fill="none" stroke="#000000" stroke-width="1"/><polyline id="SvgjsPolyline4507" points="435,599.7 442,570 451.2,528.4 459.9,486.7 466.1,455.5 474.7,410.1 476.1,399.4 476.7,391 476.9,384.4 476.7,374.2 475.9,363.4 474.8,354.5 473,343.8 471.7,337.4 469.5,328 467.2,319.3 463.8,307.8 461.2,299.8 455.4,283.4 448,264.4 439,242.8 418.6,196.1 412.6,181.7 408.2,170.5 403.2,156.3 399.6,144.3 397.4,134.9 395.9,126.1 395.5,122.5 395,115.3 395,109.3 395.4,103.3 395.9,99.1 397.2,92.1 399.4,84 402.2,76 405.7,67.7 410.9,56.9 421.8,35.5 424.6,29.6 428,21.9 430.2,16.3 432.6,9.5 434.5,3.2 435.2,0.3" fill="none" stroke="#000000" stroke-width="1"/><polyline id="SvgjsPolyline4508" points="422.6,599.8 431.5,565 440,529.4 448.3,492.5 458.6,443.8 466,406.7 467.6,397.2 468.3,391.3 468.8,385.3 469.1,378.1 469.1,371.5 468.7,362.5 468,354.7 466.5,344 465.7,339.3 463.9,330.5 461.2,319.4 458.6,310.2 455,298.7 449.8,284 444.6,270.6 438.6,256.2 426.5,229.4 412.4,200.2 393.2,161.5 386.3,146.9 381.4,135.9 376.9,124.8 373.5,115.2 372.1,110.6 370.3,103.6 368.9,95.9 368.2,88.2 368.2,82.8 368.7,76.8 369.4,72.6 370.2,69.1 371.2,65.7 373.2,60 375.6,54.5 379.8,46.5 383.7,39.8 398.5,16.5 403.3,8.2 407.5,0.2" fill="none" stroke="#000000" stroke-width="1"/><polyline id="SvgjsPolyline4509" points="429.2,599.9 438.8,560.3 445.2,532.2 455.2,485.9 463.1,447.1 469.1,415.8 469.3,415.3 471.3,404 472.2,396.9 472.8,389.7 473.1,377.7 472.7,367.5 472.1,360.4 470.9,350.8 469.5,342.5 466.9,330.2 464.4,320.3 462.1,312.3 458.3,300.2 450.8,279.3 447.3,270.4 441.1,255.4 429.7,229.6 405.8,177.9 400.5,165.8 396.6,156.4 391.9,144 388.7,134.3 386.9,128 385.9,123.9 384.9,119.2 384,113.9 383.5,109.7 383.1,104.3 383.2,94.7 383.6,90.6 384.7,84 385.5,80.5 386.8,75.9 389.2,69.1 393.3,59.8 399.1,48.6 409.7,29.8 414.2,21.3 418.6,12.1 421.6,4.9 423.2,0.4" fill="none" stroke="#000000" stroke-width="1"/><polyline id="SvgjsPolyline4510" points="410.1,599.7 416.1,578.9 422.7,554.6 429,530.2 436.4,499.9 443.3,470.1 449.8,440.8 458.8,397.9 460.3,389 461.3,380.1 461.8,368.1 461.6,359.7 460.9,350.1 459.7,340.6 457.7,329.4 455.3,318.9 453.3,311.3 450.4,301.5 446.2,289 445.9,288.5 443.3,281.1 439.8,272.2 434.7,260 431.3,252.3 426,240.9 420.2,229 412,213 406.6,203 399.9,190.9 394.2,181 388.4,171.2 378.9,155.9 368.6,140.4 362.7,132.1 357.3,124.9 350,116.1 345.2,110.8 341.8,107.4 336,102.2 332.7,99.6 328.7,96.9 324.6,94.5 320.2,92.4 316.9,91.1 311.1,89.5 306.4,88.7 302.8,88.4 296.8,88.4 292.6,88.8 285.5,90.1 280.9,91.4 276.9,92.8 271.4,95.2 265.6,98.4 261.6,101 257.8,104 252.6,108.9 248.4,114 245.8,118 243.3,122.8 241.2,128.4 240.1,132.5 239.2,137.8 238.9,141.4 238.9,148 239.5,154 240.1,157.5 241.3,162.8 242.3,166.2 244.5,172.5 246.1,176.4 248.7,181.8 252.5,188.6 256.8,195.1 258.6,197.5 261.2,200.8 266,206.2 270.7,210.8 275.8,215 279.7,217.8 283.3,220 287,221.9 290.9,223.5 294.4,224.5 299.1,225.2 302.1,225.1 304.5,224.6 306.1,223.9 307.2,223.3 308.5,222.1 309.6,220.6 310.1,219.5 310.6,217.2 310.6,215.4 310,212.5 308.8,209.7 307.1,207.2 305.1,205.1 302.6,203.3 300.9,202.7 299.2,202.7 298.7,203 298.3,203.5 298.4,204.7 299,205.7 299.5,206.1 300.1,206.3" fill="none" stroke="#000000" stroke-width="1"/><polyline id="SvgjsPolyline4511" points="417.7,599.5 422.9,580.4 429.9,553.1 439.3,514 448.4,473.6 454.8,443.7 460,418.4 463.7,399.6 464.7,393 465.3,387.7 465.7,382.9 466,375.7 466,369.1 465.6,360.1 464.6,349.9 463.2,340.4 461,329.3 458,317 455.2,307.2 451.9,296.9 447.9,285.6 440.9,267.7 436.2,256.7 429.3,241.4 421.8,225.7 414,210.1 404.6,192 393.8,171.9 366.6,122.5 360.7,111.4 355.3,100.7 351.2,92 347.1,82 345.2,76.3 343.8,71.1 342.6,63.4 342.5,61.6 342.6,56.2 343.3,51.4 344.2,47.9 345.6,44 347.1,40.7 350.6,34.4 355,28 362.4,18.5 372.8,6.1 377.2,0.4" fill="none" stroke="#000000" stroke-width="1"/><polyline id="SvgjsPolyline4512" points="420.1,599.8 425.3,580.1 431.2,556.8 441.2,514.8 449.3,478.5 460,427.4 464.8,403.2 466.2,394.3 467,386.6 467.4,379.4 467.5,374 467.3,365.6 466.7,357.2 465.5,347.1 463.8,337 461.4,325.9 458.7,315.4 454,299.9 446.5,279 440.9,265.1 435.7,253 429.5,239.3 421.5,222.5 408.9,197.3 382.3,146.2 373,127.4 367.3,114.8 363.3,104.8 360.3,95.7 358.3,87.5 357.6,83.4 357.2,79.8 357,75.6 357.2,69.6 358.3,62.5 358.9,60.1 360.8,54.4 362.1,51.1 364.7,45.7 368.6,38.9 370.5,35.9 375.2,28.9 386.7,12.8 390.4,7.3 394.9,0.2" fill="none" stroke="#000000" stroke-width="1"/><polyline id="SvgjsPolyline4513" points="397.5,599.7 404.3,578.6 409.7,560.8 417.6,533.1 422.9,513.4 431.8,478.5 437,456.9 444.8,423 452.2,389 453.5,381.3 454.6,370.5 454.9,364 454.8,354.4 454.5,349 453.9,342.4 452.7,333.5 451.2,325.2 448.7,314.1 447,307.7 444.1,297.9 439.2,283.7 437.1,278.1 432.4,266.4 429.3,259.3 423.8,247.3 418.8,237 414.7,229 409.6,219.5 406.6,214.3 406.4,213.7 400.4,203.3 394.8,194.1 389,185 383,176 373.5,162.9 367.9,155.8 362.5,149.4 354.7,141.1 346.3,133.4 343.5,131.1 336.7,126.2 332.6,123.7 327.3,120.9 322.9,119 317.8,117.2 313.1,116 307.2,115 302.4,114.6 297.6,114.6 292.8,115 287.5,115.9 282.9,117.1 278.3,118.7 272.9,121.3 269.3,123.5 266.4,125.6 263.7,128 260.8,131 258.6,133.9 255.8,138.5 254.1,142.3 252.7,146.9 251.9,151.1 251.6,154 251.5,158.2 251.9,163.6 253.2,170.7 254,173.6 256,179.3 258.1,184.2 260,188 262.1,191.6 266.5,198.1 269.1,201.4 272.3,205 276.1,208.8 278.8,211.1 283.1,214.4 287.2,216.9 289.4,218 292.1,219.2 296.1,220.4 299.1,220.8 300.9,220.8 303.8,220.2 305.5,219.4 306.8,218.2 307.5,217.2 308.1,215.5 308.2,213.1 308,211.9 307.2,209.6 305.3,206.6 303.6,204.9 302.1,203.9 300.4,203.3 299.2,203.5 298.8,203.9 298.7,204.5 298.8,205 299.5,206 300.1,206.1" fill="none" stroke="#000000" stroke-width="1"/><polyline id="SvgjsPolyline4514" points="414.7,599.9 419.1,584.3 426.6,555.9 433.7,527.3 439.1,504.6 450,456 459.7,409.6 461.7,399.6 462.6,394.2 463.5,387.1 464.2,377.5 464.3,374.5 464.2,363.7 463.5,353.6 462.5,345.2 460.6,334 459,326.3 456.7,317 452.5,302.6 445.4,282.2 440.1,268.8 436.6,260.5 430.5,246.8 420.4,225.7 412.5,210.2 405.4,197 405.2,196.4 390.9,170.7 383.1,157.2 372.3,139.2 358.5,117.4 347.6,101.6 344,96.8 339.5,91.2 335.1,86.2 331,81.9 327.9,79.1 324.6,76.4 322.2,74.7 319.1,72.8 315.9,71.2 313.1,70.1 309,68.9 304.9,68.2 300.7,67.9 294.7,68.2 288.2,69.3 283.6,70.5 276.2,73.1 269.7,76.1 263.4,79.6 257.4,83.6 250.9,88.9 246.6,93.1 244.2,95.8 241.6,99.1 238,104.6 236.8,106.7 234.7,111 232.6,116.7 231.2,121.9 230.3,127.2 229.8,133.8 229.9,139.8 230.4,145.2 231.5,151.7 232.3,155.2 234.1,161.5 235.7,166.1 239.4,174.9 242.1,180.3 244.5,184.5 247.2,189.1 251.1,195.2 255.2,201.1 258.8,205.9 262.6,210.5 267.5,215.8 271.9,219.9 276.6,223.6 280.6,226.2 283.8,228 286,229 289.3,230.3 292.2,231.1 296.3,231.9 301.1,232.1 305.3,231.5 308.6,230.2 310.1,229.2 311.5,228 313.2,225.5 314,223.3 314.4,220.3 314.3,218.5 313.9,216.1 312.7,212.7 311.9,211.1 310.3,208.6 308.8,206.7 307.1,205 305.2,203.5 302.6,202 300.9,201.5 299.7,201.5 298.5,201.8 297.8,202.7 297.7,203.9 298.1,205 298.5,205.5 299.4,206.3 299.9,206.5" fill="none" stroke="#000000" stroke-width="1"/><polyline id="SvgjsPolyline4515" points="406.5,599.5 408.5,593.2 413.2,577.1 419.8,553.4 427.7,523.2 432.2,505.1 439.3,475.4 444.9,450.8 454.3,407.4 457.6,390.9 458.8,382 459.5,372.4 459.6,362.8 459.3,355.6 458.3,344.9 456.5,333 454.7,324.2 452.3,314.3 447.9,299.3 443.6,286.8 440.9,279.5 436.2,267.8 432.9,260.1 427.7,248.6 422,236.7 411.3,215.9 400.5,196.5 398.9,194 394.7,186.7 388.4,176.5 381.9,166.4 374.1,155 367.7,146.3 362.9,140.2 354.7,130.6 351.4,127.1 347.1,122.9 343.1,119.3 338.9,115.9 335,113.1 329.9,110 325.1,107.5 322.3,106.3 317.2,104.5 313.2,103.4 306.1,102.2 301.3,101.9 296.5,102 292.9,102.3 287,103.3 282.3,104.5 277.2,106.3 272.3,108.5 268.6,110.5 264.1,113.5 262.2,115 258.2,118.6 255.4,121.8 251.9,126.6 249.6,130.8 248,134.7 246.5,139.9 245.8,143.4 245.3,148.8 245.3,153.6 245.6,157.2 246.5,163.1 248.1,169.5 250.7,176.9 253.4,182.9 258.1,191.3 262.9,198.2 268.3,204.6 270.8,207.2 275.2,211.3 281.4,216 285.5,218.5 289.8,220.6 293.8,222 297.9,222.8 302.1,222.8 305,222 306.5,221.1 307.4,220.3 308.2,219.3 309,217.7 309.4,214.7 309,212.4 308.2,210.1 306.7,207.5 304.7,205.3 303.7,204.5 301.7,203.3 300.5,203 299.3,203.1 298.8,203.3 298.5,203.9 298.5,204.5 299.4,206 299.9,206.2" fill="none" stroke="#000000" stroke-width="1"/><polyline id="SvgjsPolyline4516" points="416.2,599.9 420.8,583.2 426.3,562.3 432.7,536.7 439.5,508.1 450.5,458.9 457.3,426.6 462.3,401.9 464,391.2 464.9,381.7 465.1,377.5 465.2,369.7 465,363.1 464.5,355.9 463.8,349.3 462.3,339.2 459.4,325.1 456.4,313.5 452.4,300.3 448.1,287.8 443.2,274.9 435.8,257.2 427.1,238.1 420.8,225.1 411.6,206.9 402.9,190.5 393.6,173.7 393.4,173.1 383.3,155.4 383.1,154.8 370.8,133.5 369.5,131.5 352.5,102.5 337.4,77.3 329.9,64.3 326.7,58.5 323.7,52.6 321.7,48.3 320,43.8 319.2,40.9 318.7,37.9 318.7,33.7 319.7,29.7 320.4,28 322.5,24.4 325.1,21 327.5,18.3 332.5,13.2 346.8,0.4" fill="none" stroke="#000000" stroke-width="1"/><polyline id="SvgjsPolyline4517" points="416.6,599.9 421.4,582.6 427.9,557.6 434.1,532.5 440.3,506.3 451.1,457.7 458,424.8 462.4,403 464.3,391.2 465.3,379.2 465.4,366.6 465.1,360.6 464.5,353.4 463.1,342.7 460.9,330.9 457.7,317.5 454.4,306 449.7,291.7 444.7,278.2 438.6,263.2 433.8,252.2 427.8,239.1 427.2,238.1 426,235.3 425.4,234.3 420.5,224 413.2,209.5 409.8,203.2 407.1,197.8 402.5,189.4 402.3,188.8 393.4,172.5 390.4,167.3 390.2,166.7 386.6,160.5 386.4,159.9 370.6,132.3 368.9,129.1 357.8,109.9 345.9,88.4 340.2,77.1 337.5,71.1 336.2,67.8 333.7,60.4 332.7,55.7 332.4,53.3 332.4,47.3 333.5,41.4 334.9,37.4 335.9,35.2 337,33.1 339.2,29.5 344.6,22.3 351.7,14.2 364.8,0.2" fill="none" stroke="#000000" stroke-width="1"/><polyline id="SvgjsPolyline4518" points="384.6,599.8 387.3,592.5 387.6,592 397.7,563.1 405.2,539.7 414.2,509.2 422,480.8 428.6,455.3 437,420.9 445.2,385.2 446.5,378.7 447.7,370.4 448.5,359.6 448.6,353.6 448.2,343.5 447.4,335.1 445.7,323.8 444.4,317.3 442.9,310.9 440.6,302.2 437.2,291.3 432.6,278.3 430.4,272.7 426,262.2 421.3,251.8 415.5,240 410.5,230.4 399.8,211.6 392.2,199.4 387.2,191.9 380.6,182.6 374.8,175 369.1,168 363.5,161.7 359.8,157.8 356.4,154.4 350.2,148.8 346.5,145.7 341.2,141.8 338.7,140.1 332,136.1 327.1,133.7 323.3,132.1 317,130 311.2,128.6 306.4,127.9 302.2,127.6 297.4,127.6 293.8,127.9 290.3,128.4 284.5,129.8 281.1,131 276.7,133 274.1,134.5 270.2,137.3 267.1,140.2 264.1,143.9 262.8,145.9 261.1,149.1 260,151.9 259.3,154.2 258.4,158.9 258.1,162.5 258.1,164.9 258.4,169.1 259.2,173.8 260.4,178.5 262.7,184.7 265.3,190.1 267.4,193.7 269.7,197.2 273.4,202 277,206 279.6,208.5 282.8,211.2 287.8,214.6 290.4,216 292.6,217 296,218.1 299,218.6 300.8,218.6 302.6,218.3 304.2,217.7 305.2,217 306.3,215.6 306.8,214.5 307,213.3 306.8,210.9 306,208.7 305.4,207.6 304.3,206.2 302.5,204.6 300.9,203.8 299.7,203.7 299.1,203.9 298.9,204.4 298.9,205 299.6,206" fill="none" stroke="#000000" stroke-width="1"/><polyline id="SvgjsPolyline4519" points="415.7,599.9 422.8,573.9 428.2,553 438.4,511 444.7,483.5 450.1,458.9 456.8,427.2 462.7,397.8 463.8,390 464.6,381.1 464.9,373.3 464.8,365.5 464.5,359.5 463.6,349.9 462,339.2 460.2,329.8 458.6,322.8 456,312.9 452,299.7 449.1,291.2 445.8,282.2 441.4,271 438.9,264.9 433.4,252.3 429.4,243.5 421.9,227.8 416,216 406.3,197.4 394.8,176.3 391.2,170.1 391,169.5 374.2,140.4 360.6,117.8 347.5,97 338.8,84 332.4,75.3 329,71.1 324.1,65.8 319.7,61.8 316.7,59.7 314.7,58.5 310.9,56.7 307.4,55.6 305.7,55.2 302.7,54.8 299.1,54.7 296.1,54.9 292,55.5 285,57.3 279.3,59.3 273.8,61.7 270.6,63.3 264.3,66.8 256.3,72.1 251.1,76.2 246.2,80.6 244.1,82.7 239.3,88.1 235.4,93.5 232.9,97.5 231.2,100.7 228.8,106.2 227.6,109.6 226.3,114.2 225.1,120.7 224.5,127.9 224.5,132.7 225.2,141.1 226.2,147 227.4,152.2 228.7,156.9 231.9,165.9 235.8,174.7 239.1,181.1 240.9,184.2 241.1,184.8 245.3,192.1 248.4,197.2 253,204.2 256.5,209.1 262.5,216.6 268.7,223.1 270.9,225.2 274.1,227.9 278.5,231.1 283.1,233.8 285.3,234.9 290.3,236.8 292.6,237.4 296.2,238 298.6,238.2 301.6,238.2 306.3,237.5 309.2,236.5 310.8,235.7 312.8,234.3 314.5,232.7 316.1,230.2 317.2,227.4 317.6,225 317.7,222.6 317.2,219 316.5,216.7 315.9,215 314.6,212.3 312,208.3 309.6,205.6 306.4,202.9 303.8,201.4 301.5,200.6 299.1,200.5 298.6,200.7 298,201 297.3,201.9 297.1,202.5 297.2,203.7 298,205.3 298.8,206.1 299.9,206.6 300.4,206.4 300.4,205.8" fill="none" stroke="#000000" stroke-width="1"/><polyline id="SvgjsPolyline4520" points="416,599.9 420.2,584.9 427.2,558.2 434.7,527.9 439.8,506.3 447.2,473.5 451.9,451.8 461.5,405.4 463.5,394.2 464.3,387.6 464.9,379.8 465.1,373.8 464.9,363 464.3,354.7 463.4,346.9 461.9,337.4 460.5,330.4 458.9,323.3 456.8,315.2 452.5,300.8 447.2,285.5 446.9,285 442.9,274.3 438.8,264.3 429.8,244 418.6,220.8 409,202.1 392.1,171 370.3,133 354,105.7 335.7,76.1 324.4,59.1 320.1,53.4 316.9,49.7 315.3,48 312.1,45.3 309,43.4 305.7,42.1 302.1,41.4 299.1,41.3 296.7,41.5 293.8,42 290.9,42.7 287.4,43.8 281.3,46.2 278,47.7 272.1,50.7 263.4,55.9 258.9,58.9 254.5,62.1 248.9,66.6 245.3,69.8 240.2,74.9 235.5,80.4 231.3,86.2 228.5,90.8 227.1,93.5 225.1,97.8 224,100.6 222.5,105.2 221.6,108.7 220.3,115.8 219.8,121.1 219.7,127.1 220,132.5 220.6,137.9 221.9,145 223.5,151.4 224.7,155.4 227.1,162.2 231.9,173.2 236.7,182.9 241.5,191.9 246,199.7 250.1,206.3 257.7,217.1 262.3,222.7 267.1,228 272.4,232.9 274.7,234.8 278.6,237.6 283.8,240.6 288.2,242.5 291.1,243.4 294.6,244.2 297,244.5 303,244.5 305.4,244.2 307.7,243.7 311.1,242.5 313.2,241.4 316.1,239.2 318.1,236.9 319.6,234.3 320.6,231.5 321.1,228.6 321.1,225.6 320.5,221.4 319.6,218.5 318.3,215.2 315.9,211 314.5,209.1 312.2,206.3 309.1,203.5 306.6,201.7 304,200.3 302.3,199.7 300.5,199.4 299.3,199.4 297.6,200 297.2,200.4 296.6,201.5 296.5,202.1 296.8,203.8 297.8,205.4 299.1,206.5 300.3,206.7 300.6,206.3 300.3,205.7" fill="none" stroke="#000000" stroke-width="1"/><polyline id="SvgjsPolyline4521" points="416.2,599.8 423.1,574.3 430.1,547 440.3,504.4 451.1,455.8 458,422.9 462.9,398.2 463.9,391.6 464.9,380.9 465.1,376.1 465.1,367.1 464.6,357.5 463.8,349.7 463,343.8 461,332.6 458.6,322 454.3,306.4 450.4,294.4 444.2,277.5 435.7,257 427.5,239 419.1,221.7 411.2,206.2 400.2,185.6 386.5,160.9 369.7,131.8 368.1,129.3 358.4,112.7 329.8,65.5 309,31.8 303.7,23.8 302,22.1 301.5,21.8 300.3,21.5 298.5,21.7 295.7,22.7 289.8,25.7 279.5,31.8 266.9,40 256.7,47.4 248.3,54.2 242.1,59.9 236.3,65.9 230.9,72.4 227.1,77.8 223.7,83.4 220.3,90.5 218.2,96.1 216.3,103 215.3,108.3 214.5,116.7 214.6,125.7 215.1,131.1 216.2,138.2 217.2,142.9 218.4,147.5 220.2,153.3 222.4,159.5 224.4,164.5 228.3,173.3 233.1,183.6 237.4,192.2 241.4,199.6 248.7,212 252.3,217.5 256.5,223.4 262.1,230.4 267.8,236.6 273.6,241.8 278.9,245.7 285.2,249.2 289.1,250.7 292.6,251.7 296.2,252.3 298.5,252.5 301.5,252.5 303.9,252.3 306.9,251.8 310.4,250.9 314.3,249.3 318.3,246.7 319.2,245.9 321.6,243.2 323.4,240.1 324.3,237.8 324.9,235.5 325.3,231.9 325.1,227.8 324.6,224.8 324,222.5 323,219.6 321.8,216.9 320.1,213.7 318.1,210.7 315.5,207.4 312.1,204 308.3,201.1 306.2,199.9 304,198.9 302.3,198.4 300.5,198.1 298.1,198.4 297.6,198.6 296.6,199.4 296,200.4 295.8,201.6 296,202.8 296.4,203.9 297,204.9 298.2,206.2 298.7,206.6 299.9,207 300.4,206.9 300.7,206.4 300.5,205.8 300,205.5" fill="none" stroke="#000000" stroke-width="1"/><polyline id="SvgjsPolyline4522" points="321.9,52.7 312.3,36.8 310,32.6 308.3,28.7 307.8,26.4 307.8,24.6 308.3,22.9 309.8,20.3 311.4,18.4 313.5,16.3 319.9,10.9 334.3,0.1" fill="none" stroke="#000000" stroke-width="1"/><polyline id="SvgjsPolyline4523" points="371.4,599.9 377,587.3 381.1,577.3 386.3,563.9 394.4,541.3 403.2,514.5 411.2,488.1 420.1,456.3 427.7,427.3 436,393.5 440.3,374.8 441.9,364.7 442.7,355.1 442.8,344.9 442.5,338.3 441.3,327 439.5,316.3 437.7,308.1 435.4,299.4 432.8,290.8 430.3,283.4 430,282.9 427.6,276.1 425.4,270.5 421.9,262.2 416.4,250.2 411.3,240 406.5,231 398.1,216.5 389.7,203.3 389.3,202.9 384.6,195.9 378.2,187.2 370.3,177.4 363.5,169.8 359.3,165.5 355.4,161.8 350,157 342.9,151.5 338.9,148.8 333.8,145.7 329,143.2 324,141 319,139.2 314.9,138 310.8,137.1 304.9,136.3 301.3,136.1 296.5,136.2 293.5,136.5 289.4,137.2 285.9,138.1 281.9,139.5 279.7,140.5 276.1,142.6 272.7,145.1 271.8,145.9 268.6,149.5 267.2,151.5 265.2,155.1 264.1,157.9 263.3,160.8 262.8,163.8 262.5,168 262.7,172.2 263.3,176.3 264.3,180.4 265.2,183.3 266.5,186.6 269.7,193.1 272.6,197.6 275.5,201.5 279.9,206.4 283.9,210 286.3,211.8 290.9,214.6 292.6,215.4 295.9,216.6 298.3,217.1 300.7,217.2 303,216.7 304.6,215.8 305,215.4 305.7,214.4 306.1,213.3 306.2,210.9 305.7,209.2 304.5,207.1 303.8,206.1 302.4,204.9 300.9,204 299.7,203.9 299.2,204.2 299,204.8 299.1,205.3 299.5,205.8 300,206.1" fill="none" stroke="#000000" stroke-width="1"/><polyline id="SvgjsPolyline4524" points="289.5,0.1 291.8,3.7 295.1,7.9 297.1,9.3 298.2,9.7 299.4,9.8 303,9.2 304.7,8.7 306.9,7.8 314.5,4.1 321.2,0.2" fill="none" stroke="#000000" stroke-width="1"/><polyline id="SvgjsPolyline4525" points="287.7,0.1 288.5,2.4 288.9,4.7 288.9,6.5 288.6,8.3 287.4,11.1 285,14.5 281.3,18.4 275,24 257.6,37.8 251.6,42.8 244,49.6 237.6,55.9 231.6,62.6 227.2,68.3 223.8,73.3 219.9,80 217.6,84.9 215.6,89.9 213.5,96.8 212.7,100.3 211.8,105.7 211.4,109.2 211.1,114 211.2,121.8 212.1,130.8 213.9,140.2 215.4,146 216.8,150.6 220.3,160.2 227.1,176.2 231.1,184.9 236.1,195.2 240,202.6 242.7,207.3 242.9,207.9 250.4,220.2 255.5,227.6 261.8,235.6 265.8,240.1 267.9,242.2 272.3,246.3 275.6,248.9 281.1,252.6 283.7,254 287,255.5 289.9,256.5 293.3,257.4 297.5,258 300.5,258.1 303.5,257.9 307.6,257.2 311.1,256.2 313.9,255.1 316.6,253.8 319.1,252.2 321,250.7 322.7,249 324.2,247.1 326,244 326.7,242.3 327.4,240 328,236.5 328.1,232.3 327.7,228.7 326.9,225.2 326,222.3 324.1,217.9 322.1,214.2 320.1,211.2 317.5,207.9 314.6,204.9 311.9,202.5 308.9,200.4 306.9,199.2 304.1,198 302.4,197.5 301.2,197.3 299.4,197.3 298.2,197.5 297.1,197.9 296.2,198.7 295.4,200.3 295.4,201.5 295.6,202.7 296,203.8 297.4,205.7 298.9,206.8 300,207.1 300.6,207 300.8,206.4 300.5,205.9 300,205.5" fill="none" stroke="#000000" stroke-width="1"/><polyline id="SvgjsPolyline4526" points="357.9,599.7 362.2,591.8 366.8,582.7 373.6,568 381.7,548.6 387.2,534 387.5,533.5 395.7,510.3 400.6,495.5 408.6,469.7 415.6,445.5 421,425.8 428.1,398.5 434.4,372.9 435.3,368.8 436.4,362.3 437.4,353.3 437.7,347.3 437.7,339.5 437,328.7 436.2,322.2 434.7,313.3 433.6,308 431.9,301 429.1,291.2 425.3,279.8 419.6,265.3 415.2,255.4 409.2,243 404.4,234 396.9,221 392.8,214.4 384.8,202.4 378.4,193.7 370.5,183.9 363.7,176.3 356.5,169.1 350.2,163.5 344.1,158.7 341.1,156.6 338.1,154.6 331.4,150.7 326.5,148.3 321,146.1 316.4,144.6 310,143.1 304.6,142.4 299.2,142.2 293.8,142.6 289.7,143.3 286.2,144.3 283.4,145.3 281.2,146.3 277.6,148.4 275.2,150.2 271.8,153.6 269.1,157.6 267.8,160.3 267,162.6 266.4,164.9 265.9,167.8 265.7,172 265.9,175 266.5,179.2 268.1,185 269.4,188.3 271.2,192.1 273.6,196.3 275.6,199.3 278.2,202.6 281,205.7 284.1,208.6 287.4,211.2 290.4,213.1 293.1,214.5 296.5,215.7 299.4,216.2 300.6,216.2 301.8,216 303.5,215.4 304.5,214.6 305.2,213.7 305.6,212.5 305.6,210.2 305.2,209 304.7,207.9 303.7,206.4 302.9,205.5 301.5,204.5 300.3,204.1 299.7,204.1 299.2,204.4 299.1,204.9 299.3,205.5 299.7,205.9" fill="none" stroke="#000000" stroke-width="1"/><polyline id="SvgjsPolyline4527" points="278.2,0 277.1,3.5 275.8,6.2 274.3,8.7 272.2,11.7 270.3,14 266.6,18 262.4,22.2 246.1,37.3 238.4,44.9 234.7,48.8 228.8,55.6 224.4,61.3 220.7,66.8 216.8,73.5 213,81.7 210.8,87.9 209.4,93.1 208.4,97.8 207.6,103.8 207.2,109.2 207.2,117 207.7,123.5 209.4,134.2 210.6,139.5 212.2,145.3 215.7,155.5 221,168.9 226.4,181.6 230.1,189.8 230.7,190.8 231.9,193.6 236.4,202.7 240.6,210.7 246.3,220.6 250.1,226.7 255.9,235.1 259.9,240.3 262.3,243 263,244 267.5,248.8 270.1,251.3 274.7,255.2 278.6,258 280.6,259.2 283.8,261 287.6,262.7 289.3,263.3 294,264.5 298.1,265 301.7,265 304.1,264.8 309.4,263.7 313.4,262.3 315.6,261.3 319.3,259.3 321.3,258 324.5,255.3 326.1,253.5 327.2,252.1 328.7,249.5 329.5,247.9 330.8,243.9 331.5,239.1 331.5,235.5 331.3,233.1 330.8,230.2 330.1,227.3 328.3,222.2 326.8,218.9 323.8,213.7 321,209.8 318.2,206.6 315.7,204.1 313.8,202.5 310.5,200 307.9,198.5 306.3,197.7 302.3,196.4 300.5,196.2 298.1,196.4 296.5,197.1 295.6,198 295,199 294.8,201.4 295.3,203.1 296.2,204.7 297.9,206.4 298.9,207 300.1,207.3 300.6,207.1 300.9,206.6 300.7,206 300.3,205.6" fill="none" stroke="#000000" stroke-width="1"/><polyline id="SvgjsPolyline4528" points="343.3,599.7 348.5,592.3 352.4,586.3 359.3,574.4 363.8,565.9 367,559.4 373.3,545.8 380.3,529.2 386.6,513 393.9,492.7 400,474.5 408.9,445.8 416.2,420.5 422.5,397.3 428.5,374.1 430.6,365.3 431.1,363 432.4,354.7 433.2,345.1 433.3,335.5 433.1,330.7 432.6,324.7 431.8,318.2 429.8,307 427.4,297 424.2,286.1 419.6,273.1 415.3,262.5 411.1,253.2 405.5,241.9 401.5,234.5 394.6,222.6 389.8,215 382,203.6 377.7,197.8 369.8,188 365,182.6 361.3,178.7 354.4,172 349.9,168.1 344.2,163.6 341.3,161.5 335.8,157.9 329.5,154.4 324,151.9 319,150 313.8,148.5 306.1,147.1 302.5,146.8 297.7,146.8 294.1,147.1 290.6,147.7 286.5,148.9 283.7,149.9 279.5,152.2 277.1,154 275.3,155.6 272.6,158.8 270.5,162.5 269.4,165.2 268.9,167 268.3,170.5 268.1,172.9 268.2,176.5 268.9,181.3 269.3,183 271.2,188.7 273.2,193.1 275.6,197.2 277.3,199.7 279.9,203 283.6,206.9 286.3,209.3 290.3,212.1 293.4,213.8 296.8,215 299.2,215.4 301,215.4 303.2,214.7 304.2,213.9 304.9,213 305.3,211.2 305.1,209.4 304.1,207.2 303,205.8 302.1,205 300.5,204.2 299.3,204.4 299.1,204.9 299.3,205.5 299.8,205.9" fill="none" stroke="#000000" stroke-width="1"/><polyline id="SvgjsPolyline4529" points="265.4,0.2 264.6,1.8 262.4,5.4 259.6,9.3 256.2,13.5 248.2,22.4 241.5,29.3 234.2,37.2 227.1,45.4 223.4,50.1 220.2,54.5 217.2,59 213,66.2 211.1,70 208.7,75.5 205.8,84 204.5,89.3 203.2,96.9 202.7,102.3 202.5,108.9 202.7,114.3 203.7,123.9 204.6,129.2 205.6,133.9 207.1,139.7 209,146 214.1,160.1 219.1,173 225.1,187.4 229.5,197.2 234.7,208.1 240.8,219.8 247.4,231.2 254.7,242.2 260.9,250.3 265.7,255.7 269.5,259.5 274.5,263.8 277.9,266.3 280.4,267.9 284.7,270.2 288,271.6 293.2,273.1 295.5,273.5 299.1,273.8 302.7,273.7 306.9,273.1 309.2,272.5 313.2,271.1 317.5,269.1 320.1,267.6 324.1,264.9 326.4,263 329.7,259.5 331.1,257.5 332.6,254.9 333.8,252.2 334.7,249.3 335.3,246.4 335.6,243.4 335.6,239.2 334.9,233.8 334.1,230.3 332.6,225.8 330.4,220.8 327.8,216.1 325.1,212.1 322.9,209.3 320.5,206.6 318.4,204.5 314.7,201.3 311.8,199.2 308.7,197.4 307.1,196.6 303.7,195.4 300.8,194.9 298.4,195 297.2,195.3 296.1,195.9 295.6,196.2 294.8,197.1 294.3,198.2 294.1,199.4 294.2,201.2 294.5,202.3 295.3,203.9 296.4,205.4 297.7,206.6 299.3,207.4 300.5,207.4 300.9,207 300.9,206.4 300.7,205.9 300.2,205.5" fill="none" stroke="#000000" stroke-width="1"/><polyline id="SvgjsPolyline4530" points="325.8,599.9 331.2,595.1 333.3,593 338.5,587.2 340.8,584.4 346.2,577.2 351.5,569.2 354.3,564.6 360.8,553.1 366,542.9 370.1,534.3 378.3,515.6 385.8,496.6 395.5,469.5 400.4,454.7 405.1,439.8 411.8,417.4 416.4,401.2 426,365.3 427.1,360.6 428.7,351.1 429.1,347.6 429.6,339.8 429.6,330.8 429.4,326.6 428.6,318.2 426.8,307 425,298.8 422.5,289.5 419,278.6 415.2,268.5 411,258.6 405.9,247.7 401.5,239.2 395.6,228.7 390.3,220 383.3,209.5 376.6,200.3 369.8,191.9 362.2,183.4 356.7,177.9 349.1,171.1 343.9,167 338,162.9 331.3,158.9 327.5,157 324.3,155.5 317.5,153 312.9,151.7 307,150.6 302.8,150.2 297.4,150.2 295,150.4 290.3,151.2 286.8,152.3 283.5,153.6 280.4,155.4 277.1,158 275.1,160.2 274,161.7 271.7,165.9 270.6,169.3 270,172.9 269.9,174.7 270.1,179.5 271.3,185.3 273.6,191.5 274.7,193.7 277.4,198.3 279.5,201.3 282.2,204.5 284.3,206.6 288.4,210.1 290.4,211.5 292.5,212.7 296.4,214.3 297.5,214.6 299.9,214.9 302.3,214.5 303.8,213.6 304.2,213.2 304.8,212.1 305,210.3 304.6,208.6 303,206 302.1,205.2 301.1,204.6 300.5,204.3 299.9,204.3 299.4,204.5 299.2,205 299.4,205.6 299.8,206" fill="none" stroke="#000000" stroke-width="1"/><polyline id="SvgjsPolyline4531" points="251.3,0.3 249,3.9 245.1,9.2 238.3,17.6 233.2,23.5 224.8,33.7 220.4,39.4 216.2,45.3 212.9,50.3 208.7,57.5 206,62.9 203.2,69.5 200.6,77.5 198.8,85.1 197.7,92.8 197.2,100 197.3,108.4 198,116.2 199.5,125.7 200.8,131.5 202.5,137.9 204.1,143 211.7,164.6 219.2,184.2 224,195.8 230.6,210.6 236.4,222.5 241.2,231.5 249.1,244.9 253.1,250.9 256.6,255.8 262.6,263.3 268.8,269.8 272.8,273.4 276.1,276 279.6,278.4 282.7,280.2 286.5,282 290.5,283.4 292.8,284 296.3,284.6 298.7,284.8 303.5,284.6 307.7,283.9 311.7,282.7 316.1,280.8 319.3,279.1 323.8,276.1 327.1,273.5 331.1,269.9 333.1,267.7 335.3,264.8 336.8,262.2 338.5,258.4 339.4,255.5 340.3,250.8 340.5,248.4 340.5,244.2 339.8,238.2 338.2,231.8 337,228.4 335.4,224.6 333.8,221.3 331.4,217.2 328,212.2 324.2,207.6 321.7,205 317.7,201.4 315.8,199.9 311.3,196.9 307,194.8 302.9,193.6 300.6,193.3 297.6,193.6 296.4,194 294.9,194.9 294.1,195.8 293.4,197.5 293.2,198.7 293.5,201 294.1,202.7 294.7,203.8 295.4,204.8 297.1,206.5 298.6,207.4 299.7,207.8 300.3,207.7 300.9,207.5 301.1,206.9 301,206.3 300.7,205.8" fill="none" stroke="#000000" stroke-width="1"/><polyline id="SvgjsPolyline4532" points="108.9,0.2 108.4,9.8 108.5,20.6 108.8,26.6 109.4,33.8 110.7,44.5 117.1,81.8 117.3,82.3 119,92.4 125.9,130.2 135.5,180.3 142.5,215 149.8,249.6 157.2,283 164.7,315.1 171,340.8 177.3,365.2 186.2,397.6 192.1,417.7 199.6,441.8 205.1,458.3 210.9,474.7 218.6,494.9 224.1,508.2 231.5,524.6 237.1,535.9 239.7,540.6 239.9,541.2 248.7,556.2 253.7,563.7 259.1,570.9 261,573.2 265,577.7 268.8,581.5 273.3,585.5 279.7,590 282.3,591.5 285,592.8 288.3,594.1 291.8,595.1 294.2,595.6 298.3,596 303.1,595.8 306.7,595.2 311.3,593.8 315.1,592.2 319.9,589.6 324.8,586.2 329,582.7 333.3,578.6 339.3,571.9 343.4,566.7 346.9,561.8 351.2,555.3 358.8,542.4 363.6,533.4 366.8,526.9 374.8,509.5 380.8,495.1 385.6,482.8 395.5,455.1 404.4,427.7 413.8,396.1 419.9,374.1 423.7,359.6 424.6,355.5 425.9,347.2 426.6,339.4 426.8,332.8 426.5,323.8 425.7,315.5 424.1,305.4 422.6,298.3 420.5,290.2 417.1,279.3 413.6,269.7 409.5,259.8 405.5,251 399.8,239.8 393.9,229.3 387.3,218.6 383.3,212.6 379.8,207.7 373.3,199.1 369.1,194 363.5,187.7 359.8,183.8 355.1,179.2 349.3,174 342.7,168.8 334.2,163.2 328.4,160 324.6,158.2 319.6,156.2 314.4,154.6 309.1,153.4 305.6,152.9 301.4,152.6 296.6,152.7 291.2,153.5 288.3,154.3 284.4,155.8 279.8,158.6 278,160.2 276,162.4 273.7,165.9 272,170.4 271.3,174.6 271.2,178.2 271.4,180.5 272,184.1 273,187.6 274.7,192 276.6,195.8 278.5,198.8 281.4,202.7 283.8,205.4 286,207.5 289.2,210.1 293.9,212.9 297.2,214.1 300.2,214.5 302,214.2 303.1,213.7 304,212.9 304.7,211.3 304.8,210.7 304.7,209.5 304.1,207.8 302.7,205.8 301.3,204.7 300.2,204.3 299.6,204.4 299.2,204.9" fill="none" stroke="#000000" stroke-width="1"/><polyline id="SvgjsPolyline4533" points="236.9,0.1 231.4,8 217.7,26.2 214.2,31.1 208.9,39.1 206.1,43.7 201.6,52.2 198.2,59.9 196.2,65.5 194.3,71.9 193.1,77.1 191.9,84.8 191.3,92 191.2,99.2 191.8,108.8 192.3,113 194.2,123.6 195.9,130.6 197.9,137.5 205.6,160.9 213.5,182.9 220.5,200.8 227.8,217.9 232.6,228.2 239.1,241.1 246.5,254.1 253.7,265.2 260.2,273.8 262.9,277 266.6,281 268.7,283.1 272.7,286.7 276.5,289.7 279,291.4 283.1,293.8 287.5,295.8 289.8,296.6 293.2,297.5 297.4,298.1 301,298.2 305.2,297.8 308.1,297.2 312.7,295.7 316.5,294 320.7,291.6 325.1,288.5 329.7,284.6 334.4,280 337.6,276.4 340.1,273 342.2,269.4 343.2,267.2 344.9,262.1 345.7,258 346.1,253.8 346.1,250.2 345.7,245.4 345.1,241.8 344.3,238.3 342.3,232 339.7,226 337.5,221.7 333,214.6 329.7,210.3 324.9,205 320.9,201.3 317.6,198.7 315.1,197 310.5,194.3 307.7,193.1 304.9,192.2 301.9,191.6 299.5,191.5 297.1,191.8 296,192.2 294,193.5 293.2,194.4 292.7,195.5 292.3,196.6 292.2,198.4 292.5,200.2 293.1,201.9 294.6,204.5 295.8,205.8 297.2,207 298.2,207.6 300,208.1 300.6,208 301.1,207.7 301.3,207.1 301.2,206.5 300.9,206 300.5,205.6 299.9,205.4" fill="none" stroke="#000000" stroke-width="1"/><polyline id="SvgjsPolyline4534" points="120.9,0.5 120.1,7.1 119.5,14.3 119.2,22.1 119.2,28.1 119.7,38.8 121,51.4 123.1,64.4 127.7,89.2 133.8,121 141.2,158.1 149.7,198.6 155.5,225 162.5,255.4 171.6,292.7 179.3,322.3 187.5,351.8 195.4,378.2 201.8,398.2 207.1,413.5 207.4,414.7 212.7,429.4 218.5,444.5 222.6,454.5 227.1,464.9 233.7,479.1 240,491.4 244.4,499.2 249.1,506.9 252.4,511.9 254.1,514.4 259.5,521.6 265.4,528.4 271.4,534.2 273.7,536.2 276.1,538 279.6,540.4 282.7,542.2 286.5,544 290.4,545.4 292.8,546 296.3,546.6 301.1,546.8 304.7,546.5 308.2,545.8 313.3,544.1 317.7,542 322.3,539.2 324.2,537.8 328.4,534.4 332.3,530.7 335.7,527.2 341.1,520.8 347.5,512.1 350.8,507.1 353.9,502 359.6,492.1 363.8,484.1 368.8,473.9 373.3,464 377.8,453.6 381.4,444.7 390.1,421.7 394.3,409.8 401.1,389.3 405.6,375 411.1,356.6 412.6,351.4 414.3,344.4 415.6,336.7 416,333.1 416.5,325.3 416.5,319.3 416.2,313.3 415.4,305.6 413.7,295.5 411.8,287.3 408.6,276.4 405.6,267.9 402.5,260.1 398.6,251.3 393.5,241.1 387,229.6 384.2,225 377.9,215.5 371.5,206.8 367,201.2 362.7,196.2 358.6,191.8 353.5,186.7 349.1,182.7 344.5,178.8 337.7,173.8 334.2,171.5 328,167.9 322.6,165.3 317,163.2 313.5,162.1 311.2,161.5 306.5,160.6 302.3,160.2 296.3,160.3 291.6,161.1 289.8,161.6 288.1,162.2 285.4,163.5 282.9,165.1 280.6,167.1 279.4,168.4 277.5,171.4 276.1,174.8 275.4,178.3 275.3,183.1 275.7,186.1 276.4,189 277.8,192.9 278.8,195.1 280.6,198.3 282.2,200.8 284.8,204.1 288.2,207.5 291,209.7 295.2,212.1 296.9,212.7 299.2,213.2 301.6,213 302.7,212.5 303.6,211.7 304.1,210 303.8,208.2 303.3,207.1 302.6,206.1 301.7,205.3 300.7,204.7 300.1,204.5 299.5,204.7 299.3,205.2 299.6,205.7" fill="none" stroke="#000000" stroke-width="1"/><polyline id="SvgjsPolyline4535" points="96.8,0 96.9,9.6 97.3,17.4 98.1,26.4 99.5,37.1 110.3,102.2 120.9,162.5 121.1,163 124.9,184.3 131.7,220.3 142.6,275 154,328.4 163.4,369.3 167.9,388 173.6,410.7 182.7,444.9 192,477.2 200.6,504.7 204.2,515.5 212.4,538.7 219.3,556.6 225.8,572.1 231,583.6 234.2,590 234.9,591.7 239.1,599.7" fill="none" stroke="#000000" stroke-width="1"/><polyline id="SvgjsPolyline4536" points="114.9,0.3 114.3,6.9 114,12.9 114,24.9 114.3,31.5 115,39.9 116.2,49.4 121.7,80.7 129.6,123.2 136,156.2 142.9,190.3 147.7,213.2 155,246.6 162.8,280.5 171.2,314.9 179.2,345.7 185.1,367.1 192.5,392.4 200.4,417.6 204.2,429 212.2,451.6 218.9,469 224.9,483.4 230.8,496.5 236.9,508.9 243.2,520.5 249.4,530.7 255.5,539.7 261.8,547.7 267.9,554.3 272.3,558.4 275.6,561 278.6,563.1 282.1,565.2 283.7,566.1 287,567.6 289.8,568.6 293.3,569.5 297.5,570.1 300.5,570.2 303.5,570 308.8,569 311.1,568.3 314.4,567 318.2,565.1 321.7,562.9 326.1,559.7 330.2,556.1 333.6,552.8 338.8,547 341.1,544.2 344.7,539.4 349.8,532 353.6,525.9 359.3,516 365.4,504.3 369.3,496.2 374.5,484.7 383.6,462.5 389.3,447.3 393.7,434.9 403.1,406.4 412.6,374.8 417.8,356.3 418.8,352.2 420.5,342.8 420.9,339.2 421.4,332.6 421.5,324.8 420.9,314.6 420.1,308.1 418.4,298.6 416.5,290.4 413.3,279.5 409.7,269.3 406.1,260.4 401.9,251.1 396.5,240.4 390.3,229.4 385.9,222.3 379.9,213.3 373.5,204.6 368.6,198.5 363.5,192.6 357.3,186.1 353.4,182.4 348,177.6 343.8,174.2 340.4,171.7 335.9,168.7 331.3,165.9 326.5,163.4 321,161 315.9,159.2 311.8,158.1 307.1,157.2 303.6,156.8 301.8,156.7 296.4,156.8 292.8,157.3 288.7,158.4 286.5,159.2 284.3,160.3 282.3,161.5 280.4,163 279.1,164.2 277.5,166.1 275.6,169.1 274.7,171.3 274,173.6 273.4,177.8 273.5,182 274.2,186.1 276.3,192.4 277.6,195.1 279.7,198.7 282.9,203.1 284.5,204.9 286.6,207 289.4,209.3 293.4,211.9 295.6,212.9 298.5,213.7 300.3,213.8 301.5,213.6 302.6,213.2 303.6,212.5 304.2,211.4 304.4,210.3 304.3,209.1 303.9,207.9 303,206.4 301.7,205.1 300.1,204.4 299.5,204.6 299.3,205.1 299.5,205.7 300,206" fill="none" stroke="#000000" stroke-width="1"/><polyline id="SvgjsPolyline4537" points="102.9,0.2 102.8,12.7 103.1,19.9 104,30.7 105.3,40.8 116.2,104.7 121.7,135.4 128.6,172.6 134.5,203.2 141.1,236.2 149.6,276.7 153.7,295.4 159.4,320.6 164.9,344 171.5,370.8 176.9,391.7 183,414.3 190.1,439.1 199.3,468.9 204.2,483.7 211.4,504.1 218.9,523.7 224.9,538.1 230.8,551.2 239.4,568.4 245.9,579.9 249.7,586 255.8,594.9 259.5,599.6" fill="none" stroke="#000000" stroke-width="1"/><polyline id="SvgjsPolyline4538" points="105.6,0.5 105.4,5.3 105.4,16.1 105.6,20.9 106.3,30.5 107.5,40.6 110.3,57.8 120.8,117.5 121,118 124.8,139.3 132.5,180 140.8,221.8 145.3,243.5 153,279.3 159.2,306.8 165.4,333.1 171,355.8 177.9,382.5 183.9,404.5 190.2,426.4 195.6,444.2 204.7,472.2 211.5,491.4 216.6,504.9 221.3,516.6 227.7,531.4 233.3,543.4 239.6,555.7 244.6,564.6 250.3,573.7 256.5,582.6 260.6,587.8 265.8,593.6 270.1,597.8 272.4,599.7" fill="none" stroke="#000000" stroke-width="1"/><polyline id="SvgjsPolyline4539" points="111.8,0.1 111.2,10.3 111.1,15.1 111.2,22.3 111.4,27.1 112.1,36.1 113.4,46.8 118.4,75.8 126.5,120.1 134.5,161.9 141.7,197.8 149.6,235.4 155.8,263.5 163.5,296.8 171.2,328.3 178.9,357.9 185.6,382.2 191.3,401.8 199.3,427.6 204.2,442.4 211.8,463.9 217.8,479.6 224.2,495.1 229.8,507.7 237.2,522.8 240.9,529.7 248.5,542.6 252.8,549.1 256.3,554 262.7,561.9 266.8,566.3 269.4,568.8 274.4,573.1 278.9,576.2 282.5,578.3 285.2,579.6 290.2,581.5 292.6,582.1 297.9,582.9 302.1,582.9 306.9,582.2 309.8,581.5 314.3,579.8 319.1,577.3 323.6,574.4 326.9,571.8 331.8,567.4 334.7,564.4 341,557.1 343.9,553.3 348.4,546.9 355.7,535.2 360.1,527.3 364.8,518.3 370.5,506.4 374.9,496.5 380.9,482.1 384.4,473.2 388.8,461.4 394.6,445 401.6,423.9 410.2,395.8 416.8,372.7 420.4,359.4 421.8,353.5 423.2,345.3 424.1,334.5 424.1,325.5 423.5,316.5 422.5,308.8 421.1,301.1 418.6,290.6 415.7,280.8 412.1,270.6 409,262.8 404.1,251.9 400.1,243.8 393.8,232.2 389.8,225.5 383.3,215.4 377.4,207.1 370.4,198.1 362.9,189.5 354.9,181.4 349.1,176.2 344.9,172.8 338.5,168.2 334,165.3 331.4,163.8 326.1,161.1 322.8,159.6 318.3,157.9 315.4,157 310.2,155.7 306.6,155.1 301.8,154.7 297.6,154.7 295.3,154.9 291.7,155.5 289.4,156.1 286,157.3 281.8,159.6 278.5,162.3 276.2,165 273.9,169.2 273,172.1 272.4,175.6 272.4,180.4 273,184.6 273.6,186.9 275.2,191.4 277.3,195.8 278.5,197.8 280.9,201.3 283.2,204.1 286.1,207.1 288.9,209.4 292.9,212 294.5,212.8 297.4,213.8 299.1,214.1 300.9,214.1 302.1,213.8 303.2,213.2 304,212.4 304.3,211.8 304.6,210.7 304.4,208.9 303.7,207.3 302.6,205.8 301.7,205 300.6,204.5 300,204.4" fill="none" stroke="#000000" stroke-width="1"/><polyline id="SvgjsPolyline4540" points="222,0.4 207.6,21.8 200.7,33.1 197.3,39.4 193.7,47 191.7,52 188.8,60.6 186.8,68.7 185.5,76.4 184.7,86 184.7,94.4 185.2,102.1 186,108.7 186.6,112.3 188.5,121.7 192,134.4 195.5,145.9 201.9,165.9 209.2,186.9 214.5,201.5 221.1,218.2 227,232 234.1,247.3 242.2,262.7 248.3,273 253.6,281 256.4,284.9 262.4,292.4 264.8,295.1 269,299.4 272.1,302.2 275.9,305.2 279.3,307.6 282.4,309.4 287.3,311.7 289.6,312.5 292.5,313.3 297.8,314.1 302,314.1 305.6,313.7 309.1,312.9 313.6,311.3 318.5,308.9 322,306.7 327.3,302.7 330.9,299.5 335.1,295.2 340.2,289.3 344.9,283.1 347.4,279 348.7,276.3 349.8,273.5 350.7,270.6 351.4,267.7 352,264.1 352.3,260.6 352.2,254 351.9,251 351.1,246.2 349.1,238.7 346.8,232.5 344,226.5 341.7,222.3 339.5,218.8 334.6,211.9 329.5,206 327.4,203.9 322,199.1 317.1,195.6 313,193.2 309.2,191.4 305.2,190.1 301,189.4 298,189.5 296.3,189.9 294.6,190.6 293.6,191.3 292.8,192.1 291.5,194.2 291.1,195.9 291.1,197.7 291.4,199.5 292,201.2 292.8,202.8 294.2,204.8 295.9,206.5 296.8,207.2 298.4,208.1 299.6,208.4 300.8,208.3 301.2,207.9 301.4,207.4 301.4,206.8 301.2,206.2 300.3,205.4" fill="none" stroke="#000000" stroke-width="1"/><polyline id="SvgjsPolyline4541" points="133.2,0.4 132.3,4.6 131.2,11.1 130.3,18.2 129.5,30.2 129.5,40.4 129.9,48.2 131,58.9 133.1,72 134.9,81.4 142.1,117.3 150.9,158.9 159.7,198.2 168.9,236.7 176.3,265.8 185.6,299.9 190.1,315.5 196.2,335.6 203.8,359 209.1,374.3 216.2,393.4 221.1,405.7 228.7,423.3 233.3,433.1 241,448 246.7,457.9 252.9,467.4 257.1,473.3 259.7,476.6 265.6,483.4 269.4,487.2 273,490.4 276.3,493 278.8,494.7 282.9,497.1 286.7,498.9 290.1,500.1 293.6,501 295.4,501.3 299,501.6 301.4,501.6 303.8,501.4 307.3,500.8 311.4,499.6 314.7,498.3 316.9,497.2 321.5,494.5 325.9,491.3 329.1,488.6 335,482.7 339.4,477.7 343.1,473 346.3,468.6 351.6,460.6 358.6,448.7 362,442.4 366.6,433.3 369.1,427.8 369.7,426.8 375.8,413.1 380.4,402 384.8,390.8 389.6,377.9 394.2,364.9 401,344.4 403.1,337.5 404.1,333.4 405.2,327.5 406,320.9 406.3,316.2 406.3,308.4 406,303 405.1,295.2 404.1,289.3 402.1,280.5 400.5,274.7 398.1,267.3 395.8,261.1 391.1,250.1 387.4,242.5 381.9,232.5 377.9,225.9 371.2,215.9 368.7,212.5 361.6,203.6 356.4,197.8 350.5,191.8 343.8,185.8 335.7,179.6 329.1,175.4 323.8,172.6 318.9,170.4 313.8,168.6 310.9,167.8 304.4,166.6 298.4,166.4 296,166.6 291.9,167.4 288,168.9 284.9,170.8 282.3,173.3 280.4,176.3 279.3,179.1 278.7,182.1 278.6,185.7 279.1,189.2 279.7,191.6 280.7,194.4 282.8,198.7 285.5,202.7 288.7,206.2 291.5,208.6 292.4,209.3 295,210.8 297.8,211.9 300.2,212.2 301.9,211.8 302.5,211.5 303.2,210.6 303.5,209.4 303.4,208.2 302.3,206.1 301.4,205.3 300.9,205 299.8,204.7 299.4,205.2" fill="none" stroke="#000000" stroke-width="1"/><polyline id="SvgjsPolyline4542" points="126.8,0.4 126.1,4.6 125.2,11.7 124.4,23.1 124.3,26.7 124.4,35.7 124.7,41.7 125.3,48.9 126.5,58.4 128,67.3 138.3,120.3 146.9,162 155.6,201.9 163.3,235.2 169.1,259.1 177.9,293.4 183.9,315.4 192.6,345.3 200.7,371.1 204.5,382.5 211.5,402.3 218.6,420.8 225.5,437.4 232,451.6 237.9,463.4 245.2,476.5 249.3,483.1 256.1,493 261.3,499.6 266.1,505 270.8,509.6 274,512.3 280.4,516.8 284.1,518.8 286.8,520 290.8,521.4 293.7,522.1 295.5,522.4 300.3,522.7 304.5,522.4 308,521.7 313.7,519.8 315.9,518.8 319.6,516.8 323.6,514.1 325.5,512.7 329.6,509.2 333.9,505 338.3,500.1 343.9,493 346.7,489.1 351,482.6 356.3,473.9 356.5,473.3 359.8,467.6 364.8,458 370,447.2 373.7,439 379.1,426.3 385.9,409 395,383.6 402.5,360.8 407.1,345.9 408.2,341.8 409,338.3 410.4,330 411,323.4 411.2,316.2 411,310.2 410.3,302.5 408.8,293 407.4,286.5 405.9,280.7 404,274.4 400.4,264.2 397,255.9 394.5,250.4 391.1,243.4 388.5,238.7 388.3,238.1 381,225.7 376.4,218.7 370.8,210.9 365.2,203.8 359.3,197 353.9,191.4 345.5,183.7 338.4,178.2 331.9,173.9 327.2,171.2 321.8,168.6 313.9,165.7 310.4,164.8 306.3,164 302.1,163.6 297.9,163.6 293.1,164.2 290.8,164.8 286.9,166.4 283.9,168.3 282.1,169.9 280.5,171.7 279.5,173.2 278.7,174.8 277.7,177.7 277.3,179.4 277.1,181.2 277.2,185.4 277.8,189 279.1,193 280,195.2 282,198.9 283.3,200.9 285.9,204.2 290.7,208.7 293.7,210.7 295.3,211.5 297,212.1 298.8,212.6 300.6,212.6 301.7,212.4 302.8,211.8 303.5,210.8 303.8,209.7 303.5,207.9 302.2,205.9 300.8,204.8 300.2,204.6 299.6,204.7 299.4,205.2 299.7,205.8" fill="none" stroke="#000000" stroke-width="1"/><polyline id="SvgjsPolyline4543" points="123.5,0 122.2,10.1 121.5,21.5 121.6,34.7 122,41.3 122.9,50.3 123.8,56.8 126.3,71 131.9,100.5 139.1,137 149.5,186.9 156.1,216.8 164.8,254.2 171.4,281 177.7,305.4 185.8,334.9 189.3,347 195.9,368.8 203.1,391.1 210.2,411.5 210.5,412 214.6,423.3 220.3,437.8 226.4,452.1 231.4,463.1 238.1,476.5 243.6,486.5 248.9,495.2 252.2,500.2 255.7,505.1 260.1,510.8 265.7,517.1 270.4,521.7 275,525.5 278,527.6 282.6,530.3 284.8,531.4 289.3,533.1 292.7,534 295.1,534.4 298.1,534.7 301.7,534.7 306.5,534.1 309.4,533.4 313.3,532 316.6,530.5 320.8,528.1 324.2,525.7 327.5,523.1 332.8,518.2 335.2,515.5 336.1,514.7 339.6,510.6 344,504.9 347.5,500 350.8,495 356.1,486.3 361.6,476.3 363.8,472 368.3,462.9 374.5,449.2 377.8,441.5 383.4,427.6 389.1,412.4 394.3,397.7 402.2,373.8 408.9,352 411.1,343.9 412,339.8 413.1,332.6 413.7,326.1 413.8,315.3 413.2,306.9 412.7,302.7 411.3,294.4 409,284.5 406.1,274.7 403.1,266.2 399.7,257.9 395.5,248.6 391.7,241.1 385.5,230.1 381.1,223 376.4,216 371.8,209.7 366.6,203.1 360.7,196.3 354.5,189.8 348.8,184.5 345.6,181.8 342.8,179.5 336.5,174.9 329.3,170.5 321.8,166.8 316.2,164.7 313.3,163.8 308.6,162.7 304.5,162.1 301.5,161.9 296.7,162 293.7,162.4 290.8,163.1 286.9,164.6 283.3,166.8 281.9,168 280.3,169.7 278.3,172.7 277.3,174.9 276.8,176.7 276.2,180.2 276.2,183.2 276.6,186.8 277.3,189.7 278.5,193.1 280.3,196.9 281.2,198.4 282.5,200.5 284.3,202.9 285.9,204.7 289.8,208.4 291.3,209.5 294.3,211.3 296,212.1 297.1,212.5 299.5,212.9 301.3,212.8 302.4,212.4 303.3,211.6 303.6,211.1 303.9,209.9 303.7,208.2 303.2,207.1 302.5,206.1 301.1,204.9 300,204.6 299.5,204.8 299.4,205.4 299.8,205.9" fill="none" stroke="#000000" stroke-width="1"/><polyline id="SvgjsPolyline4544" points="84.8,0.5 85.7,13.1 86.5,20.2 89.4,39.8 102.1,119.8 114.2,191.4 122.1,235.7 128.9,272.3 129.1,272.8 136.2,310 144.2,349.4 152.6,388.7 160.4,423.2 167.5,453 177.1,490.8 186.8,526.1 195,553.7 202.7,577.7 210.4,599.8" fill="none" stroke="#000000" stroke-width="1"/><polyline id="SvgjsPolyline4545" points="90.8,0.2 91.1,8.6 91.8,17.6 93.4,30.7 103.3,92.3 115.9,166.2 125.3,218.2 134.4,265.9 145,318.3 153.2,356.4 163.1,399.7 172.1,436.4 179.7,465.4 188.6,497.2 196.6,523.6 204.8,548.7 210.8,565.7 215.2,577.5 221.4,593.1 224.2,599.7" fill="none" stroke="#000000" stroke-width="1"/><polyline id="SvgjsPolyline4546" points="207.8,0.2 201.1,10.9 194.2,22.8 191.4,28.1 188.8,33.5 185.3,41.8 183.1,48.1 181.4,53.8 179.9,60.2 178.5,68.5 177.9,74.5 177.6,80.5 177.7,88.9 178.2,96.1 179,102.6 180.8,112.7 183.2,122.6 190.3,147.4 198.4,173.8 204.6,192.6 212,213.5 212.3,214 214.1,219.1 219.1,232 228,253 232.3,262.2 237.1,271.9 239.9,277.2 242.9,282.4 243.1,283 249.3,293.2 253.3,299.2 256.8,304.1 260.9,309.3 265.7,314.7 269.5,318.5 273.1,321.7 275.9,323.9 279.4,326.3 283,328.4 287.4,330.4 289.7,331.2 293.1,332.1 296.1,332.6 298.5,332.8 301.5,332.8 303.9,332.6 307.4,332 311.5,330.8 317,328.4 320.6,326.3 325,323.2 330.5,318.5 334.3,314.7 339.1,309.3 344.6,302.2 349.7,294.8 352.8,289.7 355,285.4 356.7,280.9 358.3,274.5 359,268.5 359.1,263.1 358.9,259.5 358.4,255.4 357.4,250.1 356.2,245.4 353.7,238 350.3,230.3 345.3,221.4 342.3,216.9 337.6,210.7 333.6,206.2 330.7,203.2 325.8,198.8 321.5,195.5 318.5,193.5 314.3,191.1 311.1,189.6 305.4,187.7 301.8,187.1 297.6,187.2 294.7,188 292.7,189.2 291.4,190.5 290.5,192 290.1,193.2 289.8,195 289.9,197.3 291,200.8 292.1,202.9 294,205.3 296.2,207.3 297.7,208.2 299.4,208.8 301.2,208.5 301.7,207.4 301.6,206.8 301,205.8 300.5,205.4 299.9,205.3" fill="none" stroke="#000000" stroke-width="1"/><polyline id="SvgjsPolyline4547" points="145.7,0.1 143.8,7 142.7,11.7 141.1,20.5 140.5,24.1 139.8,30.1 139.2,39 139.1,46.2 139.5,56.4 140.5,66.6 141.8,75.5 145.2,92.6 155.5,140.1 162.9,172.2 171.6,207.8 177.9,232.2 187.5,266.9 196.3,296.2 203.9,319.6 209.8,336.6 210.1,337.1 212.7,344.5 216.3,354 222.6,369.6 227.6,381.1 232.9,392.6 240,406.5 243.8,413.3 247.8,420 253.4,428.5 259.5,436.7 265.4,443.5 270.5,448.5 273.7,451.3 276.6,453.5 279.6,455.5 283.2,457.6 286.5,459.1 289.8,460.3 292.2,461 296.9,461.8 301.7,461.9 304.1,461.7 308.2,460.9 311.1,460 315,458.5 321.2,455 324.2,452.9 327.5,450.3 330.2,447.9 334,444.1 339.6,437.8 343.3,433.1 346.8,428.2 351.1,421.7 354.5,416.1 359.6,407.2 362.7,401.4 367,392.8 371.8,382.5 378.7,366.5 386.6,346.4 392.3,330.6 394.3,323.7 395.2,319.6 396.4,311.2 396.7,307.1 396.8,301.1 396.2,291.5 395.4,285.5 394.4,280.2 392.6,272.6 391.1,267.4 388.4,259.5 385.5,252.2 382.3,245.1 378.5,237.6 376.4,234 376.2,233.4 372.2,226.7 367.2,219.2 363,213.4 358.9,208.2 353.8,202.3 348.4,196.7 342.7,191.4 335.7,185.7 329.2,181.3 325.1,178.9 320.8,176.7 318.1,175.5 313.6,173.8 308.4,172.4 302.4,171.5 298.2,171.5 295.2,171.8 292.3,172.5 289.5,173.6 287,175.2 284.8,177.2 284,178.2 282.8,180.2 282.1,181.9 281.4,185.4 281.4,189 282.2,193.1 283.2,196 284.5,198.7 287.1,202.7 289,205 290.3,206.3 292.1,207.9 295.1,209.9 298.4,211.2 300.8,211.3 301.9,210.9 302.8,210 303.1,208.9 302.9,207.7 302.4,206.6 301.1,205.3 300,204.8 299.5,205.1 299.6,205.6" fill="none" stroke="#000000" stroke-width="1"/><polyline id="SvgjsPolyline4548" points="139.1,0 136.9,10 135.5,18.9 134.6,27.8 134.2,37.4 134.4,47.6 135.1,57.2 136.3,66.7 137.7,75 146,115.6 155.3,158.4 164.1,196.4 170.8,223.8 177.7,250.5 187.3,285.2 193.6,306.5 198.8,323.1 203.1,336.2 209.2,353.8 214.8,369 221,384.6 226.4,397.3 232.7,410.9 239.8,424.8 243.3,431.1 247.3,437.8 252.2,445.3 256.4,451.2 259.7,455.4 265.2,461.8 267.7,464.4 271.2,467.7 277.3,472.5 282.4,475.7 286.2,477.5 289,478.6 293.1,479.7 296,480.2 298.4,480.4 301.4,480.4 303.2,480.3 307.4,479.6 309.7,479 313.1,477.8 315.8,476.6 319,474.9 324.5,471.2 330,466.6 332.6,464.1 337.5,458.8 343.5,451.3 347,446.4 351.3,439.9 358,428.6 362,421.2 366.6,412.1 369.7,405.6 375.8,391.9 380.2,381.3 386.3,365.7 394.2,343.7 398.1,331.7 399.6,325.3 400.5,319.9 401.1,314 401.3,310.4 401.3,303.8 400.7,295.4 400,290 398.8,283.5 396.7,274.8 394.8,268.5 391.6,259.4 389.1,253.3 385.6,245.7 381.8,238.2 376.7,229.3 372.9,223.2 368.1,216.3 366,213.4 360.8,206.8 356.5,201.8 352.4,197.4 347.7,192.8 342.3,188 337.6,184.3 332.7,180.8 325.5,176.5 319.5,173.6 313.4,171.3 308.7,170.1 304.6,169.4 299.2,169.1 295.6,169.4 292.7,170 289.8,171 286.7,172.7 284.8,174.2 282.8,176.5 281.6,178.6 280.6,181.4 280.1,184.4 280.1,187.3 280.4,189.7 281.1,192.6 281.9,194.9 283.5,198.2 285.3,201.2 287.5,204.1 290.9,207.5 293.3,209.3 296.5,211 297.6,211.4 299.4,211.7 301.2,211.6 302.3,211.1 303,210.2 303.3,209 303.1,207.8 302.6,206.7 301.4,205.4 300.9,205.1 300.3,204.8 299.8,204.8 299.5,205.3 299.7,205.8" fill="none" stroke="#000000" stroke-width="1"/><polyline id="SvgjsPolyline4549" points="72.8,0.5 74.2,13 83.6,77.1 91.2,126.9 98.6,173.7 105.6,216.4 115,271.4 122.6,313.9 129.3,349.9 129.5,350.4 130.2,354.6 136.5,387 141.6,412.3 150,452.2 156.6,482.1 164.2,514.8 171.8,545.7 178.9,573 186.3,599.6" fill="none" stroke="#000000" stroke-width="1"/><polyline id="SvgjsPolyline4550" points="193.4,0.5 186,14.2 182.6,21.3 180.2,26.7 178,32.3 175.3,40.3 173,49 171.1,59.6 170.2,69.8 170.1,79.4 170.4,85.4 171.3,94.3 172.4,101.4 174.9,113.2 178.7,127.7 186.2,154.9 194.9,184.2 200.7,202.5 207.7,223 214.2,241 221.7,260 226.9,272.1 234,287.3 241.2,301.2 248.5,313.6 253.8,321.6 257.7,326.9 261.5,331.6 265.5,336.1 268.4,339.1 273.3,343.5 275.2,345 278.1,347.1 282.2,349.6 285.5,351.2 288.2,352.3 291.7,353.4 295.2,354.1 298.2,354.4 301.8,354.4 304.2,354.2 308.3,353.4 312.9,351.9 317.2,349.9 321.8,347.1 326.2,343.9 332,338.7 338.1,332.1 343,326 347.2,320.1 353.7,310 360.2,298.6 362,294.8 364,289.1 365.3,283.9 366.1,278.5 366.4,273.7 366.4,270.7 365.8,263 364.3,254.7 362,246.6 359.7,240.4 357.8,236 354,228.5 350,221.8 348,218.8 345.2,214.9 341.5,210.2 337.5,205.7 333.3,201.5 328.8,197.5 325.5,194.9 321,191.8 316.4,189.1 312.6,187.3 306.3,185.2 302.2,184.5 298,184.5 296.2,184.8 293.9,185.5 292.3,186.4 290.9,187.5 289.5,189.4 288.6,191.7 288.4,192.8 288.4,195.2 288.8,197.6 289.6,199.9 290.4,201.5 292.8,204.9 294.5,206.6 297.5,208.6 299.2,209.2 301,209.1 301.5,208.7 301.8,208.2 301.8,207 301.6,206.5 300.8,205.6 300.3,205.3 299.8,205.3" fill="none" stroke="#000000" stroke-width="1"/><polyline id="SvgjsPolyline4551" points="158.4,0.1 155.3,9.2 153.6,14.9 152.1,20.7 150.4,28.9 149,39 148.4,46.8 148.3,58.8 149,69.6 150.1,78.5 152.2,90.3 159.3,122 166.9,154.1 175.1,186.7 181.9,212.2 189.1,237.6 196.4,261.7 201.9,278.8 205.4,289.1 214.5,314.5 219.3,326.8 226.5,343.9 234.1,360.2 239.3,370.4 245.8,381.9 250.9,390 255.7,396.9 262,404.9 267.7,411.1 272.1,415.1 275.4,417.8 278.3,419.9 281.9,422.1 286.2,424.2 290.7,425.8 293.1,426.4 296,426.9 298.4,427.1 301.4,427.1 303.8,426.9 307.4,426.3 309.7,425.7 314.7,423.8 316.9,422.7 321.5,420 324.5,417.9 329.1,414.1 335.9,407.3 339.4,403.2 343.5,398 347,393.1 353.2,383.5 360.9,370 367.4,357.1 370.2,351.2 375.1,340.2 382.2,323 384.9,315.1 385.9,311 386.9,305.7 387.7,297.3 387.6,287.7 387.1,282.3 385.9,274.6 384.3,267.6 382.1,260.1 379.9,253.9 377.2,247.2 374.7,241.8 371.7,235.9 364.7,224 359.6,216.6 356.7,212.8 353.7,209 346.9,201.4 342.2,196.8 337.7,192.8 332.5,188.7 327.5,185.3 321.3,181.7 315.9,179.2 310.8,177.4 307.3,176.5 303.7,175.9 301.4,175.7 296.6,175.9 293.6,176.5 290.8,177.6 288.8,178.8 287.8,179.6 286.2,181.3 284.9,183.4 284.1,185.6 283.6,189.2 283.7,191 284.5,195.1 286.1,199 287.6,201.6 289.4,204 291,205.8 292.8,207.4 296.3,209.7 298.6,210.5 299.8,210.7 301,210.5 302,210 302.4,209.6 302.7,208.4 302.6,207.8 302.2,206.7 301.5,205.7 300.5,205.1 299.9,205" fill="none" stroke="#000000" stroke-width="1"/><polyline id="SvgjsPolyline4552" points="151.4,0.4 149.3,7.3 146.6,18.4 145.7,23.1 144.8,29 143.9,38 143.6,44 143.6,53.6 143.9,59.6 144.4,65.6 145.1,71.5 146.7,81.6 154,115.6 162.3,151.9 168.2,176.4 177.1,211.3 183.7,235.6 188.8,253.5 196.1,277.6 203.7,301 209.6,318 214.6,331.5 221,347.7 226.9,361.5 232.7,374 239.8,387.9 245.2,397.3 251.2,406.9 257.5,415.7 262.1,421.3 265.7,425.3 269.5,429.1 274.5,433.4 277.9,435.9 280.4,437.5 284.7,439.8 288,441.2 293.2,442.7 296.1,443.2 299.1,443.4 304.5,443.1 306.9,442.7 311.5,441.4 317.5,438.7 320.1,437.2 324.1,434.5 328.3,431.1 330.5,429.1 333.9,425.7 338.3,420.8 343.2,414.7 349.4,405.8 352.3,401.3 356.3,394.6 360.1,387.8 364.8,378.7 372,363.5 379.1,347 385.9,329.7 389,320.6 390.3,315.4 391.4,308.8 392,301.7 392,293.9 391.5,287.3 390.8,281.9 389.7,276 388.3,270.2 386.3,263.3 383.7,255.9 381.7,250.9 378,242.7 375,236.8 367.7,224.4 361.9,216 357.9,210.8 354.4,206.6 348.8,200.4 344.1,195.8 338.7,191 336.8,189.5 331,185.2 327,182.6 323.9,180.8 317.9,177.9 315.2,176.8 310.6,175.3 308.3,174.7 303.5,173.9 300.5,173.7 297.6,173.8 294,174.4 291.2,175.3 289.5,176.1 288,177.1 285.8,179.1 284.1,181.6 283.2,183.8 282.6,186.8 282.6,189.7 282.8,191.5 283.7,195 285.4,198.9 287.6,202.4 289.5,204.8 291.6,206.9 293.5,208.4 296.6,210.2 298.3,210.8 299.5,211 301.3,210.8 302.3,210.2 302.6,209.7 302.9,208.5 302.8,207.9 302.6,207.3 301.6,205.8 300.7,205.1 300.1,204.9" fill="none" stroke="#000000" stroke-width="1"/><polyline id="SvgjsPolyline4553" points="60.7,0.4 65.1,33.1 72.6,86.6 78,124 86.4,180.4 94,229.6 101.6,277 106.6,307.2 114.8,355.1 115,355.6 117.1,368.1 123.7,404.7 129.1,433.6 129.3,434.1 133.4,456 141.5,496.6 149.9,536.5 154,555.2 159.7,580.4 164.3,599.7" fill="none" stroke="#000000" stroke-width="1"/><polyline id="SvgjsPolyline4554" points="179.7,0.5 174.6,11.4 171.2,19.7 167.7,29.9 166.1,35.7 165,40.4 163.4,49.3 162.4,58.8 162.1,69.6 162.5,78.6 163.5,88.1 165.4,99.4 167.1,107 171.3,123.9 178.2,150.6 183.4,169.7 190.7,195.1 196.1,212.9 201.6,230 207.4,247.1 213.1,262.9 220.5,281.9 226.6,296.2 233.7,311.5 239.4,322.7 245.9,334.2 252.7,344.8 259.1,353.5 261.4,356.3 266.6,362.1 273.2,368.2 277,371.1 279.5,372.8 284.8,375.7 287.5,376.8 292.1,378.3 294.5,378.8 298,379.2 301.6,379.2 304,379 308.2,378.2 313.8,376.3 318.7,373.9 323.7,370.6 326.1,368.8 329.3,366 333.6,361.9 338,357 340.7,353.7 346.1,346.5 348.8,342.6 353.3,335.5 359.3,325.1 359.5,324.5 363.5,317.1 368,308 369.9,303.6 371.1,300.2 372.4,295.5 373.5,289.6 374.1,283.1 374.1,276.5 373.8,272.3 373.2,267.5 372.2,262.2 371.1,257.5 369.2,251.2 366,242.8 363.3,236.8 361.1,232.5 356.3,224.2 353,219.2 350.2,215.3 346.1,210.1 341.3,204.7 338.4,201.7 331.7,195.7 325.5,191 320.4,187.8 317.2,186.1 313.9,184.6 308.8,182.8 306.5,182.2 302.4,181.5 299.4,181.4 296.4,181.7 293.5,182.5 291.4,183.6 289.5,185.1 288.7,186.1 287.6,188.1 286.9,190.4 286.7,192.8 287.4,197 288.5,199.8 290.3,202.9 291.8,204.8 293.9,206.9 296.9,208.9 298.6,209.5 299.8,209.7 301,209.6 301.9,208.9 302.2,207.7 301.8,206.6 301.1,205.6 300,205.1" fill="none" stroke="#000000" stroke-width="1"/><polyline id="SvgjsPolyline4555" points="185.2,0.3 179.3,12.1 175.7,20.4 171.6,31.7 169.3,39.7 168.1,45 166.7,53.3 166.2,57.5 165.6,66.4 165.7,77.8 166.5,87.4 167.4,93.9 168.9,102.2 170.2,108.1 176.6,133.1 181.9,152.8 187.6,173 194.8,197.1 200.8,216 204.6,227.4 209.4,241 215.4,257.3 221.4,272.3 226.6,284.5 232.9,298.1 240.6,313 246.6,323.4 249.8,328.5 254.9,335.9 260.8,343.5 266,349.3 268.1,351.4 273.5,356.2 277.9,359.4 283.6,362.7 286.3,363.9 289.7,365.1 293.8,366.1 298,366.6 303.4,366.5 307.5,365.8 309.8,365.2 313.2,364 316.5,362.5 320.7,360.1 325.1,357 331,351.9 335.2,347.6 341.4,340.3 345,335.5 348.1,331 353.9,321.9 360.7,309.9 364.8,301.9 367.2,295.8 368.8,290 369.9,283.5 370.3,277.5 370.2,272.1 369.8,267.3 369.3,263.7 368.4,259 367.1,253.8 365.7,249.2 364.3,245.2 361.8,239.1 358.7,232.6 355.2,226.3 353,222.8 350,218.3 346.8,213.9 343.4,209.7 339.4,205.2 334.3,200.2 327.9,194.7 322.5,190.9 316.8,187.6 311.8,185.4 309,184.4 305.5,183.5 303.2,183.1 299.6,182.9 296.6,183.2 294.3,183.8 292.6,184.6 290.7,185.9 289.4,187.3 288.5,188.8 288.1,189.9 287.6,192.3 287.6,194.7 288.2,197.6 289.6,200.9 291.2,203.5 294,206.6 297.5,208.9 299.8,209.5 301,209.3 301.5,209 301.9,208.5 302,207.3 301.5,206.2 300.7,205.4 300.1,205.2" fill="none" stroke="#000000" stroke-width="1"/><polyline id="SvgjsPolyline4556" points="168.3,0.4 164.9,8.7 162.5,15.5 160.7,21.3 158.2,31.1 156.5,40.6 155.9,45.4 155.3,53.1 155.2,65.1 155.8,74.7 156.7,82.5 158.4,92.5 161.4,106 170,141.6 176.1,165.4 180.9,183.4 189.4,213.4 195.1,232.3 201.3,251.8 205.8,264.8 206.1,266 213,285.2 218.4,299.2 225.8,316.9 232.3,331.1 237.4,341.3 241.4,348.7 245.9,356.5 251,364.6 257.6,373.9 260.2,377.2 264.5,382.2 270,387.7 272.7,390.1 276,392.7 279.5,395.1 283.1,397.2 285.8,398.5 288.6,399.6 293.8,401 295.6,401.3 299.8,401.6 303.4,401.4 306.4,400.9 308.7,400.4 311.6,399.5 314.3,398.4 317.6,396.8 320.7,395 323.2,393.3 325.6,391.5 329.7,388 335.2,382.5 338.4,378.9 343.6,372.3 345.7,369.4 350.1,362.9 353.6,357.3 360.7,344.8 367.2,332 374.7,315.6 376.9,310 378.3,305.4 379,302.5 379.6,299.6 380.2,295.4 380.7,288.2 380.7,284.6 380.3,278 379.8,273.9 378.5,266.8 377.2,261.5 375.5,255.8 373.5,250.1 371,244 368.2,238 366,233.8 362.7,228 359.9,223.5 353.7,214.6 348.8,208.5 344.4,203.6 338.4,197.7 333.4,193.4 327.6,189.1 321,185 317.8,183.4 313.9,181.7 308.8,180 302.9,178.9 298.1,178.8 294.5,179.4 292.3,180.2 289.7,181.7 288.4,182.9 286.9,184.8 286.3,185.9 285.7,187.6 285.3,190 285.3,192.3 286,195.9 287.6,199.8 289.8,203.3 292.6,206.4 295,208.3 297.7,209.7 300,210.2 301.2,210 301.7,209.7 302.1,209.2 302.4,208.1 302.3,207.5 301.5,205.9 301.1,205.5 300,205" fill="none" stroke="#000000" stroke-width="1"/><polyline id="SvgjsPolyline4557" points="162.7,0.3 158.8,11 156.7,17.9 154.4,27.2 153.3,33.1 152.5,38.5 151.8,45.6 151.5,50.4 151.4,60 151.7,66.6 152.9,78.6 154.9,90.4 160.3,114.4 167.4,144.2 177,182 183.6,206.3 188.7,224.2 193.5,240.3 201.1,264.3 205.5,277.4 213,298.3 219.5,315.1 225.3,328.9 231,341.5 237.4,354.4 240,359.1 240.2,359.7 244.4,367 249.7,375.7 256.2,385 259.5,389.3 262.6,393 267.1,397.8 269.7,400.3 273.8,403.8 278.7,407.3 282.3,409.4 286.1,411.2 291.8,413.1 295.4,413.8 298.3,414.1 301.3,414.1 303.7,413.9 307.3,413.3 309.6,412.7 314.7,410.8 317.9,409.2 322,406.7 326.8,403.1 330.4,399.9 334.2,396.1 338.6,391.2 343.8,384.6 346.6,380.7 350.6,374.7 354.7,368 360.3,358.1 366.3,346.4 374.6,328.4 379,317.9 381.5,310.5 382.4,307 383.3,302.3 383.9,297.5 384.2,292.7 384.2,287.3 383.7,280.1 382.4,271.8 381.8,268.9 380,261.9 378.4,256.8 377,252.8 374.3,246.1 369.1,235.3 365.2,228.5 361.1,221.9 357.3,216.5 353.3,211.3 351,208.5 345.8,202.7 339.8,196.8 333.4,191.4 326,186.2 320.8,183.2 313.7,180 309.7,178.7 307.4,178.1 303.8,177.5 302,177.3 298.4,177.3 294.9,177.8 292,178.7 290.4,179.5 288,181.3 286.8,182.7 285.6,184.7 284.8,187 284.5,189.4 284.5,191.2 284.9,194.2 285.6,196.5 286.5,198.7 289.3,203.3 291.7,206 293.5,207.6 296.6,209.5 298.8,210.3 300.6,210.4 301.2,210.2 302.2,209.5 302.4,209 302.5,207.8 302.1,206.7 301.4,205.7 300.4,205.1 299.8,205" fill="none" stroke="#000000" stroke-width="1"/><polyline id="SvgjsPolyline4558" points="48.6,0.2 52.3,29.4 59.4,82.9 71.4,169.7 78.5,219 85.2,264.1 96.6,337.6 104.3,385 111.5,427.6 121.3,483.1 132,540.3 139.2,576.8 143.9,599.7" fill="none" stroke="#000000" stroke-width="1"/><polyline id="SvgjsPolyline4559" points="36.5,0.5 47.3,86.9 59.1,176.7 71,262.9 82.2,340.1 95.4,426.1 105.9,490.6 114.8,542.7 115,543.2 117.1,555.7 122.4,585.2 125.2,599.9" fill="none" stroke="#000000" stroke-width="1"/><polyline id="SvgjsPolyline4560" points="24.4,0.2 33.6,77.7 43.5,157.5 54.1,239.6 64.1,313.9 74.8,390 87.1,473.1 96.8,535.3 107.4,599.8" fill="none" stroke="#000000" stroke-width="1"/><polyline id="SvgjsPolyline4561" points="12.3,0.4 20.6,73.2 32.4,172.7 42.1,251.3 51.7,326.3 62.1,404.2 71.6,472.5 83.1,551.5 90.5,599.5" fill="none" stroke="#000000" stroke-width="1"/><polyline id="SvgjsPolyline4562" points="0.3,0.6 9.8,87.7 18.6,165.2 27.1,237.9 36.9,318.9 48.3,409.4 56.4,471.2 66.5,545.5 74.2,599.6" fill="none" stroke="#000000" stroke-width="1"/><polyline id="SvgjsPolyline4563" points="0.1,108.1 4.3,147.4 13.2,227.4 21.4,298.9 28.5,359.1 38.2,438.9 45,493.1 53.7,560.3 59,599.5" fill="none" stroke="#000000" stroke-width="1"/><polyline id="SvgjsPolyline4564" points="0,217.4 12.5,330.7 23.4,425.5 33.5,510.1 44.7,600" fill="none" stroke="#000000" stroke-width="1"/><polyline id="SvgjsPolyline4565" points="0,326.7 9.4,412.5 16.2,472.8 31.1,599.7" fill="none" stroke="#000000" stroke-width="1"/><polyline id="SvgjsPolyline4566" points="0.1,436.5 7,500.4 18.3,599.9" fill="none" stroke="#000000" stroke-width="1"/><polyline id="SvgjsPolyline4567" points="0,545.8 5.9,599.5" fill="none" stroke="#000000" stroke-width="1"/></g></svg>