<?xml version="1.0" encoding="UTF-8" standalone="no"?><svg id="SvgjsSvg1001" width="600" height="600" xmlns="http://www.w3.org/2000/svg" version="1.1" xmlns:xlink="http://www.w3.org/1999/xlink" xmlns:svgjs="http://svgjs.com/svgjs"><title xmlns="http://www.w3.org/1999/xhtml">function vectorField(p) {
  return {
    x: (p.x-Math.max(Math.cos(p.x*Math.max(p.y,p.x)),Math.cos(p.y*p.y))),
    y: Math.cos((p.x-p.x))
  };
}</title><g id="SvgjsG5286"><polyline id="SvgjsPolyline5287" points="351.2,599.4 351.2,597 351.6,593.5 353.6,581 355.4,573.4 357.4,567.1 357.9,564.8 358,563 357.9,557.6 358.2,555.8 359,553.6 361.9,547.6 366.2,541.1 370.6,536.2 373.7,533.4 376.1,531.5 379.5,529.1 384.6,525.9 387,524.1 389.2,522.1 392.7,518 397.1,510.8 399.3,507.9 402.2,504.9 406,502 410.6,499.2 414.4,497.3 418.2,495.6 427.7,491.8 434.2,488.7 442,484.2 455.5,475.3 460.8,472.5 465.8,470.4 487.3,462.7 518.5,450.4 528.1,446.9 538.9,443.3 545.8,441.2 568.3,434.8 580,432.1 591.8,429.7 599.9,427.7" fill="none" stroke="#000000" stroke-width="1"/><polyline id="SvgjsPolyline5288" points="339.2,600 336.9,591.9 335,586.2 334.7,585.7 333.5,582.3 330.2,574.6 326.1,566.5 322.2,559.8 316.5,551.3 309.1,541.9 302.2,534.3 295.4,527.6 290.5,523.2 280.2,514.9 267.4,505.9 257.4,499.4 242.1,489.9 231.6,482.9 223.5,476.7 218.5,472.4 216.8,470.7 214.9,469.2 213,467.8 208.9,465.3 204.1,462.8 199.7,460.8 194.2,458.5 188.6,456.4 180.1,453.4 168.1,449.5 145.7,442.8 128.3,438.1 89.9,428.3 41.2,415.5 17.9,409.6 0.4,405.4" fill="none" stroke="#000000" stroke-width="1"/><polyline id="SvgjsPolyline5289" points="362.9,599.5 363.5,596.5 363.9,595.4 365.1,593.3 368.1,589.5 372.2,585.2 377.3,581 379.8,579.3 383.4,577.1 391.9,572.6 394.9,570.8 397.9,568.7 400.6,566.3 402.6,564.1 408.2,557 412.2,553.4 416.7,550.5 419.4,549.1 432.6,543.3 437.9,540.5 443,537.4 453,530.7 460.8,526.3 464.1,524.8 475.8,520.1 497.6,510.1 514.9,503.3 521.2,501.1 526.3,499.6 534.5,497.5 550.3,493.9 556.6,492.2 564.1,489.9 569.9,488.4 574.6,487.4 589.4,484.8 599.9,482.4" fill="none" stroke="#000000" stroke-width="1"/><polyline id="SvgjsPolyline5290" points="346,599.8 345.7,598 345.1,590.2 344.2,581.9 343.3,575.4 341.1,563 339.6,558.4 337.1,549.1 334.6,541.7 331.2,533.4 328.1,526.9 326.7,524.2 321.9,515.9 318.6,510.9 314.4,505.1 309.1,498.5 303.1,491.8 295,483.8 287.3,477.1 279.3,470.8 270,464.2 262,458.9 255.4,454.8 243.8,448.4 235.2,444.1 224.6,438.5 214.8,432.8 209.7,429.5 204,425.2 199.4,421.3 195.1,417.1 185.9,406.8 183.4,404.2 178.7,399.6 174.6,396.1 172.7,394.6 166.2,390.2 159,386 153.6,383.3 143.2,378.7 136.5,376.1 128,373.1 114.8,368.9 95.8,363.6 78.9,359.4 53.1,353.7 21.3,347.5 0,343.8" fill="none" stroke="#000000" stroke-width="1"/><polyline id="SvgjsPolyline5291" points="355.6,599.8 355.8,596.8 357.2,592.2 358.7,588.3 360.7,583.9 364,578.2 366.1,575.3 368.4,572.5 371.7,569.1 373.2,567.2 374.4,565.1 377.1,556.5 378.6,553.9 381.5,550.8 385.4,548 388,546.5 390.1,545.4 397.8,542 405.6,539 423.1,532.7 432.5,528.6 436.2,526.7 440.9,524 453.4,515.7 462.6,510.1 471.2,505.7 477.2,503.1 481.7,501.4 489.1,498.9 499.5,495.9 503.5,494.6 516.9,489.4 525.5,486.7 533.1,484.9 548.4,481.8 554.2,480.3 564.5,477.2 570.9,475.6 592.1,471.5 599.7,469.7" fill="none" stroke="#000000" stroke-width="1"/><polyline id="SvgjsPolyline5292" points="348.8,599.6 348.7,593.1 349,582.3 349.8,566.1 349.7,563.1 348.8,557.7 348.8,555.4 349.4,538 350,527.2 350.8,517.6 350.6,514.6 349.8,509.9 349.7,506.9 350.3,497.3 351.4,485.9 352.4,478.2 353.3,472.9 354.8,465.8 356.6,459.5 357,457.1 357.1,452.3 356.9,449.3 356.9,444.5 357.3,441.5 357.7,439.8 359.2,435.9 360.7,432.6 362.4,429.4 366,423.9 369.9,419.3 373.8,415.6 377.1,413 381.1,410.3 386.8,407.1 396.7,402.6 410.1,397.5 422,393.2 428.1,390.7 432.4,388.7 439.8,384.7 444.9,381.5 452.9,376.1 455.9,374.3 461.2,371.4 465.6,369.5 491.9,359.3 507.7,353.5 514.9,350.6 535.9,343.4 553.1,338 569.8,333.1 582.5,329.6 600,325.1" fill="none" stroke="#000000" stroke-width="1"/><polyline id="SvgjsPolyline5293" points="349.9,599.7 349.8,596.7 350.7,584.8 352,573.4 353.3,565.7 353.3,562.7 352.9,559.7 352.8,556.8 353.5,552.6 355.4,544.4 358,536.4 360.4,530.9 363.6,525.2 366.6,520.7 367.6,518.5 368.2,516.2 369.3,509.7 370.4,506.2 371.2,504.6 372.2,503.1 374.2,500.9 377.4,498.2 381.4,495.5 385.1,493.4 388.8,491.5 394.8,488.8 403.2,485.5 422.4,478.6 429.6,475.6 432.3,474.3 436.6,472.1 441.2,469.4 445.3,466.8 451.7,462.4 456.3,459.6 471.6,451.2 483.9,445 490.5,442.1 495.5,440.1 503.4,437.2 504.6,436.9 516.3,432.3 524.3,429.7 540,425.8 550,423.6 556.3,421.9 563.8,419.6 569.6,418.1 573.7,417.2 590.8,414.1 596.7,412.8 599.6,412" fill="none" stroke="#000000" stroke-width="1"/><polyline id="SvgjsPolyline5294" points="350.6,599.8 350.4,598 350.9,592 351.8,584.3 353.2,575.4 355.5,564.8 355.2,559.4 355.3,556.4 356,553.5 357.3,549.5 358.6,546.2 361.1,540.7 363.2,537.1 365.2,534.1 368.6,529.9 372,526.5 375.1,523.7 377.8,520.4 379.5,517.3 382.7,508.9 384.5,505.8 385.6,504.3 387.7,502.2 391,499.6 396.7,496.2 402.1,493.6 410.4,490.2 418.9,487.2 425.1,484.8 433.3,481.1 439.1,477.9 444.2,474.8 447.6,472.4 454.7,467.8 458.3,465.7 461.5,464.1 473.6,458.7 488.2,451.7 496.4,448 503,445.2 515.3,440.4 521,438.4 531.9,435.1 545.8,431.4 551.1,430.2 566.6,425.7 576,423.6 594.3,420.1 599.5,418.8" fill="none" stroke="#000000" stroke-width="1"/><polyline id="SvgjsPolyline5295" points="352.5,599.8 352.4,597.4 352.8,595 354.1,588 355.4,582.7 358,574.7 359.6,570.9 361.7,566.5 362.3,563.6 362.5,558.8 362.9,556.4 363.5,554.7 364.4,553.1 366.5,550.2 369.7,546.6 372.7,543.7 377.4,540 380.4,538 387.2,534.2 395.4,530.5 401.9,527.3 408.6,523.4 411.1,521.7 415.8,517.9 422.2,511.6 425.3,508.8 430.2,505.2 433.7,503.1 438,500.8 443.1,497.7 453.1,491 457.7,488.3 460.9,486.6 464.2,485.1 468.1,483.6 476.2,481.1 493.6,476.7 500.5,474.7 509,471.7 517.9,468.2 524.2,466.2 548.5,459.3 573.2,452 584.2,449 599.9,445" fill="none" stroke="#000000" stroke-width="1"/><polyline id="SvgjsPolyline5296" points="326.7,599.8 324,595 319.3,587.4 314.4,580.6 310.3,575.4 308.3,573.1 300.2,564.3 294.1,558.5 287.8,553 280.7,547.4 272.5,541.4 265.5,536.7 237.1,518.8 232.3,516.3 226.3,513.5 206.5,504.9 196.3,499.8 192.2,497.4 186.7,493.7 178.7,487.3 175.2,485.1 170.9,482.8 164.9,480.2 158.6,478 137.3,471.8 130.5,469.5 130,469.2 126.6,468 119.2,465.6 108.8,462.6 96,459.3 80.8,455.8 53.2,450.1 19,443.7 0.1,440.4" fill="none" stroke="#000000" stroke-width="1"/><polyline id="SvgjsPolyline5297" points="343.3,599.6 341.3,588.4 338.8,577.9 335.4,567 332,558.7 327.6,549.5 326.1,546.9 325.9,546.3 321.9,539.6 318.6,534.6 315.8,530.7 309.5,522.7 302.7,515.1 297.6,510 293.2,505.9 288.2,501.6 280.7,495.6 275.4,491.7 267,485.9 256.9,479.4 241.6,469.9 231.6,463.2 229.1,461.7 222.7,458.3 217.2,455.8 208.4,452.1 201.7,449.5 168.4,437.4 167.9,437.1 158.9,433.8 149.2,430.6 137.7,427.2 120.3,422.6 91.7,415.8 41.9,404.8 0.2,396" fill="none" stroke="#000000" stroke-width="1"/><polyline id="SvgjsPolyline5298" points="334,599.5 332.9,596.7 329.7,589.6 327,584.2 322.5,576.5 319.2,571.4 314.3,564.6 308.6,557.6 304.2,552.7 297,545.5 289.4,538.7 284.3,534.5 273.7,526.6 265.7,521.2 257.1,515.7 252.5,513 238.8,505.5 232.8,501.6 227.4,497.7 222.7,494 216.9,488.8 212.3,484.1 208.3,479.6 205.7,476.3 203.2,473.7 198.9,470.4 193.8,467.3 190,465.4 184,462.7 176.2,459.7 163.1,455.3 145.8,450.2 112.8,441.4 73.2,431.3 12.9,415.5 0,412.3" fill="none" stroke="#000000" stroke-width="1"/><polyline id="SvgjsPolyline5299" points="375.2,599.9 375.7,598.1 376.2,597 376.7,596 378.1,594 380.3,591.9 382.2,590.5 384.8,588.9 390.1,586.2 395.6,583.8 406.3,579.8 406.8,579.5 418.1,575.4 424.2,572.9 429.7,570.4 435,567.6 439.1,565.1 448.9,558.2 456.5,553.4 460.2,551.4 465.7,549 471.9,546.8 479.4,544.6 492.8,541.2 500.9,538.9 507.7,536.5 514.9,533.6 523.4,530.7 552.6,523.6 567,519.4 586.1,514.3 599.5,510.9" fill="none" stroke="#000000" stroke-width="1"/><polyline id="SvgjsPolyline5300" points="358.7,599.7 359.1,596.7 359.7,595 361,592.3 363.4,588.2 365.8,584.7 367.3,582.8 371.4,578.5 374.1,576.1 381.4,570.8 384.9,567.5 386,566 387.5,563.5 389.6,559.1 391.1,556.6 392.2,555.1 394.7,552.5 396.1,551.4 398.1,550 401.7,547.9 404.9,546.3 409.3,544.4 422.3,539.6 426.7,537.8 429.5,536.6 435.4,533.7 441.6,530.1 452.1,523.1 458.3,519.4 476.8,509.5 482.8,506.7 488.9,504.2 498.5,500.8 505.4,498.6 513.2,495.5 520.5,492.9 525.1,491.5 532.1,489.8 545.1,487.2 551.5,485.7 564.8,481.8 571.7,480.1 590.6,476.6 600,474.4" fill="none" stroke="#000000" stroke-width="1"/><polyline id="SvgjsPolyline5301" points="368.1,599.8 368.3,598.6 369.1,596.4 370.4,594.3 372.4,592.2 374.7,590.2 379.6,586.7 385.8,583.1 388,582 392.3,580 402.9,575.7 406.7,574 414.2,570.1 419.7,566.5 422.5,564.2 428.7,558.6 432.6,555.7 441.8,550.2 450.3,544.5 455.4,541.3 459.1,539.3 462.9,537.5 467.3,535.8 473.6,533.7 484.6,530.8 500.2,526.4 508.7,523.4 516.5,520.3 531.8,515 547.8,509.7 556.4,507.1 566.8,504.1 574.9,502.1 599.5,496.7" fill="none" stroke="#000000" stroke-width="1"/><polyline id="SvgjsPolyline5302" points="347.7,599.9 347.5,598.1 347.2,583.7 346.5,566.3 346.2,563.3 344.9,557.5 344.4,552.1 343.3,543.8 341.3,532.5 339.3,523.8 336.8,515.1 332.9,505.1 329.5,497.4 326.5,491.5 324.4,487.8 321,482.2 318,477.7 314.1,472.4 307.2,464 300.7,457 295.1,451.6 289.7,446.8 284.6,442.6 278.9,438.2 268.1,430.6 261.1,426 239.2,412.3 234.7,409.3 228.4,404.8 225.5,402.6 219.1,397.2 215.6,393.9 210.7,388.6 207.3,385.3 204.5,382.9 200.2,379.7 194.1,375.9 187.2,372.2 174.1,366.3 162.9,362 145.2,356.1 134.9,353 125.6,350.4 105.9,345.3 81.3,339.6 55.5,334.2 32.5,329.8 0.6,324.2" fill="none" stroke="#000000" stroke-width="1"/><polyline id="SvgjsPolyline5303" points="347.1,599.8 346.8,598 346.5,589.6 345.5,574.6 344.4,563.9 343,558.6 341.1,548 338.7,538.1 337,532.3 333.8,523.3 330.5,515.6 324.6,504.4 320.5,497.8 317.1,492.9 311.6,485.7 304.1,477.1 296.9,469.9 289.3,463.1 282.8,457.8 272.1,450 258.1,440.8 244.8,432.6 238.8,428.7 231.3,423.6 226,419.7 220.9,415.5 215.2,410.2 208.7,403.1 202,394.6 200.4,392.8 198.8,391.1 194.3,387.1 189.9,383.9 184.9,380.7 178.6,377.2 170.5,373.3 162.2,369.8 151.5,365.8 140.1,362 127.5,358.2 119.4,355.9 104.9,352.1 87.4,347.9 71.6,344.4 52.8,340.5 35.7,337.2 21.5,334.6 0.2,331" fill="none" stroke="#000000" stroke-width="1"/><polyline id="SvgjsPolyline5304" points="345.3,600 344.9,597.6 344.1,589.8 342.6,579.7 340.8,570.3 339.1,563.3 334.2,549.1 331.7,543 327.8,534.9 323.1,526.6 317.8,518.5 313.9,513.2 310.5,509 307,504.9 302.9,500.5 297.4,495 289.8,488.2 282.8,482.5 275.1,476.8 266.1,470.7 249.4,460.1 242.2,455.9 239.5,454.5 233.6,451.6 203.5,438.1 193.2,433.1 186.8,429.8 168.7,419.2 160.7,415.1 156.9,413.3 148.1,409.5 138,405.6 123.2,400.6 112.9,397.5 102.5,394.6 83.3,389.8 61.6,385 42.2,381.1 24.5,377.8 0.2,373.6" fill="none" stroke="#000000" stroke-width="1"/><polyline id="SvgjsPolyline5305" points="345.7,599.6 344.7,589.5 343.6,580.5 341.5,568.1 340.3,562.9 339.1,559.4 336.6,550.8 333.3,541.8 329.4,533 325.5,525.6 320.5,517.4 315.3,510 309.3,502.5 304.1,496.7 296.9,489.5 289.3,482.7 281.8,476.7 277,473.1 271.6,469.3 262.1,463 260,461.8 254.5,458.2 246.7,453.7 238.7,449.6 214.9,438.1 203.3,431.8 197.2,428 190.3,423.2 185.1,419.1 180.1,414.8 176.8,412.2 169.5,406.9 163.5,402.9 155.9,398.2 147,393.2 140.6,389.9 133.5,386.6 122.4,382.1 112.8,378.7 104.8,376.1 93.3,372.7 75.9,368.1 57.2,363.7 39,359.8 24.9,357 20.1,356.2 19.6,356 0.1,352.5" fill="none" stroke="#000000" stroke-width="1"/><polyline id="SvgjsPolyline5306" points="349.3,599.6 349.1,597.2 349.7,584 350.6,571.4 351.2,566.1 351.1,562.5 350.5,558.3 350.5,555.9 350.8,552.3 351.8,543.4 353.1,535.1 354.3,529.2 355.8,523.4 356.9,519.9 357.3,517.6 357.2,509.2 357.4,507.4 358.3,504.5 360.2,500.1 363.7,493.8 367.6,488.5 370,485.8 373.9,482.1 379.7,477.8 384.3,475 390.2,472 394.4,469.6 399,466.8 403.4,463.7 407.6,460.3 409.8,458.2 420.6,447 425.6,442.7 428,440.9 431.5,438.6 438.3,434.8 442.4,432.3 452.4,425.6 456,423.4 459.7,421.4 463.5,419.6 470.2,417.1 475.4,415.5 494,410.8 500.9,408.8 508.3,406.2 516.6,402.9 524.6,400.3 533.4,398.2 544,396.1 549.2,394.9 556.8,392.9 565.4,390.3 570.6,389 591.8,384.9 599.4,383.1" fill="none" stroke="#000000" stroke-width="1"/><polyline id="SvgjsPolyline5307" points="348.4,599.7 348.2,598.5 348.4,564.3 347.5,559.6 347.2,557.2 347,549.4 346.2,532.7 345,517.7 344.6,515.4 343.2,510.1 341.8,501.8 340.3,494.8 337.9,485.5 336.3,480.4 334.3,474.7 331.6,468 328,460.4 322.4,450.5 316.7,442 314.6,439.1 309.7,433 305,427.6 301.7,424.1 294.8,417.4 287.1,410.7 278.1,403.7 269.3,397.5 256.2,389 240.9,379.5 233.4,374.5 226.1,369.2 222.1,366.6 216.4,363.3 207.3,358.7 195.2,353.4 185.7,349.7 167,343.2 153.8,339.1 141.7,335.6 128.4,332 109.2,327.2 89.3,322.6 62.9,317 31.6,311 0.3,305.6" fill="none" stroke="#000000" stroke-width="1"/><polyline id="SvgjsPolyline5308" points="349,599.5 348.8,597.7 349.2,585.7 349.9,571.9 350.4,565.9 350.3,562.9 349.5,557.6 349.9,548.6 350.8,537.2 351.5,530.7 352.4,524.1 353.4,518.2 353.4,516.4 352.8,510.4 352.8,507.4 354.7,498 356.1,492.8 358.5,486 360.2,482.2 361.6,479.5 363.7,475.9 366.5,472 368.8,469.2 372.6,465.4 375.7,461.7 378.6,456.5 382.1,446.9 383.1,444.7 385.9,440.1 389.1,436.5 390.9,434.9 394.7,432 399.3,429.1 403,427.1 412.2,422.8 425.1,417.8 431.7,414.9 434.9,413.3 442.2,409.1 455.7,400.2 459.9,397.9 466.5,395 475.1,392.2 494.2,387.1 501.7,384.9 506.8,383.1 514,380.2 523.7,376.9 554.5,369 564.8,365.9 568.3,365 599.8,357.5" fill="none" stroke="#000000" stroke-width="1"/><polyline id="SvgjsPolyline5309" points="348.6,599.4 348.5,591.7 349.2,564.1 348.2,558.1 348.2,533.5 348.4,517.9 348.3,516.7 346.9,509.1 346,491.1 344.7,476.1 343.6,467.2 342.5,460.1 341.5,454.8 340.5,451.3 339.1,447.3 336.8,439.3 333.6,430.2 329.8,421.4 326.8,415.5 321.7,406.7 318.4,401.7 313.8,395.4 311.2,392.1 306.5,386.6 301.2,380.9 296.9,376.7 290.7,371.1 286.1,367.2 275.6,359.2 263.7,351.1 251,343.2 240.5,337.3 230.8,332.5 223.2,329 213.8,325 199.3,319.3 175.5,311 155.4,304.8 134.6,299 111.3,293.1 81.5,286.3 56.8,281.2 25,275.2 0.1,270.9" fill="none" stroke="#000000" stroke-width="1"/><polyline id="SvgjsPolyline5310" points="348.9,599.6 348.8,594.2 349,587 349.5,575 350.1,566 350,563 349.2,558.3 349.2,554.7 350.3,534.9 351.2,525.4 352.1,518.2 351.9,514.6 351.5,512.2 351.2,508.6 351.9,502.1 353.7,491.4 354.6,487.3 356,482.1 357.3,478.1 359.3,473.1 361.1,469.3 363.2,465.7 364.9,463.2 366.5,459.9 367.7,455.9 369.2,446.4 370,443.5 370.8,441.3 372.2,438.6 373.9,436.2 375.1,434.8 376.8,433.1 380,430.4 383.5,428 390.2,424.1 393.4,422.5 402.2,418.6 411.7,414.9 420.2,411.9 425.8,409.7 431.8,407 436.1,404.8 441.8,401.5 452.3,394.5 457.9,391.1 462.8,388.7 467.2,386.9 472.9,385 502.8,376.1 509.6,373.6 514,371.8 521.9,369 547.3,361.8 556,359.5 566.4,356.4 586.7,351.2 599.6,348.1" fill="none" stroke="#000000" stroke-width="1"/><polyline id="SvgjsPolyline5311" points="348.7,599.6 348.7,588.2 349.5,564.2 348.5,557.7 348.5,553.5 348.9,535.5 349.6,519.9 349.6,516.9 348.4,509.8 348.3,506.8 348.7,480.4 349.5,457 349.2,454 348.5,450.5 347.6,444.5 347.1,420.5 346.5,406.2 345.8,394.8 344.2,378 342.4,365.6 340,353.8 338.5,348 336.8,342.3 333.6,333.2 331.5,328.2 329.7,324.4 326,317.5 321.1,309.3 314.2,299.5 309.3,293.4 300.8,284.1 295.2,278.7 286.6,271.2 277.6,264.2 268.3,257.6 259.3,251.6 241.6,240.3 230.6,233 217.4,223.6 207.6,215.7 202.3,210.8 195.7,203.9 192.5,200.3 191.8,199.3 184.2,190.8 181.6,188.4 178.8,186 175.4,183.5 170.4,180.3 167.7,178.9 164.5,177.3 157.3,174.3 151.6,172.3 143.6,169.8 130.9,166.3 98.3,157.9 76.7,153 56.7,148.9 20.2,142 1.8,138.9 0.1,138.5" fill="none" stroke="#000000" stroke-width="1"/><polyline id="SvgjsPolyline5312" points="348.8,599.6 348.6,598.4 348.8,586.4 349.7,564.8 348.7,558.3 348.6,555.9 349.2,534.9 350.1,519.3 350,515.7 349,509.8 348.9,508 349.5,492.4 350.2,481 351.6,466.7 352.8,458.4 352.8,454.8 351.8,445.9 351.9,442.3 353.1,434.5 354,429.8 356.3,421.1 358.5,414.9 360.4,410.5 363.6,404.7 366.7,400.3 370.7,395.8 372.4,394.2 376.6,390.7 380.1,388.3 387.3,384.1 392.1,381.6 411.3,370.5 428.7,359.8 434.2,356.2 439.9,352.8 454.4,343.3 464.3,337.6 480.8,329 496.6,321.7 511,315.7 521.7,311.7 522.2,311.4 536.9,306.2 552.3,301.2 570.7,295.7 589.8,290.5 599.7,288" fill="none" stroke="#000000" stroke-width="1"/><polyline id="SvgjsPolyline5313" points="348.8,599.9 348.6,598.1 348.8,587.3 349.7,564.5 348.7,558 348.7,553.8 349.3,535.2 350.3,519 350.3,516.7 349.2,509.5 349.2,505.9 350,490.9 351,479 352,470.7 353.8,460.6 354.2,457.6 354.2,454.6 353.4,445.7 353.5,443.3 354.1,439.7 355.7,433.3 357.8,427 359.1,423.7 360.6,420.4 362.3,417.3 364.9,413.2 367.5,409.9 371.2,406 374.8,402.8 380.2,399 385.4,396 393,392.4 417.2,381.8 431.9,375.1 435.7,373.2 441.4,369.9 453.9,361.6 458.6,358.9 474.3,351.4 487.4,345.5 502.3,339.2 516.3,333.7 533.2,327.6 544.6,323.8 556.1,320.2 571,315.8 590.1,310.6 599.4,308.3" fill="none" stroke="#000000" stroke-width="1"/><polyline id="SvgjsPolyline5314" points="349.5,599.8 349.3,598.6 349.3,596.8 350.2,581.2 350.7,575.2 351.8,565.7 351.8,563.3 351.1,557.9 351.4,553.8 352.6,545.4 353.6,539.5 354.5,535.4 356.4,528.5 358.2,523.4 359.2,521.2 359.9,518.9 360.3,515.3 360.3,511.1 360.6,508.1 361.7,504.7 363.2,502.1 366.3,497.7 369.9,493.6 374.3,489.6 376.2,488.1 379.7,485.7 385.9,482.1 392.4,479 398.5,476.5 407.8,472.4 417,467.9 420.7,465.9 428.4,461.3 431.4,459.3 440.2,453 444,450.1 454.5,443.1 457.6,441.3 461.9,439.1 471.8,434.8 478.5,432.3 485.9,429.8 501.5,425.2 507.7,423 514.9,420.1 521.2,417.9 524.6,416.9 531,415.3 549.2,411.5 556.8,409.5 565.4,406.9 570.6,405.6 575.9,404.5 590.1,402 594.8,401 599.4,399.8" fill="none" stroke="#000000" stroke-width="1"/><polyline id="SvgjsPolyline5315" points="353.2,599.7 353.2,597.3 354,593.2 355.1,588.5 356.8,582.8 358.7,577.7 359.9,575 361.8,571.2 363.7,568.2 364.6,566 365,564.8 365.3,563 365.6,559.4 365.9,557.7 366.4,555.9 366.9,554.8 368.5,552.3 369.3,551.4 374.1,546.9 378,544 382.5,541.2 387.8,538.3 393.3,535.8 409.4,529.2 414.3,526.9 419.6,524.1 422.7,522.3 427.2,519.3 438.5,510.4 452,501.4 456.6,498.6 458.7,497.5 462,495.9 465.8,494.3 470.4,492.7 476.1,491 493.6,486.6 500.5,484.6 507.3,482.2 514.5,479.3 520.8,477.1 524.2,476.1 548.2,470.6 554,469.1 562.6,466.5 567.8,465.1 599.9,457.4" fill="none" stroke="#000000" stroke-width="1"/><polyline id="SvgjsPolyline5316" points="312.9,599.7 305.9,591.4 298,583.2 292.3,577.9 282.1,569.5 274.4,563.8 267.9,559.4 260.4,554.5 242.6,543.4 233.1,537.1 228.2,533.6 223,529.5 220.3,527.1 217,524.6 213.9,522.7 209.6,520.5 204.7,518.3 196.9,515.2 160.1,502.3 149.2,499 147.4,498.6 138.2,495.9 129.1,492.8 122.5,490 110.6,484.3 104,481.4 92.8,477 82.6,473.5 71.1,470.1 60.6,467.4 50.1,465 30.1,461 0.5,455.9" fill="none" stroke="#000000" stroke-width="1"/><polyline id="SvgjsPolyline5317" points="330.5,599.7 327.6,593.7 323.8,586.9 318.6,578.9 314.7,573.5 311,568.8 307.5,564.7 302.6,559.4 296.2,553.1 289.9,547.5 283.4,542.2 276.2,536.8 264.3,528.7 252.1,521 246.5,517.6 241.7,515 235.3,511.8 227.1,508 219.6,504.2 212.9,500.3 209.4,497.9 205.7,494.9 202.7,491.9 199.7,488.2 196.2,483.3 193.6,480 190.7,477 188.9,475.4 186,473.2 179.3,469.2 176.1,467.6 171.1,465.4 165.6,463.2 160.5,461.4 152.5,458.9 134,453.7 118.9,449.8 93.8,443.8 0.1,422.6" fill="none" stroke="#000000" stroke-width="1"/><polyline id="SvgjsPolyline5318" points="389.9,599.8 391.8,596.8 394.2,594.1 397.1,591.9 401.2,589.5 408.9,586.1 421.3,581.6 426.3,579.6 431.3,577.4 434.5,575.8 438.2,573.8 442.8,571 452.8,564.3 462.5,558.4 467.8,555.6 475.5,552.2 487.4,548.1 497.3,545.4 503,543.6 510.3,540.9 513.6,539.5 522.1,536.5 532,534 543.8,531.6 550.8,530 567.5,525.2 586.2,520.9 599.6,517.6" fill="none" stroke="#000000" stroke-width="1"/><polyline id="SvgjsPolyline5319" points="348.1,599.6 347.9,597.8 347.7,565.4 347.1,561.2 346.3,557.1 346.1,552.3 345.2,540.9 343.8,528.4 342.1,517.7 341.4,514.8 339.9,510.2 337.8,502.1 334.7,493 332.3,486.9 330.1,482 325.7,473.4 320.4,464.7 315.9,458.3 313,454.5 308.8,449.4 304.4,444.5 295.9,436 286.9,428.1 280.3,422.9 269,414.9 258,407.7 242.2,397.9 231.2,390.5 225.9,386.6 214.9,377.3 210,373.9 203.8,370.2 196.9,366.6 194.1,365.4 192,364.3 179.8,359.2 164.6,353.7 148,348.4 127.8,342.7 102.8,336.4 78.8,331 53.5,325.8 26.4,320.7 0.4,316.2" fill="none" stroke="#000000" stroke-width="1"/><polyline id="SvgjsPolyline5320" points="349.1,599.6 349,594.8 349.5,582.8 350.2,571.4 350.7,566 350.7,563.6 349.9,558.3 350.2,551.1 351,542.1 352.1,533.2 353.5,524.9 354.9,518.5 354.9,514.9 354.5,510.7 354.6,507.7 354.9,505.9 356.6,500.1 358.6,494.5 361.4,488.5 364.2,483.9 366.7,480.5 369.9,476.9 374.3,472.9 382.1,467.2 385.7,464 387.7,461.9 390.4,458.6 392.1,456.1 397.3,447.4 398.7,445.4 400.9,442.6 403.4,440 405.2,438.4 409,435.5 414.6,432 422.1,428.2 429.8,424.9 434.2,422.8 437.9,420.8 443,417.7 449.5,413.3 455,409.8 460.8,406.6 466.3,404.2 474.9,401.4 482.4,399.4 493.5,396.7 499.8,394.9 508.9,391.7 517.8,388.2 524.1,386.2 531.7,384.3 551.6,379.7 556.8,378.3 562.5,376.5 568.9,374.8 594.7,369.2 599.9,367.9" fill="none" stroke="#000000" stroke-width="1"/><polyline id="SvgjsPolyline5321" points="348.5,599.7 348.4,589.5 348.9,564.4 347.8,557.2 347.6,538 347.1,518.2 346.5,514.1 345.9,511.8 345.3,508.2 345,504 344.2,496.9 343.1,489.1 341.1,477.9 338.7,468 336.6,461.1 333.3,452.1 329.8,444.5 326.8,438.6 321.3,429.3 317.6,423.8 313.7,418.5 307.6,411.1 301.9,404.9 298.1,401.1 291,394.6 281.7,387 271.5,379.6 260,372 235.1,356.4 228.8,352.9 221.8,349.4 213.1,345.4 202,340.8 192.5,337.2 178.3,332.2 167.5,328.7 154.3,324.7 134.6,319.2 108.4,312.6 88,307.9 56.8,301.4 32.7,296.8 0.2,291.2" fill="none" stroke="#000000" stroke-width="1"/><polyline id="SvgjsPolyline5322" points="348.7,599.9 348.5,598.1 348.6,590.9 349.4,563.9 348.4,558 348.4,549.6 349.1,517.2 347.8,508.9 347.3,478.3 346.5,457.3 345.8,453.2 344,445.6 343.4,440.8 341.7,430.7 339.9,422.5 338.7,417.9 336.4,410.4 334.2,404.2 331.5,397.5 327.6,389.4 322.6,380.5 317.3,372.5 315.2,369.6 310,363 302.4,354.5 296.4,348.6 288.8,341.8 281.3,335.8 269.6,327.4 259.5,321 246.9,313.9 237.3,309 230.8,305.9 216,299.4 199.8,293 180,286 159.4,279.5 136.9,273.1 113.6,267.1 86.8,260.8 59.8,255 26.8,248.5 0.3,243.7" fill="none" stroke="#000000" stroke-width="1"/><polyline id="SvgjsPolyline5323" points="348.7,599.6 348.5,598.4 348.6,589.4 348.9,576.8 349.4,565.4 349.3,563.6 348.3,557.7 348.4,540.3 348.9,518.1 347.4,508 347.1,493.6 346.4,477.4 345,458.9 344.4,454.7 342.2,446.6 341.2,441.3 339.3,433.1 336.8,424.5 333.1,414.3 328.9,405 326.1,399.7 323.1,394.5 320.2,390 315.7,383.6 312.4,379.3 307,372.9 300.4,365.9 293.4,359.3 288.9,355.4 279.9,348.3 272.1,342.7 264.6,337.7 260.1,334.8 252.9,330.6 243.4,325.4 233.7,320.6 223.9,316.1 207.8,309.4 200,306.4 192.6,303.8 192.1,303.5 171.6,296.6 157.3,292.2 144,288.4 129.5,284.5 107.4,279 84.6,273.8 52.3,267.1 17.5,260.6 0.3,257.7" fill="none" stroke="#000000" stroke-width="1"/><polyline id="SvgjsPolyline5324" points="348.8,599.7 348.6,598.5 348.7,589.5 349.6,564.3 349.3,561.9 348.7,559 348.6,552.4 349.1,533.8 349.9,517.6 348.7,509.9 348.6,506.9 349.5,479.3 350.3,466.7 351.1,458.4 351,454.8 349.8,447.1 349.6,444.7 350.2,433.3 351,424.3 352,416 353.6,406.5 354.8,401.2 356.4,395.5 358.6,389.2 360.8,384.3 362.5,381.1 364.4,378.1 367.3,374.2 377.8,362.7 381.9,357.5 387.5,349.7 396.4,336.2 401.9,328.3 408.1,320.2 414.4,312.9 417.6,309.4 422.7,304.3 431.2,296.7 440.1,289.6 451.4,281.7 459.6,276.6 466.3,272.7 466.9,272.5 470.5,270.4 475.3,267.9 480.2,265.5 485,263.2 494.9,258.8 503.2,255.4 516.1,250.4 526.3,246.9 537.2,243.5 549.3,240 555.1,238.5 565.5,235.4 576.5,232.7 595.3,228.6 600,227.4" fill="none" stroke="#000000" stroke-width="1"/><polyline id="SvgjsPolyline5325" points="348.8,600 348.6,598.8 348.6,593.4 349.1,575.4 349.6,565.2 349.4,562.8 348.6,558.1 348.5,555.7 348.9,537.7 349.4,524.5 349.7,520.3 349.7,516.7 348.6,510.2 348.5,504.2 349.1,480.2 349.7,467 350.3,459.2 350.3,456.2 348.9,447.3 348.6,442.5 349.4,416.7 350.5,399.4 352.2,384.5 353.4,377.4 354.4,372.7 356.6,364.6 359.3,357.3 361.2,351.6 362.1,348.1 363.3,342.2 364.8,331.5 367,310.6 368.3,300.5 370.3,288 372,278.6 373.9,270.4 375.4,265.2 377.6,259 379.8,254.1 381.2,251.4 385.1,245.4 387,243 390.6,239 395.5,234.6 398.8,232 402.3,229.6 408.9,225.6 415.3,222.2 420.2,219.9 427.4,216.9 435,213.3 442.2,209.1 452.2,202.4 456.3,199.9 460,197.9 464.4,195.9 469.4,194 476.3,191.9 490.9,188.3 499,186.1 507.5,183.2 516.4,179.7 521.6,177.9 525,176.9 551.3,170.7 568,165.9 599.5,158.4" fill="none" stroke="#000000" stroke-width="1"/><polyline id="SvgjsPolyline5326" points="348.5,557.1 348.4,556.5 348.7,539.7 349.1,525.9 349.4,520.5 349.4,516.9 348.1,508.6 348.2,473.8 348.4,457.6 347.9,453.4 346.5,447 346.2,444.6 345.1,429.6 343.4,415.3 341.8,405.9 340.7,400.6 338.2,390.7 336.8,386.1 334.2,378.7 331.2,371.5 328.1,365 326.1,361.3 321.9,354.1 316.9,346.6 314.4,343.2 309.5,337.1 304.7,331.7 297.2,324 291,318.4 286.4,314.5 281.2,310.4 275.9,306.5 263.9,298.5 251.5,291.2 250.9,291 247.8,289.2 247.2,289 240.9,285.6 224.6,277.9 209.7,271.6 196.8,266.6 188.9,263.8 188.4,263.5 165.1,255.6 146.7,249.9 131.8,245.5 106.9,238.6 75,230.3 57.5,226 44,223.1 31.6,220.7 23.9,219.4 23.4,219.2 0.3,215.2" fill="none" stroke="#000000" stroke-width="1"/><polyline id="SvgjsPolyline5327" points="348.7,599.4 348.6,593.4 348.8,584.4 349.6,565.3 349.4,562.9 348.5,557.5 348.5,554.5 348.9,536.5 349.7,517.4 348.5,509.6 348.4,505.5 348.9,480.9 349.4,467.7 349.9,459.9 349.9,456.3 348.2,445 348.2,421.6 348.8,378.4 349.4,361.6 350.2,349 350.2,343 349.8,337.1 348.6,328.1 346.9,319.3 345.3,312.3 342.5,301.9 338.2,288.7 334.5,279.2 329.1,267.2 326.4,261.8 323.2,256 321.1,252.4 317.2,246.4 311.5,238.6 307.7,234 304.5,230.4 298.2,224 287.1,213.9 286.1,213.2 283.9,211.2 270,199.7 261.1,191.7 257.7,188.3 253.3,183.4 250.3,179.6 245.4,172.1 242.2,168.5 238.5,165.4 234.5,162.7 229.9,160 225.1,157.5 215.8,153.3 209.7,150.8 195.1,145.2 178.2,139 177.7,138.7 166.9,135.1 146.8,129 140.5,126.9 134.3,124.6 123.3,119.8 114.2,115.3 108.7,112.8 104.3,111 95.2,107.9 87.1,105.7 78.9,103.8 58.9,99.7 44.3,96.4 18.9,91.5 0,88.3" fill="none" stroke="#000000" stroke-width="1"/><polyline id="SvgjsPolyline5328" points="349.4,522.9 349.6,518.1 349.4,515.7 348.5,511 348.3,509.2 348.5,481 349.1,457 347.1,444.5 346.2,423.6 345.2,410.4 344.3,402 342.3,388.4 340.1,377.8 338.6,372 336.9,366.3 334.1,358.3 331.1,351.1 327.7,344.1 325.9,341 325.7,340.4 320.7,332.2 314.5,323.4 310.4,318.2 308.4,315.9 302,308.8 298.6,305.4 290.2,297.7 281.8,290.9 276.5,287 271.1,283.2 263.5,278.3 250.1,270.4 238.4,264.2 222.8,256.6 202.5,247.6 181.4,238.9 120.5,215.1 114.9,213 106.9,210.4 93.6,206.8 84.8,204.7 69,201.3 54.8,198.5 37.2,194.8 20.9,191 0.5,185.9" fill="none" stroke="#000000" stroke-width="1"/><polyline id="SvgjsPolyline5329" points="349,534.6 349.3,525 349.7,517.9 348.5,510.1 348.4,502.9 348.9,477.8 349.8,457.4 349.6,455 348,445.5 347.9,443.7 347.7,411.9 347,381.9 346,362.1 345.3,353.2 344.2,343 342.6,334.8 340,325.6 336.1,314.8 332.3,306 328,297.4 322.6,288.1 316.2,278.6 311.5,272.4 307.6,267.8 302.8,262.5 297.7,257.4 290.6,250.9 284.2,245.5 275.2,238.5 261.6,228.6 251.1,220.7 244.5,215.4 237.8,209.4 234.4,206 230.8,202 226.4,196.3 223.5,191.8 220.8,187.1 219.2,183.8 217.7,181.3 216.3,179.3 214.3,177 211.3,174.1 207.5,171.2 201.9,167.7 198.7,166 194.4,163.9 190,162 182.2,158.9 173.7,155.9 163.4,152.6 142.1,146.4 95.2,133.7 73.8,127.5 66.9,125.7 59.3,124 23.9,117.1 14.6,115 0,111.4" fill="none" stroke="#000000" stroke-width="1"/><polyline id="SvgjsPolyline5330" points="349.2,573.3 349.5,564.3 348.5,557.8 348.5,553 348.9,535 349.6,517.6 348.4,509.9 348.3,503.9 348.7,477.5 349.4,457.7 349.2,455.3 347.8,447.7 347.4,444.1 347,427.9 346.2,411.1 345.3,399.1 343.6,384.2 341.5,371.8 338.9,360.7 336.1,351.5 334.3,346.4 331.8,340.3 328.2,332.7 322.6,322.8 317.6,315.3 314.4,311 309.5,304.9 303.5,298.2 298,292.7 291.8,287 287.2,283.1 281.1,278.3 274.8,273.7 261.8,265 252.1,259.1 238,251.1 237.4,250.9 225.3,244.3 201.8,232.2 185.9,223.8 182.8,222 182.2,221.8 160.3,209.3 153.2,204.9 146.8,201.5 138.6,197.9 128.9,194.5 119.7,191.8 109.3,189.1 69.5,179.9 61.4,177.8 54.5,175.8 35.3,171 18.3,167.3 0,163.8" fill="none" stroke="#000000" stroke-width="1"/><polyline id="SvgjsPolyline5331" points="348.7,599.5 348.6,592.9 349.5,564.1 348.5,557.6 348.5,554 348.9,536 349.6,519.8 349.6,516.8 348.4,509.1 348.4,500.7 348.9,476.1 349.3,464.7 349.7,458.1 349.5,455.1 347.8,444.5 347.5,419.9 347,401.9 346,382.1 344.7,367.2 343.5,357.6 341,343.5 339.6,337.6 338.6,334.2 335.6,325.7 331.5,316.3 327.4,308.3 323.8,302.1 320.9,297.5 316.8,291.6 313.2,286.8 309.8,282.6 303.8,275.9 297,269.1 289.4,262.3 282.9,257 276.2,251.9 264,243.2 249.6,233.4 239.9,226.4 235.6,223.1 228.7,217.3 227.9,216.4 225.2,214 220.2,208.8 214.9,202.3 210.8,196.4 206.8,189.7 204.2,185.7 201.6,182.4 199.1,179.8 194.5,175.9 191,173.5 184.3,169.6 181.1,168 174.5,165.1 168.9,162.9 161,160.1 145.5,155.4 119.4,148.5 101.3,144.1 53.4,132.9 41.6,130.5 14.5,125.5 0.4,122.5" fill="none" stroke="#000000" stroke-width="1"/><polyline id="SvgjsPolyline5332" points="348.7,591.2 348.9,580.4 349.5,564.2 348.5,557.7 348.5,553.5 349,531.9 349.6,516.9 348.4,509.8 348.3,505.6 348.8,475.6 349.5,457.6 349.3,455.3 347.5,444 347.1,424.2 346.4,408 345,389.5 344.2,382.3 343.4,376.4 341.7,366.3 339.9,358.1 337,347.7 334,339.2 332.9,336.4 329.7,329.3 325.2,320.8 322.4,316.2 319.1,311.2 313.8,303.9 310.4,299.7 304,292.5 296.4,284.9 289.2,278.5 277.9,269.6 268.1,262.7 256.5,255.2 242.7,246.7 216.9,231.4 204.2,223.4 193.8,216.3 188,212 179.1,204.9 173.2,199.8 167,195.1 159.8,190.8 156,188.9 149.4,186.1 139.8,182.7 135.2,181.3 120.7,177.4 92.1,170.4 74.2,165.6 61.3,162.6 44.3,159 16.6,153.8 0.6,151.1" fill="none" stroke="#000000" stroke-width="1"/><polyline id="SvgjsPolyline5333" points="348.7,551.7 349.2,532.5 350,518.7 349.9,516.3 348.9,510.4 348.7,508 348.9,500.2 349.4,487 350.1,475.1 350.8,466.7 351.8,457.7 351.6,454.1 350.8,448.8 350.4,444 351.1,435.6 351.9,429.1 353.7,418.4 355.2,412 357.1,405.7 359.3,400.1 361.4,395.8 364.2,391.2 367.1,387.3 369.5,384.6 372.9,381.3 376.7,378.3 381.1,375.2 385.4,371.9 395.6,363.5 406.3,353.9 407.1,353 420.3,340.8 428,334.1 433.1,329.9 441.2,323.7 452.1,316.2 456.6,313.3 463.3,309.3 471.7,304.6 483.5,298.6 498.7,291.6 509.8,287 522.1,282.3 539.1,276.3 557.4,270.5 579.9,264.1 599.7,259.1" fill="none" stroke="#000000" stroke-width="1"/><polyline id="SvgjsPolyline5334" points="349.1,576.6 349.6,567.1 349.6,564.1 348.6,557.5 348.6,554.5 349.2,533.5 350,519.8 350,516.8 349.1,511.4 348.8,507.2 349.5,488.1 350,479.7 351.2,465.9 352.2,458.2 352,453.4 351,445.7 351,442.7 352,434.3 353.5,425.4 354.5,420.7 356.6,413.2 358.4,408.1 360.6,403.2 363.9,397.5 364.9,396 367.9,392.2 369.9,390 372.5,387.6 374.8,385.6 377.2,383.8 390.3,375.4 402.7,366.8 415.2,357.5 417.5,355.6 430.4,345.8 442.1,337.4 452.1,330.7 458.2,326.9 467,321.8 476.5,316.7 486.2,311.9 503.8,304.1 520.5,297.5 539.7,290.7 551.2,287 567.8,282 584,277.5 599.7,273.5" fill="none" stroke="#000000" stroke-width="1"/><polyline id="SvgjsPolyline5335" points="297.4,599.9 291.2,594.2 281.9,586.6 273.2,580.2 266.7,575.8 258.7,570.6 248,564 242.7,561.1 231.4,555.5 224.7,551.6 222.2,549.9 217.6,546 213.8,542.2 210.1,538.2 207.4,535 205.6,532.6 204,530.8 202.7,529.6 198.8,526.7 196.3,525.2 193.1,523.5 188.7,521.5 184.3,519.7 172.4,515.5 157.5,510.9 141.3,506.3 128.7,502.5 113.8,497.7 101.4,493.3 93.4,490.8 84.7,488.4 71.3,485.2 61.9,483.2 20,475.2 0,471.2" fill="none" stroke="#000000" stroke-width="1"/><polyline id="SvgjsPolyline5336" points="407.6,599.8 409.5,597.5 412.2,595.1 414.2,593.7 418.3,591.3 421,590 428.8,586.8 434.2,584.2 441,580.4 453.5,572.1 459.2,568.8 467.9,564.7 480.1,558.3 488.9,554.4 494.5,552.3 501.4,550.1 508.2,547.7 516.5,544.4 524.5,541.8 533.3,539.7 544.5,537.5 549.7,536.3 554.4,535.1 564.7,532 571.1,530.4 592.3,526.2 599.9,524.4" fill="none" stroke="#000000" stroke-width="1"/><polyline id="SvgjsPolyline5337" points="348.8,584.9 349,576 349.5,565.2 349.3,562.8 348.4,557.4 348.4,554.4 348.8,532.8 349.3,517.3 348,508.9 347.7,458 347.1,453.2 346,448.5 345.3,444.4 344.1,432.4 343.3,426.5 341.9,418.2 339.7,408.2 338.5,403.6 336.2,396.1 332.6,386.6 329.9,380.6 327.2,375.2 322.1,366.4 318.8,361.4 314.9,356 309.3,349 302,341 297.3,336.4 291.1,330.8 286.5,326.9 281.3,322.8 274,317.5 268,313.5 263.5,310.6 256.8,306.6 250,302.8 240.4,297.8 234.4,295 233.4,294.4 225.7,290.9 210.8,284.6 194,278.2 173.5,271.2 153.5,265 138.5,260.7 112.4,253.8 85.6,247.3 55.7,240.6 24.6,234.1 10.4,231.4 0.4,229.7" fill="none" stroke="#000000" stroke-width="1"/><polyline id="SvgjsPolyline5338" points="349.2,530.8 349.8,517.6 348.6,509.3 348.6,502.7 349.3,479.3 350.2,463.7 350.7,458.3 350.4,453.5 349.1,445.2 349.2,438.6 350,423.6 351,411.7 352.1,402.8 354,392.1 355.4,386.3 356.6,382.3 358.9,376.1 361.8,370.1 367.3,361.6 370.6,355.8 372.2,352.6 376.7,342.1 380.5,332 385.2,320.3 388.9,312.1 392.2,305.7 397.6,296.4 402.6,288.9 405.1,285.5 411.9,277.1 417.2,271.4 422.8,266 430.6,259.4 435.4,255.8 452.9,244.2 456.5,242 457.1,241.8 459.7,240.3 466.2,237.3 473.4,234.3 479,232.2 490.4,228.2 504.7,223.7 516.4,219.1 523.8,216.7 534.3,214.1 551.9,210.2 565.1,206.3 568.6,205.4 575.1,204 591.6,201 599.8,199.1" fill="none" stroke="#000000" stroke-width="1"/><polyline id="SvgjsPolyline5339" points="348.8,599.8 348.6,598.6 348.7,589.6 349.6,564.5 348.6,557.9 348.6,553.1 349.1,534.5 349.6,523.1 349.9,519.6 349.9,517.2 348.8,510 348.7,505.2 349.1,491.4 349.8,476.5 350.6,465.7 351.4,457.9 351.1,453.1 350.3,448.4 350,445.4 350.1,440.6 351.1,429.3 351.9,422.7 352.8,416.8 353.7,412.1 355.2,405.6 356.9,399.9 358.8,394.8 361.4,389.4 363.2,386.3 365.2,383.3 368.6,379.1 372,375.7 374.8,373.4 379.7,369 388.6,360.1 396.2,351.6 396.9,350.6 403.9,342.4 410.7,334.7 414.7,330.3 424.5,320.6 432.2,313.9 440.2,307.6 449.5,301 458.6,295.2 469,289.2 475.9,285.5 488.8,279.2 503.1,272.9 515.9,267.8 521.6,265.8 522.1,265.5 543.7,258.2 562.7,252.5 578.3,248.3 599.9,243.1" fill="none" stroke="#000000" stroke-width="1"/><polyline id="SvgjsPolyline5340" points="348.9,494.2 349.6,475.1 350.9,457.7 350.8,455.3 349.5,447 349.3,444.6 349.6,436.2 350.4,424.2 351.7,411.7 353.4,401 355.6,391.7 357.2,386.6 358.7,382.6 360.2,379.3 361.9,376.1 365.4,370.6 370.3,364.5 373.8,359.6 377,354.5 381.4,346.7 391,328 398,316.1 405.6,305.3 410.1,299.7 413.7,295.6 417.7,291.2 421.5,287.4 429.5,280.1 437.9,273.3 443.7,269.1 454.2,262.1 462.5,257.3 472.7,252.1 481.4,248.1 493.6,243.1 508.3,237.8 515.5,234.9 522.9,232.4 536.2,228.7 553.1,224.5 564.6,221.1 569.3,219.9 581.6,217.3 592.2,215.3 599.8,213.5" fill="none" stroke="#000000" stroke-width="1"/><polyline id="SvgjsPolyline5341" points="349.5,566.2 349.6,565.6 349.5,563.8 348.6,558.4 348.5,555.4 348.9,537.5 349.7,517.1 348.5,509.4 348.5,501.6 349.1,477.6 350.1,459.6 350.1,456 348.6,446.5 348.4,444.1 348.9,414.7 349.9,392.5 350.9,380 351.8,372.2 353.1,363.9 353.9,359.8 355.2,354.6 356.2,349.3 356.8,343.9 357.1,337.9 357.1,329.5 356.4,313.9 354.5,288.8 352.1,264.3 351.8,255.9 352.2,249.3 352.6,246.3 353.3,242.8 354.2,239.3 356,234.2 357.8,230.4 359.9,226.8 361.3,224.8 364.3,221.1 366.4,219 371.9,214.3 378.9,209.7 386.9,205.5 392.9,202.8 403.5,198.6 421.6,192.1 426.6,190.1 431.5,187.9 435.3,186 442,182.1 452.5,175.1 457.1,172.3 463.6,169.1 480.4,162.6 502.5,153.4 514.2,148.7 531.7,142.4 545.5,138.2 555.4,135.6 562.8,133.3 568,131.9 580.9,129.1 591,127.2 599.7,125.1" fill="none" stroke="#000000" stroke-width="1"/><polyline id="SvgjsPolyline5342" points="348.7,546.8 349.2,529.4 349.8,518 349.6,515.7 348.5,508.5 348.6,500.7 349.4,475 350.1,463 350.5,458.8 350.4,455.2 349,446.3 348.8,443.9 348.9,439.7 349.5,424.1 350.6,407.9 352.1,394.8 353.4,387.1 355.4,378.4 358,370.4 360.4,364.9 362.4,361.2 364.5,356.8 366.1,353 367.5,349 370.2,339.8 374.4,322.3 376.9,313 379.9,303.3 382.3,296.5 386.6,285.9 390.5,277.8 394.6,270.5 398.2,265 401.4,260.6 407.3,253.8 413.4,248 420,242.8 425.5,239.1 428.5,237.3 442.1,229.6 452.1,222.9 457.2,219.8 463.7,216.6 467,215.3 473.3,213.2 483.1,210.4 495.9,207.1 502.8,205 510.1,202.3 514.5,200.5 521.9,197.9 526.5,196.6 533,195.1 549.4,191.7 556.9,189.7 564.4,187.4 569,186.2 576.1,184.7 589.1,182.4 594.4,181.3 599.6,180" fill="none" stroke="#000000" stroke-width="1"/><polyline id="SvgjsPolyline5343" points="349.4,526 349.7,517 348.5,509.3 348.5,502.7 349,481.7 349.5,469.7 350.2,459.5 350.2,455.9 348.7,446.4 348.5,444 348.5,441 349.1,417 350.1,397.9 351.3,384.7 353,372.8 354.9,364 356,360 357.5,355.4 358.4,351.9 359.7,344.8 360.2,340.7 360.6,335.9 361.1,325.7 361.6,302.9 362.4,280.1 363,270.5 363.7,264 364.9,256.9 365.9,252.8 366.8,249.9 368.6,245.5 371.5,240.2 373.2,237.8 376.7,233.6 381.5,229.1 383.8,227.2 387.7,224.4 393.3,220.9 398.6,218 405.6,214.6 413.3,211.3 425.1,206.8 433.3,203.1 438.6,200.2 443.7,197.1 450.2,192.7 456.2,188.9 458.3,187.7 463.7,185.1 469.9,182.8 473.4,181.7 500.5,174.2 507.9,171.6 515.1,168.7 523.1,166 572,151.7 585.9,147.9 599.9,144.4" fill="none" stroke="#000000" stroke-width="1"/><polyline id="SvgjsPolyline5344" points="348.5,556.8 348.8,537 349.5,519.6 349.4,516 348.5,511.3 348.2,508.3 348.4,479.5 348.8,456.7 348.6,454.9 346.8,444.9 345.8,426.3 344.1,409 343.1,401.9 341.4,392.4 339.7,384.8 338.3,379.6 336.7,374.4 333.9,366.5 329.6,356.6 326.3,350.2 321.7,342.5 317.7,336.5 315.2,333.1 309.2,325.6 301.5,317.2 296.8,312.6 290.1,306.6 283.1,300.9 272.9,293.5 266.4,289.2 260.3,285.4 252.5,280.9 251.9,280.7 245.6,277.2 232.2,270.5 216.9,263.6 204.1,258.3 195.2,254.8 186.2,251.4 176,247.8 174.4,247.1 151.7,239.3 115.7,227.7 89.3,219.6 78.3,216.7 66,213.9 50.7,210.8 18.3,204.7 0.1,200.9" fill="none" stroke="#000000" stroke-width="1"/><polyline id="SvgjsPolyline5345" points="349.1,533.1 349.7,517.5 348.5,509.8 348.4,507.4 349,479.2 349.5,467.2 350,459.4 350,455.8 349.6,452.8 348.7,448.1 348.3,444.5 348.6,414.5 349.5,387 350.3,374.4 351.4,363 352.1,357.7 353.1,351.8 353.7,345.2 353.7,337.4 353.4,332 352.8,325.4 351.1,312.3 348.8,298.7 347,289.9 344.2,278.2 341.5,268.4 338,254.4 333.4,237 329.1,222.7 324.8,210.8 320.6,201.5 317.7,196.2 314.6,191.1 311.5,186.7 309.3,183.9 303.8,177.5 297.9,171.5 294,167.8 282.5,157.3 276.9,152.7 270,147.9 261.5,142.3 256.6,138.8 252,134.9 249.5,132.4 247.6,130 245.8,126.9 244.7,123.5 244.4,121.1 244.4,116.9 244.6,113.3 244.5,109.7 244,107.4 243.1,105.1 240.7,101.7 239.4,100.4 237.1,98.5 232.1,95.2 225.7,91.9 218.6,88.7 201.9,81.9 183.3,75 177.3,72.4 171.4,69.4 167.3,66.9 160.9,62.4 157.1,59.5 151.5,56 144.5,52.6 138.9,50.4 129.7,47.6 101.8,40.6 70.1,33.6 60.8,31.4 33.1,25.9 25.5,24.1 8.7,19.7 0.5,17.9" fill="none" stroke="#000000" stroke-width="1"/><polyline id="SvgjsPolyline5346" points="348.6,499.1 348.7,489.5 349.1,475.7 350,458.9 349.9,455.3 348.5,447 348.2,443.4 348.4,419.4 348.8,397.8 349.4,381.1 350.1,369.1 351.1,357.7 351.9,351.8 352.3,346.4 352.2,338 351,326 349.2,314.8 347.7,307.1 346.3,300.7 343.8,290.8 340,278.2 337.1,269.6 332.6,257.2 329.2,248.9 326.2,242.3 322.9,235.9 318.7,228.7 315.4,223.7 311.5,218.3 309.2,215.5 303.7,209.2 297.8,203.2 293,198.7 278.5,186.1 270.1,178.4 264.7,172.8 258.9,165.9 257.1,164.2 253.4,161.2 248.9,158.2 241.1,153.8 233,149.8 206.3,137.6 200.9,134.9 195.1,131.7 190.2,129.4 185.8,127.6 176.2,124.2 162.4,119.9 149.4,115.4 142.7,112.7 131.3,107.2 124.2,104.2 114.5,100.8 104.8,97.9 92,94.6 66.2,89 39.7,83.8 13.7,79 13.2,78.8 0.2,76.5" fill="none" stroke="#000000" stroke-width="1"/><polyline id="SvgjsPolyline5347" points="349.1,473.6 349.9,457.4 349.5,453.3 348.4,447.4 348.1,445 348,347.8 347.8,343.6 347.3,338.8 346,331.1 344.4,324.1 343,318.9 341.3,313.1 339.4,307.4 338.2,304 334.9,295.7 332.2,289.6 329.3,283.7 325.3,276.3 319.3,266.6 315.5,261.2 311.5,256 309.2,253.2 304,247.4 298.1,241.4 289.7,233.7 288.7,233 286.5,231 281.4,226.8 261.1,210.8 256.6,206.9 255.6,206.2 250.3,201.3 245.7,196.6 240.7,190.6 237.9,186.7 236.3,184.1 232.3,176.8 230.1,173.9 228.9,172.6 225.8,169.8 222.9,167.6 216.8,163.9 212.5,161.6 206,158.6 200.4,156.3 185.8,150.9 164.1,143.8 144,137.9 130.8,133.7 121.7,130.6 109.3,126.1 93.7,120 86.2,117.6 80.5,116 71.1,113.8 45.2,108.6 33.5,106 27.7,104.5 17.2,102.1 0.1,98.7" fill="none" stroke="#000000" stroke-width="1"/><polyline id="SvgjsPolyline5348" points="279,599.6 269.7,593 263.2,588.7 239.3,573.7 231.9,568.6 227.8,566.2 225.1,564.8 218,561.6 200.2,554.3 191,549.9 185.8,546.9 178.1,541.2 174,538.7 170.2,536.8 165.3,534.7 157.9,532.1 137.2,526.1 125.8,522.3 112.5,518.6 106.1,517 91.5,513.6 74.5,509.9 39.2,502.6 0.5,494.2" fill="none" stroke="#000000" stroke-width="1"/><polyline id="SvgjsPolyline5349" points="428.3,600 430.6,598 433.6,595.9 443.9,589.8 448.8,586.4 454.4,582.8 460.1,579.6 467.3,576.5 487.9,570 496.4,567 519.8,557.8 531.8,553.8 538.7,551.8 555,547.7 565.3,544.6 568.8,543.7 575.3,542.3 592.4,539.2 600,537.4" fill="none" stroke="#000000" stroke-width="1"/><polyline id="SvgjsPolyline5350" points="349.6,466.7 350.1,458.9 350.1,456.6 348.6,447.1 348.3,443.5 348.7,416.5 349.3,397.9 350.2,382.3 351.4,369.8 352,365 353.6,355.5 353.8,355 354.9,347.8 355.3,341.9 355.3,334.7 355,328.1 354.3,319.1 352.3,301.2 350.3,287.6 347.7,273.4 345,256.8 344.1,244.8 344,238.2 344.3,231.6 344.8,226.9 345.6,222.1 346.3,219.2 348.4,213 350.2,209.2 352.4,205.6 354.9,202.2 358.2,198.7 360.4,196.7 363.7,194.1 367.2,191.7 373.9,187.8 377.7,185.9 398.4,176.4 406.5,172.4 416,167.3 424.2,162.3 427.2,160.3 435,154.7 442.6,148.9 449.5,144.1 458.3,138.9 463.2,136.6 468.7,134.3 477.2,131.3 487.5,128.1 500.8,124.4 508.2,121.8 515.4,118.9 523.4,116.2 531,114.3 543.9,111.7 550.9,110.1 568.8,105 593.5,99.9 599.9,98.3" fill="none" stroke="#000000" stroke-width="1"/><polyline id="SvgjsPolyline5351" points="348.7,559.1 348.5,557.4 348.5,555 348.8,540.6 349.7,517.2 348.5,509.5 348.5,501.1 349.2,474.7 350.1,459.1 349.9,454.3 348.4,444.8 348.5,429.2 349,407.6 349.7,392 350.7,378.3 352,367 353.6,357.5 354.3,354.6 355.3,348.6 355.8,342.1 355.9,335.5 355.6,327.1 354.1,308.5 352.7,296 351.6,287.7 347.7,262.2 347.2,257.4 346.9,247.8 347.4,238.8 347.8,235.8 348.8,230.5 349.9,226.5 350.7,224.2 352.1,220.9 353.8,217.7 356.1,214.2 358.7,210.9 362.5,207.1 366.7,203.7 369.7,201.6 375.3,198.2 381.2,195.2 388.3,192 402.8,186.3 425.3,177.8 433.5,174.1 441.3,169.7 451.8,162.7 458.5,158.7 459.1,158.5 476.5,149.1 488.4,143.4 496.2,140.2 505.8,136.8 517,132.4 525.6,129.7 537.2,126.9 551.3,123.8 568,119 578.6,116.8 591.6,114.5 599.8,112.6" fill="none" stroke="#000000" stroke-width="1"/><polyline id="SvgjsPolyline5352" points="348.5,427.2 348.9,406.2 349.8,385.2 350.7,373.2 351.4,366.7 352.1,361.3 354.2,348.3 354.5,343.5 354.4,333.9 353.6,323.1 352.6,314.2 350.3,298.1 347.8,284.6 342.5,260.5 339,239.2 337.7,228.5 337.1,221.3 336.8,214.7 336.9,205.7 337.4,199.7 338.5,193.2 339.4,189.8 340.4,186.9 342.3,182.5 344.1,179.4 346.2,176.5 349,173.3 351.5,170.8 354.6,167.1 356.8,163.5 357.7,161.3 358.6,158.4 359.1,154.8 359.1,146.4 359.3,143.5 359.6,141.7 360.5,138.8 361.9,136.2 364.1,133.3 367.2,130.5 370.6,128 376.3,124.7 384.4,120.7 388.6,118.3 394.6,114.5 398.9,111.2 401.2,109.2 405,105.4 413.6,95.4 423,86.1 425.7,83.7 429.5,80.8 432,79.2 437.3,76.3 442.2,74.1 446.1,72.6 454.7,69.6 462.1,67.4 471.2,64.3 477.3,61.8 490.9,55.4 498.1,52.5 518.2,46.3 544.3,37.4 562.1,32 569.1,30.2 581.4,27.5 593.8,25.1 599.6,23.7" fill="none" stroke="#000000" stroke-width="1"/><polyline id="SvgjsPolyline5353" points="348.5,446.6 348.3,444.2 348.3,438.2 348.6,416.6 349.5,389.1 350.3,376.5 351,368.7 352.1,359.8 353.6,350.9 354.2,343.1 354.2,338.3 353.9,331.7 352.7,319.2 351.1,307.3 348.8,293.7 346.6,283.1 342.5,266.2 339.8,253.9 335.9,234.5 329.3,199.1 326.2,184.4 323,172.2 320.5,164.8 317.7,158.2 315.3,154.1 313.9,152.1 309.8,146.9 304.4,140.5 299.4,135.3 285.9,122.5 283,119.5 279,115 276.1,111.2 274.4,108.7 272,104.5 270.2,100.7 269.3,99.2 266.5,96.1 263.2,93.4 258.7,90.4 252,86.5 244.1,82.2 237.5,78.1 234.5,76 233.1,74.8 228.1,69.7 225.8,67.8 221.8,65.1 218.1,63.1 211,59.9 194.2,53.3 181.2,47.2 174.5,44.7 165.9,41.8 153.3,38 138.9,33.8 120.3,28.9 114,27 106.6,24.4 91.1,18.1 84.2,15.8 73.2,13 53.2,8.9 41.5,6.2 22.1,2.4 8.5,0.1" fill="none" stroke="#000000" stroke-width="1"/><polyline id="SvgjsPolyline5354" points="348.4,436.9 348.4,428.5 348.8,407.5 349.7,384.7 350.9,369.1 352.3,357.8 353.5,350.7 354,344.7 354,336.3 353.5,328.6 352.7,320.8 351.1,308.9 348.8,295.3 347.5,288.8 344.4,275.4 341,262 332,221.6 328.8,208.8 325.2,196.7 321.6,187.2 318.8,181.2 317.1,178 314.3,173.4 311.9,169.9 309,166.1 302.7,158.9 295,151.3 287.3,144.6 280,137.5 275.2,132.1 272.3,128.3 270.3,125.3 268.5,122.2 265.7,116.2 263.8,110.5 262.2,103.5 260.8,100.8 259.7,99.4 258.5,98.1 254.8,95 250.3,92.1 242.9,88 227.9,80.5 222.1,77.2 218.1,74.7 214.9,73 206.6,69.4 188.7,62.5 180.6,58.6 177,56.5 174.5,54.8 169.8,52.1 166,50.3 158.8,47.5 153.1,45.5 141,41.9 102.1,31.8 93.4,29.4 74.5,23.7 62.8,21 53.3,19.2 41,16.6 23.6,12.1 13.6,9.8 5.4,8.1 0.1,7.2" fill="none" stroke="#000000" stroke-width="1"/><polyline id="SvgjsPolyline5355" points="348.4,427.4 349,397.4 349.8,380 351,365.1 352,356.7 352.8,352 353.4,344.2 353.3,336.4 352.7,328.7 352.1,323.3 350.3,310.8 348.5,300.8 346.9,293.1 344.4,282.6 337.1,256.6 332.4,241.1 326.9,225.9 323.5,218.2 321.9,215 317.2,206.6 312.1,199.2 307.6,193.6 304.4,190 295.9,181.5 283.4,170.3 276.4,163.7 273.9,161.1 271.2,158.8 266.3,155.2 262.3,152.6 238.4,138.8 234.4,136.2 230.5,133.4 226.8,130.3 224.3,127.7 222.1,124.8 218.9,119.8 217.4,117.9 214.9,115.3 210.2,111.6 206.6,109.4 202.9,107.5 199.6,106 191.8,102.9 165.2,93.6 155.4,90.5 142.2,86.7 108,77.5 89.3,73.2 78.8,70.6 66.7,67 52.5,62.3 43.2,59.8 31.5,57.3 9,53.3 0.2,51.5" fill="none" stroke="#000000" stroke-width="1"/><polyline id="SvgjsPolyline5356" points="348.4,507.1 349.1,476.5 349.5,467 350,459.8 349.9,455 348.3,444.9 348.4,426.3 348.7,409.5 349.4,388.5 350.1,376.5 350.9,367 351.8,359.2 353.1,350.9 353.6,344.3 353.6,338.9 353.3,332.9 352.3,322.8 351.1,313.9 349,301.4 348,296.1 345.8,286.2 343.9,278.6 340.5,266.5 336.4,250.8 334.3,243.3 330.8,231.8 327.2,221.6 325.2,216.6 322.5,210.6 318.3,202.6 314.8,197.1 312,193.1 307.5,187.5 304.3,183.9 298,177.5 286,166.6 276.8,158 273.5,155.4 267.6,151.3 248.7,139.6 244.8,136.8 241.5,134.2 238.5,131.3 236.9,129.5 235.5,127.5 234.1,124.9 232.8,120.9 231.8,115 230.8,110.9 230,108.6 228.9,106.5 226.3,103.2 224,101.2 221.1,99.1 215.4,95.8 209.4,93 203.9,90.7 193.8,86.9 171.7,79.1 162.8,75.6 154.5,72 146.5,67.9 143.4,66.1 138,63.5 132.4,61.4 127.8,59.9 117.4,57.1 98.7,52.5 90.7,50.1 82,47.8 69.1,44.8 44.4,39.8 0.1,31.7" fill="none" stroke="#000000" stroke-width="1"/><polyline id="SvgjsPolyline5357" points="348.4,425.5 348.8,402.7 349.6,381.7 350.9,364.3 352.8,349.4 353.1,344 353.1,340.4 352.4,329.7 351.7,323.7 350.7,316.6 348.3,303 345.3,289.5 341,273.9 336.8,260.1 333.1,248.7 330.9,242.5 327.6,234.1 323.9,225.9 321.4,221.1 317.8,214.9 312,206.5 309.4,203.2 303,196 297.5,190.5 293.1,186.4 277,172 272.3,167.4 268.2,163 263.1,158.8 259.1,156.1 253.5,152.7 248.2,149.8 228.5,139.6 221.8,135.7 217.7,133.1 214.3,130.6 208.9,125.9 205.5,123.4 199.8,120.1 194.9,117.8 189.9,115.8 182,113 169.4,108.9 160.9,105.9 148.2,100.6 140.3,97.8 133.4,95.6 124.2,93 113.7,90.3 100.3,87.1 56.9,77.5 41.7,74 29.5,71 14.8,68.1 0.6,65.7" fill="none" stroke="#000000" stroke-width="1"/><polyline id="SvgjsPolyline5358" points="258.1,599.8 242.8,590.3 234.3,584.7 226.1,578.7 221.4,574.9 217.8,571.7 215.8,570.3 211.7,567.9 205.7,565.1 200.7,563.1 178.1,555 168,551.1 165.3,549.9 156.2,546.8 145.2,543.7 134.3,540.4 125.9,537.2 116.6,532.9 111.1,530.6 101.5,527.2 96.9,525.9 81.7,522.5 70,519.7 51.8,515.9 38.2,513.3 23.4,510.7 22.9,510.5 0.4,506.6" fill="none" stroke="#000000" stroke-width="1"/><polyline id="SvgjsPolyline5359" points="450.4,599.8 453.9,597.5 458.6,594.8 462.9,592.7 469.6,590.1 482.9,586.2 494.5,583.3 499.7,581.8 506.5,579.5 513.2,576.8 522.2,573.6 544.3,567.8 577.7,558.1 589.3,555.1 595.2,553.8 599.8,552.6" fill="none" stroke="#000000" stroke-width="1"/><polyline id="SvgjsPolyline5360" points="348.9,485.1 349.3,471.9 350.1,458.7 349.9,454.5 348.5,446.2 348.3,443.8 348.6,419.2 349.1,401.2 349.8,386.2 350.6,375.5 352.1,362.4 354,351.7 354.5,347.5 354.8,342.8 354.8,336.2 354.6,331.4 353.9,322.4 351.8,304.5 348.7,285.6 344.4,265 342.5,253.8 340.8,239.5 340.2,229.9 340.2,221.5 340.4,217.9 341.3,210.7 342.2,206.6 343.4,202.6 345,198.7 347,195 350.1,190.6 352.5,187.9 356.4,184.2 359.7,181.6 362.2,179.9 367.8,176.5 375.8,171.1 380.5,167.4 384.4,163.7 387.6,160.1 389.4,157.7 396.8,145.3 398.6,142.9 401,140.2 402.7,138.6 406.5,135.6 412.5,131.6 415.8,129 420.8,124.7 421.6,123.8 428.7,117.4 431.5,115.1 435.5,112.3 440.1,109.6 443.3,108 449.4,105.5 455.7,103.4 465.3,99.9 473.1,96.8 481.9,93 500.5,84.6 511.6,80.1 520.1,77.1 532.8,73.6 553.3,68.8 561.3,66.4 569.4,64.2 579.4,62.2 588.3,60.7 599.4,58.2" fill="none" stroke="#000000" stroke-width="1"/><polyline id="SvgjsPolyline5361" points="349.9,460.8 350.1,458.4 350,455.4 348.6,447.1 348.3,443.5 348.6,420.1 349.1,401.5 349.9,385.4 350.8,374 351.9,364.5 354.5,349.1 355,341.3 354.9,333.5 354,320.9 352.3,306 349.5,287.6 344.2,260.5 343.5,255.8 342.4,246.3 341.7,236.1 341.8,224.7 342.4,218.7 342.9,215.8 344,211.1 345.3,207.1 347,203.2 349.4,199.1 351.9,195.7 354.7,192.6 359.2,188.6 362.1,186.5 365.1,184.5 368.2,182.7 378.3,177.3 386.1,172.8 393.1,168.2 396.5,165.7 403.3,159.8 406.6,156.4 416.2,145.6 421.1,141.2 425.5,138 435.2,130 440,126.4 445.6,122.9 449.9,120.7 457.1,117.7 465.6,114.9 476.6,111.9 494.1,107.5 501.6,105.3 506.7,103.5 513.9,100.6 521.3,98 536.8,93.3 560.2,85.9 571.8,82.6 582.2,79.9 595.1,77 599.8,75.8" fill="none" stroke="#000000" stroke-width="1"/><polyline id="SvgjsPolyline5362" points="349,402 349.9,382.8 350.8,371.5 351.9,361.9 352.9,355.4 353.6,351.9 354.2,345.9 354.3,336.3 354.1,332.1 353.3,322.6 352.4,314.8 350.4,301.1 347.6,285.8 341.7,260.1 339,245.9 335.7,225.8 334,212.1 333.2,203.1 332.9,197.7 332.8,189.3 333.1,183.3 333.5,179.8 334.3,175 335.7,169.8 337.4,165.3 338,162.4 338.1,160.6 338,158.8 337.6,156.4 336.8,153.5 333.5,145.2 332.5,142.3 332,140 331.9,137 332.2,135.2 333,132.9 334.4,130.3 337.3,126.4 339.7,123.8 344.3,119.9 351.3,115.3 363.5,108.8 370.7,104.5 374.2,102.1 376.1,100.6 380,96.9 382.2,94 383.7,91.5 386.6,84.9 387.7,82.8 388.7,81.3 391.7,77.5 395,72.5 399.4,65.3 401.5,62.4 404.7,58.8 407.8,56 409.8,54.6 412.8,52.7 418.2,50 423.4,47 427.8,43.9 436.2,37.1 439.7,34.7 442.2,33.2 448.1,30.2 454.7,27.2 458.9,24.9 465.6,20.9 470.9,18.2 475.9,16.1 479.3,14.9 493.8,10.9 505.3,7.5 513.3,4.9 526.8,0.1" fill="none" stroke="#000000" stroke-width="1"/><polyline id="SvgjsPolyline5363" points="350.2,379.7 351.7,364.7 354.3,348.1 354.6,343.3 354.6,335.5 354.4,331.4 353.6,321.8 352.6,312.8 350.1,295.6 347.8,283.2 343.2,262.1 341,249.1 339.7,239.6 338.6,228.2 338.2,218.7 338.4,211.5 338.9,206.1 339.7,201.3 341.1,196.1 342.1,193.3 343.6,190 345.7,186.4 348.2,183 351.9,179.1 354.6,176.7 358.9,173.4 363.8,169 367.3,164.9 369.3,161.9 370.9,158.6 372.3,154.7 374.1,147.1 375.4,143.1 376.7,140.4 378,138.4 379.9,136.1 383.5,132.9 386.5,130.8 391.6,127.8 394.3,126.4 398.4,123.9 404.7,119.3 409.2,115.3 420.4,103.7 425.9,99 428.4,97.3 431.5,95.5 437.5,91.5 441.3,88.6 448.2,83.8 456.6,79.1 461,77.1 466.5,74.9 475.1,72 481.2,69.7 498.8,61.9 504.4,59.8 507.9,58.7 517.1,56.2 536.4,51.7 549.8,48.3 557.9,46.1 563.6,44.3 582.1,39.2 590.8,36.9 599.6,34.8" fill="none" stroke="#000000" stroke-width="1"/><polyline id="SvgjsPolyline5364" points="348.5,505.4 348.6,495.2 349.1,476.6 350.1,458.6 349.8,453.8 348.7,447.9 348.3,444.4 348.5,423.4 349.1,399.4 349.9,383.2 350.8,371.8 351.9,362.3 353.8,351 354.3,345.7 354.3,333.7 353.2,320.5 351.1,304.4 348,286.7 346,277.3 342.1,260.4 338.2,237.9 336.2,222.4 335.6,215.8 335.2,208.7 335.2,199.7 335.5,194.9 336.4,188.3 337.5,183.7 339.6,178 341.5,174.3 343.5,171.3 345,169.4 346.8,166.3 347.7,164.1 348.4,161.8 348.8,158.8 348.6,154.6 347,146.4 346.5,142.2 346.8,138.6 347.1,137.4 348,135.2 349.2,133.1 351.5,130.4 354.7,127.6 358.1,125.2 363.8,121.9 375.2,116.4 381.5,113 382.1,112.8 385.2,111 391.2,107 394.5,104.3 398,101.1 403.9,94.3 409.4,87.2 412.6,83.6 414.3,82 416.6,80 419.6,77.9 423.7,75.5 428,73.4 434.7,70.7 439.2,69.1 448.4,66.2 459.3,63 468.4,59.8 471.2,58.7 477.2,56 484.2,52.5 489.6,50 505.4,44.2 521.6,37.9 532.4,34.2 545.6,30.3 553.6,27.7 563.5,25 575.2,22.5 589.4,20 599.9,17.6" fill="none" stroke="#000000" stroke-width="1"/><polyline id="SvgjsPolyline5365" points="353.2,353.6 353.7,350.7 354.1,346.5 354.3,338.7 353.9,330.3 352.8,319 351.3,307.7 349.8,298.2 348.5,291.1 346.4,281.1 343.3,268.3 340.6,256 337,237.1 333.5,215.8 331.1,197.4 329.9,184.2 329.5,176.4 329.5,166.8 329.7,162.6 329.4,160.2 328.6,157.4 327.4,154.6 326,151.9 321.5,144.2 320.2,141.4 318.5,136.3 317,132.4 314.7,127.5 312,122.8 308.2,117.4 301.9,110.2 291.5,100.2 284.4,92.9 280.3,89.4 269.1,81.3 265.5,78.1 263.1,75.4 261.6,72.8 261,71.1 260.8,69.9 260.8,67.6 262.8,56.3 262.7,53.9 262.2,52.2 261,50.1 259.8,48.7 257.7,46.7 254.2,44.2 250.7,42.1 247,40 241.6,37.3 235.3,33.9 227.6,29.2 221.1,26.1 209,21 203,18.1 199.4,16 195.9,13.6 193.6,11.7 191.6,10.3 188.5,8.5 183.6,6.2 178.6,4.2 173.5,2.4 166.1,0.1" fill="none" stroke="#000000" stroke-width="1"/><polyline id="SvgjsPolyline5366" points="349.7,386 350.1,379.4 351.1,368.1 351.9,361.5 353.5,352 354.2,344.9 354.3,340.7 354.2,335.9 353.9,330.5 353.2,322.7 351.3,307.8 348.6,291.9 346,279.5 343,267.3 340.8,257.3 336.8,236.7 333.9,219.6 331.8,205.9 329.6,188.7 328.7,180.3 327.9,170.7 327.4,161.8 326.7,158.8 326.1,157.1 324.8,154.4 322.4,150.3 318.2,143.7 315.9,138.8 313.9,135.1 312.3,132.6 309.9,129.1 307.3,125.8 302.1,120 287,105.4 283,101 278.4,95.4 276.2,93.4 270.4,89.1 257.3,80.6 253.1,77.2 250.3,74 248.8,71.5 248,69.2 247.7,67.4 247.7,65 248.2,59.6 248.2,57.2 247.8,54.9 247.1,53.2 246.1,51.7 244.9,50.3 243.2,48.7 239.3,45.9 232.4,42.2 217.1,35.3 206.6,31 201.1,28.5 198.4,27.1 194.8,25 192.3,23.3 188.1,19.9 184.3,16.1 181.6,13.7 176.1,10.1 171.7,8 167.9,6.4 159.4,3.4 147.9,0" fill="none" stroke="#000000" stroke-width="1"/><polyline id="SvgjsPolyline5367" points="347.3,286 345.8,278.9 341.2,259.7 335.8,232 330.6,200.6 325.8,167.4 324.7,160.9 324.2,159.1 322.7,155.8 320.3,151.7 315.5,144.8 313.7,141.7 311.4,138.2 307.4,132.9 300.5,125.4 289.6,115.1 285,110.4 280.6,105.4 278.4,102.6 275.8,98.6 274.2,96.7 271.6,94.3 268.2,91.7 262.2,87.8 257,84.8 250.9,81 247.5,78.6 243.8,75.5 241.8,73.2 240.2,70.7 237.7,64 235.6,60.3 234.9,59.4 233.4,57.5 229.9,54.2 227.5,52.4 223.9,50.2 216.9,46.8 206.9,42.7 194,37.8 186.6,35.2 177.1,31.5 167.8,27.3 161,23.5 155.5,21.1 151,19.5 144.7,17.6 129,13.3 121.6,10.9 117.1,9.2 109.7,6.9 96.3,3.4 81.7,0.1" fill="none" stroke="#000000" stroke-width="1"/><polyline id="SvgjsPolyline5368" points="235.9,600 228.3,596.3 222.1,592.7 218.7,590.2 216.5,588.2 212.3,583.9 209.1,580.3 204.9,575.2 203.1,573.6 201.2,572.2 199.1,570.9 194.9,568.7 189.4,566.3 186,565 174.7,561.1 159.8,556.4 135.6,549.3 126.6,546 120.5,543.4 111.3,539.1 107.4,537.5 101.7,535.5 98.3,534.5 91.9,532.9 79,530.1 72,528.3 65.1,526.3 55.8,524 46.4,521.9 25.2,517.7 0.4,513.4" fill="none" stroke="#000000" stroke-width="1"/><polyline id="SvgjsPolyline5369" points="478.8,599.9 484.7,597 490.8,594.5 505.1,589.8 514,586.3 521.9,583.5 531.2,581.1 544.2,578.5 549.4,577.3 557,575.3 564.4,573 569.1,571.8 588.4,567.5 599.5,564.8" fill="none" stroke="#000000" stroke-width="1"/><polyline id="SvgjsPolyline5370" points="354.2,334.7 353.5,325.1 352.8,318.5 351.3,307.2 348.8,292.4 346.4,280.7 342.1,262.6 340.3,253.8 338.3,243.2 336,229.6 334,216.5 332.4,202.8 331.7,194.4 331.4,188.4 331.5,177 331.9,172.3 333.3,164.6 333.4,161 332.7,157.4 331.7,154.6 330.2,151.3 326.9,144.9 326.2,143.3 325.3,140.4 324.9,138 324.9,130.2 325.2,125.5 325.6,121.9 326.4,117.1 327.9,111.9 329.8,107.5 331.6,104.4 333.4,102 334.8,99.4 335.5,96.5 335.4,93.5 335,91.7 334.2,89.4 332,84.5 331,81.7 330.6,79.3 330.7,77.5 331.1,75.7 331.6,74.6 332.5,73.1 334.5,70.8 337.7,68.1 339.6,66.7 344.2,63.9 353.7,58.6 361.4,54 364.3,51.8 366.1,50.2 368.8,47.1 370,45 370.8,42.7 371.9,37.4 372.4,35.7 373.4,33.5 374.6,31.4 376.3,27.6 378.5,21.4 380.7,14.5 382,11.2 383.2,8.4 385.3,4.8 387.3,1.8 388.1,0.1" fill="none" stroke="#000000" stroke-width="1"/><polyline id="SvgjsPolyline5371" points="339.4,248.5 337.6,238.4 337.4,237.9 334.7,220.7 333,207 332.1,196.2 331.8,189.6 331.8,182.4 332,178.2 332.5,173.4 333.1,169.9 334.4,164.6 334.6,162.2 334.5,160.5 333.8,156.9 332.8,154.1 332.1,152.4 328.4,144.9 327.4,142.1 326.9,140.3 326.6,137.9 326.7,135.5 327.8,129 328.4,126.7 330,122.2 332.9,116.9 334.7,114.5 336.3,112.7 339.8,109.5 344.6,105.8 347.3,103.4 349.7,100.8 351.4,98.3 352.4,96.1 353.1,92.6 353,89 352.4,83.6 352.5,81.2 352.9,79.4 353.5,77.8 354.1,76.7 356.4,73.9 358.6,71.9 362.6,69.2 365.7,67.4 369.1,65 374.2,60.7 377.4,57.2 379.2,54.8 382.3,49.6 389.1,34.9 391.5,30.8 393.7,27.9 397.6,24.2 400.6,22.1 402.6,20.9 408,18.3 424.4,12.3 429.4,10.3 435.4,7.6 440.2,5.1 447.8,0.3" fill="none" stroke="#000000" stroke-width="1"/><polyline id="SvgjsPolyline5372" points="338.8,244.9 336.1,229.5 334.4,217.7 333,205.1 332.2,192.6 332.2,184.2 332.6,178.2 333.7,171.1 334.6,167.6 335.2,165.9 335.6,163.5 335.6,159.9 335.3,158.1 334.1,154.1 330.1,145.4 328.9,142 328.3,138.4 328.4,136 329.1,133.1 329.8,130.8 330.9,128 331.7,126.4 333.5,123.3 334.9,121.3 338.5,117.3 340.3,115.7 344.1,112.8 347.1,110.8 349.7,109.3 355.2,105.6 359.4,102.2 362.6,98.6 363.9,96.6 365.4,92.7 366.1,89.2 366.6,84.4 367,82.6 367.8,80.4 369,78.3 370.9,76 373.6,73.6 376.9,71 379,68.9 382.9,64.3 384.6,61.8 386.7,58.2 391.9,48 394,44.4 399.3,36.4 402.1,33.3 403.5,32.1 408.5,28.8 415,25.7 421.7,23.1 434.8,18.7 443.1,15.2 448.4,12.3 460.1,5.1 469.7,0.1" fill="none" stroke="#000000" stroke-width="1"/><polyline id="SvgjsPolyline5373" points="348.4,433.7 348.6,417.5 349,401.9 349.8,384.5 350.7,372.6 351.6,364.2 354,348.8 354.4,341 354.3,335.6 354,330.2 353.3,322.4 352.4,314.7 350.9,304 348.2,288.6 346.2,279.2 342.1,261.7 339.8,249.9 336.5,230.4 334.3,213.1 333.6,204.8 333.3,198.8 333.3,189.8 333.8,183.2 334.9,176.7 335.5,174.4 336.6,170.9 338.7,166 339.5,162.4 339.4,158.3 338.8,155.3 337.7,151.9 334.9,144.6 334.1,141.1 334,138.1 334.4,135.7 335,134 335.9,132.4 337.2,130.5 339.2,128.2 342.3,125.4 347.1,121.8 351.7,119 357,116.1 374.2,107.5 381.4,103.3 384.4,101.3 387.3,99.1 389.5,97.1 392.7,93.5 395.4,89.5 397.2,86.4 402.7,78.5 405.6,74.7 407.2,72.9 411.1,69.2 413.5,67.4 416.5,65.4 421.3,62.9 427.4,60.4 446.8,54 456.4,50.5 466.3,46.3 475.9,41.3 487.2,35.8 493.3,33.3 501.3,30.5 512.2,27.3 526.8,23.7 534.8,21.3 546.2,17.5 553.1,15.5 560.7,13.7 586.6,8.5 599.5,5.6" fill="none" stroke="#000000" stroke-width="1"/><polyline id="SvgjsPolyline5374" points="351.1,368.7 352.2,359.8 353.8,350.3 354.2,346.1 354.3,336.5 353.7,326.9 352.1,312.6 351,304.9 349,293.1 346.6,281.3 341.7,260.3 340.2,252.6 335.9,227.8 334.2,215.3 332.9,202.2 332.5,195 332.5,185.4 333.2,177 334.5,170.5 336.3,164.8 336.6,162.4 336.6,160.6 336.3,158.2 335.5,155.3 334.5,152.5 330.9,144.3 329.9,140.8 329.7,139 329.8,136 331.1,132 332.4,129.3 335.3,124.8 338.1,121.6 341.6,118.4 343.5,116.9 347.5,114.2 357.4,108.5 362.4,105.3 366.3,102.4 369.4,99.6 370.2,98.7 372.6,95.3 373.9,92.5 374.8,89.7 376,85.1 377.4,81.7 378.7,79.7 384.8,73.1 387.3,69.7 390.4,64.6 394.5,57.2 396.7,53.7 398.9,50.8 400.5,49 404.5,45.4 412,36.8 415.1,34 418.1,31.9 420.1,30.7 424.4,28.5 429.4,26.4 440.1,22.5 445.6,20.1 450.4,17.5 462.7,10.2 468.2,7.6 475.4,4.7 485.2,0.1" fill="none" stroke="#000000" stroke-width="1"/><polyline id="SvgjsPolyline5375" points="339.8,251.4 337.9,241.4 335,224.3 333.3,212.4 331.8,199.3 331.2,192.1 330.8,184.3 330.9,173.5 331.4,168.1 331.9,165.2 332.1,162.8 331.7,159.2 330.4,155.2 328.6,151.4 325.4,145.6 324.2,142.9 323.2,140 321.3,127.6 319.9,120.5 318.9,116.4 317,110.1 315.5,106.2 313.2,101.3 311.1,97.7 309.1,94.7 306.9,91.8 304.9,89.5 301.7,86 298.3,82.6 293.9,78.5 290.1,74.7 287.6,72.1 284.1,68 281.3,64.1 278.6,59.4 276.7,55 275.2,50.4 274,48.4 272,46.1 267.3,42.4 263.8,40.1 255.1,34.8 252.1,32.7 248.9,30 247.7,28.7 246.6,27.2 246,26.2 244.9,23.4 242.1,18.8 240.1,16.6 237.4,14.2 232.9,11.2 227,8.2 218.2,4.4 214.4,2.6 208.3,0.1" fill="none" stroke="#000000" stroke-width="1"/><polyline id="SvgjsPolyline5376" points="351.6,310.6 350.8,304.7 348.2,289.9 345.5,277.6 341.2,259.5 338.6,246.6 335.3,228.9 333.2,216.4 330,195.1 327.2,173.7 326,162.9 325.6,160.6 325.1,158.8 323.1,154.5 320.9,150.9 315.9,143.4 315.7,142.8 313.3,138.7 309.9,133.7 307.3,130.4 302.1,124.6 290.4,113.4 284.1,107 280.2,102.4 276.7,97.5 275.1,95.8 271.9,93 268,90.2 257.3,83.6 250.3,78.9 247.1,76.2 245.4,74.5 243.1,71 242.7,69.9 242.3,68.7 241.6,64.6 240.7,61.1 239.2,57.2 237.1,53.5 235.5,51.7 233.3,49.7 231.3,48.3 226.7,45.6 222.4,43.5 215.8,40.6 199.6,34.1 193.6,31.4 189.3,29.2 184.7,26.5 182.2,24.8 180.3,23.3 173.6,17.3 170.6,15.2 166,12.5 159.9,9.9 153.6,7.8 138.7,3.5 125.9,0.1" fill="none" stroke="#000000" stroke-width="1"/><polyline id="SvgjsPolyline5377" points="211.6,599.9 200,595.1 196.7,593.6 191.4,590.8 186.4,587.5 182.3,584 178.5,581.1 172.3,577.4 168.5,575.6 163.5,573.6 157.2,571.5 137,565.6 126.1,562.6 93.4,554.6 77.6,551.1 63.1,547.3 51.6,544 42.8,541.8 31.7,539.4 22.2,537.7 21.7,537.5 0.4,533.9" fill="none" stroke="#000000" stroke-width="1"/><polyline id="SvgjsPolyline5378" points="512.1,599.9 523.4,595.8 530.9,593.5 541.9,590.6 553,588 566.8,584 576.8,581.8 590.4,579.4 595.1,578.4 599.7,577.2" fill="none" stroke="#000000" stroke-width="1"/><polyline id="SvgjsPolyline5379" points="336.8,234.8 334.7,221.8 333.3,211.7 332.1,201 331.2,188.4 331.2,175.8 331.8,169.2 332.7,163.9 332.7,160.9 332.4,159.1 331.6,156.3 330.2,152.9 327.1,147.1 325.3,143.3 324.3,140.5 323.9,138.1 323.4,131.5 322.8,118.3 322.9,107.5 323.2,103.3 323.9,98 323.3,94.4 321.9,91.1 317.3,84.1 315.8,81.5 314.1,77 311.5,71.6 309.3,68 306.8,64.6 303.3,60.5 291.4,48.7 286.5,43.4 284.7,41.8 278.5,37.1 275.2,34.4 273.5,32.8 271.5,30.5 270.3,28.4 269.9,27.3 269.7,26.1 269.7,24.9 271.7,13.1 271.8,11.9 271.4,9.5 270.3,7.4 268.3,5.2 265.5,2.9 261.4,0.3" fill="none" stroke="#000000" stroke-width="1"/><polyline id="SvgjsPolyline5380" points="353,320.4 351.9,311.5 350,299 346.8,282.5 342.1,262.7 340.3,253.9 338.2,242.7 335,223.7 333.5,213 332.1,200.5 331.5,192.7 331.2,186.1 331.2,178.9 331.4,174.7 331.8,170.6 333,163.4 333,161.6 332.8,159.9 331.9,156.4 331,154.1 326.9,146.1 325.3,142.3 324.6,140 324.2,137.6 324.1,135.8 323.9,130.4 323.9,120.8 324.4,113.6 325.7,106.5 328,99.7 328.3,97.9 328.3,96.1 327.6,93.2 326.4,90.5 322.2,83.2 321.5,81.5 321,79.8 320.8,77.4 321.3,72.6 322.2,67.9 324.3,61.7 325.4,59.5 327.3,56.5 331.2,51.9 332.1,50.3 332.9,48.1 333,45.7 332.7,43.9 331.9,41.6 329.8,37.3 328.8,34.5 328.5,32.7 328.5,31.5 328.7,30.3 329.1,29.2 330.3,27.1 332.4,24.9 334.2,23.4 340.2,19.4 349,14.2 353.4,11.1 355.2,9.5 357.2,7.2 358.1,5.7 358.9,3.4 359.1,0.4" fill="none" stroke="#000000" stroke-width="1"/><polyline id="SvgjsPolyline5381" points="331.6,193.9 331.2,184.9 331.3,177.1 331.8,171.1 333,164 333.1,162.8 333,161 332.5,158.1 331.1,154.1 327,146.1 326,143.9 324.8,140.5 324.3,136.9 324.1,130.9 324.2,121.9 324.6,116.6 325,113.6 326.3,107.7 327.5,104.3 329,101 329.6,99.3 329.8,98.2 329.8,95.8 329.1,92.9 328.4,91.2 324.4,83.8 323.5,81.6 322.9,78.6 323.1,76.2 324.2,72.8 325.4,70.1 326.9,67.5 328.7,65 332.4,61.1 334.7,59.2 339.6,55.7 342.3,53.3 344.3,51.1 346.1,48 346.7,45.7 346.8,44.5 346.7,42.7 345.3,35.6 345.3,33.8 345.5,32.6 346.1,30.9 347,29.4 349.4,26.7 351.3,25.2 355.3,22.5 358.1,20.3 361.1,17.4 363.1,15.1 364.5,13.1 366.6,9.5 368.4,5.1 369.4,2.2 369.8,0.5" fill="none" stroke="#000000" stroke-width="1"/><polyline id="SvgjsPolyline5382" points="331.3,179.5 331.4,176.5 331.9,171.1 333.2,163.4 333,159.8 332.3,156.9 331,153.6 327.4,146.6 325.9,143.3 325.1,141.1 324.5,137.5 324.4,127.3 324.7,121.3 325.1,117.7 325.8,113.6 326.7,110.1 327.9,106.7 331.2,100.3 331.7,98.6 331.9,96.8 331.5,93.8 331,92.1 330.3,90.4 327,84 326,81.2 325.7,79.4 325.7,77.6 325.9,76.4 326.5,74.7 328.4,71.7 329.9,69.8 333.3,66.4 336.6,63.8 339.1,62.1 345.8,58.1 349.3,55.8 351.7,54 354.8,51.2 356.7,48.8 357.3,47.8 358.2,45 358.5,43.2 358.6,35.4 359.5,32.5 361.1,30 364.5,26.6 367.1,23.3 369.8,18.6 371,15.9 372.8,10.8 375.6,0.3" fill="none" stroke="#000000" stroke-width="1"/><polyline id="SvgjsPolyline5383" points="349.3,396.1 349.7,385.9 350.9,370.4 351.7,363.2 353.8,350.2 354.1,347.2 354.3,343.6 354.3,337 353.5,325 351.8,310.7 348.7,291.8 346.9,283 342.5,264.3 340.3,253.7 338.6,244.2 338.4,243.7 336.2,230.7 334.2,217.6 332.5,203.3 331.9,196.1 331.5,187.7 331.5,181.1 331.7,176.9 332.1,172.8 333.7,163.9 333.8,162.7 333.7,160.3 332.9,156.8 332.1,154.5 327.6,145.4 325.9,140.9 325.5,138.5 325.4,136.7 325.6,132.5 326.1,127.1 326.8,123 327.7,119.5 329.1,115.6 330.7,112.3 333.8,107.9 337.5,104 339,102.1 340.3,100.1 341,98.4 341.5,96.1 341.5,93.7 340.8,90.1 338.9,84.4 338.4,81.5 338.4,79.7 338.9,77.3 340.3,74.7 341.9,72.8 344.5,70.4 348,68 357.9,62.4 363.5,58.9 368.3,55.3 371.7,52 374.8,48.3 376.8,45.3 377.8,43.1 379.7,37.4 384.1,26.2 386.1,21.9 388.6,17.8 390.9,15 394,12.2 397.5,9.8 400.6,8 403,6.3 407.1,2.7 409,0.4" fill="none" stroke="#000000" stroke-width="1"/><polyline id="SvgjsPolyline5384" points="353.1,354.2 353.5,352.4 354.2,345.8 354.3,336.8 353.7,327.2 352.7,317.7 351,305.2 348.9,292.8 347,283.4 341.8,261.2 340.5,254.7 338.6,244.7 335.3,225.2 333.8,214.5 332.9,206.7 332,196.6 331.6,188.2 331.6,181.6 332.2,173.2 333.1,167.9 334,163.7 334,160.8 333.3,157.2 332.1,153.8 327.6,144.6 326.1,140.1 325.8,137.7 325.9,134.7 326.3,130.5 327.2,125.2 328.1,121.7 329.1,118.9 331.5,114.1 333.2,111.6 335.5,108.8 340.3,104.3 342.7,101.6 344.2,99 344.6,97.9 345.1,96.1 345.1,91.9 344.5,89 343.4,84.9 343.1,83.2 343,80.8 343.3,79 343.7,77.8 344.4,76.2 345.1,75.2 346.2,73.8 347.9,72.1 349.8,70.6 352.3,68.9 361.6,63.5 367.1,59.8 371.2,56.3 373.7,53.7 376.3,50.4 379.4,45.3 380.7,42.5 382.1,38.6 384.8,31.9 387.1,27 389.9,22.4 391.8,20.1 393.5,18.4 395.8,16.5 398.8,14.5 402,12.8 409.6,9.2 412.7,7.4 417.6,3.9 420.7,1.1 421.5,0.2" fill="none" stroke="#000000" stroke-width="1"/><polyline id="SvgjsPolyline5385" points="339.3,247 336.8,232.8 334.8,218.6 333.9,210.2 333.3,203 333,197 333,188.6 333.4,182.6 333.7,180.3 334.4,176.1 335.1,173.2 336,170.3 337.7,165.9 338.2,164.1 338.5,161.1 338.4,159.3 337.4,154.6 336.4,151.8 334.5,147.4 333.1,143.4 332.8,142.3 332.4,139.3 332.6,136.3 332.9,135.1 333.8,132.9 336.1,129.4 338.1,127.1 341.5,123.8 344.8,121.2 347.3,119.5 353,116.1 370,107.2 375.6,103.8 378.1,102.1 381.8,99.1 383.5,97.4 385.9,94.6 388.4,90.6 390.8,85.7 391.7,84.2 394.9,79.8 400.1,71.8 403.3,67.4 405.7,64.7 408.8,61.9 413.8,58.5 418.1,56.3 428.6,52 435.7,48.7 439.4,46.7 444.5,43.6 451.5,38.9 456.6,35.8 460.9,33.6 471.9,27.5 477.9,24.8 484.2,22.6 488.2,21.4 496.9,19.2 509.8,16.3 517.9,14.2 524.8,12.1 532.7,9.3 541.3,6.5 550,4.1 563.8,0" fill="none" stroke="#000000" stroke-width="1"/><polyline id="SvgjsPolyline5386" points="347.8,287.5 345.5,276.9 341.5,260 338.2,242.9 334.3,219.2 333.1,210.3 332.1,201.3 331.4,193 331,184.6 331,178 331.2,173.8 331.6,169.6 332.5,164.3 332.6,162.5 332.4,160.1 331.3,156 329.6,152.2 326.2,145.8 325.2,143.6 324.5,142 323.9,139.7 323.4,136.1 322.7,128.3 320.2,98.4 319.5,94.9 318.5,92.7 316.6,89.7 313.3,85.4 309.7,79.9 306.8,76 301.6,70.2 293.8,62.7 288.4,57.1 285,52.9 281.7,47.9 280.5,46.5 277.9,44.1 275.5,42.2 267.1,36.5 263.7,34 260.6,31.2 259.1,29.3 258,27.2 257.5,24.8 257.5,23.6 258,20.7 259.4,16.1 259.7,14.3 259.7,12.5 259.5,11.3 259.1,10.2 258.5,9.1 257.4,7.7 255.2,5.6 252.3,3.5 246.6,0.2" fill="none" stroke="#000000" stroke-width="1"/><polyline id="SvgjsPolyline5387" points="183.5,599.8 182.9,599.7 167.6,594.3 159.2,591.2 135,584.1 127.1,581.2 122.7,579.3 117.3,576.7 112.9,574.9 104.4,571.9 99.8,570.5 89.3,567.9 60.6,561.7 0.4,550.3" fill="none" stroke="#000000" stroke-width="1"/><polyline id="SvgjsPolyline5388" points="554.8,599.9 565.2,596.8 575.6,594.1 584.4,592.1 591.5,590.7 599.6,588.8" fill="none" stroke="#000000" stroke-width="1"/><polyline id="SvgjsPolyline5389" points="331.1,182.5 331.4,174.1 331.9,169.3 332.8,164.6 332.8,160.4 332.3,158.1 330.9,154.1 326,144.5 324.7,141.1 324.1,138.2 323.8,132.8 323.5,122.6 323.7,114.8 324.2,109.4 324.8,105.8 325.6,102.3 326.5,99.5 326.7,98.3 326.6,95.9 326.1,94.1 325,91.4 320.1,83.1 318.8,79.7 317.7,70.8 316.5,63.7 314.9,57.3 313.1,52.2 311.4,48.4 309.3,44.8 307.2,41.8 301.5,35.6 291.7,25.9 288.9,22.8 285.3,18 283.5,14.9 281.9,11.6 280.7,8.3 279.5,6.2 278.3,4.8 276.1,2.8 272.7,0.3" fill="none" stroke="#000000" stroke-width="1"/><polyline id="SvgjsPolyline5390" points="328,148.3 325.4,142.9 324.5,140 324.1,137 323.7,126.9 323.8,117.9 324.3,111.9 325.3,106 326.1,103.1 327.3,99.7 327.5,98.5 327.4,95.5 326.9,93.7 326,91.5 325.2,89.9 322.1,84.8 320.7,82.1 320.1,80.4 319.7,78 319.8,67.8 320.3,61.9 321.4,56 323.5,49.7 323.6,47.9 323.3,46.1 322.5,43.9 320.7,40.8 318,36.8 316.9,34.6 316.3,32.9 315.9,30.6 315,22.8 314.1,18.1 312.9,13.5 311.5,9.5 309.7,5.7 308.5,3.7 307.1,1.7 305.9,0.3" fill="none" stroke="#000000" stroke-width="1"/><polyline id="SvgjsPolyline5391" points="332.1,168.7 333,162.8 332.9,161 332.5,158.6 331.2,154.6 329.4,150.8 326.3,145 325.4,142.8 324.6,140.5 324.1,136.9 323.7,124.9 323.8,118.9 324.1,114.1 324.7,109.4 325.3,106.4 325.9,104.1 327.4,99.6 327.7,97.8 327.6,96 327.4,94.8 326.4,92 325.3,89.8 322.2,84.7 321.1,82.5 320.1,79.7 319.9,77.9 320.2,68.3 320.5,65.4 321.3,60.6 322.2,57.1 322.8,55.4 325.1,50.5 325.4,49.4 325.5,48.2 325.4,47 325.2,45.8 324.6,44.1 323.2,41.4 320.6,37.4 319.5,35.2 318.9,33.5 318.6,31.8 319.1,28.2 320,24.7 320.6,23 322.4,19.2 324.9,15.8 329.8,10.6 330.8,9.1 331.3,8 331.8,6.2 331.8,4.5 331.4,2.7 330.5,0.5" fill="none" stroke="#000000" stroke-width="1"/><polyline id="SvgjsPolyline5392" points="334,216.3 333.3,211.5 332,199.6 331.2,186.4 331.2,178.6 331.4,174.4 332,169 332.9,164.3 333,163.1 332.9,160.7 332.3,157.8 331.1,154.4 325.5,143.1 324.7,140.8 324.1,136.7 323.8,129.5 323.8,120.5 324.2,113.9 325.1,107.9 325.6,105.6 327.5,99.9 327.8,98.1 327.8,96.3 327.5,94.6 326.2,91.2 321.7,83.4 321.2,82.3 320.4,80 320.1,77.7 320.6,69.3 321.4,63.9 321.8,62.2 323.5,57.1 324.3,55.4 326.5,51.8 327.2,50.2 327.5,48.4 327.5,46.6 326.4,43.2 324.7,40 323.4,38 322.1,35.3 321.7,34.2 321.4,32.4 321.4,31.2 321.6,30 322.3,28.3 323.8,25.8 326,22.9 328.1,20.8 330.4,18.8 332.8,17 336.3,14.7 339.6,12.1 341.7,9.9 343,7.9 343.6,6.2 343.8,5 343.7,2.6 343.2,0.3" fill="none" stroke="#000000" stroke-width="1"/><polyline id="SvgjsPolyline5393" points="146.1,599.9 132.3,595.9 130.5,595.5 119.6,592.2 101.5,585.9 95.7,584.3 78.7,580.5 71.7,578.7 62,575.6 52.8,573 42.8,570.8 33.4,569.1 22.8,566.9 0.3,562.9" fill="none" stroke="#000000" stroke-width="1"/><polyline id="SvgjsPolyline5394" points="350.3,301.2 348.9,292.9 347.5,285.8 341.8,261.3 338.8,246 335.6,227.6 333.1,209.8 331.9,198.5 331.2,187.1 331.3,175.7 331.8,170.3 332.9,163.8 332.8,160.2 332.3,157.9 331.3,155 330.1,152.3 328.1,148.6 325.5,143.2 324.7,140.9 324.2,138.6 323.7,128.4 323.7,118.8 323.9,115.2 324.3,111 325.2,105.7 325.8,103.3 327,99.9 327.3,98.2 327.3,97 326.9,94.6 326.1,92.3 325.6,91.2 321.6,84.5 320.5,82.4 319.7,80.1 319.4,78.4 319.1,71.2 319.1,60.4 319.5,53.8 320.2,49 319.9,46.6 319.3,44.9 317.5,41.8 313.3,36 309.8,29 306,23.6 302.8,20 293,10.3 289.4,6.3 287.5,3.9 283.5,0.3" fill="none" stroke="#000000" stroke-width="1"/><polyline id="SvgjsPolyline5395" points="105.3,599.9 73.2,592.5 65,590.4 50.6,586.4 27.6,581.8 10.8,577.4 0.3,574.9" fill="none" stroke="#000000" stroke-width="1"/><polyline id="SvgjsPolyline5396" points="54.9,600 24.8,594.2 0.1,589.2" fill="none" stroke="#000000" stroke-width="1"/></g></svg>